<svg xmlns="http://www.w3.org/2000/svg">
<defs>
<font id="GTSectraFine-BlackItalic" horiz-adv-x="620" >
  <font-face 
    font-family="GTSectraFine-BlackItalic"
    font-weight="950"
    font-style="italic"
    font-stretch="normal"
    units-per-em="1000"
    panose-1="2 0 5 3 8 0 0 9 0 3"
    ascent="750"
    descent="-250"
    x-height="493"
    cap-height="701"
    bbox="-185 -255 1843 1008"
    underline-thickness="50"
    underline-position="-150"
    unicode-range="U+000D-FB04"
  />
<missing-glyph horiz-adv-x="655" 
d="M447 -28l-24 18h-14l-8 8l7 76l-4 47l-61 1l-3 -52l-2 -56v-20l-15 -6l-8 6l-30 -10h-32l-1 11l11 11l50 21l-6 96l-98 -6l-147 140l-4 115l-13 10l-10 36v26l15 8l-3 78l92 -62l9 47l10 36l22 35l28 35l39 29l40 15l38 14h22l-68 22l4 17h7l79 -20l-4 51l16 12h32l19 -5
l29 -25l32 -8l32 -10l15 -13v-20l-20 -31l30 -28l28 -32l18 -34l15 -41l9 -54l-3 -41l-8 -35l-12 -31l-3 -156l-21 -7l-50 70l-27 -7l-19 -140l-32 4l-7 -4l-4 -94l30 -19l16 -14l-3 -15zM510 399l-4 7h-205l-66 -3l-7 -9l-6 -44l-48 20l-11 -4l57 -27l1 -45l-5 -73v-91
l18 4l2 40l41 -3l3 9l-44 6v16l48 -6l1 9l-47 7l1 22l43 -3l3 6l-45 9l3 94h74l11 10h-79l2 9h74l8 7h-82l2 22l117 4l140 -4v11zM191 569l29 12l13 -15l-17 -20l-10 -3l17 -3h5l36 24h32l18 -12l8 3l4 14l7 5l10 -4v-18h8l10 22l11 8l-5 6l-3 8l1 21l-30 -10l-10 -8l-8 5
l4 21l14 10l11 11l38 -2l12 13l-4 8h-49l-45 -13l-53 -26l-29 -23zM601 465l-8 37l-19 50l-20 36l-23 28l-34 21h-11l17 -19l25 -10l11 -11l3 -33l-25 13l-15 -29l12 -8v-19l15 3l-12 26l15 -5l10 -20l-5 -12l-8 -7h-23l-3 11l-12 2l1 -22h-14l14 -18l-7 -10l-21 5l-3 -27
l41 6l8 17l22 -2l6 -28l-16 -13v-15l8 -6l18 12h23l6 11l-18 6l-5 9l9 42h7l14 -20zM87 434l57 -32l7 10l-68 38v18l59 -34l43 -28l28 -14l3 10l-103 64l-13 7l-41 33l2 -78l19 -17v-5h-21l19 -14l1 -11l-20 7l18 -18l-4 -7l3 -97l11 -12v180zM496 331l-54 1l-1 -24v-6
l-2 -31l19 -3l-8 -61l-48 3l-8 -6l51 -5l-2 -9h-49l-4 -5l53 -7l-6 -35l27 -1l12 79l4 36l-15 3l-1 8l20 1l5 3l-28 16l2 5l30 -6l-30 15l5 5l21 -5l4 10zM191 331l-66 39v-7l-2 -13l1 -27v-48l64 -44l-1 60zM365 214l-64 4v-51l64 -6v53zM517 306l8 -6l8 2l20 15l13 13

<glyph glyph-name="ff" unicode="ff" horiz-adv-x="665" 
d="M271 421l-70 -397q-4 -24 -16.5 -46t-31.5 -42.5t-43.5 -40t-51.5 -38.5l-126 -92h-68l24 136h118q11 15 18.5 39.5t12.5 49.5l75 431h-80l5 22l27 24h56l2 16q10 50 42.5 91.5t75.5 66.5l127 74h207l-178 -113h-77q-12 -10 -18.5 -30.5t-11.5 -42.5l-11 -65h148l4 19
q9 50 41.5 91.5t75.5 66.5l127 74h101l-20 -113h-129q-11 -10 -18.5 -30.5t-10.5 -42.5l-11 -65h99l-8 -43h-99l-69 -397q-9 -49 -48.5 -88.5t-94.5 -78.5l-126 -92h-57l24 136h106q11 15 19 39.5t12 49.5l75 431h-148z" />
    <glyph glyph-name="fi" unicode="fi" horiz-adv-x="624" 
d="M319 602q-12 -10 -18.5 -30.5t-11.5 -42.5l-11 -65h143l115 32l46 -40l-70 -396l84 55l16 -21l-152 -110l-114 44l71 401l-26 -8h-120l-70 -397q-4 -24 -16.5 -46t-31.5 -42.5t-43.5 -40t-51.5 -38.5l-126 -92h-68l24 136h118q11 15 18.5 39.5t12.5 49.5l75 431h-80l5 22
l27 24h56l2 16q10 50 42.5 91.5t75.5 66.5l127 74h260l-20 -113h-288z" />
    <glyph glyph-name="fl" unicode="fl" horiz-adv-x="638" 
d="M425 464l26 150l-34 -12h-98q-12 -10 -18.5 -30.5t-11.5 -42.5l-11 -65h147zM348 28l69 393h-146l-70 -397q-4 -24 -16.5 -46t-31.5 -42.5t-43.5 -40t-51.5 -38.5l-126 -92h-68l24 136h118q11 15 18.5 39.5t12.5 49.5l75 431h-80l5 22l27 24h56l2 16q10 50 42.5 91.5
t75.5 66.5l127 74h232l27 -20l-112 -636l85 56l17 -21l-153 -110z" />
    <glyph glyph-name="ffi" unicode="ffi" horiz-adv-x="932" 
d="M820 60l84 55l16 -21l-152 -110l-113 44l70 401l-26 -8h-121l-69 -397q-9 -49 -48.5 -88.5t-94.5 -78.5l-126 -92h-57l24 136h106q11 15 19 39.5t12 49.5l75 431h-148l-70 -397q-4 -24 -16.5 -46t-31.5 -42.5t-43.5 -40t-51.5 -38.5l-126 -92h-68l24 136h118
q11 15 18.5 39.5t12.5 49.5l75 431h-80l5 22l27 24h56l2 16q10 50 42.5 91.5t75.5 66.5l127 74h207l-178 -113h-77q-12 -10 -18.5 -30.5t-11.5 -42.5l-11 -65h148l4 19q9 50 41.5 91.5t75.5 66.5l127 74h261l-20 -113h-289q-11 -10 -18.5 -30.5t-10.5 -42.5l-11 -65h142
l116 32l46 -40z" />
    <glyph glyph-name="ffl" unicode="ffl" horiz-adv-x="945" 
d="M-112 -99h118q11 15 18.5 39.5t12.5 49.5l75 431h-80l5 22l27 24h56l2 16q10 50 42.5 91.5t75.5 66.5l127 74h207l-178 -113h-77q-12 -10 -18.5 -30.5t-11.5 -42.5l-11 -65h148l4 19q9 50 41.5 91.5t75.5 66.5l127 74h232l27 -20l-112 -636l86 56l16 -21l-152 -110
l-115 44l69 393h-147l-69 -397q-9 -49 -48.5 -88.5t-94.5 -78.5l-126 -92h-57l24 136h106q11 15 19 39.5t12 49.5l75 431h-148l-70 -397q-4 -24 -16.5 -46t-31.5 -42.5t-43.5 -40t-51.5 -38.5l-126 -92h-68zM732 464l27 150l-35 -12h-98q-11 -10 -18.5 -30.5t-10.5 -42.5
l-11 -65h146z" />
    <glyph glyph-name="Th" unicode="Th" horiz-adv-x="1084" 
d="M813 28l54 311q4 20 -3.5 32.5t-24.5 12.5q-14 0 -28.5 -6t-28.5 -16l-29 -17l-61 -345h-160l113 642l11 19l-38 -5l-162 1l-94 -608l87 -11l-7 -39l-177 2l-172 -2l2 39l88 11l94 608l-88 -1l-95 -168h-40l29 213l291 -2l309 2l89 13l41 -31l-50 -285l-10 -20l169 120
q69 0 96.5 -32.5t13.5 -105.5l-54 -300l84 55l16 -21l-152 -110z" />
    <glyph glyph-name="fb" unicode="fb" horiz-adv-x="857" 
d="M575 407l-14 -27l168 118q54 -17 84 -62.5t30 -117.5q0 -45 -13 -86.5t-37.5 -77.5t-59 -65t-77.5 -48l-123 -56q-49 0 -97.5 13.5t-86.5 40.5l102 575l-35 -12h-97q-12 -10 -18.5 -30.5t-11.5 -42.5l-11 -65h91l-7 -43h-91l-70 -397q-4 -24 -16.5 -46t-31.5 -42.5
t-43.5 -40t-51.5 -38.5l-126 -92h-68l24 136h118q11 15 18.5 39.5t12.5 49.5l75 431h-80l5 22l27 24h56l2 16q10 50 42.5 91.5t75.5 66.5l127 74h231l27 -20zM565 353l-46 -264q14 -11 39.5 -21.5t50.5 -10.5q19 16 31.5 39t20 48.5t11 52t3.5 49.5q0 47 -10 84t-35 57z" />
    <glyph glyph-name="ffb" unicode="ffb" horiz-adv-x="1164" 
d="M872 353l-46 -264q14 -11 40 -21.5t51 -10.5q19 16 31.5 39t20 48.5t10.5 52t3 49.5q0 47 -10 84t-34 57zM-112 -99h118q11 15 18.5 39.5t12.5 49.5l75 431h-80l5 22l27 24h56l2 16q10 50 42.5 91.5t75.5 66.5l127 74h207l-178 -113h-77q-12 -10 -18.5 -30.5t-11.5 -42.5
l-11 -65h148l4 19q9 50 41.5 91.5t75.5 66.5l127 74h231l28 -20l-51 -288l-14 -27l169 118q54 -17 84 -62.5t30 -117.5q0 -45 -13.5 -86.5t-38 -77.5t-59 -65t-77.5 -48l-123 -56q-49 0 -97.5 13.5t-85.5 40.5l101 575l-34 -12h-98q-11 -10 -18.5 -30.5t-10.5 -42.5l-11 -65
h91l-8 -43h-91l-69 -397q-9 -49 -48.5 -88.5t-94.5 -78.5l-126 -92h-57l24 136h106q11 15 19 39.5t12 49.5l75 431h-148l-70 -397q-4 -24 -16.5 -46t-31.5 -42.5t-43.5 -40t-51.5 -38.5l-126 -92h-68z" />
    <glyph glyph-name="ffh" unicode="ffh" horiz-adv-x="1204" 
d="M509 24q-9 -49 -48.5 -88.5t-94.5 -78.5l-126 -92h-57l24 136h106q11 15 19 39.5t12 49.5l75 431h-148l-70 -397q-4 -24 -16.5 -46t-31.5 -42.5t-43.5 -40t-51.5 -38.5l-126 -92h-68l24 136h118q11 15 18.5 39.5t12.5 49.5l75 431h-80l5 22l27 24h56l2 16
q10 50 42.5 91.5t75.5 66.5l127 74h207l-178 -113h-77q-12 -10 -18.5 -30.5t-11.5 -42.5l-11 -65h148l4 19q9 50 41.5 91.5t75.5 66.5l127 74h233l27 -20l-52 -297l-10 -20l169 120q70 0 97 -32.5t13 -105.5l-54 -300l84 55l17 -21l-153 -110l-113 44l54 311q4 20 -3.5 32.5
t-24.5 12.5q-13 0 -28 -6t-29 -16l-29 -17l-61 -345h-159l108 614l-35 -12h-99q-11 -10 -18.5 -30.5t-10.5 -42.5l-11 -65h91l-8 -43h-91z" />
    <glyph glyph-name="ffj" unicode="ffj" horiz-adv-x="921" 
d="M-112 -99h118q11 15 18.5 39.5t12.5 49.5l75 431h-80l5 22l27 24h56l2 16q10 50 42.5 91.5t75.5 66.5l127 74h207l-178 -113h-77q-12 -10 -18.5 -30.5t-11.5 -42.5l-11 -65h148l4 19q9 50 41.5 91.5t75.5 66.5l127 74h262l-20 -113h-290q-11 -10 -18.5 -30.5t-10.5 -42.5
l-11 -65h143l115 32l46 -40l-72 -411q-9 -51 -52.5 -94t-101.5 -87l-130 -99h-59l25 134h119q14 25 20.5 51.5t11.5 53.5l74 425l-26 -8h-121l-69 -397q-9 -49 -48.5 -88.5t-94.5 -78.5l-126 -92h-57l24 136h106q11 15 19 39.5t12 49.5l75 431h-148l-70 -397
q-4 -24 -16.5 -46t-31.5 -42.5t-43.5 -40t-51.5 -38.5l-126 -92h-68z" />
    <glyph glyph-name="ffk" unicode="ffk" horiz-adv-x="1192" 
d="M-112 -99h118q11 15 18.5 39.5t12.5 49.5l75 431h-80l5 22l27 24h56l2 16q10 50 42.5 91.5t75.5 66.5l127 74h207l-178 -113h-77q-12 -10 -18.5 -30.5t-11.5 -42.5l-11 -65h148l4 19q9 50 41.5 91.5t75.5 66.5l127 74h232l27 -20l-72 -409l11 1l176 201h122l-32 -151
h-145q-7 -1 -18 -7t-23 -13.5t-22.5 -14.5t-15.5 -11l-11 -9l131 -38l76 -177l60 40l16 -21l-145 -102l-102 37l-81 246l-48 -267h-160l108 614l-34 -12h-98q-11 -10 -18.5 -30.5t-10.5 -42.5l-11 -65h91l-8 -43h-91l-69 -397q-9 -49 -48.5 -88.5t-94.5 -78.5l-126 -92h-57
l24 136h106q11 15 19 39.5t12 49.5l75 431h-148l-70 -397q-4 -24 -16.5 -46t-31.5 -42.5t-43.5 -40t-51.5 -38.5l-126 -92h-68z" />
    <glyph glyph-name="fh" unicode="fh" horiz-adv-x="896" 
d="M201 24q-4 -24 -16.5 -46t-31.5 -42.5t-43.5 -40t-51.5 -38.5l-126 -92h-68l24 136h118q11 15 18.5 39.5t12.5 49.5l75 431h-80l5 22l27 24h56l2 16q10 50 42.5 91.5t75.5 66.5l127 74h233l27 -20l-53 -297l-10 -20l169 120q70 0 97.5 -32.5t13.5 -105.5l-54 -300l84 55
l16 -21l-152 -110l-114 44l55 311q4 20 -4 32.5t-25 12.5q-13 0 -27.5 -6t-28.5 -16l-29 -17l-61 -345h-160l108 614l-34 -12h-99q-12 -10 -18.5 -30.5t-11.5 -42.5l-11 -65h91l-7 -43h-91z" />
    <glyph glyph-name="fj" unicode="fj" horiz-adv-x="613" 
d="M-112 -99h118q11 15 18.5 39.5t12.5 49.5l75 431h-80l5 22l27 24h56l2 16q10 50 42.5 91.5t75.5 66.5l127 74h260l-20 -113h-288q-12 -10 -18.5 -30.5t-11.5 -42.5l-11 -65h143l115 32l46 -40l-71 -411q-10 -51 -53.5 -94.5t-101.5 -86.5l-130 -99h-59l25 134h119
q14 25 20.5 51.5t11.5 53.5l74 425l-26 -8h-120l-70 -397q-4 -24 -16.5 -46t-31.5 -42.5t-43.5 -40t-51.5 -38.5l-126 -92h-68z" />
    <glyph glyph-name="fk" unicode="fk" horiz-adv-x="885" 
d="M-112 -99h118q11 15 18.5 39.5t12.5 49.5l75 431h-80l5 22l27 24h56l2 16q10 50 42.5 91.5t75.5 66.5l127 74h231l27 -20l-71 -409l11 1l175 201h122l-32 -151h-145q-6 -1 -17.5 -7t-23 -13.5t-22 -14.5t-15.5 -11l-12 -9l131 -38l76 -177l61 40l16 -21l-146 -102
l-101 37l-81 246l-49 -267h-159l108 614l-35 -12h-97q-12 -10 -18.5 -30.5t-11.5 -42.5l-11 -65h91l-7 -43h-91l-70 -397q-4 -24 -16.5 -46t-31.5 -42.5t-43.5 -40t-51.5 -38.5l-126 -92h-68z" />
    <glyph glyph-name="ft" unicode="ft" horiz-adv-x="674" 
d="M-112 -99h118q11 15 18.5 39.5t12.5 49.5l75 431h-80l5 22l27 24h56l2 16q10 50 42.5 91.5t75.5 66.5l127 74h145l-93 -113h-100q-12 -10 -18.5 -30.5t-11.5 -42.5l-11 -65h133l9 42l142 112h37l-28 -154h104l-8 -44h-103l-65 -363l128 55l12 -21l-190 -107l-115 43
l70 394h-133l-70 -397q-4 -24 -16.5 -46t-31.5 -42.5t-43.5 -40t-51.5 -38.5l-126 -92h-68z" />
    <glyph glyph-name="fu" unicode="fu" horiz-adv-x="888" 
d="M-112 -99h118q11 15 18.5 39.5t12.5 49.5l75 431h-80l5 22l27 24h56l2 16q10 50 42.5 91.5t75.5 66.5l127 74h100l-19 -113h-129q-12 -10 -18.5 -30.5t-11.5 -42.5l-11 -65h142l115 32l45 -39l-56 -314q-6 -44 28 -44q12 0 24 6t25 15l30 21l61 342h160l-75 -426l84 57
l17 -21l-154 -109l-113 39l11 63l11 24l-160 -125q-69 0 -97.5 32t-14.5 104l54 308l-26 -8h-118l-70 -397q-4 -24 -16.5 -46t-31.5 -42.5t-43.5 -40t-51.5 -38.5l-126 -92h-68z" />
    <glyph glyph-name="fy" unicode="fy" horiz-adv-x="796" 
d="M465 498l48 -37l57 -399l148 253l-99 104l125 79l47 -42l-21 -145l-164 -279l-174 -267h-150l25 149h140l109 119l-141 -30l-63 425l-30 -7h-51l-70 -397q-4 -24 -16.5 -46t-31.5 -42.5t-43.5 -40t-51.5 -38.5l-126 -92h-68l24 136h118q11 15 18.5 39.5t12.5 49.5l75 431
h-80l5 22l27 24h56l2 16q10 50 42.5 91.5t75.5 66.5l127 74h100l-19 -113h-129q-12 -10 -18.5 -30.5t-11.5 -42.5l-11 -65h64z" />
    <glyph glyph-name="ky" unicode="ky" horiz-adv-x="1078" 
d="M589 -86h139l109 119l-140 -30l-69 454h-33l-123 -120h-96q-6 -1 -17.5 -7t-23 -13.5t-22 -14.5t-15.5 -11l-12 -9l131 -38l76 -177l61 40l16 -21l-146 -102l-101 37l-81 246l-49 -267h-159l112 643l-85 -20l-9 27l221 64l41 -31l-70 -397l11 1l176 201h337l26 -22
l58 -404l147 253l-99 104l125 79l48 -42l-22 -145l-163 -278l-175 -268h-149z" />
    <glyph glyph-name="tt" unicode="tt" horiz-adv-x="710" 
d="M44 27l70 393h-79l5 23l27 22h55l7 41l143 112h36l-27 -154h166l8 42l142 112h37l-27 -154h104l-9 -44h-103l-64 -363l128 55l11 -21l-189 -107l-115 43l70 393h-167l-64 -363l115 46l11 -21l-176 -98z" />
    <glyph glyph-name="ty" unicode="ty" horiz-adv-x="844" 
d="M355 -86h140l109 119l-141 -30l-64 426l-27 -9h-99l-64 -363l105 44l16 -21l-171 -96l-115 43l70 393h-79l5 23l27 22h55l7 41l143 112h36l-27 -154h120l112 34l48 -37l57 -399l147 253l-98 104l125 79l47 -42l-21 -145l-164 -278l-174 -268h-150z" />
    <glyph glyph-name="www" unicode="www" horiz-adv-x="1848" 
d="M97 11l-13 393l10 20l-89 -29l-10 24l203 79l49 -44l8 -351l-4 -32l109 175l-6 186l163 53l8 -385l-5 -32l118 188l-7 184l149 50l16 -15l8 -372l-4 -32l109 175l-7 186l164 53l8 -385l-5 -32l115 184l-6 188l148 50l16 -14l8 -373l-4 -32l110 175l-7 186l164 53l8 -385
l-6 -32l152 243l-93 108l124 79l45 -44l-17 -136l-221 -333l-142 26l-5 147l9 37l-132 -210l-143 26l-5 168l-128 -194l-142 26l-5 147l8 37l-131 -210l-143 26l-6 171l-130 -197l-142 26l-5 146l9 38l-132 -210z" />
    <glyph glyph-name=".notdef" horiz-adv-x="655" 
d="M447 -28l-24 18h-14l-8 8l7 76l-4 47l-61 1l-3 -52l-2 -56v-20l-15 -6l-8 6l-30 -10h-32l-1 11l11 11l50 21l-6 96l-98 -6l-147 140l-4 115l-13 10l-10 36v26l15 8l-3 78l92 -62l9 47l10 36l22 35l28 35l39 29l40 15l38 14h22l-68 22l4 17h7l79 -20l-4 51l16 12h32l19 -5
l29 -25l32 -8l32 -10l15 -13v-20l-20 -31l30 -28l28 -32l18 -34l15 -41l9 -54l-3 -41l-8 -35l-12 -31l-3 -156l-21 -7l-50 70l-27 -7l-19 -140l-32 4l-7 -4l-4 -94l30 -19l16 -14l-3 -15zM510 399l-4 7h-205l-66 -3l-7 -9l-6 -44l-48 20l-11 -4l57 -27l1 -45l-5 -73v-91
l18 4l2 40l41 -3l3 9l-44 6v16l48 -6l1 9l-47 7l1 22l43 -3l3 6l-45 9l3 94h74l11 10h-79l2 9h74l8 7h-82l2 22l117 4l140 -4v11zM191 569l29 12l13 -15l-17 -20l-10 -3l17 -3h5l36 24h32l18 -12l8 3l4 14l7 5l10 -4v-18h8l10 22l11 8l-5 6l-3 8l1 21l-30 -10l-10 -8l-8 5
l4 21l14 10l11 11l38 -2l12 13l-4 8h-49l-45 -13l-53 -26l-29 -23zM601 465l-8 37l-19 50l-20 36l-23 28l-34 21h-11l17 -19l25 -10l11 -11l3 -33l-25 13l-15 -29l12 -8v-19l15 3l-12 26l15 -5l10 -20l-5 -12l-8 -7h-23l-3 11l-12 2l1 -22h-14l14 -18l-7 -10l-21 5l-3 -27
l41 6l8 17l22 -2l6 -28l-16 -13v-15l8 -6l18 12h23l6 11l-18 6l-5 9l9 42h7l14 -20zM87 434l57 -32l7 10l-68 38v18l59 -34l43 -28l28 -14l3 10l-103 64l-13 7l-41 33l2 -78l19 -17v-5h-21l19 -14l1 -11l-20 7l18 -18l-4 -7l3 -97l11 -12v180zM496 331l-54 1l-1 -24v-6
l-2 -31l19 -3l-8 -61l-48 3l-8 -6l51 -5l-2 -9h-49l-4 -5l53 -7l-6 -35l27 -1l12 79l4 36l-15 3l-1 8l20 1l5 3l-28 16l2 5l30 -6l-30 15l5 5l21 -5l4 10zM191 331l-66 39v-7l-2 -13l1 -27v-48l64 -44l-1 60zM365 214l-64 4v-51l64 -6v53zM517 306l8 -6l8 2l20 15l13 13
l11 18l-7 5h-14l-10 3l-14 7l-17 -3q-2 -13 -3 -24q-2 -9 -2.5 -17t-0.5 -7zM413 585l5 -6l19 11l8 -2l6 -24h13l6 6l-9 18l17 28l-15 9v5l-25 7v-20l-13 -5v-9l-9 -6zM418 336l4 30l-54 5l-3 -35h53zM351 455l-7 -11h-12l-5 7l11 8l-15 2v6l-23 4l3 -17l8 -14l20 -9l13 -1
l18 10l6 9l5 20l-30 2l7 -5zM574 312l-6 -3l-33 -27l39 -48v78zM229 454l1 4l14 2l-13 6l2 7l-20 -1l3 -19l14 -15l12 -6l11 5l16 12l6 12l2 13l-22 -4l6 -10l-12 -13l-14 -1zM379 281l-72 7l-6 -13l78 -4v10zM191 203l-74 50l20 -23l50 -41zM379 312h-73v-10h73v10z
M369 256l-68 4v-10h68v6zM500 359h-48v-13l44 4zM336 520l-4 -12l49 -17l3 4zM199 498l59 12l-4 12zM399 642l-8 -9v-19l12 -6l3 17zM476 530l-8 -4v-9l8 -3l2 7zM549 386l5 7v7l-10 -4v-10h5z" />
    <glyph glyph-name=".null" horiz-adv-x="0" 
 />
    <glyph glyph-name=".null" horiz-adv-x="0" 
 />
    <glyph glyph-name="nonmarkingreturn" unicode="&#xd;" horiz-adv-x="360" 
 />
    <glyph glyph-name="space" unicode=" " horiz-adv-x="240" 
 />
    <glyph glyph-name="exclam" unicode="!" horiz-adv-x="371" 
d="M282 407l-81 -177h-55l-14 176l41 304h175zM188 143l35 -8l-4 -70l-19 -63l-97 -7l-35 7l5 72l18 61z" />
    <glyph glyph-name="quotedbl" unicode="&#x22;" horiz-adv-x="473" 
d="M98 416q4 6 18 27.5t29 46t27 45t13 25.5l-71 5l6 76l21 62l101 8l37 -8l-5 -72l-23 -66l-121 -163zM303 416q4 6 18 27.5t29 46t27 45t13 25.5l-72 5l7 76l21 62l101 8l36 -8l-5 -72l-22 -66l-121 -163z" />
    <glyph glyph-name="numbersign" unicode="#" horiz-adv-x="614" 
d="M229 250h145l47 153h-145zM555 655l-60 -202h125l-15 -50h-124l-47 -153h123l-15 -50h-123l-59 -200h-60l59 200h-145l-59 -200h-60l59 200h-125l15 50h125l47 153h-124l15 50h123l60 202h60l-60 -202h145l60 202h60z" />
    <glyph glyph-name="dollar" unicode="$" horiz-adv-x="598" 
d="M550 492h-46l-24 113q-44 38 -90 51l-33 -185l88 -74q21 -18 38.5 -36t30 -38.5t19.5 -45t7 -56.5q0 -30 -11.5 -59.5t-33 -56t-53 -48.5t-70.5 -37l-100 -37l-11 -63h-34l11 63q-61 3 -111.5 19t-83.5 39l43 189h50l4 -111q20 -20 49 -35.5t62 -25.5l37 209l-69 58
q-46 39 -75.5 78.5t-29.5 90.5q0 63 41 107t129 80l82 34l12 66h34l-11 -64q63 -2 108.5 -16t76.5 -33zM382 137q0 35 -19.5 59.5t-45.5 45.5l-33 -191q11 -2 23 -3t23 -1q25 15 38.5 38t13.5 52zM268 587q0 -26 14 -45.5t46 -45.5l29 167l-27 2q-35 -13 -48.5 -33.5
t-13.5 -44.5z" />
    <glyph glyph-name="percent" unicode="%" horiz-adv-x="815" 
d="M696 705h73l-645 -710h-74zM197 351q-61 0 -95 39t-26 109q8 75 58 124.5t130 71.5l21 7q62 0 96 -39.5t27 -108.5q-8 -75 -58.5 -125t-131.5 -72zM255 667q-26 -11 -44.5 -45t-23.5 -93q-8 -66 4 -101.5t35 -41.5q27 11 45.5 44.5t23.5 92.5q8 68 -4 103t-36 41zM535 0
q-61 0 -95.5 39.5t-27.5 108.5q8 76 58.5 125.5t130.5 71.5l21 7q62 0 96 -39.5t27 -108.5q-8 -76 -58.5 -125.5t-131.5 -71.5zM592 317q-26 -11 -44.5 -45t-23.5 -93q-8 -67 4 -102t35 -42q26 11 45 45t24 93q8 68 -4 103t-36 41z" />
    <glyph glyph-name="ampersand" unicode="&#x26;" horiz-adv-x="659" 
d="M528 571q-15 13 -35 27t-42 27t-44 23.5t-40 17.5q-49 -42 -49 -112q0 -59 20.5 -92.5t41.5 -39.5l-9 -35q-30 -2 -57.5 -18.5t-48.5 -43.5t-33.5 -63t-12.5 -77q0 -69 24 -114t76 -50q46 19 68 62.5t36 116.5l9 50h-48l-19 -24h-14l22 123h259l18 24h15l-23 -123h-52
l-10 -60q-6 -32 -17 -58.5t-33.5 -49t-60 -41t-96.5 -33.5l-99 -26q-58 0 -102 14t-74 38.5t-45 58t-15 72.5q0 72 47.5 123t137.5 86l52 20q-22 3 -45 14.5t-42 29t-31.5 41t-12.5 51.5q0 32 15.5 56t44 43t68 33t87.5 26l122 31q14 -1 30.5 -6t32.5 -11.5t31 -15t27 -16.5
z" />
    <glyph glyph-name="quotesingle" unicode="'" horiz-adv-x="268" 
d="M97 415q4 7 18 28.5t29 45.5t27 44.5t13 25.5l-71 5l6 76l22 63l100 7l37 -7l-5 -73l-22 -66l-121 -163z" />
    <glyph glyph-name="parenleft" unicode="(" horiz-adv-x="354" 
d="M405 705q-115 -125 -175.5 -279t-60.5 -335q0 -176 67 -307l-23 -22q-39 48 -67.5 91t-47 85t-28 85.5t-9.5 93.5q0 97 18 175t57 148.5t100 138.5t146 146z" />
    <glyph glyph-name="parenright" unicode=")" horiz-adv-x="354" 
d="M-64 -218q115 125 175.5 279.5t60.5 335.5q0 176 -67 307l23 21q39 -48 67.5 -90.5t47 -84.5t28 -85.5t9.5 -92.5q0 -98 -18.5 -176t-57.5 -148.5t-100 -139t-146 -146.5l-22 20v0z" />
    <glyph glyph-name="asterisk" unicode="*" horiz-adv-x="393" 
d="M168 368l-99 84l136 83l-148 -3l69 135l102 -91l-25 139h142l-75 -139l134 89l21 -134l-148 4l108 -82l-129 -85l-19 144z" />
    <glyph glyph-name="plus" unicode="+" 
d="M281 0v226h-229v58h229v231h58v-231h228v-58h-228v-226h-58z" />
    <glyph glyph-name="comma" unicode="," horiz-adv-x="271" 
d="M28 -144q4 6 17 27t26.5 44t24.5 43t12 25l-65 6l6 78l22 66l104 8l36 -8l-4 -76l-25 -68l-119 -161z" />
    <glyph glyph-name="hyphen" unicode="-" horiz-adv-x="395" 
d="M60 317h305l-12 -70h-305z" />
    <glyph glyph-name="period" unicode="." horiz-adv-x="287" 
d="M172 153l37 -8l-5 -77l-24 -67l-103 -8l-37 8l6 78l23 66z" />
    <glyph glyph-name="slash" unicode="/" horiz-adv-x="486" 
d="M-75 -230h-58l620 948h56z" />
    <glyph glyph-name="zero" unicode="0" horiz-adv-x="616" 
d="M352 498q54 0 97.5 -16t74 -44t47.5 -66.5t17 -84.5q0 -44 -12 -85.5t-40 -78t-74.5 -66.5t-114.5 -51l-68 -21q-54 0 -97.5 16.5t-74 45t-47.5 67t-17 83.5q0 44 12 85.5t40 78t74 66t114 50.5zM307 34q51 24 77 88t26 150q0 72 -25.5 119t-61.5 58q-50 -24 -76.5 -86.5
t-26.5 -150.5q0 -71 25 -118.5t62 -59.5z" />
    <glyph glyph-name="one" unicode="1" horiz-adv-x="471" 
d="M8 38l129 13l55 320l4 9l-23 -10l-118 -29l-9 36l277 112h59l-76 -438l125 -13l-8 -39l-206 2l-212 -2z" />
    <glyph glyph-name="two" unicode="2" horiz-adv-x="556" 
d="M-9 34l199 143q30 22 58.5 45.5t50.5 48t35 51.5t13 56q0 31 -15.5 48t-43.5 17l-38 -10l-66 -139h-113l12 125l263 79q91 0 134.5 -31.5t43.5 -82.5q0 -39 -24.5 -72t-61 -60t-79.5 -48t-79 -36l-142 -61l106 22h281v-36l-55 -93h-468z" />
    <glyph glyph-name="three" unicode="3" horiz-adv-x="506" 
d="M-37 -232l24 135h237q27 26 39 55.5t12 64.5q0 42 -31 71.5t-95 31.5l-8 28l66 40q57 31 83.5 77t26.5 95q0 34 -14.5 54.5t-34.5 22.5l-39 -11l-64 -140h-108l11 127l255 78q45 0 76.5 -9t51 -24.5t28 -36t8.5 -44.5q0 -36 -18 -64.5t-46.5 -51t-65 -37.5t-74.5 -24
q48 -4 81 -17t53 -31t29 -40.5t9 -46.5q0 -49 -24 -84.5t-60.5 -61.5t-79 -45t-79.5 -35l-168 -77h-81z" />
    <glyph glyph-name="four" unicode="4" horiz-adv-x="592" 
d="M268 -15h-242l-21 53l363 446h190l-8 -44l-485 -395l35 13h180l16 90l148 96h26l-33 -186h114l-13 -73h-114l-37 -209h-157z" />
    <glyph glyph-name="five" unicode="5" horiz-adv-x="512" 
d="M91 153l180 97q47 0 82 -11.5t58.5 -31t35.5 -45.5t12 -56q0 -53 -22.5 -92.5t-57 -70t-76.5 -53t-81 -40.5l-164 -79h-89l24 135h230q27 27 40.5 62.5t13.5 71.5q0 21 -4.5 40.5t-15 34.5t-28 23.5t-42.5 8.5q-24 0 -48 -7t-50 -19l-36 -18l-17 17l107 364h373l-5 -25
l-46 -108h-314z" />
    <glyph glyph-name="six" unicode="6" horiz-adv-x="563" 
d="M233 316q-4 -26 -5.5 -52t-1.5 -50q0 -69 17 -116t46 -64q21 13 35.5 34.5t23.5 46.5t13 51.5t4 50.5q0 63 -13.5 101t-40.5 38q-13 0 -25.5 -6t-30.5 -18zM549 691q-80 -28 -136.5 -68t-93 -86t-56 -94t-26.5 -92l162 109q34 -3 60.5 -18t44.5 -39t27.5 -54.5t9.5 -64.5
q0 -99 -56.5 -166t-151.5 -100l-92 -35q-42 0 -78 16.5t-62.5 47t-41.5 74.5t-15 100q0 83 37.5 163t103.5 147.5t156.5 117t197.5 71.5z" />
    <glyph glyph-name="seven" unicode="7" horiz-adv-x="522" 
d="M49 483h451l23 -29l-401 -679h-108l1 44l390 531l-24 -12h-356z" />
    <glyph glyph-name="eight" unicode="8" horiz-adv-x="586" 
d="M373 431q24 22 39.5 58.5t15.5 73.5q0 43 -19.5 74t-58.5 39q-29 -14 -42 -46t-13 -64q0 -34 19 -65t59 -70zM211 182q0 -28 7 -53t19 -45.5t26.5 -34.5t29.5 -20q33 16 48.5 50t15.5 69q0 43 -23.5 79t-72.5 83q-24 -25 -37 -57.5t-13 -70.5zM246 -19q-44 0 -82 11
t-65.5 31.5t-43 49t-15.5 64.5q0 41 16 71.5t42.5 54t59.5 42t67 34.5q-51 41 -80 78.5t-29 85.5q0 37 16 67t41.5 53t59.5 39t70 27l95 29q44 0 80.5 -9.5t62 -26.5t39.5 -39.5t14 -49.5q0 -41 -16.5 -70.5t-43.5 -52t-60.5 -39t-67.5 -29.5q34 -30 58.5 -53t40.5 -44.5
t24 -42.5t8 -46q0 -41 -16.5 -73t-44.5 -56.5t-65.5 -43t-78.5 -32.5z" />
    <glyph glyph-name="nine" unicode="9" horiz-adv-x="567" 
d="M348 165q3 26 5 52.5t2 50.5q-1 69 -18 115.5t-46 63.5q-20 -13 -34.5 -34t-23.5 -46t-13 -51.5t-4 -49.5q0 -64 14.5 -102.5t40.5 -38.5q13 0 25 6t30 18zM32 -210q80 28 136 68t92.5 86t56 94t26.5 92l-157 -109q-35 3 -62.5 18t-46 39t-28.5 54.5t-10 64.5
q0 100 56.5 167.5t151.5 99.5l96 34q42 0 77.5 -16t61 -47t40 -75t14.5 -100q0 -83 -37 -163t-103 -147.5t-156.5 -117t-197.5 -70.5z" />
    <glyph glyph-name="colon" unicode=":" horiz-adv-x="307" 
d="M235 486l37 -9l-5 -76l-24 -67l-103 -8l-37 8l6 78l22 65zM177 153l37 -8l-5 -77l-24 -67l-103 -8l-37 8l6 78l23 66z" />
    <glyph glyph-name="semicolon" unicode=";" horiz-adv-x="303" 
d="M27 -144q4 6 17.5 27t27.5 44t25.5 43t12.5 25l-69 6l6 78l23 66l103 8l37 -8l-4 -76l-25 -68l-119 -161zM231 486l37 -9l-5 -76l-24 -67l-103 -8l-37 8l6 78l22 65z" />
    <glyph glyph-name="less" unicode="&#x3c;" 
d="M570 546v-65l-444 -194l444 -194v-65l-520 237v43z" />
    <glyph glyph-name="equal" unicode="=" 
d="M569 313h-519v59h519v-59zM569 119h-519v58h519v-58z" />
    <glyph glyph-name="greater" unicode="&#x3e;" 
d="M570 308v-43l-520 -237v65l444 194l-444 194v65z" />
    <glyph glyph-name="question" unicode="?" horiz-adv-x="471" 
d="M183 143l36 -8l-4 -70l-20 -63l-96 -7l-36 7l5 72l19 61zM163 341l69 39q39 23 64 65.5t25 95.5q0 22 -6 42.5t-15 37t-20.5 27.5t-22.5 13l-21 -7l-58 -128h-68l1 120l201 64q37 0 71 -11t60.5 -31.5t42 -49.5t15.5 -65q0 -66 -50 -110t-144 -70l-57 -17l-56 -138h-45z
" />
    <glyph glyph-name="at" unicode="@" horiz-adv-x="955" 
d="M637 117q32 6 64 27.5t57.5 57t41.5 84t16 109.5q0 56 -20 103.5t-56.5 82.5t-88 54.5t-114.5 19.5t-125 -26.5t-110.5 -75.5t-78.5 -119t-30 -156q0 -89 31.5 -151.5t80.5 -102.5t109.5 -58t119.5 -18q30 0 57 5t50 12.5t42 16t34 15.5l13 -24q-30 -16 -62.5 -30
t-64 -25t-61.5 -19.5t-54 -12.5q-93 0 -169.5 27t-130.5 75.5t-83.5 115t-29.5 146.5q0 73 26.5 138.5t74 120t113.5 96t145 65.5l97 29q97 0 171 -21t123.5 -59t74.5 -90t25 -115q0 -67 -25.5 -125t-69 -102t-101.5 -71t-122 -32l-70 63l32 103l-142 -168q-26 2 -50.5 13.5
t-43.5 31t-30.5 46.5t-11.5 61q0 42 13.5 80.5t38.5 71.5t59 59.5t75 44.5l107 46l136 -59zM599 425l-80 50q-31 -18 -53 -41.5t-35.5 -50t-19.5 -53.5t-6 -51q0 -43 16.5 -67.5t44.5 -32.5l99 112z" />
    <glyph glyph-name="A" unicode="A" horiz-adv-x="703" 
d="M215 274h195l-19 291l5 32zM151 -1l-90 2l-88 -2l3 39l51 10l366 627l161 43l66 -670l53 -10l-8 -39l-178 2l-137 -2l3 39l72 11l-12 182h-220l-106 -182l72 -11z" />
    <glyph glyph-name="B" unicode="B" horiz-adv-x="635" 
d="M339 55q46 29 64 72t18 88q0 27 -7 51.5t-20 42.5t-31.5 29t-41.5 11h-35l-46 -294h99zM121 1l-125 -2l1 39l62 11l94 604l-57 11l7 37q25 -1 48 -1q20 -1 40.5 -1h34.5h50t67 1q40 0 84 1q47 0 84 -11t63 -30.5t39.5 -45.5t13.5 -56q0 -59 -43.5 -103t-125.5 -62
l-64 -14q113 -9 168 -51.5t55 -103.5q0 -41 -20 -72t-50.5 -54t-68 -39t-72.5 -26l-107 -34zM333 659l-41 -270h28q24 0 46.5 12t40.5 33t29 50t11 63q0 55 -23.5 83.5t-62.5 28.5h-28z" />
    <glyph glyph-name="C" unicode="C" horiz-adv-x="666" 
d="M350 -18q-70 0 -126 21.5t-95 60.5t-60 94.5t-21 123.5q0 59 18 118.5t56 113t96.5 96.5t139.5 69l127 40q60 0 101.5 -15t71.5 -32l-9 -205h-46l-43 133q-27 21 -65 36.5t-88 20.5q-81 -40 -122 -124.5t-41 -199.5q0 -56 12.5 -103t34.5 -83.5t52.5 -61t67.5 -35.5
q32 12 55 25t47 33l82 144h49l-42 -198z" />
    <glyph glyph-name="D" unicode="D" horiz-adv-x="702" 
d="M144 1l-148 -2l2 39l61 11l94 604l-58 11l8 37l156 -2l154 2q66 0 119 -20t90 -56.5t57 -87.5t20 -112q1 -135 -73.5 -236.5t-222.5 -153.5l-100 -36zM339 55q36 24 66 60.5t51.5 83t34 101.5t12.5 116q0 52 -10.5 96t-28.5 76.5t-42 50.5t-50 18h-39l-93 -602h99z" />
    <glyph glyph-name="E" unicode="E" horiz-adv-x="611" 
d="M-2 38l61 11l94 603l-59 11l7 38l136 -2l397 2l-16 -197h-42l-53 151l-190 2l-42 -267l92 2l71 118h36l-30 -142l-15 -142h-36l-34 118l-90 2l-47 -302l218 2l93 158h42l-44 -205l-420 2l-131 -2z" />
    <glyph glyph-name="F" unicode="F" horiz-adv-x="587" 
d="M338 38l-7 -39l-189 2l-146 -2l2 39l61 11l94 603l-59 11l7 38l134 -2l399 2l-16 -202h-42l-53 156l-190 2l-44 -283l92 2l71 119h36l-30 -143l-15 -142h-36l-34 118l-91 2l-44 -282z" />
    <glyph glyph-name="G" unicode="G" horiz-adv-x="694" 
d="M321 -18q-64 0 -114.5 23t-86 63t-54 93.5t-18.5 114.5t18.5 121.5t56.5 114t97.5 97.5t142.5 71l120 38q63 0 107 -15t73 -32l-10 -203h-45l-42 129q-33 27 -72.5 42.5t-90.5 18.5q-43 -23 -73 -58.5t-49 -78.5t-28 -91t-9 -96q0 -121 41 -191t111 -99q11 2 22.5 7
t18.5 9l33 219l-63 11l7 40l148 -1l129 1l-1 -40l-42 -11l-34 -218z" />
    <glyph glyph-name="H" unicode="H" horiz-adv-x="736" 
d="M146 1l-150 -2l2 39l62 11l93 603l-58 11l7 38l148 -2l144 2l-2 -38l-56 -11l-42 -268h203l42 268l-54 11l7 38l143 -2l149 2l-2 -38l-61 -11l-94 -603l59 -11l-7 -39l-149 2l-144 -2l2 39l57 11l46 292h-203l-46 -292l54 -11l-7 -39z" />
    <glyph glyph-name="I" unicode="I" horiz-adv-x="352" 
d="M398 663l-61 -11l-94 -603l59 -11l-8 -39l-147 2l-149 -2l3 39l62 11l94 603l-59 11l8 38l152 -2l143 2z" />
    <glyph glyph-name="J" unicode="J" horiz-adv-x="366" 
d="M171 652l-69 11l8 38l157 -2l148 2l-3 -38l-61 -11l-81 -518q-11 -68 -49 -116t-96 -88l-155 -103h-69l26 126h119q14 39 24 75.5t16 77.5z" />
    <glyph glyph-name="K" unicode="K" horiz-adv-x="746" 
d="M334 652l-42 -270l17 8l288 262l-79 11l7 38l115 -2l123 2l-1 -38l-89 -11l-305 -265l100 -18l196 -322l42 -9l-7 -39l-99 2l-121 -2l-183 339l-8 20l-48 -309l54 -11l-7 -39l-143 2l-148 -2l2 39l63 11l93 603l-58 11l7 38l152 -2l139 2l-3 -38z" />
    <glyph glyph-name="L" unicode="L" horiz-adv-x="572" 
d="M239 44l180 2l109 165h42l-48 -212l-392 2l-134 -2l2 39l62 11l94 603l-59 11l8 38l136 -2l159 2l-3 -38l-62 -11z" />
    <glyph glyph-name="M" unicode="M" horiz-adv-x="900" 
d="M685 701l136 -2l128 2l-3 -38l-61 -11l-94 -603l59 -11l-8 -39l-148 2l-145 -2l2 39l62 11l85 540l14 55l-293 -646h-106l-103 564l-7 77l-86 -590l61 -11l-5 -39l-90 2l-87 -2l2 39l62 11l94 603l-58 11l7 38l104 -2l162 2l81 -482l-4 -48z" />
    <glyph glyph-name="N" unicode="N" horiz-adv-x="674" 
d="M610 652l-63 11l7 38l85 -1l89 1l-1 -38l-61 -11l-102 -652h-119l-242 547l-6 60l-82 -558l73 -11l-9 -39l-95 2l-88 -2l2 39l61 11l94 604l-57 10l6 38l102 -2l126 2l208 -448l6 -63z" />
    <glyph glyph-name="O" unicode="O" horiz-adv-x="733" 
d="M244 320q0 -56 9.5 -105t27.5 -87.5t44 -63t58 -30.5q41 21 70 55.5t47 79t26.5 98t8.5 113.5q0 57 -9.5 106.5t-27.5 87.5t-44 63t-58 31q-40 -20 -68.5 -54t-47 -79.5t-27.5 -100t-9 -114.5zM430 718q69 0 125 -23.5t95 -66t60 -102t21 -131.5q0 -58 -15.5 -115.5
t-50.5 -108.5t-90.5 -92.5t-136.5 -67.5l-89 -29q-69 0 -125 23.5t-95 66t-60 102t-21 132.5q0 58 15.5 115.5t50.5 108.5t90.5 92.5t136.5 67.5z" />
    <glyph glyph-name="P" unicode="P" horiz-adv-x="612" 
d="M381 357q36 32 58.5 78t22.5 106t-24.5 89.5t-60.5 29.5h-43l-46 -303h93zM340 297h-62l-39 -248l99 -11l-6 -39l-193 2l-143 -2l2 39l62 11l94 603l-59 11l8 38l145 -2l204 1q94 1 149 -39t55 -111q0 -44 -19 -76.5t-50.5 -58t-72.5 -45t-85 -37.5z" />
    <glyph glyph-name="Q" unicode="Q" horiz-adv-x="733" 
d="M430 718q69 0 125 -23.5t95 -66t60 -102t21 -131.5q0 -58 -15.5 -115.5t-50.5 -108.5t-90.5 -92.5t-136.5 -67.5l-54 -18h12l138 -38l81 -70l48 -16l-18 -35l-181 16l-117 132q-69 0 -124.5 23.5t-94 66.5t-59.5 102.5t-21 131.5q0 58 15.5 115.5t50.5 108.5t90.5 92.5
t136.5 67.5zM244 320q0 -56 9.5 -105t27.5 -87.5t44 -63t58 -30.5q41 21 70 55.5t47 79t26.5 98t8.5 113.5q0 57 -9.5 106.5t-27.5 87.5t-44 63t-58 31q-40 -20 -68.5 -54t-47 -79.5t-27.5 -100t-9 -114.5z" />
    <glyph glyph-name="R" unicode="R" horiz-adv-x="692" 
d="M372 376q44 27 67.5 72t23.5 106q0 54 -23 81.5t-61 27.5h-44l-45 -287h82zM140 1l-144 -2l2 39l62 11l94 603l-59 11l8 38l145 -2l204 2q46 0 84 -10t65 -29t41.5 -45t14.5 -59q0 -43 -18.5 -75t-48 -55.5t-66.5 -40t-76 -27.5l-80 -24l148 -36l102 -250l40 -12l-6 -39
l-113 2l-102 -2l-120 318l-5 5h-30l-43 -273l59 -11l-7 -39z" />
    <glyph glyph-name="S" unicode="S" horiz-adv-x="524" 
d="M520 492h-46l-24 113q-35 32 -70 45t-80 15q-35 -13 -48.5 -33.5t-13.5 -44.5q0 -27 16.5 -47.5t51.5 -49.5l109 -93q21 -18 38.5 -36t30 -38.5t19.5 -45t7 -56.5q0 -30 -11.5 -59.5t-33 -56t-53 -48.5t-70.5 -37l-103 -38q-70 0 -129 16.5t-97 42.5l43 189h50l4 -111
q16 -16 38 -29t47 -22.5t52 -15t53 -5.5q25 15 38.5 38t13.5 52q0 36 -20 60.5t-46 46.5l-97 81q-46 39 -75.5 78.5t-29.5 90.5q0 63 41 107t129 80l89 37q75 0 127 -14.5t86 -35.5z" />
    <glyph glyph-name="T" unicode="T" horiz-adv-x="605" 
d="M285 657l-88 -1l-95 -168h-40l29 213l292 -2l285 2l-30 -213h-40l-47 168l-87 1l-94 -608l88 -11l-7 -39l-179 2l-171 -2l2 39l88 11z" />
    <glyph glyph-name="U" unicode="U" horiz-adv-x="666" 
d="M255 239q-7 -40 0.5 -72.5t26.5 -56t49 -36t68 -12.5q29 11 51 24.5t38 33t26.5 46.5t16.5 66l67 421l-69 11l7 37l100 -2l91 2l-2 -37l-69 -11l-63 -406q-6 -41 -17.5 -75.5t-31.5 -62.5t-50.5 -49.5t-74.5 -36.5l-115 -41q-72 0 -120 18.5t-75 52.5t-34 82t2 106
l63 412l-59 11l7 37l139 -2l154 2l-2 -37l-59 -11z" />
    <glyph glyph-name="V" unicode="V" horiz-adv-x="681" 
d="M256 -15l-125 669l-53 10l7 37l165 -2l140 2l-2 -37l-70 -11l86 -501l-8 -47l239 548l-73 11l7 37l98 -2l82 2l-2 -37l-53 -10l-283 -633z" />
    <glyph glyph-name="W" unicode="W" horiz-adv-x="1001" 
d="M548 403l6 31l-168 -414l-150 -37l-107 670l-53 10l7 38l164 -2l137 2l-2 -38l-71 -11l70 -499l-8 -40l153 386l-24 154l-51 10l7 38l163 -2l142 2l-2 -38l-76 -11l69 -499l-8 -40l213 539l-82 11l7 38l104 -2l81 2l-2 -38l-50 -10l-258 -633l-150 -37z" />
    <glyph glyph-name="X" unicode="X" horiz-adv-x="726" 
d="M78 1l-100 -2l1 39l81 10l242 281l-173 324l-49 11l6 37l128 -2l173 2l-1 -38l-60 -11l103 -202v-24l192 226l-68 11l7 38l116 -2l87 2l-1 -38l-69 -10l-231 -261l184 -344l46 -10l-6 -39l-130 2l-168 -2l2 39l58 11l-112 216v27l-201 -244l65 -10l-7 -39z" />
    <glyph glyph-name="Y" unicode="Y" horiz-adv-x="686" 
d="M437 357v-37l203 332l-71 11l7 38l102 -2l79 1l-2 -37l-54 -11l-239 -377l-35 -226l88 -11l-6 -39l-179 2l-175 -2l1 39l92 11l36 230l-157 373l-49 12l7 37l143 -2l159 2l-1 -38l-66 -11z" />
    <glyph glyph-name="Z" unicode="Z" horiz-adv-x="622" 
d="M3 0l-4 34l433 605l26 18l-218 -3l-101 -161h-40l33 207h523l3 -30l-434 -610l-25 -16l239 2l120 170h40l-52 -216h-543z" />
    <glyph glyph-name="bracketleft" unicode="[" horiz-adv-x="336" 
d="M222 -192l-7 -38l-119 1l-88 -1l90 515l76 430l81 -1l127 1l-7 -38l-109 -9q-14 -69 -26 -137q-11 -58 -23 -124t-21 -120q-6 -32 -12 -69.5t-13 -76.5t-13.5 -78l-12.5 -75q-14 -84 -29 -171z" />
    <glyph glyph-name="backslash" unicode="\" horiz-adv-x="432" 
d="M101 718h55l286 -948h-57z" />
    <glyph glyph-name="bracketright" unicode="]" horiz-adv-x="336" 
d="M60 -183q14 80 29 160q12 69 26.5 146t25.5 142l20.5 123t22.5 132q12 73 25 148l-106 9l7 38l115 -1l93 1l-80 -452l-87 -493l-92 1l-116 -1l7 38l110 9v0z" />
    <glyph glyph-name="asciicircum" unicode="^" horiz-adv-x="382" 
d="M150 460h-76l170 245h33l84 -245h-76l-40 154z" />
    <glyph glyph-name="underscore" unicode="_" horiz-adv-x="583" 
d="M-20 -66h556l-10 -54h-555z" />
    <glyph glyph-name="grave" unicode="`" horiz-adv-x="460" 
d="M240 565l-99 177h142l9 -177h-52z" />
    <glyph glyph-name="a" unicode="a" horiz-adv-x="556" 
d="M193 240q0 -42 8 -74.5t29 -59.5l73 51l42 243q-19 11 -42 17t-46 6q-35 -37 -49.5 -86.5t-14.5 -96.5zM445 57l84 57l17 -21l-151 -109l-115 41l13 73l12 27l-166 -140q-53 21 -83 64.5t-30 116.5q0 46 15 86.5t42 75.5t65 63.5t85 51.5l112 55q42 0 85 -11t85 -31z" />
    <glyph glyph-name="b" unicode="b" horiz-adv-x="539" 
d="M263 714l42 -31l-48 -276l-14 -27l168 118q54 -17 84 -62.5t30 -117.5q0 -45 -13 -86.5t-37.5 -77.5t-59.5 -65t-78 -48l-122 -56q-49 0 -98 13.5t-86 40.5l107 603l-87 -19l-9 27zM246 353l-46 -264q14 -11 40 -21.5t51 -10.5q19 16 31.5 39t20 48.5t11 52t3.5 49.5
q0 47 -10 84t-35 57z" />
    <glyph glyph-name="c" unicode="c" horiz-adv-x="459" 
d="M298 86q23 12 53 28.5t56 33.5l17 -23q-29 -22 -56.5 -40t-66.5 -42l-90 -58q-37 3 -70 17t-58 38t-39.5 57.5t-14.5 75.5q0 46 13 83.5t38.5 69t63.5 59t88 53.5l115 60q28 -4 59.5 -14t60.5 -26l-79 -121q-36 23 -67.5 39t-69.5 30q-31 -31 -42.5 -70.5t-11.5 -78.5
q0 -54 25 -99t76 -72z" />
    <glyph glyph-name="d" unicode="d" horiz-adv-x="574" 
d="M289 28l12 73l12 26l-162 -142q-57 23 -89.5 70.5t-32.5 120.5q0 90 52 156t136 108l112 58q20 -1 40 -7l26 152l-85 -20l-10 28l221 63l41 -30l-110 -627l85 58l17 -21l-151 -110zM310 158l44 248q-24 11 -47 17t-51 6q-15 -17 -26 -39.5t-18.5 -47t-11 -50t-3.5 -49.5
q0 -43 11 -74t34 -58z" />
    <glyph glyph-name="e" unicode="e" horiz-adv-x="476" 
d="M298 87q13 6 30.5 13.5t35.5 16t35 17t31 16.5l16 -22q-35 -22 -74.5 -44.5t-80.5 -43.5l-98 -55q-32 6 -61.5 21.5t-52 40t-36.5 58t-14 74.5q0 42 11 82t34.5 74.5t59 62.5t84.5 46l144 53q45 -8 72.5 -40.5t27.5 -80.5q0 -22 -2.5 -40t-12.5 -42l-251 -73
q10 -40 35 -77t67 -57zM252 431q-32 -26 -47 -70t-14 -94v-10t2 -10l91 33q7 20 8 36t1 34q0 29 -12 52.5t-29 28.5z" />
    <glyph glyph-name="f" unicode="f" horiz-adv-x="357" 
d="M37 443l27 24h56l2 16q10 50 42.5 91.5t75.5 66.5l127 74h100l-19 -113h-129q-12 -10 -18.5 -30.5t-11.5 -42.5l-11 -65h99l-7 -43h-99l-70 -397q-4 -24 -16.5 -46t-31.5 -42.5t-43.5 -40t-51.5 -38.5l-126 -92h-68l24 136h118q11 15 18.5 39.5t12.5 49.5l75 431h-80z
" />
    <glyph glyph-name="g" unicode="g" horiz-adv-x="548" 
d="M11 -235l24 138h217q11 17 20.5 40.5t13.5 48.5l18 108l13 27l-160 -140q-58 20 -91 67t-33 119q0 45 15.5 84t43 72.5t67 62t87.5 52.5l104 54q42 -1 89.5 -10.5t88.5 -29.5l-74 -418q-4 -24 -21.5 -47t-43.5 -46t-60 -46.5t-71 -47.5l-136 -88h-111zM200 240
q0 -44 10 -75.5t35 -55.5l70 48l42 245q-42 25 -88 25q-37 -35 -53 -87.5t-16 -99.5z" />
    <glyph glyph-name="h" unicode="h" horiz-adv-x="586" 
d="M194 0h-160l113 644l-85 -21l-9 27l221 64l41 -31l-51 -285l-10 -20l169 120q70 0 97 -32.5t14 -105.5l-55 -300l84 55l17 -21l-152 -110l-114 44l55 311q3 20 -4.5 32.5t-24.5 12.5q-13 0 -27.5 -6t-29.5 -16l-29 -17z" />
    <glyph glyph-name="i" unicode="i" horiz-adv-x="322" 
d="M177 696l46 8l87 -8v-75l-24 -59l-43 -10l-94 10l3 67zM36 392l-10 25l207 79l47 -40l-70 -396l83 55l17 -21l-152 -110l-114 44l68 388z" />
    <glyph glyph-name="j" unicode="j" horiz-adv-x="316" 
d="M-133 -235l25 134h120q14 25 20.5 51.5t11.5 53.5l73 412l-77 -24l-9 25l207 79l46 -40l-72 -411q-5 -26 -18.5 -49t-34.5 -45t-47 -43.5t-54 -43.5l-131 -99h-60zM182 696l46 8l86 -8v-75l-24 -59l-42 -10l-94 10l3 67z" />
    <glyph glyph-name="k" unicode="k" horiz-adv-x="576" 
d="M323 21l-81 246l-49 -267h-159l112 643l-85 -20l-9 27l221 64l41 -31l-70 -397l11 1l176 201h122l-32 -151h-145q-6 -1 -17.5 -7t-23 -13.5t-22 -14.5t-15.5 -11l-12 -9l131 -38l76 -177l61 40l16 -21l-146 -102z" />
    <glyph glyph-name="l" unicode="l" horiz-adv-x="329" 
d="M63 623l-10 27l221 64l41 -31l-110 -624l85 56l17 -21l-153 -110l-115 44l108 613z" />
    <glyph glyph-name="m" unicode="m" horiz-adv-x="848" 
d="M574 27l54 311q6 44 -24 44q-11 0 -22.5 -6t-22.5 -14l-35 -23l-61 -339h-160l59 340q8 44 -24 44q-10 0 -21.5 -6t-22.5 -14l-36 -23l-60 -341h-160l72 415l-74 -23l-10 25l207 79l45 -38l-11 -64l-9 -19l161 123q63 0 90.5 -27.5t20.5 -89.5v-3l155 120
q68 0 94.5 -32.5t13.5 -105.5l-54 -304l86 58l17 -21l-152 -109z" />
    <glyph glyph-name="n" unicode="n" horiz-adv-x="588" 
d="M198 0h-160l73 415l-75 -23l-10 25l207 79l45 -38l-10 -60l-9 -19l165 119q68 0 95 -32.5t14 -105.5l-53 -302l85 56l17 -21l-153 -109l-115 43l55 312q4 20 -2.5 32.5t-23.5 12.5q-14 0 -28 -6t-28 -16l-29 -17z" />
    <glyph glyph-name="o" unicode="o" horiz-adv-x="535" 
d="M314 498q43 0 81.5 -13t67 -38t45 -62t16.5 -86q0 -90 -49.5 -160.5t-153.5 -116.5l-82 -37q-44 0 -82 12.5t-66.5 37t-45 61t-16.5 85.5q0 181 203 278zM267 437q-17 -14 -30 -37t-22 -51.5t-13.5 -60.5t-4.5 -64q0 -78 24.5 -122.5t64.5 -57.5q18 13 31 36t22 51.5
t13.5 61t4.5 64.5q0 79 -24 123t-66 57z" />
    <glyph glyph-name="p" unicode="p" horiz-adv-x="565" 
d="M378 246q0 46 -10 81.5t-36 56.5l-64 -33l-47 -266q21 -13 46.5 -21.5t49.5 -8.5q18 16 30 39t18.5 49t9.5 53t3 50zM6 -230l114 645l-75 -23l-9 25l206 79l45 -34l-10 -57l-10 -24l164 117q57 -17 86.5 -64t29.5 -119q0 -88 -46 -160.5t-129 -114.5l-110 -55
q-15 2 -30 5.5t-31 8.5l1 -24l-36 -205h-160z" />
    <glyph glyph-name="q" unicode="q" horiz-adv-x="538" 
d="M355 411q-23 10 -48.5 15t-49.5 5q-17 -17 -28 -39.5t-18.5 -47.5t-10.5 -51t-3 -50q0 -43 11 -74t37 -55l65 43zM299 92l15 35l-161 -142q-59 21 -91.5 68t-32.5 122q0 45 14.5 85t40 74t61.5 62.5t79 50.5l100 51q23 0 49.5 -3t53.5 -8.5t52 -12.5t44 -15l-121 -689
h-160z" />
    <glyph glyph-name="r" unicode="r" horiz-adv-x="447" 
d="M37 0l73 415l-74 -23l-10 25l207 79l39 -35l-24 -139l-17 -63l145 229h90l-32 -161h-100q-6 -3 -16.5 -13.5t-22 -23t-22.5 -24.5t-17 -19l-20 -21l-39 -226h-160z" />
    <glyph glyph-name="s" unicode="s" horiz-adv-x="415" 
d="M136 -15q-15 3 -34 8t-37.5 11t-34.5 12t-25 10l55 116q38 -19 85.5 -44.5t100.5 -48.5q8 4 12 10.5t4 13.5q0 14 -9 28t-37 34l-104 73q-28 20 -43.5 47t-15.5 58q0 37 23 70t85 63l105 52q29 -3 62 -12.5t80 -29.5l-62 -116q-39 25 -83 49t-88 43q-12 -8 -12 -23
q0 -14 9.5 -25t35.5 -29l104 -73q36 -26 48 -53.5t12 -55.5q0 -51 -30 -83.5t-74 -50.5z" />
    <glyph glyph-name="t" unicode="t" horiz-adv-x="384" 
d="M44 27l70 393h-79l5 23l27 22h55l7 41l143 112h36l-27 -154h104l-8 -44h-104l-64 -363l128 55l11 -21l-189 -107z" />
    <glyph glyph-name="u" unicode="u" horiz-adv-x="587" 
d="M171 -15q-69 0 -97 32t-15 104l53 296l-77 -24l-9 25l208 78l45 -39l-56 -314q-4 -21 3.5 -32.5t23.5 -11.5q13 0 24.5 6t24.5 15l30 21l61 342h160l-75 -426l85 57l16 -21l-154 -109l-113 39l11 63l11 24l-160 -125v0z" />
    <glyph glyph-name="v" unicode="v" horiz-adv-x="505" 
d="M5 395l-10 24l208 79l45 -44l7 -366l-7 -39l176 258l-102 113l131 78l47 -44l-23 -144l-223 -325l-156 26l-14 409z" />
    <glyph glyph-name="w" unicode="w" horiz-adv-x="752" 
d="M367 11l-5 145l9 37l-131 -208l-143 26l-13 409l-79 -25l-10 24l203 79l49 -44l8 -351l-4 -32l108 174l-6 187l163 53l8 -385l-5 -32l152 243l-94 108l125 79l45 -44l-17 -136l-221 -333z" />
    <glyph glyph-name="x" unicode="x" horiz-adv-x="547" 
d="M262 27l-42 138v20l-107 -188h-118l32 155h110q3 1 9.5 6t13 11.5l13 13l10.5 10.5l22 22l-61 211l-88 -29l-10 25l204 79l49 -40l38 -135v-22l108 184h121l-32 -155h-110q-3 -1 -9 -6t-12.5 -11t-12.5 -12t-10 -9l-27 -21l64 -217l93 57l16 -21l-155 -109z" />
    <glyph glyph-name="y" unicode="y" horiz-adv-x="516" 
d="M276 33l-141 -30l-62 415l-77 -24l-10 25l199 79l48 -37l57 -399l148 253l-99 104l125 79l47 -42l-21 -145l-164 -279l-174 -267h-150l25 149h140z" />
    <glyph glyph-name="z" unicode="z" horiz-adv-x="478" 
d="M69 31l-49 -37l-29 19l345 353l-59 -35l-174 18l-29 -32l-24 8l88 168l296 -28l29 19l24 -17l-320 -329l49 23l190 -33l42 35l21 -8l-93 -171z" />
    <glyph glyph-name="braceleft" unicode="{" horiz-adv-x="333" 
d="M38 267q27 10 42.5 22t24.5 26.5t13 32t8 37.5l32 190q6 32 23.5 58t42.5 44t55.5 28t61.5 10h48l-7 -38h-30q-28 0 -51 -22.5t-33 -82.5l-29 -179q-3 -19 -8 -36.5t-15 -33.5t-27 -30t-45 -25l63 -58l-55 -297q-12 -60 3.5 -82.5t44.5 -22.5h30l-7 -38h-57
q-64 0 -100 38t-25 102l51 285l-55 62z" />
    <glyph glyph-name="bar" unicode="|" horiz-adv-x="394" 
d="M261 718h53l-169 -963h-53z" />
    <glyph glyph-name="braceright" unicode="}" horiz-adv-x="333" 
d="M283 251q-16 -5 -30 -16.5t-25.5 -26t-19 -30t-9.5 -27.5l-42 -241q-6 -32 -23.5 -58t-42.5 -44t-55.5 -28t-61.5 -10h-48l7 38h30q28 0 51 22.5t33 82.5l40 244q1 10 9.5 24.5t21 29t28.5 27.5t33 20q-10 4 -21 14t-20 22t-14.5 24.5t-3.5 20.5l43 233q6 30 5 50
t-8 32.5t-18.5 17.5t-26.5 5h-30l7 38h57q64 0 100 -38t25 -102l-42 -235q-1 -8 3.5 -19.5t12.5 -23t17.5 -22t18.5 -15.5z" />
    <glyph glyph-name="asciitilde" unicode="~" horiz-adv-x="692" 
d="M607 315h38l-53 -82l-101 -37l-339 66l-57 -57h-38l51 80l104 39l338 -66z" />
    <glyph glyph-name="nonbreakingspace" unicode="&#xa0;" horiz-adv-x="0" 
 />
    <glyph glyph-name="exclamdown" unicode="&#xa1;" horiz-adv-x="371" 
d="M44 59l81 176h55l14 -176l-41 -304h-176zM138 323l-35 8l4 70l19 62l97 7l35 -7l-6 -72l-17 -60z" />
    <glyph glyph-name="cent" unicode="&#xa2;" horiz-adv-x="486" 
d="M304 86q23 12 53 28.5t56 33.5l17 -23q-29 -22 -56.5 -40t-66.5 -42l-62 -40l-15 -83h-56l12 70q-32 7 -59.5 22t-47.5 38.5t-32 54t-12 68.5q0 46 13 83.5t38.5 69t63.5 59t88 53.5l38 19l16 92h56l-11 -60l16 9q28 -4 59.5 -14t60.5 -26l-79 -121q-36 23 -67.5 39
t-69.5 30q-31 -31 -42.5 -70.5t-11.5 -78.5q0 -54 25 -99t76 -72z" />
    <glyph glyph-name="sterling" unicode="&#xa3;" horiz-adv-x="595" 
d="M396 648q-25 -15 -36.5 -46.5t-17.5 -65.5l-29 -157h131l-8 -46h-130l-28 -162q-3 -15 -12.5 -34t-21.5 -37t-25 -32.5t-22 -20.5l221 1l77 123h45l-44 -172l-360 2l-121 -2l3 29l70 28l49 277h-69l5 26l24 20h48l21 115q6 33 23.5 60t43 49t57 39.5t67.5 29.5
q1 0 19 6.5t39.5 14.5t39.5 14t19 5q9 -1 25.5 -6t34 -12t33.5 -14.5t25 -13.5l-66 -91q-27 25 -61.5 45.5t-68.5 27.5z" />
    <glyph glyph-name="currency" unicode="&#xa4;" 
d="M101 336q8 88 70 149l-55 67l35 30l56 -68q30 21 65 33t72 12q35 0 68 -12t56 -32l78 66l24 -30l-76 -65q16 -24 24 -55.5t4 -66.5q-3 -41 -20 -77t-46 -65l50 -60l-36 -30l-48 59q-32 -23 -69 -36.5t-76 -13.5t-73 13.5t-57 37.5l-72 -62l-25 31l73 62q-28 48 -22 113z
M138 337q-3 -34 6.5 -63.5t29 -51t47.5 -33.5t63 -12q36 0 71 15t63 40.5t46 59.5t21 72q3 34 -6.5 63t-29.5 50.5t-48.5 34t-63.5 12.5q-37 0 -71.5 -15t-62 -40.5t-45 -59.5t-20.5 -72z" />
    <glyph glyph-name="yen" unicode="&#xa5;" horiz-adv-x="701" 
d="M445 357v-37l202 332l-71 11l7 38l100 -2l81 1l-1 -37l-54 -11l-235 -372h129l-7 -40h-131l-9 -58h128l-7 -40h-127l-14 -93l88 -11l-7 -39l-178 2l-176 -2l2 39l92 11l14 93h-122l7 40h121l9 58h-118l7 40h116l-155 372l-48 12l6 37l144 -2l159 2l-2 -38l-66 -11z" />
    <glyph glyph-name="brokenbar" unicode="&#xa6;" horiz-adv-x="394" 
d="M261 718h53l-75 -430h-53zM167 185h53l-75 -430h-53z" />
    <glyph glyph-name="section" unicode="&#xa7;" horiz-adv-x="592" 
d="M171 -245q-14 1 -35.5 11t-44 24t-43.5 31t-35 31l73 91q14 -15 34.5 -33.5t43 -37t44.5 -34t39 -23.5l7 6q40 29 40 74q0 24 -6 44t-19.5 38t-34 36.5t-47.5 40.5q-26 21 -50.5 41.5t-43.5 43t-30.5 48t-11.5 57.5t10.5 60t28.5 50.5t42 39t51 25.5q-17 15 -27 39.5
t-10 52.5q0 34 14.5 62.5t40.5 52t60.5 40t75.5 26.5l91 23q13 0 31.5 -7t38.5 -18.5t39 -25.5t33 -28l-80 -69q-11 12 -27 26t-34 27.5t-37 25t-35 17.5l-11 -6q-54 -31 -54 -86q0 -32 16.5 -55.5t53.5 -53.5l179 -150v-62q0 -36 -14 -63.5t-35 -48.5t-46 -35.5t-47 -24.5
q44 -41 44 -115q0 -21 -6 -43.5t-23 -45t-49.5 -43.5t-84.5 -39zM300 307q-33 29 -60.5 52t-33.5 30q-18 -13 -25.5 -32.5t-7.5 -37.5q0 -39 29 -70t86 -75l83 -65q19 14 29.5 34.5t10.5 46.5v22z" />
    <glyph glyph-name="dieresis" unicode="&#xa8;" horiz-adv-x="501" 
d="M194 716l33 -7l-3 -61l-23 -53l-73 -6l-35 6l4 62l21 52zM390 716l34 -7l-4 -61l-22 -53l-74 -6l-34 6l3 62l22 52z" />
    <glyph glyph-name="copyright" unicode="&#xa9;" horiz-adv-x="847" 
d="M437 27q59 0 112.5 21.5t94 62t64.5 99.5t24 134q0 85 -29 147t-72.5 102.5t-95 60t-96.5 19.5q-59 0 -112 -21.5t-94 -62t-65 -99.5t-24 -134q0 -85 29 -147t73 -102.5t95 -60t96 -19.5zM439 -15q-75 1 -142.5 26t-118.5 72.5t-81.5 116t-30.5 156.5q0 79 26.5 140.5
t75.5 106t117.5 72.5t151.5 40q75 -1 142.5 -26t118.5 -72.5t81.5 -116t30.5 -156.5q0 -79 -26.5 -140.5t-75.5 -106t-117 -72.5t-152 -40zM612 297l-4 -117q-17 -7 -33.5 -12.5t-35 -10.5t-39.5 -8.5t-48 -6.5q-45 0 -86 12t-71.5 37t-49 61.5t-18.5 86.5q0 101 63.5 153
t179.5 67q45 0 77 -9.5t60 -25.5v-113h-29l-39 82q-13 16 -29.5 27t-45.5 11q-48 0 -79.5 -44.5t-31.5 -130.5q0 -41 7.5 -75t22 -58.5t35 -38t47.5 -13.5q25 0 42.5 9.5t33.5 24.5l43 92h28z" />
    <glyph glyph-name="ordfeminine" unicode="&#xaa;" horiz-adv-x="439" 
d="M163 511q0 -33 6.5 -58t22.5 -47l58 40l33 190q-14 9 -32.5 13.5t-36.5 4.5q-27 -28 -39 -67t-12 -76zM361 368l67 44l13 -16l-119 -86l-90 33l10 57l10 22l-131 -111q-42 17 -65 51t-23 91q0 72 44.5 127t118.5 90l88 43q64 0 133 -32z" />
    <glyph glyph-name="guillemotleft" unicode="&#xab;" horiz-adv-x="538" 
d="M386 15l-142 220l221 220h68l-166 -221l89 -219h-70zM177 15l-142 220l221 220h68l-166 -221l89 -219h-70z" />
    <glyph glyph-name="logicalnot" unicode="&#xac;" 
d="M567 180h-58v125h-457v58h515v-183z" />
    <glyph glyph-name="softhyphen" unicode="&#xad;" horiz-adv-x="375" 
d="M45 317h305l-12 -70h-305z" />
    <glyph glyph-name="registered" unicode="&#xae;" horiz-adv-x="592" 
d="M198 317l23 3v234l-23 3l1 15l60 -1l96 1q34 0 59 -17t25 -50q0 -32 -27.5 -50t-75.5 -23l66 -18l53 -93l16 -4l-1 -16l-51 1l-40 -1l-65 124l-2 2h-16v-107l24 -3l-1 -16l-60 1l-60 -1zM296 444h17q20 0 32.5 15.5t12.5 42.5q0 26 -12 40.5t-30 14.5l-20 -2v-111z
M326 185q-51 0 -97.5 17.5t-81.5 50t-55.5 79.5t-20.5 107q0 54 18 96t51.5 72.5t80 50t103.5 27.5q51 0 97 -17.5t81 -49.5t55.5 -79.5t20.5 -107.5q0 -54 -18 -96t-51 -72.5t-79.5 -50t-103.5 -27.5zM324 209q41 0 78.5 14.5t66 42.5t45.5 69.5t17 95.5q0 61 -20.5 104.5
t-51 71.5t-66.5 41t-67 13q-41 0 -79 -14.5t-66.5 -42.5t-45.5 -69.5t-17 -95.5q0 -60 20.5 -103.5t51.5 -71.5t67 -41.5t67 -13.5z" />
    <glyph glyph-name="macron" unicode="&#xaf;" horiz-adv-x="487" 
d="M103 677h297l-13 -74h-298z" />
    <glyph glyph-name="degree" unicode="&#xb0;" horiz-adv-x="375" 
d="M95 594q0 65 42 100t118 59q33 0 62 -12.5t50.5 -34.5t34.5 -50.5t13 -61.5q0 -66 -37.5 -103.5t-122.5 -56.5q-32 0 -61 13t-51 34.5t-35 50.5t-13 62zM164 594q0 -19 7.5 -36t20 -29.5t29 -20t34.5 -7.5q19 0 35.5 7.5t29 20t19.5 29.5t7 36q0 38 -26.5 65t-64.5 27
t-64.5 -27t-26.5 -65z" />
    <glyph glyph-name="plusminus" unicode="&#xb1;" 
d="M280 131v225h-228v58h228v232h58v-232h229v-58h-229v-225h-58zM50 59h515v-59h-515v59z" />
    <glyph glyph-name="twosuperior" unicode="&#xb2;" horiz-adv-x="380" 
d="M50 398l-6 19l124 110q21 18 42 37.5t37.5 40.5t27 43.5t10.5 48.5t-10.5 44t-29.5 21l-22 -6l-40 -83h-66l5 73l154 48q64 0 93 -23.5t29 -64.5q0 -30 -15 -55t-38 -46t-50 -39t-52 -33l-113 -66l57 13h187v-21l-38 -61h-286z" />
    <glyph glyph-name="threesuperior" unicode="&#xb3;" horiz-adv-x="330" 
d="M49 396l15 86h144q26 22 26 54q0 20 -17.5 34.5t-52.5 15.5l-5 17l39 23q33 18 48 43t15 51q0 18 -7.5 28t-18.5 12l-22 -5l-39 -78h-71l7 70l159 47q57 0 79.5 -18t22.5 -44q0 -20 -11 -35.5t-29 -27.5t-40 -20t-45 -12q59 -5 82 -27t23 -47q0 -27 -15 -46.5t-37 -33.5
t-48 -24t-48 -18l-105 -45h-49z" />
    <glyph glyph-name="acute" unicode="&#xb4;" horiz-adv-x="493" 
d="M144 565l73 177h142l-162 -177h-53z" />
    <glyph glyph-name="uni00B5" unicode="&#xb5;" 
d="M167 -230h-141l125 713h160l-61 -340q-4 -21 3.5 -32.5t23.5 -11.5q12 0 23 5.5t24 14.5l32 21l61 343h160l-74 -419l85 50l17 -21l-154 -111l-114 42l9 61l12 25l-160 -127q-30 0 -57 9.5t-38 27.5l5 -52z" />
    <glyph glyph-name="paragraph" unicode="&#xb6;" horiz-adv-x="576" 
d="M526 700v-40l-50 -10v-810h-59v814h-111v-814h-59v526q-36 0 -70.5 10t-61.5 30.5t-43.5 50t-16.5 68.5q0 31 14.5 57t38.5 47.5t55.5 39t65.5 31.5h297z" />
    <glyph glyph-name="periodcentered" unicode="&#xb7;" horiz-adv-x="468" 
d="M307 478l36 -9l-4 -70l-20 -64l-98 -6l-36 6l6 73l19 61z" />
    <glyph glyph-name="cedilla" unicode="&#xb8;" horiz-adv-x="632" 
d="M335 26l31 -10l-39 -59q42 -3 61.5 -23t19.5 -49q0 -23 -11 -40t-28 -29.5t-37.5 -21.5t-39.5 -16l-67 -27h-46l33 54h76q22 19 22 53q0 32 -16.5 43t-37.5 13z" />
    <glyph glyph-name="onesuperior" unicode="&#xb9;" horiz-adv-x="307" 
d="M190 398l-129 -1l2 27l76 8l55 281l6 10l-18 -13l-65 -16l-6 30l167 62h39l-69 -354l73 -8l-5 -27z" />
    <glyph glyph-name="ordmasculine" unicode="&#xba;" horiz-adv-x="424" 
d="M263 713q34 0 64 -10t52.5 -30t35.5 -49t13 -67q0 -71 -39 -126.5t-121 -92.5l-64 -28q-35 0 -65 9.5t-52.5 29t-35.5 48.5t-13 67q0 141 160 219zM226 665q-28 -22 -42 -69t-14 -99q0 -61 19 -96t51 -45q28 22 42 69t14 99q0 62 -19 96.5t-51 44.5z" />
    <glyph glyph-name="guillemotright" unicode="&#xbb;" horiz-adv-x="546" 
d="M16 15l165 219l-88 221h68l144 -220l-220 -220h-69zM225 15l165 219l-88 221h68l144 -220l-220 -220h-69z" />
    <glyph glyph-name="onequarter" unicode="&#xbc;" horiz-adv-x="803" 
d="M183 -50h-56l521 760h54zM239 349l72 -7l-4 -27l-126 1l-129 -1l2 27l75 7l56 281l6 10l-19 -13l-65 -15l-6 29l167 62h40zM676 160h66l-8 -44h-66l-22 -116h-101l23 116h-142l-13 29l217 249h119l-5 -25l-292 -222l33 13h91l8 44l95 57h17z" />
    <glyph glyph-name="onehalf" unicode="&#xbd;" horiz-adv-x="834" 
d="M182 -50h-57l521 760h55zM239 349l72 -7l-4 -27l-126 1l-129 -1l2 27l75 7l56 281l6 10l-19 -13l-65 -15l-6 29l167 62h40zM775 308q0 -30 -15 -55t-38 -46t-50 -39t-52 -33l-114 -66l57 13h187v-21l-37 -61h-287l-5 19l124 110q21 18 42 37.5t37.5 40.5t27 43.5
t10.5 48.5t-10.5 44t-30.5 21l-21 -6l-40 -83h-66l5 73l154 48q64 0 93 -23.5t29 -64.5z" />
    <glyph glyph-name="threequarters" unicode="&#xbe;" horiz-adv-x="779" 
d="M170 -50h-57l521 760h55zM658 160h66l-9 -44h-65l-23 -116h-100l22 116h-142l-13 29l217 249h119l-4 -25l-293 -222l34 13h91l8 44l95 57h16zM57 313l15 86h144q26 22 26 54q0 20 -17.5 34.5t-52.5 15.5l-5 17l39 23q33 18 48 43t15 51q0 18 -7.5 28t-18.5 12l-22 -5
l-39 -78h-71l7 70l159 47q57 0 79.5 -18t22.5 -44q0 -20 -11 -35.5t-29 -27.5t-40 -20t-45 -12q59 -5 82 -27t23 -47q0 -27 -15 -46.5t-37 -33.5t-48 -24t-48 -18l-105 -45h-49z" />
    <glyph glyph-name="questiondown" unicode="&#xbf;" horiz-adv-x="470" 
d="M276 322l-36 8l4 70l20 63l96 7l36 -7l-5 -72l-19 -61zM296 124l-69 -39q-39 -23 -64 -65.5t-25 -95.5q0 -22 6 -42.5t15 -37t20.5 -27.5t22.5 -13l21 7l58 128h68l-1 -120l-201 -64q-37 0 -71 11t-60.5 31.5t-42 49.5t-15.5 65q0 66 50 110t144 70l57 17l56 138h45z" />
    <glyph glyph-name="Agrave" unicode="&#xc0;" horiz-adv-x="703" 
d="M466 769l-109 139h141l20 -139h-52zM215 274h195l-19 291l5 32zM151 -1l-90 2l-88 -2l3 39l51 10l366 627l161 43l66 -670l53 -10l-8 -39l-178 2l-137 -2l3 39l72 11l-12 182h-220l-106 -182l72 -11z" />
    <glyph glyph-name="Aacute" unicode="&#xc1;" horiz-adv-x="703" 
d="M438 769l64 139h148l-154 -139h-58zM215 274h195l-19 291l5 32zM151 -1l-90 2l-88 -2l3 39l51 10l366 627l161 43l66 -670l53 -10l-8 -39l-178 2l-137 -2l3 39l72 11l-12 182h-220l-106 -182l72 -11z" />
    <glyph glyph-name="Acircumflex" unicode="&#xc2;" horiz-adv-x="703" 
d="M327 769l146 141h94l94 -141h-64l-88 66h-4l-114 -66h-64zM215 274h195l-19 291l5 32zM151 -1l-90 2l-88 -2l3 39l51 10l366 627l161 43l66 -670l53 -10l-8 -39l-178 2l-137 -2l3 39l72 11l-12 182h-220l-106 -182l72 -11z" />
    <glyph glyph-name="Atilde" unicode="&#xc3;" horiz-adv-x="703" 
d="M370 891l60 17l190 -58l48 57h28l-58 -132l-59 -14l-191 60l-47 -58h-28zM215 274h195l-19 291l5 32zM151 -1l-90 2l-88 -2l3 39l51 10l366 627l161 43l66 -670l53 -10l-8 -39l-178 2l-137 -2l3 39l72 11l-12 182h-220l-106 -182l72 -11z" />
    <glyph glyph-name="Adieresis" unicode="&#xc4;" horiz-adv-x="703" 
d="M423 893l33 -7l-3 -61l-23 -53l-73 -7l-35 7l4 62l21 52zM654 893l34 -7l-3 -61l-22 -53l-75 -7l-33 7l3 62l22 52zM215 274h195l-19 291l5 32zM151 -1l-90 2l-88 -2l3 39l51 10l366 627l161 43l66 -670l53 -10l-8 -39l-178 2l-137 -2l3 39l72 11l-12 182h-220l-106 -182
l72 -11z" />
    <glyph glyph-name="Aring" unicode="&#xc5;" horiz-adv-x="703" 
d="M614 850q0 -27 -9.5 -44.5t-25.5 -29.5t-37.5 -19.5t-45.5 -15.5q-23 0 -45 5.5t-39 18t-28 33.5t-11 52q0 26 10 44t26.5 30.5t38.5 21t45 15.5q25 0 47 -5.5t38.5 -18t26 -34t9.5 -53.5zM425 850q0 -29 20 -48t49 -19t49 19t20 48t-20 49t-49 20t-49 -20t-20 -49z
M215 274h195l-19 291l5 32zM151 -1l-90 2l-88 -2l3 39l51 10l366 627l161 43l66 -670l53 -10l-8 -39l-178 2l-137 -2l3 39l72 11l-12 182h-220l-106 -182l72 -11z" />
    <glyph glyph-name="AE" unicode="&#xc6;" horiz-adv-x="916" 
d="M290 359h149l48 304zM-24 38l51 10l434 653l107 -2l370 2l-16 -190h-36l-53 144l-173 2l-46 -296l87 2l71 119h31l-30 -143l-15 -142h-31l-34 118l-85 2l-38 -273l195 2l89 150h37l-40 -197l-390 2l-133 -2l2 39l62 11l41 269h-169l-174 -269l72 -11l-8 -39l-94 2l-87 -2
z" />
    <glyph glyph-name="Ccedilla" unicode="&#xc7;" horiz-adv-x="666" 
d="M217 -195h76q22 19 22 53q0 32 -16.5 43t-37.5 13l50 70q-61 6 -110 29.5t-83 62t-52 91t-18 115.5q0 59 18 118.5t56 113t96.5 96.5t139.5 69l127 40q60 0 101.5 -15t71.5 -32l-9 -205h-46l-43 133q-27 21 -65 36.5t-88 20.5q-81 -40 -122 -124.5t-41 -199.5
q0 -56 12.5 -103t34.5 -83.5t52.5 -61t67.5 -35.5q32 12 55 25t47 33l82 144h49l-42 -198l-252 -72l-18 -25q42 -3 61.5 -23t19.5 -49q0 -23 -11 -40t-28 -29.5t-37.5 -21.5t-39.5 -16l-67 -27h-46z" />
    <glyph glyph-name="Egrave" unicode="&#xc8;" horiz-adv-x="611" 
d="M393 769l-110 139h141l20 -139h-51zM-2 38l61 11l94 603l-59 11l7 38l136 -2l397 2l-16 -197h-42l-53 151l-190 2l-42 -267l92 2l71 118h36l-30 -142l-15 -142h-36l-34 118l-90 2l-47 -302l218 2l93 158h42l-44 -205l-420 2l-131 -2z" />
    <glyph glyph-name="Eacute" unicode="&#xc9;" horiz-adv-x="611" 
d="M350 769l64 139h148l-154 -139h-58zM-2 38l61 11l94 603l-59 11l7 38l136 -2l397 2l-16 -197h-42l-53 151l-190 2l-42 -267l92 2l71 118h36l-30 -142l-15 -142h-36l-34 118l-90 2l-47 -302l218 2l93 158h42l-44 -205l-420 2l-131 -2z" />
    <glyph glyph-name="Ecircumflex" unicode="&#xca;" horiz-adv-x="611" 
d="M225 769l146 141h94l93 -141h-63l-89 66h-4l-114 -66h-63zM-2 38l61 11l94 603l-59 11l7 38l136 -2l397 2l-16 -197h-42l-53 151l-190 2l-42 -267l92 2l71 118h36l-30 -142l-15 -142h-36l-34 118l-90 2l-47 -302l218 2l93 158h42l-44 -205l-420 2l-131 -2z" />
    <glyph glyph-name="Edieresis" unicode="&#xcb;" horiz-adv-x="611" 
d="M327 893l33 -7l-2 -61l-23 -53l-74 -7l-34 7l3 62l22 52zM559 893l34 -7l-4 -61l-22 -53l-74 -7l-34 7l3 62l22 52zM-2 38l61 11l94 603l-59 11l7 38l136 -2l397 2l-16 -197h-42l-53 151l-190 2l-42 -267l92 2l71 118h36l-30 -142l-15 -142h-36l-34 118l-90 2l-47 -302
l218 2l93 158h42l-44 -205l-420 2l-131 -2z" />
    <glyph glyph-name="Igrave" unicode="&#xcc;" horiz-adv-x="352" 
d="M254 769l-109 139h141l20 -139h-52zM398 663l-61 -11l-94 -603l59 -11l-8 -39l-147 2l-149 -2l3 39l62 11l94 603l-59 11l8 38l152 -2l143 2z" />
    <glyph glyph-name="Iacute" unicode="&#xcd;" horiz-adv-x="352" 
d="M294 908h148l-154 -139h-59zM398 663l-61 -11l-94 -603l59 -11l-8 -39l-147 2l-149 -2l3 39l62 11l94 603l-59 11l8 38l152 -2l143 2z" />
    <glyph glyph-name="Icircumflex" unicode="&#xce;" horiz-adv-x="352" 
d="M95 769l146 141h94l93 -141h-63l-89 66h-4l-114 -66h-63zM398 663l-61 -11l-94 -603l59 -11l-8 -39l-147 2l-149 -2l3 39l62 11l94 603l-59 11l8 38l152 -2l143 2z" />
    <glyph glyph-name="Idieresis" unicode="&#xcf;" horiz-adv-x="352" 
d="M205 893l33 -7l-3 -61l-23 -53l-73 -7l-35 7l4 62l21 52zM418 893l34 -7l-3 -61l-22 -53l-75 -7l-33 7l3 62l22 52zM398 663l-61 -11l-94 -603l59 -11l-8 -39l-147 2l-149 -2l3 39l62 11l94 603l-59 11l8 38l152 -2l143 2z" />
    <glyph glyph-name="Eth" unicode="&#xd0;" horiz-adv-x="702" 
d="M144 1l-148 -2l2 39l61 11l46 299h-59l7 38h58l42 267l-58 11l8 37l156 -2l154 2q66 0 119 -20t90 -56.5t57 -87.5t20 -112q1 -135 -73.5 -236.5t-222.5 -153.5l-100 -36zM339 55q36 24 66 60.5t51.5 83t34 101.5t12.5 116q0 52 -10.5 96t-28.5 76.5t-42 50.5t-50 18h-39
l-42 -271h95l-7 -38h-94l-45 -293h99z" />
    <glyph glyph-name="Ntilde" unicode="&#xd1;" horiz-adv-x="674" 
d="M315 891l60 17l189 -58l48 57h29l-58 -132l-60 -14l-191 60l-46 -58h-29zM610 652l-63 11l7 38l85 -1l89 1l-1 -38l-61 -11l-102 -652h-119l-242 547l-6 60l-82 -558l73 -11l-9 -39l-95 2l-88 -2l2 39l61 11l94 604l-57 10l6 38l102 -2l126 2l208 -448l6 -63z" />
    <glyph glyph-name="Ograve" unicode="&#xd2;" horiz-adv-x="733" 
d="M426 769l-110 139h141l20 -139h-51zM244 320q0 -56 9.5 -105t27.5 -87.5t44 -63t58 -30.5q41 21 70 55.5t47 79t26.5 98t8.5 113.5q0 57 -9.5 106.5t-27.5 87.5t-44 63t-58 31q-40 -20 -68.5 -54t-47 -79.5t-27.5 -100t-9 -114.5zM430 718q69 0 125 -23.5t95 -66t60 -102
t21 -131.5q0 -58 -15.5 -115.5t-50.5 -108.5t-90.5 -92.5t-136.5 -67.5l-89 -29q-69 0 -125 23.5t-95 66t-60 102t-21 132.5q0 58 15.5 115.5t50.5 108.5t90.5 92.5t136.5 67.5z" />
    <glyph glyph-name="Oacute" unicode="&#xd3;" horiz-adv-x="733" 
d="M383 769l64 139h148l-154 -139h-58zM244 320q0 -56 9.5 -105t27.5 -87.5t44 -63t58 -30.5q41 21 70 55.5t47 79t26.5 98t8.5 113.5q0 57 -9.5 106.5t-27.5 87.5t-44 63t-58 31q-40 -20 -68.5 -54t-47 -79.5t-27.5 -100t-9 -114.5zM430 718q69 0 125 -23.5t95 -66t60 -102
t21 -131.5q0 -58 -15.5 -115.5t-50.5 -108.5t-90.5 -92.5t-136.5 -67.5l-89 -29q-69 0 -125 23.5t-95 66t-60 102t-21 132.5q0 58 15.5 115.5t50.5 108.5t90.5 92.5t136.5 67.5z" />
    <glyph glyph-name="Ocircumflex" unicode="&#xd4;" horiz-adv-x="733" 
d="M275 769l146 141h94l94 -141h-63l-89 66h-4l-114 -66h-64zM244 320q0 -56 9.5 -105t27.5 -87.5t44 -63t58 -30.5q41 21 70 55.5t47 79t26.5 98t8.5 113.5q0 57 -9.5 106.5t-27.5 87.5t-44 63t-58 31q-40 -20 -68.5 -54t-47 -79.5t-27.5 -100t-9 -114.5zM430 718
q69 0 125 -23.5t95 -66t60 -102t21 -131.5q0 -58 -15.5 -115.5t-50.5 -108.5t-90.5 -92.5t-136.5 -67.5l-89 -29q-69 0 -125 23.5t-95 66t-60 102t-21 132.5q0 58 15.5 115.5t50.5 108.5t90.5 92.5t136.5 67.5z" />
    <glyph glyph-name="Otilde" unicode="&#xd5;" horiz-adv-x="733" 
d="M335 891l60 17l190 -58l48 57h28l-58 -132l-59 -14l-191 60l-47 -58h-28zM244 320q0 -56 9.5 -105t27.5 -87.5t44 -63t58 -30.5q41 21 70 55.5t47 79t26.5 98t8.5 113.5q0 57 -9.5 106.5t-27.5 87.5t-44 63t-58 31q-40 -20 -68.5 -54t-47 -79.5t-27.5 -100t-9 -114.5z
M430 718q69 0 125 -23.5t95 -66t60 -102t21 -131.5q0 -58 -15.5 -115.5t-50.5 -108.5t-90.5 -92.5t-136.5 -67.5l-89 -29q-69 0 -125 23.5t-95 66t-60 102t-21 132.5q0 58 15.5 115.5t50.5 108.5t90.5 92.5t136.5 67.5z" />
    <glyph glyph-name="Odieresis" unicode="&#xd6;" horiz-adv-x="733" 
d="M374 893l33 -7l-3 -61l-23 -53l-73 -7l-34 7l3 62l21 52zM606 893l34 -7l-4 -61l-22 -53l-74 -7l-34 7l3 62l22 52zM244 320q0 -56 9.5 -105t27.5 -87.5t44 -63t58 -30.5q41 21 70 55.5t47 79t26.5 98t8.5 113.5q0 57 -9.5 106.5t-27.5 87.5t-44 63t-58 31
q-40 -20 -68.5 -54t-47 -79.5t-27.5 -100t-9 -114.5zM430 718q69 0 125 -23.5t95 -66t60 -102t21 -131.5q0 -58 -15.5 -115.5t-50.5 -108.5t-90.5 -92.5t-136.5 -67.5l-89 -29q-69 0 -125 23.5t-95 66t-60 102t-21 132.5q0 58 15.5 115.5t50.5 108.5t90.5 92.5t136.5 67.5z
" />
    <glyph glyph-name="multiply" unicode="&#xd7;" 
d="M471 11l-160 161l-162 -163l-42 42l163 162l-165 164l41 42l165 -165l162 163l41 -42l-162 -162l161 -160z" />
    <glyph glyph-name="Oslash" unicode="&#xd8;" horiz-adv-x="733" 
d="M430 718q54 0 99.5 -14.5t82.5 -40.5l45 52h59l-70 -82q41 -43 63 -103t22 -135q0 -58 -15.5 -115.5t-50.5 -108.5t-90.5 -92.5t-136.5 -67.5l-89 -29q-62 0 -112.5 18t-88.5 52l-58 -67h-61l87 101q-33 42 -50.5 97.5t-17.5 122.5q0 58 15.5 115.5t50.5 108.5t90.5 92.5
t136.5 67.5zM535 380q0 58 -11 111l-264 -307q17 -62 48 -102t75 -48q41 21 70 55.5t47 79t26.5 98t8.5 113.5zM244 320q0 -21 1 -40.5t4 -38.5l261 303q-18 51 -47 83.5t-67 40.5q-40 -20 -68.5 -54t-47 -79.5t-27.5 -100t-9 -114.5z" />
    <glyph glyph-name="Ugrave" unicode="&#xd9;" horiz-adv-x="666" 
d="M433 769l-110 139h141l20 -139h-51zM255 239q-7 -40 0.5 -72.5t26.5 -56t49 -36t68 -12.5q29 11 51 24.5t38 33t26.5 46.5t16.5 66l67 421l-69 11l7 37l100 -2l91 2l-2 -37l-69 -11l-63 -406q-6 -41 -17.5 -75.5t-31.5 -62.5t-50.5 -49.5t-74.5 -36.5l-115 -41
q-72 0 -120 18.5t-75 52.5t-34 82t2 106l63 412l-59 11l7 37l139 -2l154 2l-2 -37l-59 -11z" />
    <glyph glyph-name="Uacute" unicode="&#xda;" horiz-adv-x="666" 
d="M416 769l64 139h148l-154 -139h-58zM255 239q-7 -40 0.5 -72.5t26.5 -56t49 -36t68 -12.5q29 11 51 24.5t38 33t26.5 46.5t16.5 66l67 421l-69 11l7 37l100 -2l91 2l-2 -37l-69 -11l-63 -406q-6 -41 -17.5 -75.5t-31.5 -62.5t-50.5 -49.5t-74.5 -36.5l-115 -41
q-72 0 -120 18.5t-75 52.5t-34 82t2 106l63 412l-59 11l7 37l139 -2l154 2l-2 -37l-59 -11z" />
    <glyph glyph-name="Ucircumflex" unicode="&#xdb;" horiz-adv-x="666" 
d="M284 769l146 141h94l94 -141h-64l-88 66h-5l-114 -66h-63zM255 239q-7 -40 0.5 -72.5t26.5 -56t49 -36t68 -12.5q29 11 51 24.5t38 33t26.5 46.5t16.5 66l67 421l-69 11l7 37l100 -2l91 2l-2 -37l-69 -11l-63 -406q-6 -41 -17.5 -75.5t-31.5 -62.5t-50.5 -49.5
t-74.5 -36.5l-115 -41q-72 0 -120 18.5t-75 52.5t-34 82t2 106l63 412l-59 11l7 37l139 -2l154 2l-2 -37l-59 -11z" />
    <glyph glyph-name="Udieresis" unicode="&#xdc;" horiz-adv-x="666" 
d="M387 893l33 -7l-3 -61l-23 -53l-73 -7l-35 7l4 62l21 52zM618 893l34 -7l-3 -61l-22 -53l-75 -7l-33 7l2 62l23 52zM255 239q-7 -40 0.5 -72.5t26.5 -56t49 -36t68 -12.5q29 11 51 24.5t38 33t26.5 46.5t16.5 66l67 421l-69 11l7 37l100 -2l91 2l-2 -37l-69 -11l-63 -406
q-6 -41 -17.5 -75.5t-31.5 -62.5t-50.5 -49.5t-74.5 -36.5l-115 -41q-72 0 -120 18.5t-75 52.5t-34 82t2 106l63 412l-59 11l7 37l139 -2l154 2l-2 -37l-59 -11z" />
    <glyph glyph-name="Yacute" unicode="&#xdd;" horiz-adv-x="686" 
d="M445 769l64 139h148l-154 -139h-58zM437 357v-37l203 332l-71 11l7 38l102 -2l79 1l-2 -37l-54 -11l-239 -377l-35 -226l88 -11l-6 -39l-179 2l-175 -2l1 39l92 11l36 230l-157 373l-49 12l7 37l143 -2l159 2l-1 -38l-66 -11z" />
    <glyph glyph-name="Thorn" unicode="&#xde;" horiz-adv-x="611" 
d="M143 1l-147 -2l2 39l63 11l93 604l-58 11l7 38l150 -2l145 2l-2 -38l-62 -11l-14 -93h110q94 0 148 -40t54 -111q0 -44 -18.5 -77.5t-49.5 -60t-71.5 -46.5t-85.5 -36l-89 -33h-61l-17 -107l63 -11l-8 -39zM360 216q36 32 58.5 78t22.5 106t-24.5 90t-61.5 30h-42
l-47 -304h94z" />
    <glyph glyph-name="germandbls" unicode="&#xdf;" horiz-adv-x="612" 
d="M-109 -100h112q11 16 20 41.5t14 50.5l74 428h-85l5 21l28 24h60l2 12q10 56 41 97.5t76 64.5l158 78q42 0 77 -7t60.5 -21.5t40 -36.5t14.5 -53q0 -23 -9.5 -44t-26 -39t-37.5 -32.5t-45 -24.5l-46 -21q-6 -11 -6 -28q0 -29 36 -60q1 -2 9.5 -9t18.5 -15.5t19 -16
t12 -9.5q42 -34 60.5 -65.5t18.5 -66.5q0 -49 -29 -83t-83 -55l-110 -45q-13 3 -32 10.5t-37.5 16t-35 16.5t-24.5 12l63 105q31 -22 70.5 -47t80.5 -45q9 4 16 12.5t7 18.5q0 22 -17.5 44t-57.5 57l-51 43q-27 26 -37.5 49t-12.5 46q-3 29 7 58l64 61q59 56 59 137
q0 20 -7 36.5t-18 28t-23.5 18t-23.5 7.5q-37 -32 -51.5 -70.5t-22.5 -84.5l-85 -485q-8 -43 -40 -80.5t-89 -79.5l-141 -104h-64z" />
    <glyph glyph-name="agrave" unicode="&#xe0;" horiz-adv-x="556" 
d="M369 565l-99 177h142l9 -177h-52zM193 240q0 -42 8 -74.5t29 -59.5l73 51l42 243q-19 11 -42 17t-46 6q-35 -37 -49.5 -86.5t-14.5 -96.5zM445 57l84 57l17 -21l-151 -109l-115 41l13 73l12 27l-166 -140q-53 21 -83 64.5t-30 116.5q0 46 15 86.5t42 75.5t65 63.5
t85 51.5l112 55q42 0 85 -11t85 -31z" />
    <glyph glyph-name="aacute" unicode="&#xe1;" horiz-adv-x="556" 
d="M323 565l73 177h142l-162 -177h-53zM193 240q0 -42 8 -74.5t29 -59.5l73 51l42 243q-19 11 -42 17t-46 6q-35 -37 -49.5 -86.5t-14.5 -96.5zM445 57l84 57l17 -21l-151 -109l-115 41l13 73l12 27l-166 -140q-53 21 -83 64.5t-30 116.5q0 46 15 86.5t42 75.5t65 63.5
t85 51.5l112 55q42 0 85 -11t85 -31z" />
    <glyph glyph-name="acircumflex" unicode="&#xe2;" horiz-adv-x="556" 
d="M219 565l140 178h80l77 -178h-51l-80 89h-3l-112 -89h-51zM193 240q0 -42 8 -74.5t29 -59.5l73 51l42 243q-19 11 -42 17t-46 6q-35 -37 -49.5 -86.5t-14.5 -96.5zM445 57l84 57l17 -21l-151 -109l-115 41l13 73l12 27l-166 -140q-53 21 -83 64.5t-30 116.5q0 46 15 86.5
t42 75.5t65 63.5t85 51.5l112 55q42 0 85 -11t85 -31z" />
    <glyph glyph-name="atilde" unicode="&#xe3;" horiz-adv-x="556" 
d="M241 706l60 17l190 -59l48 58h28l-58 -132l-59 -14l-191 60l-47 -59h-28zM193 240q0 -42 8 -74.5t29 -59.5l73 51l42 243q-19 11 -42 17t-46 6q-35 -37 -49.5 -86.5t-14.5 -96.5zM445 57l84 57l17 -21l-151 -109l-115 41l13 73l12 27l-166 -140q-53 21 -83 64.5
t-30 116.5q0 46 15 86.5t42 75.5t65 63.5t85 51.5l112 55q42 0 85 -11t85 -31z" />
    <glyph glyph-name="adieresis" unicode="&#xe4;" horiz-adv-x="556" 
d="M322 716l33 -7l-2 -61l-23 -53l-74 -6l-34 6l4 62l21 52zM518 716l34 -7l-4 -61l-22 -53l-74 -6l-33 6l2 62l23 52zM193 240q0 -42 8 -74.5t29 -59.5l73 51l42 243q-19 11 -42 17t-46 6q-35 -37 -49.5 -86.5t-14.5 -96.5zM445 57l84 57l17 -21l-151 -109l-115 41l13 73
l12 27l-166 -140q-53 21 -83 64.5t-30 116.5q0 46 15 86.5t42 75.5t65 63.5t85 51.5l112 55q42 0 85 -11t85 -31z" />
    <glyph glyph-name="aring" unicode="&#xe5;" horiz-adv-x="556" 
d="M504 658q0 -27 -9.5 -44.5t-25.5 -29t-37.5 -19.5t-45.5 -16q-22 0 -44 5.5t-39.5 18t-28.5 33.5t-11 52q0 26 10 44t27 30.5t39 21t45 15.5q25 0 47 -5.5t38 -18t25.5 -34t9.5 -53.5zM316 658q0 -29 19.5 -48t48.5 -19t49 19t20 48t-20 49t-49 20t-48.5 -20t-19.5 -49z
M193 240q0 -42 8 -74.5t29 -59.5l73 51l42 243q-19 11 -42 17t-46 6q-35 -37 -49.5 -86.5t-14.5 -96.5zM445 57l84 57l17 -21l-151 -109l-115 41l13 73l12 27l-166 -140q-53 21 -83 64.5t-30 116.5q0 46 15 86.5t42 75.5t65 63.5t85 51.5l112 55q42 0 85 -11t85 -31z" />
    <glyph glyph-name="ae" unicode="&#xe6;" horiz-adv-x="748" 
d="M571 87q13 6 30 13.5t35 16t35 17t31 16.5l16 -22q-35 -22 -74.5 -44.5t-80.5 -43.5l-98 -55q-27 5 -52 17t-46 30t-36.5 43t-22.5 55l-169 -145q-53 21 -83 64.5t-30 116.5q0 46 15 86.5t42 75.5t65 63.5t85 51.5l112 55q41 0 84.5 -14t81.5 -34l5 3l118 44
q45 -8 72.5 -40.5t27.5 -80.5q0 -22 -2.5 -40t-11.5 -42l-251 -73q10 -42 35 -78t67 -56zM193 240q0 -42 8 -74.5t29 -59.5l72 51v22q0 57 19.5 108t62.5 92q-26 16 -57.5 30t-69.5 14q-35 -37 -49.5 -86.5t-14.5 -96.5zM525 431q-29 -23 -42 -64t-15 -84q-4 -16 -3 -35
l91 32q7 20 8 36t1 34q0 29 -12 52.5t-28 28.5z" />
    <glyph glyph-name="ccedilla" unicode="&#xe7;" horiz-adv-x="459" 
d="M94 -249h-47l34 54h75q11 9 17 23t6 30q0 32 -17 43t-38 13l54 76q-31 7 -58 22.5t-47.5 39t-32 54t-11.5 67.5q0 46 13 83.5t38.5 69t63.5 59t88 53.5l115 60q28 -4 59.5 -14t60.5 -26l-79 -121q-36 23 -67.5 39t-69.5 30q-31 -31 -42.5 -70.5t-11.5 -78.5q0 -54 25 -99
t76 -72q23 12 53 28.5t56 33.5l17 -23q-29 -22 -56.5 -40t-66.5 -42l-84 -55l-21 -31q42 -3 61.5 -23t19.5 -49q0 -23 -11 -40t-28 -29.5t-37.5 -21.5t-39.5 -16z" />
    <glyph glyph-name="egrave" unicode="&#xe8;" horiz-adv-x="476" 
d="M298 87q13 6 30.5 13.5t35.5 16t35 17t31 16.5l16 -22q-35 -22 -74.5 -44.5t-80.5 -43.5l-98 -55q-32 6 -61.5 21.5t-52 40t-36.5 58t-14 74.5q0 42 11 82t34.5 74.5t59 62.5t84.5 46l144 53q45 -8 72.5 -40.5t27.5 -80.5q0 -22 -2.5 -40t-12.5 -42l-251 -73
q10 -40 35 -77t67 -57zM292 565l-98 177h142l8 -177h-52zM252 431q-32 -26 -47 -70t-14 -94v-10t2 -10l91 33q7 20 8 36t1 34q0 29 -12 52.5t-29 28.5z" />
    <glyph glyph-name="eacute" unicode="&#xe9;" horiz-adv-x="476" 
d="M298 87q13 6 30.5 13.5t35.5 16t35 17t31 16.5l16 -22q-35 -22 -74.5 -44.5t-80.5 -43.5l-98 -55q-32 6 -61.5 21.5t-52 40t-36.5 58t-14 74.5q0 42 11 82t34.5 74.5t59 62.5t84.5 46l144 53q45 -8 72.5 -40.5t27.5 -80.5q0 -22 -2.5 -40t-12.5 -42l-251 -73
q10 -40 35 -77t67 -57zM270 565l73 177h142l-162 -177h-53zM252 431q-32 -26 -47 -70t-14 -94v-10t2 -10l91 33q7 20 8 36t1 34q0 29 -12 52.5t-29 28.5z" />
    <glyph glyph-name="ecircumflex" unicode="&#xea;" horiz-adv-x="476" 
d="M298 87q13 6 30.5 13.5t35.5 16t35 17t31 16.5l16 -22q-35 -22 -74.5 -44.5t-80.5 -43.5l-98 -55q-32 6 -61.5 21.5t-52 40t-36.5 58t-14 74.5q0 42 11 82t34.5 74.5t59 62.5t84.5 46l144 53q45 -8 72.5 -40.5t27.5 -80.5q0 -22 -2.5 -40t-12.5 -42l-251 -73
q10 -40 35 -77t67 -57zM168 565l140 178h80l78 -178h-52l-79 89h-4l-111 -89h-52zM252 431q-32 -26 -47 -70t-14 -94v-10t2 -10l91 33q7 20 8 36t1 34q0 29 -12 52.5t-29 28.5z" />
    <glyph glyph-name="edieresis" unicode="&#xeb;" horiz-adv-x="476" 
d="M298 87q13 6 30.5 13.5t35.5 16t35 17t31 16.5l16 -22q-35 -22 -74.5 -44.5t-80.5 -43.5l-98 -55q-32 6 -61.5 21.5t-52 40t-36.5 58t-14 74.5q0 42 11 82t34.5 74.5t59 62.5t84.5 46l144 53q45 -8 72.5 -40.5t27.5 -80.5q0 -22 -2.5 -40t-12.5 -42l-251 -73
q10 -40 35 -77t67 -57zM257 716l33 -7l-2 -61l-23 -53l-74 -6l-34 6l4 62l21 52zM453 716l34 -7l-4 -61l-22 -53l-74 -6l-33 6l2 62l23 52zM252 431q-32 -26 -47 -70t-14 -94v-10t2 -10l91 33q7 20 8 36t1 34q0 29 -12 52.5t-29 28.5z" />
    <glyph glyph-name="igrave" unicode="&#xec;" horiz-adv-x="322" 
d="M210 565l-99 177h142l9 -177h-52zM36 392l-10 25l207 79l47 -40l-70 -396l83 55l17 -21l-152 -110l-114 44l68 388z" />
    <glyph glyph-name="iacute" unicode="&#xed;" horiz-adv-x="322" 
d="M172 565l73 177h142l-162 -177h-53zM36 392l-10 25l207 79l47 -40l-70 -396l83 55l17 -21l-152 -110l-114 44l68 388z" />
    <glyph glyph-name="icircumflex" unicode="&#xee;" horiz-adv-x="322" 
d="M62 565l140 178h80l77 -178h-51l-80 89h-3l-112 -89h-51zM36 392l-10 25l207 79l47 -40l-70 -396l83 55l17 -21l-152 -110l-114 44l68 388z" />
    <glyph glyph-name="idieresis" unicode="&#xef;" horiz-adv-x="322" 
d="M161 716l33 -7l-2 -61l-23 -53l-74 -6l-34 6l4 62l21 52zM357 716l34 -7l-4 -61l-22 -53l-74 -6l-33 6l2 62l23 52zM36 392l-10 25l207 79l47 -40l-70 -396l83 55l17 -21l-152 -110l-114 44l68 388z" />
    <glyph glyph-name="eth" unicode="&#xf0;" horiz-adv-x="539" 
d="M282 499l76 -43q-7 42 -24 79t-43 66l-114 -58v40l85 43q-20 17 -42.5 30t-47.5 20l14 41q82 -24 141 -57l105 54v-41l-70 -35q51 -35 83 -76.5t49.5 -85t24 -87.5t6.5 -85q0 -63 -17.5 -109.5t-47.5 -81t-70.5 -58.5t-86.5 -42l-70 -28q-47 1 -84.5 17.5t-64 45
t-41 67.5t-14.5 85q0 42 12.5 83t37 77t61 65.5t83.5 49.5zM354 398q-5 3 -17.5 8.5t-26 10.5t-25 8.5t-14.5 4.5q-18 -12 -31.5 -36t-22.5 -54.5t-13.5 -65t-4.5 -68.5q0 -44 7 -73.5t18 -48.5t24.5 -28.5t26.5 -12.5q19 12 33.5 37.5t24.5 59.5t15.5 74.5t5.5 82.5v101z
" />
    <glyph glyph-name="ntilde" unicode="&#xf1;" horiz-adv-x="588" 
d="M226 706l60 17l189 -59l48 58h29l-58 -132l-60 -14l-191 60l-46 -59h-29zM198 0h-160l73 415l-75 -23l-10 25l207 79l45 -38l-10 -60l-9 -19l165 119q68 0 95 -32.5t14 -105.5l-53 -302l85 56l17 -21l-153 -109l-115 43l55 312q4 20 -2.5 32.5t-23.5 12.5q-14 0 -28 -6
t-28 -16l-29 -17z" />
    <glyph glyph-name="ograve" unicode="&#xf2;" horiz-adv-x="535" 
d="M289 565l-98 177h142l8 -177h-52zM314 498q43 0 81.5 -13t67 -38t45 -62t16.5 -86q0 -90 -49.5 -160.5t-153.5 -116.5l-82 -37q-44 0 -82 12.5t-66.5 37t-45 61t-16.5 85.5q0 181 203 278zM267 437q-17 -14 -30 -37t-22 -51.5t-13.5 -60.5t-4.5 -64q0 -78 24.5 -122.5
t64.5 -57.5q18 13 31 36t22 51.5t13.5 61t4.5 64.5q0 79 -24 123t-66 57z" />
    <glyph glyph-name="oacute" unicode="&#xf3;" horiz-adv-x="535" 
d="M287 565l73 177h142l-162 -177h-53zM314 498q43 0 81.5 -13t67 -38t45 -62t16.5 -86q0 -90 -49.5 -160.5t-153.5 -116.5l-82 -37q-44 0 -82 12.5t-66.5 37t-45 61t-16.5 85.5q0 181 203 278zM267 437q-17 -14 -30 -37t-22 -51.5t-13.5 -60.5t-4.5 -64q0 -78 24.5 -122.5
t64.5 -57.5q18 13 31 36t22 51.5t13.5 61t4.5 64.5q0 79 -24 123t-66 57z" />
    <glyph glyph-name="ocircumflex" unicode="&#xf4;" horiz-adv-x="535" 
d="M186 565l140 178h80l78 -178h-52l-79 89h-4l-111 -89h-52zM314 498q43 0 81.5 -13t67 -38t45 -62t16.5 -86q0 -90 -49.5 -160.5t-153.5 -116.5l-82 -37q-44 0 -82 12.5t-66.5 37t-45 61t-16.5 85.5q0 181 203 278zM267 437q-17 -14 -30 -37t-22 -51.5t-13.5 -60.5
t-4.5 -64q0 -78 24.5 -122.5t64.5 -57.5q18 13 31 36t22 51.5t13.5 61t4.5 64.5q0 79 -24 123t-66 57z" />
    <glyph glyph-name="otilde" unicode="&#xf5;" horiz-adv-x="535" 
d="M216 706l60 17l189 -59l48 58h29l-58 -132l-60 -14l-191 60l-46 -59h-29zM314 498q43 0 81.5 -13t67 -38t45 -62t16.5 -86q0 -90 -49.5 -160.5t-153.5 -116.5l-82 -37q-44 0 -82 12.5t-66.5 37t-45 61t-16.5 85.5q0 181 203 278zM267 437q-17 -14 -30 -37t-22 -51.5
t-13.5 -60.5t-4.5 -64q0 -78 24.5 -122.5t64.5 -57.5q18 13 31 36t22 51.5t13.5 61t4.5 64.5q0 79 -24 123t-66 57z" />
    <glyph glyph-name="odieresis" unicode="&#xf6;" horiz-adv-x="535" 
d="M288 716l33 -7l-3 -61l-23 -53l-73 -6l-35 6l4 62l21 52zM484 716l34 -7l-4 -61l-22 -53l-74 -6l-34 6l3 62l22 52zM314 498q43 0 81.5 -13t67 -38t45 -62t16.5 -86q0 -90 -49.5 -160.5t-153.5 -116.5l-82 -37q-44 0 -82 12.5t-66.5 37t-45 61t-16.5 85.5q0 181 203 278z
M267 437q-17 -14 -30 -37t-22 -51.5t-13.5 -60.5t-4.5 -64q0 -78 24.5 -122.5t64.5 -57.5q18 13 31 36t22 51.5t13.5 61t4.5 64.5q0 79 -24 123t-66 57z" />
    <glyph glyph-name="divide" unicode="&#xf7;" 
d="M340 144l37 -8l8 -70l-9 -63l-95 -7l-37 7l-7 73l7 60zM47 290h525v-58h-525v58zM340 518l37 -9l8 -70l-9 -62l-95 -7l-37 7l-7 72l7 60z" />
    <glyph glyph-name="oslash" unicode="&#xf8;" horiz-adv-x="535" 
d="M314 498q39 0 74 -10.5t62 -30.5l30 32h47l-51 -56q23 -25 35.5 -58t12.5 -76q0 -90 -49.5 -160.5t-153.5 -116.5l-82 -37q-81 0 -138 40l-33 -36h-48l55 60q-22 24 -34 57t-12 75q0 181 203 278zM357 257q0 23 -3 44l-148 -161q11 -40 31.5 -64t48.5 -32q18 13 31 36
t22 51.5t13.5 61t4.5 64.5zM267 437q-17 -14 -30 -37t-22 -51.5t-13.5 -60.5t-4.5 -64v-21t2 -20l147 161q-11 38 -31 61t-48 32z" />
    <glyph glyph-name="ugrave" unicode="&#xf9;" horiz-adv-x="587" 
d="M329 565l-99 177h142l9 -177h-52zM171 -15q-69 0 -97 32t-15 104l53 296l-77 -24l-9 25l208 78l45 -39l-56 -314q-4 -21 3.5 -32.5t23.5 -11.5q13 0 24.5 6t24.5 15l30 21l61 342h160l-75 -426l85 57l16 -21l-154 -109l-113 39l11 63l11 24z" />
    <glyph glyph-name="uacute" unicode="&#xfa;" horiz-adv-x="587" 
d="M311 565l73 177h142l-162 -177h-53zM171 -15q-69 0 -97 32t-15 104l53 296l-77 -24l-9 25l208 78l45 -39l-56 -314q-4 -21 3.5 -32.5t23.5 -11.5q13 0 24.5 6t24.5 15l30 21l61 342h160l-75 -426l85 57l16 -21l-154 -109l-113 39l11 63l11 24z" />
    <glyph glyph-name="ucircumflex" unicode="&#xfb;" horiz-adv-x="587" 
d="M220 565l140 178h80l77 -178h-51l-80 89h-3l-112 -89h-51zM171 -15q-69 0 -97 32t-15 104l53 296l-77 -24l-9 25l208 78l45 -39l-56 -314q-4 -21 3.5 -32.5t23.5 -11.5q13 0 24.5 6t24.5 15l30 21l61 342h160l-75 -426l85 57l16 -21l-154 -109l-113 39l11 63l11 24z" />
    <glyph glyph-name="udieresis" unicode="&#xfc;" horiz-adv-x="587" 
d="M316 716l33 -7l-3 -61l-23 -53l-73 -6l-35 6l4 62l21 52zM512 716l34 -7l-4 -61l-22 -53l-74 -6l-34 6l3 62l22 52zM171 -15q-69 0 -97 32t-15 104l53 296l-77 -24l-9 25l208 78l45 -39l-56 -314q-4 -21 3.5 -32.5t23.5 -11.5q13 0 24.5 6t24.5 15l30 21l61 342h160
l-75 -426l85 57l16 -21l-154 -109l-113 39l11 63l11 24z" />
    <glyph glyph-name="yacute" unicode="&#xfd;" horiz-adv-x="516" 
d="M268 565l73 177h142l-162 -177h-53zM276 33l-141 -30l-62 415l-77 -24l-10 25l199 79l48 -37l57 -399l148 253l-99 104l125 79l47 -42l-21 -145l-164 -279l-174 -267h-150l25 149h140z" />
    <glyph glyph-name="thorn" unicode="&#xfe;" horiz-adv-x="562" 
d="M72 623l-9 27l221 64l41 -31l-51 -283l-10 -24l159 122q57 -14 89 -61.5t32 -121.5q0 -88 -45 -159.5t-130 -115.5l-106 -55q-11 0 -30 5.5t-32 8.5l-2 -28l-35 -201h-158l153 873zM264 341l-46 -257q21 -14 45.5 -22t48.5 -9q18 16 30 39.5t19.5 50t10.5 53t3 50.5
q0 45 -11 79t-37 55z" />
    <glyph glyph-name="ydieresis" unicode="&#xff;" horiz-adv-x="516" 
d="M277 716l33 -7l-3 -61l-23 -53l-73 -6l-35 6l4 62l21 52zM473 716l34 -7l-4 -61l-22 -53l-74 -6l-34 6l3 62l22 52zM276 33l-141 -30l-62 415l-77 -24l-10 25l199 79l48 -37l57 -399l148 253l-99 104l125 79l47 -42l-21 -145l-164 -279l-174 -267h-150l25 149h140z" />
    <glyph glyph-name="Amacron" unicode="&#x100;" horiz-adv-x="703" 
d="M363 864h297l-13 -73h-298zM215 274h195l-19 291l5 32zM151 -1l-90 2l-88 -2l3 39l51 10l366 627l161 43l66 -670l53 -10l-8 -39l-178 2l-137 -2l3 39l72 11l-12 182h-220l-106 -182l72 -11z" />
    <glyph glyph-name="amacron" unicode="&#x101;" horiz-adv-x="556" 
d="M257 677h297l-13 -74h-298zM193 240q0 -42 8 -74.5t29 -59.5l73 51l42 243q-19 11 -42 17t-46 6q-35 -37 -49.5 -86.5t-14.5 -96.5zM445 57l84 57l17 -21l-151 -109l-115 41l13 73l12 27l-166 -140q-53 21 -83 64.5t-30 116.5q0 46 15 86.5t42 75.5t65 63.5t85 51.5
l112 55q42 0 85 -11t85 -31z" />
    <glyph glyph-name="Abreve" unicode="&#x102;" horiz-adv-x="703" 
d="M495 849q24 0 45 6t38 14.5t30 18t22 16.5l24 -21q-14 -21 -27 -37t-31 -29.5t-42.5 -26.5t-59.5 -27q-32 0 -57 10t-44 26.5t-31.5 38t-18.5 44.5l31 21q7 -7 17.5 -16t25 -17.5t34 -14.5t44.5 -6zM215 274h195l-19 291l5 32zM151 -1l-90 2l-88 -2l3 39l51 10l366 627
l161 43l66 -670l53 -10l-8 -39l-178 2l-137 -2l3 39l72 11l-12 182h-220l-106 -182l72 -11z" />
    <glyph glyph-name="abreve" unicode="&#x103;" horiz-adv-x="556" 
d="M380 654q25 0 46 7t38 17t30.5 21.5t22.5 19.5l24 -21q-14 -22 -27.5 -39t-31.5 -32t-42.5 -29t-60.5 -30q-32 0 -56.5 10.5t-43 28.5t-30.5 41.5t-18 49.5l31 21q6 -8 16.5 -19.5t24.5 -21.5t33.5 -17t43.5 -7zM193 240q0 -42 8 -74.5t29 -59.5l73 51l42 243
q-19 11 -42 17t-46 6q-35 -37 -49.5 -86.5t-14.5 -96.5zM445 57l84 57l17 -21l-151 -109l-115 41l13 73l12 27l-166 -140q-53 21 -83 64.5t-30 116.5q0 46 15 86.5t42 75.5t65 63.5t85 51.5l112 55q42 0 85 -11t85 -31z" />
    <glyph glyph-name="Aogonek" unicode="&#x104;" horiz-adv-x="703" 
d="M472 -249q-57 0 -96 6.5t-61.5 19t-30.5 31.5t-3 44l12 70l133 106l-13 203h-220l-106 -182l72 -11l-8 -39l-94 2l-84 -2l3 39l51 10l366 627l161 43l66 -670l53 -10l-8 -39l-219 2l-52 -104l-8 -41q-2 -13 -1.5 -26t9.5 -24t28.5 -18t55.5 -7zM215 274h195l-19 291l5 32
z" />
    <glyph glyph-name="aogonek" unicode="&#x105;" horiz-adv-x="556" 
d="M452 -249q-57 0 -96 6.5t-61.5 19t-30.5 31.5t-3 44l12 70l100 69l-93 34l13 73l12 27l-166 -140q-53 21 -83 64.5t-30 116.5q0 46 15 86.5t42 75.5t65 63.5t85 51.5l112 55q42 0 85 -11t85 -31l-70 -399l84 57l17 -21l-99 -71l-73 -125l-8 -41q-2 -13 -1.5 -26t9.5 -24
t28.5 -18t55.5 -7zM345 400q-19 11 -42 17t-46 6q-35 -37 -49.5 -86.5t-14.5 -96.5q0 -42 8 -74.5t29 -59.5l73 51z" />
    <glyph glyph-name="Cacute" unicode="&#x106;" horiz-adv-x="666" 
d="M474 908h148l-154 -139h-58zM350 -18q-70 0 -126 21.5t-95 60.5t-60 94.5t-21 123.5q0 59 18 118.5t56 113t96.5 96.5t139.5 69l127 40q60 0 101.5 -15t71.5 -32l-9 -205h-46l-43 133q-27 21 -65 36.5t-88 20.5q-81 -40 -122 -124.5t-41 -199.5q0 -56 12.5 -103
t34.5 -83.5t52.5 -61t67.5 -35.5q32 12 55 25t47 33l82 144h49l-42 -198z" />
    <glyph glyph-name="cacute" unicode="&#x107;" horiz-adv-x="459" 
d="M279 565l73 177h142l-162 -177h-53zM298 86q23 12 53 28.5t56 33.5l17 -23q-29 -22 -56.5 -40t-66.5 -42l-90 -58q-37 3 -70 17t-58 38t-39.5 57.5t-14.5 75.5q0 46 13 83.5t38.5 69t63.5 59t88 53.5l115 60q28 -4 59.5 -14t60.5 -26l-79 -121q-36 23 -67.5 39t-69.5 30
q-31 -31 -42.5 -70.5t-11.5 -78.5q0 -54 25 -99t76 -72z" />
    <glyph glyph-name="Ccircumflex" unicode="&#x108;" horiz-adv-x="666" 
d="M308 769l146 141h94l93 -141h-63l-89 66h-4l-114 -66h-63zM350 -18q-70 0 -126 21.5t-95 60.5t-60 94.5t-21 123.5q0 59 18 118.5t56 113t96.5 96.5t139.5 69l127 40q60 0 101.5 -15t71.5 -32l-9 -205h-46l-43 133q-27 21 -65 36.5t-88 20.5q-81 -40 -122 -124.5
t-41 -199.5q0 -56 12.5 -103t34.5 -83.5t52.5 -61t67.5 -35.5q32 12 55 25t47 33l82 144h49l-42 -198z" />
    <glyph glyph-name="ccircumflex" unicode="&#x109;" horiz-adv-x="459" 
d="M187 565l140 178h80l78 -178h-52l-79 89h-4l-111 -89h-52zM298 86q23 12 53 28.5t56 33.5l17 -23q-29 -22 -56.5 -40t-66.5 -42l-90 -58q-37 3 -70 17t-58 38t-39.5 57.5t-14.5 75.5q0 46 13 83.5t38.5 69t63.5 59t88 53.5l115 60q28 -4 59.5 -14t60.5 -26l-79 -121
q-36 23 -67.5 39t-69.5 30q-31 -31 -42.5 -70.5t-11.5 -78.5q0 -54 25 -99t76 -72z" />
    <glyph glyph-name="Cdotaccent" unicode="&#x10a;" horiz-adv-x="666" 
d="M438 898l66 5l53 -7l-4 -68l-24 -57l-62 -7l-57 7l5 69zM350 -18q-70 0 -126 21.5t-95 60.5t-60 94.5t-21 123.5q0 59 18 118.5t56 113t96.5 96.5t139.5 69l127 40q60 0 101.5 -15t71.5 -32l-9 -205h-46l-43 133q-27 21 -65 36.5t-88 20.5q-81 -40 -122 -124.5
t-41 -199.5q0 -56 12.5 -103t34.5 -83.5t52.5 -61t67.5 -35.5q32 12 55 25t47 33l82 144h49l-42 -198z" />
    <glyph glyph-name="cdotaccent" unicode="&#x10b;" horiz-adv-x="459" 
d="M312 721l66 5l54 -6l-5 -68l-24 -58l-61 -7l-58 7l6 69zM298 86q23 12 53 28.5t56 33.5l17 -23q-29 -22 -56.5 -40t-66.5 -42l-90 -58q-37 3 -70 17t-58 38t-39.5 57.5t-14.5 75.5q0 46 13 83.5t38.5 69t63.5 59t88 53.5l115 60q28 -4 59.5 -14t60.5 -26l-79 -121
q-36 23 -67.5 39t-69.5 30q-31 -31 -42.5 -70.5t-11.5 -78.5q0 -54 25 -99t76 -72z" />
    <glyph glyph-name="Ccaron" unicode="&#x10c;" horiz-adv-x="666" 
d="M647 910l-145 -141h-94l-94 141h63l89 -66h4l114 66h63zM350 -18q-70 0 -126 21.5t-95 60.5t-60 94.5t-21 123.5q0 59 18 118.5t56 113t96.5 96.5t139.5 69l127 40q60 0 101.5 -15t71.5 -32l-9 -205h-46l-43 133q-27 21 -65 36.5t-88 20.5q-81 -40 -122 -124.5
t-41 -199.5q0 -56 12.5 -103t34.5 -83.5t52.5 -61t67.5 -35.5q32 12 55 25t47 33l82 144h49l-42 -198z" />
    <glyph glyph-name="ccaron" unicode="&#x10d;" horiz-adv-x="459" 
d="M503 738l-139 -173h-80l-79 173h52l81 -84h3l111 84h51zM298 86q23 12 53 28.5t56 33.5l17 -23q-29 -22 -56.5 -40t-66.5 -42l-90 -58q-37 3 -70 17t-58 38t-39.5 57.5t-14.5 75.5q0 46 13 83.5t38.5 69t63.5 59t88 53.5l115 60q28 -4 59.5 -14t60.5 -26l-79 -121
q-36 23 -67.5 39t-69.5 30q-31 -31 -42.5 -70.5t-11.5 -78.5q0 -54 25 -99t76 -72z" />
    <glyph glyph-name="Dcaron" unicode="&#x10e;" horiz-adv-x="702" 
d="M583 910l-146 -141h-94l-94 141h64l88 -66h4l115 66h63zM144 1l-148 -2l2 39l61 11l94 604l-58 11l8 37l156 -2l154 2q66 0 119 -20t90 -56.5t57 -87.5t20 -112q1 -135 -73.5 -236.5t-222.5 -153.5l-100 -36zM339 55q36 24 66 60.5t51.5 83t34 101.5t12.5 116
q0 52 -10.5 96t-28.5 76.5t-42 50.5t-50 18h-39l-93 -602h99z" />
    <glyph glyph-name="dcaron" unicode="&#x10f;" horiz-adv-x="727" 
d="M598 675l7 39h147l-14 -79l-131 -132l-38 7l63 121zM289 28l12 73l12 26l-162 -142q-57 23 -89.5 70.5t-32.5 120.5q0 90 52 156t136 108l112 58q20 -1 40 -7l26 152l-85 -20l-10 28l221 63l41 -30l-110 -627l85 58l17 -21l-151 -110zM310 158l44 248q-24 11 -47 17
t-51 6q-15 -17 -26 -39.5t-18.5 -47t-11 -50t-3.5 -49.5q0 -43 11 -74t34 -58z" />
    <glyph glyph-name="Dcroat" unicode="&#x110;" horiz-adv-x="702" 
d="M144 1l-148 -2l2 39l61 11l46 297h-60l8 40h58l42 267l-58 11l8 37l156 -2l154 2q66 0 119 -20t90 -56.5t57 -87.5t20 -112q1 -135 -73.5 -236.5t-222.5 -153.5l-100 -36zM339 55q36 24 66 60.5t51.5 83t34 101.5t12.5 116q0 52 -10.5 96t-28.5 76.5t-42 50.5t-50 18h-39
l-42 -271h95l-7 -40h-94l-45 -291h99z" />
    <glyph glyph-name="dcroat" unicode="&#x111;" horiz-adv-x="574" 
d="M289 28l12 73l12 26l-162 -142q-57 23 -89.5 70.5t-32.5 120.5q0 90 52 156t136 108l112 58q20 -1 40 -7l9 57h-97l6 33h97l11 62l-85 -20l-10 28l221 63l41 -30l-18 -103h66l-6 -33h-66l-86 -491l85 58l17 -21l-151 -110zM310 158l44 248q-24 11 -47 17t-51 6
q-15 -17 -26 -39.5t-18.5 -47t-11 -50t-3.5 -49.5q0 -43 11 -74t34 -58z" />
    <glyph glyph-name="Emacron" unicode="&#x112;" horiz-adv-x="611" 
d="M267 864h298l-14 -73h-297zM-2 38l61 11l94 603l-59 11l7 38l136 -2l397 2l-16 -197h-42l-53 151l-190 2l-42 -267l92 2l71 118h36l-30 -142l-15 -142h-36l-34 118l-90 2l-47 -302l218 2l93 158h42l-44 -205l-420 2l-131 -2z" />
    <glyph glyph-name="emacron" unicode="&#x113;" horiz-adv-x="476" 
d="M298 87q13 6 30.5 13.5t35.5 16t35 17t31 16.5l16 -22q-35 -22 -74.5 -44.5t-80.5 -43.5l-98 -55q-32 6 -61.5 21.5t-52 40t-36.5 58t-14 74.5q0 42 11 82t34.5 74.5t59 62.5t84.5 46l144 53q45 -8 72.5 -40.5t27.5 -80.5q0 -22 -2.5 -40t-12.5 -42l-251 -73
q10 -40 35 -77t67 -57zM191 677h298l-14 -74h-298zM252 431q-32 -26 -47 -70t-14 -94v-10t2 -10l91 33q7 20 8 36t1 34q0 29 -12 52.5t-29 28.5z" />
    <glyph glyph-name="Ebreve" unicode="&#x114;" horiz-adv-x="611" 
d="M402 849q24 0 45 6t38.5 14.5t30.5 18t22 16.5l23 -21q-14 -21 -27 -37t-31 -29.5t-42.5 -26.5t-59.5 -27q-32 0 -57 10t-44 26.5t-31.5 38t-18.5 44.5l31 21q7 -7 17.5 -16t25 -17.5t34 -14.5t44.5 -6zM-2 38l61 11l94 603l-59 11l7 38l136 -2l397 2l-16 -197h-42
l-53 151l-190 2l-42 -267l92 2l71 118h36l-30 -142l-15 -142h-36l-34 118l-90 2l-47 -302l218 2l93 158h42l-44 -205l-420 2l-131 -2z" />
    <glyph glyph-name="ebreve" unicode="&#x115;" horiz-adv-x="476" 
d="M298 87q13 6 30.5 13.5t35.5 16t35 17t31 16.5l16 -22q-35 -22 -74.5 -44.5t-80.5 -43.5l-98 -55q-32 6 -61.5 21.5t-52 40t-36.5 58t-14 74.5q0 42 11 82t34.5 74.5t59 62.5t84.5 46l144 53q45 -8 72.5 -40.5t27.5 -80.5q0 -22 -2.5 -40t-12.5 -42l-251 -73
q10 -40 35 -77t67 -57zM323 654q25 0 46 7t38 17t30.5 21.5t22.5 19.5l24 -21q-14 -22 -27.5 -39t-31.5 -32t-42.5 -29t-60.5 -30q-32 0 -56.5 10.5t-43 28.5t-30.5 41.5t-18 49.5l31 21q6 -8 16.5 -19.5t24.5 -21.5t33.5 -17t43.5 -7zM252 431q-32 -26 -47 -70t-14 -94v-10
t2 -10l91 33q7 20 8 36t1 34q0 29 -12 52.5t-29 28.5z" />
    <glyph glyph-name="Edotaccent" unicode="&#x116;" horiz-adv-x="611" 
d="M359 889l66 5l54 -7l-5 -68l-24 -57l-61 -7l-58 7l6 69zM-2 38l61 11l94 603l-59 11l7 38l136 -2l397 2l-16 -197h-42l-53 151l-190 2l-42 -267l92 2l71 118h36l-30 -142l-15 -142h-36l-34 118l-90 2l-47 -302l218 2l93 158h42l-44 -205l-420 2l-131 -2z" />
    <glyph glyph-name="edotaccent" unicode="&#x117;" horiz-adv-x="476" 
d="M298 87q13 6 30.5 13.5t35.5 16t35 17t31 16.5l16 -22q-35 -22 -74.5 -44.5t-80.5 -43.5l-98 -55q-32 6 -61.5 21.5t-52 40t-36.5 58t-14 74.5q0 42 11 82t34.5 74.5t59 62.5t84.5 46l144 53q45 -8 72.5 -40.5t27.5 -80.5q0 -22 -2.5 -40t-12.5 -42l-251 -73
q10 -40 35 -77t67 -57zM287 721l66 5l54 -6l-5 -68l-24 -58l-61 -7l-58 7l6 69zM252 431q-32 -26 -47 -70t-14 -94v-10t2 -10l91 33q7 20 8 36t1 34q0 29 -12 52.5t-29 28.5z" />
    <glyph glyph-name="Eogonek" unicode="&#x118;" horiz-adv-x="611" 
d="M504 -249q-57 0 -96 6.5t-61.5 19t-30.5 31.5t-3 44l12 70l103 78l-300 1l-132 -2l2 39l61 11l94 603l-59 11l7 38l135 -2l398 2l-16 -197h-42l-53 151l-190 2l-42 -267l92 2l71 118h36l-30 -142l-15 -142h-36l-34 118l-90 2l-47 -302l218 2l93 158h42l-44 -205l-66 1
l-55 -103l-8 -41q-2 -13 -1.5 -26t9.5 -24t28.5 -18t55.5 -7l-6 -30v0z" />
    <glyph glyph-name="eogonek" unicode="&#x119;" horiz-adv-x="476" 
d="M126 -88l111 93q-1 0 -7.5 -3t-14.5 -7l-22 -10q-32 6 -61.5 21.5t-52 40t-36.5 58t-14 74.5q0 42 11 82t34.5 74.5t59 62.5t84.5 46l144 53q45 -8 72.5 -40.5t27.5 -80.5q0 -22 -2.5 -40t-12.5 -42l-250 -73q10 -42 34.5 -78t66.5 -56q13 6 30.5 13.5t35.5 16t35 17
t31 16.5l16 -22q-30 -19 -62.5 -37.5t-67.5 -38.5l-18 -12l-69 -134l-8 -50q-2 -13 -1.5 -26t9 -24t28 -18t55.5 -7l-5 -30q-58 0 -97 6.5t-61.5 19t-30.5 31.5t-3 44zM252 431q-32 -25 -46.5 -69.5t-14.5 -93.5q0 -5 0.5 -10t1.5 -10l91 32q7 20 8 36t1 34q0 29 -12 52.5
t-29 28.5z" />
    <glyph glyph-name="Ecaron" unicode="&#x11a;" horiz-adv-x="611" 
d="M580 910l-145 -141h-94l-94 141h63l89 -66h4l114 66h63zM-2 38l61 11l94 603l-59 11l7 38l136 -2l397 2l-16 -197h-42l-53 151l-190 2l-42 -267l92 2l71 118h36l-30 -142l-15 -142h-36l-34 118l-90 2l-47 -302l218 2l93 158h42l-44 -205l-420 2l-131 -2z" />
    <glyph glyph-name="ecaron" unicode="&#x11b;" horiz-adv-x="476" 
d="M298 87q13 6 30.5 13.5t35.5 16t35 17t31 16.5l16 -22q-35 -22 -74.5 -44.5t-80.5 -43.5l-98 -55q-32 6 -61.5 21.5t-52 40t-36.5 58t-14 74.5q0 42 11 82t34.5 74.5t59 62.5t84.5 46l144 53q45 -8 72.5 -40.5t27.5 -80.5q0 -22 -2.5 -40t-12.5 -42l-251 -73
q10 -40 35 -77t67 -57zM481 738l-139 -173h-80l-79 173h51l81 -84h4l110 84h52zM252 431q-32 -26 -47 -70t-14 -94v-10t2 -10l91 33q7 20 8 36t1 34q0 29 -12 52.5t-29 28.5z" />
    <glyph glyph-name="Gcircumflex" unicode="&#x11c;" horiz-adv-x="694" 
d="M301 769l145 141h94l94 -141h-63l-89 66h-4l-114 -66h-63zM321 -18q-64 0 -114.5 23t-86 63t-54 93.5t-18.5 114.5t18.5 121.5t56.5 114t97.5 97.5t142.5 71l120 38q63 0 107 -15t73 -32l-10 -203h-45l-42 129q-33 27 -72.5 42.5t-90.5 18.5q-43 -23 -73 -58.5t-49 -78.5
t-28 -91t-9 -96q0 -121 41 -191t111 -99q11 2 22.5 7t18.5 9l33 219l-63 11l7 40l148 -1l129 1l-1 -40l-42 -11l-34 -218z" />
    <glyph glyph-name="gcircumflex" unicode="&#x11d;" horiz-adv-x="548" 
d="M223 565l140 178h80l77 -178h-51l-80 89h-3l-112 -89h-51zM11 -235l24 138h217q11 17 20.5 40.5t13.5 48.5l18 108l13 27l-160 -140q-58 20 -91 67t-33 119q0 45 15.5 84t43 72.5t67 62t87.5 52.5l104 54q42 -1 89.5 -10.5t88.5 -29.5l-74 -418q-4 -24 -21.5 -47
t-43.5 -46t-60 -46.5t-71 -47.5l-136 -88h-111zM200 240q0 -44 10 -75.5t35 -55.5l70 48l42 245q-42 25 -88 25q-37 -35 -53 -87.5t-16 -99.5z" />
    <glyph glyph-name="Gbreve" unicode="&#x11e;" horiz-adv-x="694" 
d="M453 849q25 0 46 6t38 14.5t30 18t22 16.5l24 -21q-14 -21 -27.5 -37t-31.5 -29.5t-42 -26.5t-59 -27q-32 0 -57.5 10t-44 26.5t-31 38t-18.5 44.5l31 21q7 -7 17.5 -16t25 -17.5t34 -14.5t43.5 -6zM321 -18q-64 0 -114.5 23t-86 63t-54 93.5t-18.5 114.5t18.5 121.5
t56.5 114t97.5 97.5t142.5 71l120 38q63 0 107 -15t73 -32l-10 -203h-45l-42 129q-33 27 -72.5 42.5t-90.5 18.5q-43 -23 -73 -58.5t-49 -78.5t-28 -91t-9 -96q0 -121 41 -191t111 -99q11 2 22.5 7t18.5 9l33 219l-63 11l7 40l148 -1l129 1l-1 -40l-42 -11l-34 -218z" />
    <glyph glyph-name="gbreve" unicode="&#x11f;" horiz-adv-x="548" 
d="M356 654q24 0 45 7t38.5 17t31 21.5t22.5 19.5l23 -21q-14 -22 -27.5 -39t-31.5 -32t-42.5 -29t-59.5 -30q-32 0 -56.5 10.5t-43.5 28.5t-31 41.5t-18 49.5l32 21q6 -8 16 -19.5t24.5 -21.5t33.5 -17t44 -7zM11 -235l24 138h217q11 17 20.5 40.5t13.5 48.5l18 108l13 27
l-160 -140q-58 20 -91 67t-33 119q0 45 15.5 84t43 72.5t67 62t87.5 52.5l104 54q42 -1 89.5 -10.5t88.5 -29.5l-74 -418q-4 -24 -21.5 -47t-43.5 -46t-60 -46.5t-71 -47.5l-136 -88h-111zM200 240q0 -44 10 -75.5t35 -55.5l70 48l42 245q-42 25 -88 25q-37 -35 -53 -87.5
t-16 -99.5z" />
    <glyph glyph-name="Gdotaccent" unicode="&#x120;" horiz-adv-x="694" 
d="M420 898l66 5l53 -7l-4 -68l-24 -57l-62 -7l-57 7l5 69zM321 -18q-64 0 -114.5 23t-86 63t-54 93.5t-18.5 114.5t18.5 121.5t56.5 114t97.5 97.5t142.5 71l120 38q63 0 107 -15t73 -32l-10 -203h-45l-42 129q-33 27 -72.5 42.5t-90.5 18.5q-43 -23 -73 -58.5t-49 -78.5
t-28 -91t-9 -96q0 -121 41 -191t111 -99q11 2 22.5 7t18.5 9l33 219l-63 11l7 40l148 -1l129 1l-1 -40l-42 -11l-34 -218z" />
    <glyph glyph-name="gdotaccent" unicode="&#x121;" horiz-adv-x="548" 
d="M323 721l66 5l53 -6l-4 -68l-24 -58l-62 -7l-57 7l5 69zM11 -235l24 138h217q11 17 20.5 40.5t13.5 48.5l18 108l13 27l-160 -140q-58 20 -91 67t-33 119q0 45 15.5 84t43 72.5t67 62t87.5 52.5l104 54q42 -1 89.5 -10.5t88.5 -29.5l-74 -418q-4 -24 -21.5 -47t-43.5 -46
t-60 -46.5t-71 -47.5l-136 -88h-111zM200 240q0 -44 10 -75.5t35 -55.5l70 48l42 245q-42 25 -88 25q-37 -35 -53 -87.5t-16 -99.5z" />
    <glyph glyph-name="Gcommaaccent" unicode="&#x122;" horiz-adv-x="694" 
d="M248 -92l7 41h144l-14 -79l-129 -125l-37 7l60 115zM321 -18q-64 0 -114.5 23t-86 63t-54 93.5t-18.5 114.5t18.5 121.5t56.5 114t97.5 97.5t142.5 71l120 38q63 0 107 -15t73 -32l-10 -203h-45l-42 129q-33 27 -72.5 42.5t-90.5 18.5q-43 -23 -73 -58.5t-49 -78.5
t-28 -91t-9 -96q0 -121 41 -191t111 -99q11 2 22.5 7t18.5 9l33 219l-63 11l7 40l148 -1l129 1l-1 -40l-42 -11l-34 -218z" />
    <glyph glyph-name="gcommaaccent" unicode="&#x123;" horiz-adv-x="548" 
d="M310 643l130 132l37 -7l-60 -121l30 -44l-8 -43h-144zM11 -235l24 138h217q11 17 20.5 40.5t13.5 48.5l18 108l13 27l-160 -140q-58 20 -91 67t-33 119q0 45 15.5 84t43 72.5t67 62t87.5 52.5l104 54q42 -1 89.5 -10.5t88.5 -29.5l-74 -418q-4 -24 -21.5 -47t-43.5 -46
t-60 -46.5t-71 -47.5l-136 -88h-111zM200 240q0 -44 10 -75.5t35 -55.5l70 48l42 245q-42 25 -88 25q-37 -35 -53 -87.5t-16 -99.5z" />
    <glyph glyph-name="Hcircumflex" unicode="&#x124;" horiz-adv-x="736" 
d="M294 769l146 141h94l93 -141h-63l-88 66h-5l-114 -66h-63zM146 1l-150 -2l2 39l62 11l93 603l-58 11l7 38l148 -2l144 2l-2 -38l-56 -11l-42 -268h203l42 268l-54 11l7 38l143 -2l149 2l-2 -38l-61 -11l-94 -603l59 -11l-7 -39l-149 2l-144 -2l2 39l57 11l46 292h-203
l-46 -292l54 -11l-7 -39z" />
    <glyph glyph-name="hcircumflex" unicode="&#x125;" horiz-adv-x="586" 
d="M82 768l146 143h94l93 -143h-63l-89 68h-4l-114 -68h-63zM194 0h-160l113 644l-85 -21l-9 27l221 64l41 -31l-51 -285l-10 -20l169 120q70 0 97 -32.5t14 -105.5l-55 -300l84 55l17 -21l-152 -110l-114 44l55 311q3 20 -4.5 32.5t-24.5 12.5q-13 0 -27.5 -6t-29.5 -16
l-29 -17z" />
    <glyph glyph-name="Hbar" unicode="&#x126;" horiz-adv-x="736" 
d="M146 1l-150 -2l2 39l62 11l93 603l-58 11l7 38l148 -2l144 2l-2 -38l-56 -11l-20 -124h203l20 124l-54 11l7 38l143 -2l149 2l-2 -38l-61 -11l-94 -603l59 -11l-7 -39l-149 2l-144 -2l2 39l57 11l46 292h-203l-46 -292l54 -11l-7 -39zM497 384l17 109h-203l-17 -109h203z
" />
    <glyph glyph-name="hbar" unicode="&#x127;" horiz-adv-x="586" 
d="M194 0h-160l96 548h-75l6 33h75l11 63l-85 -21l-9 27l221 64l41 -31l-18 -102h87l-6 -33h-87l-27 -150l-10 -20l169 120q70 0 97 -32.5t14 -105.5l-55 -300l84 55l17 -21l-152 -110l-114 44l55 311q3 20 -4.5 32.5t-24.5 12.5q-13 0 -27.5 -6t-29.5 -16l-29 -17z" />
    <glyph glyph-name="Itilde" unicode="&#x128;" horiz-adv-x="352" 
d="M148 891l60 17l190 -58l48 57h28l-58 -132l-59 -14l-191 60l-46 -58h-29zM398 663l-61 -11l-94 -603l59 -11l-8 -39l-147 2l-149 -2l3 39l62 11l94 603l-59 11l8 38l152 -2l143 2z" />
    <glyph glyph-name="itilde" unicode="&#x129;" horiz-adv-x="322" 
d="M79 706l60 17l189 -59l48 58h29l-58 -132l-60 -14l-191 60l-46 -59h-29zM36 392l-10 25l207 79l47 -40l-70 -396l83 55l17 -21l-152 -110l-114 44l68 388z" />
    <glyph glyph-name="Imacron" unicode="&#x12a;" horiz-adv-x="352" 
d="M131 864h298l-14 -73h-298zM398 663l-61 -11l-94 -603l59 -11l-8 -39l-147 2l-149 -2l3 39l62 11l94 603l-59 11l8 38l152 -2l143 2z" />
    <glyph glyph-name="imacron" unicode="&#x12b;" horiz-adv-x="322" 
d="M80 677h298l-14 -74h-298zM36 392l-10 25l207 79l47 -40l-70 -396l83 55l17 -21l-152 -110l-114 44l68 388z" />
    <glyph glyph-name="Ibreve" unicode="&#x12c;" horiz-adv-x="352" 
d="M283 849q25 0 46 6t38 14.5t30 18t22 16.5l24 -21q-14 -21 -27.5 -37t-31.5 -29.5t-42.5 -26.5t-59.5 -27q-32 0 -57 10t-43.5 26.5t-31 38t-18.5 44.5l31 21q7 -7 17 -16t25 -17.5t34 -14.5t44 -6zM398 663l-61 -11l-94 -603l59 -11l-8 -39l-147 2l-149 -2l3 39l62 11
l94 603l-59 11l8 38l152 -2l143 2z" />
    <glyph glyph-name="ibreve" unicode="&#x12d;" horiz-adv-x="322" 
d="M219 654q24 0 45 7t38.5 17t31 21.5t22.5 19.5l23 -21q-14 -22 -27.5 -39t-31.5 -32t-42.5 -29t-59.5 -30q-32 0 -56.5 10.5t-43.5 28.5t-31 41.5t-18 49.5l32 21q6 -8 16 -19.5t24.5 -21.5t33.5 -17t44 -7zM36 392l-10 25l207 79l47 -40l-70 -396l83 55l17 -21
l-152 -110l-114 44l68 388z" />
    <glyph glyph-name="Iogonek" unicode="&#x12e;" horiz-adv-x="352" 
d="M398 663l-61 -11l-94 -603l59 -11l-8 -39l-108 1l-55 -104l-8 -40q-2 -13 -1.5 -26.5t9.5 -24.5t28.5 -18t55.5 -7l-6 -30q-57 0 -96 6.5t-61.5 19t-30.5 31.5t-3 44l12 70l103 80l-135 -2l3 39l62 11l94 603l-59 11l8 38l152 -2l143 2z" />
    <glyph glyph-name="iogonek" unicode="&#x12f;" horiz-adv-x="322" 
d="M177 696l46 8l87 -8v-75l-24 -59l-43 -10l-94 10l3 67zM225 -249q-58 0 -96.5 6.5t-61 19t-30.5 31.5t-3 44l12 70l91 70l-93 36l68 388l-76 -24l-10 25l207 79l47 -40l-70 -396l83 55l17 -21l-94 -68l-70 -129l-7 -41q-2 -13 -1.5 -26t9.5 -24t28.5 -18t55.5 -7z" />
    <glyph glyph-name="Idotaccent" unicode="&#x130;" horiz-adv-x="352" 
d="M233 889l66 5l54 -7l-5 -68l-24 -57l-61 -7l-58 7l6 69zM398 663l-61 -11l-94 -603l59 -11l-8 -39l-147 2l-149 -2l3 39l62 11l94 603l-59 11l8 38l152 -2l143 2z" />
    <glyph glyph-name="dotlessi" unicode="&#x131;" horiz-adv-x="322" 
d="M36 392l-10 25l207 79l47 -40l-70 -396l83 55l17 -21l-152 -110l-114 44l68 388z" />
    <glyph glyph-name="IJ" unicode="&#x132;" horiz-adv-x="625" 
d="M334 653l-94 -604l49 -11l-7 -39l-138 2l-148 -2l2 39l63 11l93 604l-58 11l7 38l152 -2l138 2l-2 -38zM487 653l-53 11l8 38l142 -1l148 1l-3 -38l-61 -11l-82 -518q-11 -68 -48.5 -116t-95.5 -88l-155 -104h-69l26 127h119q13 39 23.5 75.5t16.5 76.5z" />
    <glyph glyph-name="ij" unicode="&#x133;" horiz-adv-x="600" 
d="M177 696l46 8l87 -8v-75l-24 -59l-43 -10l-94 10l3 67zM36 392l-10 25l207 79l47 -40l-70 -396l83 55l17 -21l-152 -110l-114 44l68 388zM153 -235l24 134h120q14 25 20.5 51.5t11.5 53.5l72 412l-76 -24l-9 25l206 79l47 -40l-72 -411q-5 -26 -18.5 -49t-34.5 -45
t-47 -43.5t-55 -43.5l-129 -99h-60zM466 696l47 8l86 -8v-75l-24 -59l-43 -10l-94 10l3 67z" />
    <glyph glyph-name="Jcircumflex" unicode="&#x134;" horiz-adv-x="367" 
d="M106 769l145 141h94l94 -141h-63l-89 66h-4l-114 -66h-63zM171 652l-69 11l8 38l157 -2l148 2l-3 -38l-61 -11l-81 -518q-11 -68 -49 -116t-96 -88l-155 -103h-69l26 126h119q14 39 24 75.5t16 77.5z" />
    <glyph glyph-name="jcircumflex" unicode="&#x135;" horiz-adv-x="315" 
d="M62 565l140 178h80l77 -178h-51l-80 89h-3l-112 -89h-51zM-133 -235l25 134h120q14 25 20.5 51.5t11.5 53.5l73 412l-77 -24l-9 25l207 79l46 -40l-72 -411q-5 -26 -18.5 -49t-34.5 -45t-47 -43.5t-54 -43.5l-131 -99h-60z" />
    <glyph glyph-name="Kcommaaccent" unicode="&#x136;" horiz-adv-x="746" 
d="M276 -92l7 41h145l-14 -79l-129 -125l-37 7l59 115zM334 652l-42 -270l17 8l288 262l-79 11l7 38l115 -2l123 2l-1 -38l-89 -11l-305 -265l100 -18l196 -322l42 -9l-7 -39l-99 2l-121 -2l-183 339l-8 20l-48 -309l54 -11l-7 -39l-143 2l-148 -2l2 39l63 11l93 603l-58 11
l7 38l152 -2l139 2l-3 -38z" />
    <glyph glyph-name="kcommaaccent" unicode="&#x137;" horiz-adv-x="576" 
d="M164 -92l7 41h145l-14 -79l-129 -125l-37 7l59 115zM323 21l-81 246l-49 -267h-159l112 643l-85 -20l-9 27l221 64l41 -31l-70 -397l11 1l176 201h122l-32 -151h-145q-6 -1 -17.5 -7t-23 -13.5t-22 -14.5t-15.5 -11l-12 -9l131 -38l76 -177l61 40l16 -21l-146 -102z" />
    <glyph glyph-name="kgreenlandic" unicode="&#x138;" horiz-adv-x="573" 
d="M244 284l11 2l176 202h122l-32 -151h-145q-6 -1 -17.5 -7t-23 -13.5t-22 -15t-15.5 -11.5l-12 -9l131 -38l76 -176l61 40l16 -21l-146 -102l-101 37l-81 245l-49 -266h-159l72 417l-76 -24l-10 25l207 78l47 -40z" />
    <glyph glyph-name="Lacute" unicode="&#x139;" horiz-adv-x="572" 
d="M289 908h148l-154 -139h-58zM239 44l180 2l109 165h42l-48 -212l-392 2l-134 -2l2 39l62 11l94 603l-59 11l8 38l136 -2l159 2l-3 -38l-62 -11z" />
    <glyph glyph-name="lacute" unicode="&#x13a;" horiz-adv-x="329" 
d="M208 769l64 139h148l-154 -139h-58zM63 623l-10 27l221 64l41 -31l-110 -624l85 56l17 -21l-153 -110l-115 44l108 613z" />
    <glyph glyph-name="Lcommaaccent" unicode="&#x13b;" horiz-adv-x="572" 
d="M185 -92l7 41h145l-14 -79l-129 -125l-38 7l60 115zM239 44l180 2l109 165h42l-48 -212l-392 2l-134 -2l2 39l62 11l94 603l-59 11l8 38l136 -2l159 2l-3 -38l-62 -11z" />
    <glyph glyph-name="lcommaaccent" unicode="&#x13c;" horiz-adv-x="329" 
d="M28 -92l7 41h144l-13 -79l-129 -125l-38 7l60 115zM63 623l-10 27l221 64l41 -31l-110 -624l85 56l17 -21l-153 -110l-115 44l108 613z" />
    <glyph glyph-name="Lcaron" unicode="&#x13d;" horiz-adv-x="572" 
d="M601 710l36 -8l-5 -70l-22 -65l-118 -159l-31 14q4 6 17.5 27t28 45t26.5 44t13 25l-70 4l6 75l21 60zM239 44l180 2l109 165h42l-48 -212l-392 2l-134 -2l2 39l62 11l94 603l-59 11l8 38l136 -2l159 2l-3 -38l-62 -11z" />
    <glyph glyph-name="lcaron" unicode="&#x13e;" horiz-adv-x="499" 
d="M365 675l7 39h146l-14 -80l-131 -131l-37 7l62 120zM63 623l-10 27l221 64l41 -31l-110 -624l85 56l17 -21l-153 -110l-115 44l108 613z" />
    <glyph glyph-name="Ldot" unicode="&#x13f;" horiz-adv-x="572" 
d="M510 478l39 -9l-3 -70l-21 -63l-93 -7l-40 7l6 72l18 61zM239 44l180 2l109 165h42l-48 -212l-392 2l-134 -2l2 39l62 11l94 603l-59 11l8 38l136 -2l159 2l-3 -38l-62 -11z" />
    <glyph glyph-name="ldot" unicode="&#x140;" horiz-adv-x="456" 
d="M427 478l39 -9l-4 -71l-20 -63l-94 -6l-40 6l6 73l19 61zM63 623l-10 27l221 64l41 -31l-110 -624l85 56l17 -21l-153 -110l-115 44l108 613z" />
    <glyph glyph-name="Lslash" unicode="&#x141;" horiz-adv-x="572" 
d="M301 445l93 43l-10 -53l-91 -42l-54 -349l180 2l109 165h42l-48 -212l-392 2l-134 -2l2 39l62 11l40 256l-67 -30l10 53l65 29l46 295l-59 11l8 38l136 -2l159 2l-3 -38l-62 -11z" />
    <glyph glyph-name="lslash" unicode="&#x142;" horiz-adv-x="329" 
d="M63 623l-10 27l221 64l41 -31l-45 -255l80 37l-8 -45l-80 -37l-57 -324l85 56l17 -21l-153 -110l-115 44l48 276l-61 -28l8 45l61 28l52 292z" />
    <glyph glyph-name="Nacute" unicode="&#x143;" horiz-adv-x="674" 
d="M386 769l64 139h149l-155 -139h-58zM610 652l-63 11l7 38l85 -1l89 1l-1 -38l-61 -11l-102 -652h-119l-242 547l-6 60l-82 -558l73 -11l-9 -39l-95 2l-88 -2l2 39l61 11l94 604l-57 10l6 38l102 -2l126 2l208 -448l6 -63z" />
    <glyph glyph-name="nacute" unicode="&#x144;" horiz-adv-x="588" 
d="M288 565l73 177h142l-162 -177h-53zM198 0h-160l73 415l-75 -23l-10 25l207 79l45 -38l-10 -60l-9 -19l165 119q68 0 95 -32.5t14 -105.5l-53 -302l85 56l17 -21l-153 -109l-115 43l55 312q4 20 -2.5 32.5t-23.5 12.5q-14 0 -28 -6t-28 -16l-29 -17z" />
    <glyph glyph-name="Ncommaaccent" unicode="&#x145;" horiz-adv-x="674" 
d="M228 -92l7 41h144l-14 -79l-129 -125l-37 7l60 115zM610 652l-63 11l7 38l85 -1l89 1l-1 -38l-61 -11l-102 -652h-119l-242 547l-6 60l-82 -558l73 -11l-9 -39l-95 2l-88 -2l2 39l61 11l94 604l-57 10l6 38l102 -2l126 2l208 -448l6 -63z" />
    <glyph glyph-name="ncommaaccent" unicode="&#x146;" horiz-adv-x="588" 
d="M183 -92l7 41h144l-14 -79l-129 -125l-37 7l59 115zM198 0h-160l73 415l-75 -23l-10 25l207 79l45 -38l-10 -60l-9 -19l165 119q68 0 95 -32.5t14 -105.5l-53 -302l85 56l17 -21l-153 -109l-115 43l55 312q4 20 -2.5 32.5t-23.5 12.5q-14 0 -28 -6t-28 -16l-29 -17z" />
    <glyph glyph-name="Ncaron" unicode="&#x147;" horiz-adv-x="674" 
d="M615 910l-146 -141h-93l-94 141h63l89 -66h4l114 66h63zM610 652l-63 11l7 38l85 -1l89 1l-1 -38l-61 -11l-102 -652h-119l-242 547l-6 60l-82 -558l73 -11l-9 -39l-95 2l-88 -2l2 39l61 11l94 604l-57 10l6 38l102 -2l126 2l208 -448l6 -63z" />
    <glyph glyph-name="ncaron" unicode="&#x148;" horiz-adv-x="588" 
d="M535 738l-139 -173h-80l-79 173h51l81 -84h4l110 84h52zM198 0h-160l73 415l-75 -23l-10 25l207 79l45 -38l-10 -60l-9 -19l165 119q68 0 95 -32.5t14 -105.5l-53 -302l85 56l17 -21l-153 -109l-115 43l55 312q4 20 -2.5 32.5t-23.5 12.5q-14 0 -28 -6t-28 -16l-29 -17z
" />
    <glyph glyph-name="napostrophe" unicode="&#x149;" horiz-adv-x="588" 
d="M133 675l7 39h147l-14 -80l-132 -129l-37 7l63 118zM198 0h-160l73 415l-75 -23l-10 25l207 79l45 -38l-10 -60l-9 -19l165 119q68 0 95 -32.5t14 -105.5l-53 -302l85 56l17 -21l-153 -109l-115 43l55 312q4 20 -2.5 32.5t-23.5 12.5q-14 0 -28 -6t-28 -16l-29 -17z" />
    <glyph glyph-name="Eng" unicode="&#x14a;" horiz-adv-x="674" 
d="M610 652l-63 11l7 38l85 -1l89 1l-1 -38l-61 -11l-102 -652h2l-134 -238h-138l25 117h100l97 106l29 15h-100l-242 547l-6 60l-82 -558l73 -11l-9 -39l-95 2l-88 -2l2 39l61 11l94 604l-57 10l6 38l102 -2l126 2l208 -448l6 -63z" />
    <glyph glyph-name="eng" unicode="&#x14b;" horiz-adv-x="588" 
d="M131 -235l24 141h121q11 17 20 41.5t13 47.5l60 345q4 20 -2.5 32t-23.5 12q-14 0 -28 -6t-28 -16l-29 -17l-60 -345h-160l73 415l-75 -23l-10 25l207 79l45 -38l-10 -60l-9 -19l165 119q68 0 95 -32.5t14 -105.5l-57 -326q-4 -23 -17.5 -44t-34 -41.5t-46 -40.5
t-52.5 -41l-133 -102h-62z" />
    <glyph glyph-name="Omacron" unicode="&#x14c;" horiz-adv-x="733" 
d="M309 864h298l-14 -73h-298zM244 320q0 -56 9.5 -105t27.5 -87.5t44 -63t58 -30.5q41 21 70 55.5t47 79t26.5 98t8.5 113.5q0 57 -9.5 106.5t-27.5 87.5t-44 63t-58 31q-40 -20 -68.5 -54t-47 -79.5t-27.5 -100t-9 -114.5zM430 718q69 0 125 -23.5t95 -66t60 -102
t21 -131.5q0 -58 -15.5 -115.5t-50.5 -108.5t-90.5 -92.5t-136.5 -67.5l-89 -29q-69 0 -125 23.5t-95 66t-60 102t-21 132.5q0 58 15.5 115.5t50.5 108.5t90.5 92.5t136.5 67.5z" />
    <glyph glyph-name="omacron" unicode="&#x14d;" horiz-adv-x="535" 
d="M204 677h297l-13 -74h-298zM314 498q43 0 81.5 -13t67 -38t45 -62t16.5 -86q0 -90 -49.5 -160.5t-153.5 -116.5l-82 -37q-44 0 -82 12.5t-66.5 37t-45 61t-16.5 85.5q0 181 203 278zM267 437q-17 -14 -30 -37t-22 -51.5t-13.5 -60.5t-4.5 -64q0 -78 24.5 -122.5
t64.5 -57.5q18 13 31 36t22 51.5t13.5 61t4.5 64.5q0 79 -24 123t-66 57z" />
    <glyph glyph-name="Obreve" unicode="&#x14e;" horiz-adv-x="733" 
d="M456 849q25 0 46 6t38 14.5t30 18t22 16.5l24 -21q-14 -21 -27.5 -37t-31.5 -29.5t-42.5 -26.5t-59.5 -27q-32 0 -57 10t-43.5 26.5t-31.5 38t-19 44.5l32 21q6 -7 16.5 -16t25 -17.5t34 -14.5t44.5 -6zM244 320q0 -56 9.5 -105t27.5 -87.5t44 -63t58 -30.5
q41 21 70 55.5t47 79t26.5 98t8.5 113.5q0 57 -9.5 106.5t-27.5 87.5t-44 63t-58 31q-40 -20 -68.5 -54t-47 -79.5t-27.5 -100t-9 -114.5zM430 718q69 0 125 -23.5t95 -66t60 -102t21 -131.5q0 -58 -15.5 -115.5t-50.5 -108.5t-90.5 -92.5t-136.5 -67.5l-89 -29
q-69 0 -125 23.5t-95 66t-60 102t-21 132.5q0 58 15.5 115.5t50.5 108.5t90.5 92.5t136.5 67.5z" />
    <glyph glyph-name="obreve" unicode="&#x14f;" horiz-adv-x="535" 
d="M335 654q24 0 45 7t38.5 17t31 21.5t22.5 19.5l23 -21q-14 -22 -27.5 -39t-31.5 -32t-42.5 -29t-59.5 -30q-32 0 -56.5 10.5t-43.5 28.5t-31 41.5t-18 49.5l32 21q6 -8 16 -19.5t24.5 -21.5t33.5 -17t44 -7zM314 498q43 0 81.5 -13t67 -38t45 -62t16.5 -86
q0 -90 -49.5 -160.5t-153.5 -116.5l-82 -37q-44 0 -82 12.5t-66.5 37t-45 61t-16.5 85.5q0 181 203 278zM267 437q-17 -14 -30 -37t-22 -51.5t-13.5 -60.5t-4.5 -64q0 -78 24.5 -122.5t64.5 -57.5q18 13 31 36t22 51.5t13.5 61t4.5 64.5q0 79 -24 123t-66 57z" />
    <glyph glyph-name="Ohungarumlaut" unicode="&#x150;" horiz-adv-x="733" 
d="M301 769l65 139h150l-157 -139h-58zM496 769l65 139h150l-157 -139h-58zM244 320q0 -56 9.5 -105t27.5 -87.5t44 -63t58 -30.5q41 21 70 55.5t47 79t26.5 98t8.5 113.5q0 57 -9.5 106.5t-27.5 87.5t-44 63t-58 31q-40 -20 -68.5 -54t-47 -79.5t-27.5 -100t-9 -114.5z
M430 718q69 0 125 -23.5t95 -66t60 -102t21 -131.5q0 -58 -15.5 -115.5t-50.5 -108.5t-90.5 -92.5t-136.5 -67.5l-89 -29q-69 0 -125 23.5t-95 66t-60 102t-21 132.5q0 58 15.5 115.5t50.5 108.5t90.5 92.5t136.5 67.5z" />
    <glyph glyph-name="ohungarumlaut" unicode="&#x151;" horiz-adv-x="535" 
d="M193 565l68 168h144l-158 -168h-54zM382 565l67 168h145l-159 -168h-53zM314 498q43 0 81.5 -13t67 -38t45 -62t16.5 -86q0 -90 -49.5 -160.5t-153.5 -116.5l-82 -37q-44 0 -82 12.5t-66.5 37t-45 61t-16.5 85.5q0 181 203 278zM267 437q-17 -14 -30 -37t-22 -51.5
t-13.5 -60.5t-4.5 -64q0 -78 24.5 -122.5t64.5 -57.5q18 13 31 36t22 51.5t13.5 61t4.5 64.5q0 79 -24 123t-66 57z" />
    <glyph glyph-name="OE" unicode="&#x152;" horiz-adv-x="989" 
d="M447 49l94 602q-2 1 -22.5 3.5t-44.5 5.5t-44.5 5.5t-22.5 2.5q-42 -20 -73 -54t-51.5 -79.5t-30 -100t-9.5 -114.5q0 -56 9 -105t26 -87t41.5 -62.5t55.5 -30.5zM340 -18q-68 0 -122 23.5t-92 66t-58.5 102t-20.5 132.5q0 58 16 115t52.5 108t95 92.5t142.5 68.5l88 28
q2 0 24 -3t48.5 -6.5t48.5 -6.5t24 -3l418 2l-16 -197h-41l-53 151l-173 2l-43 -278l81 2l71 119h36l-30 -143l-15 -142h-36l-33 118l-81 2l-45 -291l200 2l94 158h41l-44 -205l-455 2z" />
    <glyph glyph-name="oe" unicode="&#x153;" horiz-adv-x="802" 
d="M239 -15q-44 0 -82 12.5t-66.5 37t-45 61t-16.5 85.5q0 180 203 278l82 39q55 0 101 -21.5t74 -63.5q11 9 39 22.5t57 24.5l103 37q45 -8 72.5 -40.5t27.5 -80.5q0 -22 -2.5 -40t-11.5 -42l-251 -73q10 -42 34.5 -78t66.5 -56q13 6 30.5 13.5t35.5 16t35 17t31 16.5
l16 -22q-35 -22 -74.5 -44.5t-80.5 -43.5l-98 -55q-37 7 -70 27t-56 53q-15 -13 -33.5 -23.5t-38.5 -19.5zM267 437q-17 -14 -30 -37t-22 -51.5t-13.5 -60.5t-4.5 -64q0 -78 24.5 -122.5t64.5 -57.5q18 13 31 36t22 51.5t13.5 61t4.5 64.5q0 79 -24 123t-66 57zM578 431
q-32 -25 -46.5 -69.5t-14.5 -93.5q0 -5 0.5 -10t1.5 -10l91 32q7 20 8 36t1 34q0 29 -12 52.5t-29 28.5z" />
    <glyph glyph-name="Racute" unicode="&#x154;" horiz-adv-x="692" 
d="M338 769l64 139h148l-154 -139h-58zM372 376q44 27 67.5 72t23.5 106q0 54 -23 81.5t-61 27.5h-44l-45 -287h82zM140 1l-144 -2l2 39l62 11l94 603l-59 11l8 38l145 -2l204 2q46 0 84 -10t65 -29t41.5 -45t14.5 -59q0 -43 -18.5 -75t-48 -55.5t-66.5 -40t-76 -27.5
l-80 -24l148 -36l102 -250l40 -12l-6 -39l-113 2l-102 -2l-120 318l-5 5h-30l-43 -273l59 -11l-7 -39z" />
    <glyph glyph-name="racute" unicode="&#x155;" horiz-adv-x="447" 
d="M245 565l73 177h142l-162 -177h-53zM37 0l73 415l-74 -23l-10 25l207 79l39 -35l-24 -139l-17 -63l145 229h90l-32 -161h-100q-6 -3 -16.5 -13.5t-22 -23t-22.5 -24.5t-17 -19l-20 -21l-39 -226h-160z" />
    <glyph glyph-name="Rcommaaccent" unicode="&#x156;" horiz-adv-x="692" 
d="M230 -92l7 41h144l-14 -79l-129 -125l-37 7l60 115zM372 376q44 27 67.5 72t23.5 106q0 54 -23 81.5t-61 27.5h-44l-45 -287h82zM140 1l-144 -2l2 39l62 11l94 603l-59 11l8 38l145 -2l204 2q46 0 84 -10t65 -29t41.5 -45t14.5 -59q0 -43 -18.5 -75t-48 -55.5t-66.5 -40
t-76 -27.5l-80 -24l148 -36l102 -250l40 -12l-6 -39l-113 2l-102 -2l-120 318l-5 5h-30l-43 -273l59 -11l-7 -39z" />
    <glyph glyph-name="rcommaaccent" unicode="&#x157;" horiz-adv-x="447" 
d="M31 -92l7 41h144l-14 -79l-129 -125l-37 7l60 115zM37 0l73 415l-74 -23l-10 25l207 79l39 -35l-24 -139l-17 -63l145 229h90l-32 -161h-100q-6 -3 -16.5 -13.5t-22 -23t-22.5 -24.5t-17 -19l-20 -21l-39 -226h-160z" />
    <glyph glyph-name="Rcaron" unicode="&#x158;" horiz-adv-x="692" 
d="M586 910l-146 -141h-94l-94 141h64l88 -66h5l114 66h63zM372 376q44 27 67.5 72t23.5 106q0 54 -23 81.5t-61 27.5h-44l-45 -287h82zM140 1l-144 -2l2 39l62 11l94 603l-59 11l8 38l145 -2l204 2q46 0 84 -10t65 -29t41.5 -45t14.5 -59q0 -43 -18.5 -75t-48 -55.5
t-66.5 -40t-76 -27.5l-80 -24l148 -36l102 -250l40 -12l-6 -39l-113 2l-102 -2l-120 318l-5 5h-30l-43 -273l59 -11l-7 -39z" />
    <glyph glyph-name="rcaron" unicode="&#x159;" horiz-adv-x="447" 
d="M466 738l-139 -173h-80l-79 173h52l81 -84h3l111 84h51zM37 0l73 415l-74 -23l-10 25l207 79l39 -35l-24 -139l-17 -63l145 229h90l-32 -161h-100q-6 -3 -16.5 -13.5t-22 -23t-22.5 -24.5t-17 -19l-20 -21l-39 -226h-160z" />
    <glyph glyph-name="Sacute" unicode="&#x15a;" horiz-adv-x="524" 
d="M325 769l64 139h149l-155 -139h-58zM520 492h-46l-24 113q-35 32 -70 45t-80 15q-35 -13 -48.5 -33.5t-13.5 -44.5q0 -27 16.5 -47.5t51.5 -49.5l109 -93q21 -18 38.5 -36t30 -38.5t19.5 -45t7 -56.5q0 -30 -11.5 -59.5t-33 -56t-53 -48.5t-70.5 -37l-103 -38
q-70 0 -129 16.5t-97 42.5l43 189h50l4 -111q16 -16 38 -29t47 -22.5t52 -15t53 -5.5q25 15 38.5 38t13.5 52q0 36 -20 60.5t-46 46.5l-97 81q-46 39 -75.5 78.5t-29.5 90.5q0 63 41 107t129 80l89 37q75 0 127 -14.5t86 -35.5z" />
    <glyph glyph-name="sacute" unicode="&#x15b;" horiz-adv-x="415" 
d="M207 565l73 177h142l-162 -177h-53zM136 -15q-15 3 -34 8t-37.5 11t-34.5 12t-25 10l55 116q38 -19 85.5 -44.5t100.5 -48.5q8 4 12 10.5t4 13.5q0 14 -9 28t-37 34l-104 73q-28 20 -43.5 47t-15.5 58q0 37 23 70t85 63l105 52q29 -3 62 -12.5t80 -29.5l-62 -116
q-39 25 -83 49t-88 43q-12 -8 -12 -23q0 -14 9.5 -25t35.5 -29l104 -73q36 -26 48 -53.5t12 -55.5q0 -51 -30 -83.5t-74 -50.5z" />
    <glyph glyph-name="Scircumflex" unicode="&#x15c;" horiz-adv-x="524" 
d="M209 769l145 141h94l94 -141h-63l-89 66h-4l-114 -66h-63zM520 492h-46l-24 113q-35 32 -70 45t-80 15q-35 -13 -48.5 -33.5t-13.5 -44.5q0 -27 16.5 -47.5t51.5 -49.5l109 -93q21 -18 38.5 -36t30 -38.5t19.5 -45t7 -56.5q0 -30 -11.5 -59.5t-33 -56t-53 -48.5
t-70.5 -37l-103 -38q-70 0 -129 16.5t-97 42.5l43 189h50l4 -111q16 -16 38 -29t47 -22.5t52 -15t53 -5.5q25 15 38.5 38t13.5 52q0 36 -20 60.5t-46 46.5l-97 81q-46 39 -75.5 78.5t-29.5 90.5q0 63 41 107t129 80l89 37q75 0 127 -14.5t86 -35.5z" />
    <glyph glyph-name="scircumflex" unicode="&#x15d;" horiz-adv-x="415" 
d="M121 565l140 178h80l78 -178h-52l-79 89h-4l-111 -89h-52zM136 -15q-15 3 -34 8t-37.5 11t-34.5 12t-25 10l55 116q38 -19 85.5 -44.5t100.5 -48.5q8 4 12 10.5t4 13.5q0 14 -9 28t-37 34l-104 73q-28 20 -43.5 47t-15.5 58q0 37 23 70t85 63l105 52q29 -3 62 -12.5
t80 -29.5l-62 -116q-39 25 -83 49t-88 43q-12 -8 -12 -23q0 -14 9.5 -25t35.5 -29l104 -73q36 -26 48 -53.5t12 -55.5q0 -51 -30 -83.5t-74 -50.5z" />
    <glyph glyph-name="Scedilla" unicode="&#x15e;" horiz-adv-x="524" 
d="M119 -249h-47l34 54h75q11 9 17 23t6 30q0 32 -17 43t-38 13l50 70q-59 4 -106.5 19t-79.5 38l43 189h50l4 -111q16 -16 38 -29t47 -22.5t52 -15t53 -5.5q25 15 38.5 38t13.5 52q0 36 -20 60.5t-46 46.5l-97 81q-46 39 -75.5 78.5t-29.5 90.5q0 63 41 107t129 80l89 37
q75 0 127 -14.5t86 -35.5l-36 -176h-46l-24 113q-35 32 -70 45t-80 15q-35 -13 -48.5 -33.5t-13.5 -44.5q0 -27 16.5 -47.5t51.5 -49.5l109 -93q21 -18 38.5 -36t30 -38.5t19.5 -45t7 -56.5q0 -30 -11.5 -59.5t-33 -56t-53 -48.5t-70.5 -37q-29 -11 -52 -19q-10 -4 -19 -7.5
t-17 -5.5q-9 -4 -17 -6l-16 -25q42 -3 61.5 -23t19.5 -49q0 -23 -11 -40t-28 -29.5t-37.5 -21.5t-39.5 -16z" />
    <glyph glyph-name="scedilla" unicode="&#x15f;" horiz-adv-x="415" 
d="M-15 -249l34 54h75q11 9 17 23t6 30q0 32 -17 43t-38 13l54 75q-30 8 -63 19t-48 18l55 116q38 -19 85.5 -44.5t100.5 -48.5q8 4 12 10.5t4 13.5q0 14 -9 28t-37 34l-104 73q-28 20 -43.5 47t-15.5 58q0 37 23 70t85 63l105 52q29 -3 62 -12.5t80 -29.5l-62 -116
q-39 25 -83 49t-88 43q-12 -8 -12 -23q0 -14 9.5 -25t35.5 -29l104 -73q36 -26 48 -53.5t12 -55.5q0 -51 -30 -83.5t-74 -50.5l-109 -45l-25 -37q42 -3 61.5 -23t19.5 -49q0 -23 -11 -40t-28 -29.5t-37.5 -21.5t-39.5 -16l-67 -27h-47z" />
    <glyph glyph-name="Scaron" unicode="&#x160;" horiz-adv-x="524" 
d="M566 910l-146 -141h-94l-94 141h64l88 -66h5l114 66h63zM520 492h-46l-24 113q-35 32 -70 45t-80 15q-35 -13 -48.5 -33.5t-13.5 -44.5q0 -27 16.5 -47.5t51.5 -49.5l109 -93q21 -18 38.5 -36t30 -38.5t19.5 -45t7 -56.5q0 -30 -11.5 -59.5t-33 -56t-53 -48.5t-70.5 -37
l-103 -38q-70 0 -129 16.5t-97 42.5l43 189h50l4 -111q16 -16 38 -29t47 -22.5t52 -15t53 -5.5q25 15 38.5 38t13.5 52q0 36 -20 60.5t-46 46.5l-97 81q-46 39 -75.5 78.5t-29.5 90.5q0 63 41 107t129 80l89 37q75 0 127 -14.5t86 -35.5z" />
    <glyph glyph-name="scaron" unicode="&#x161;" horiz-adv-x="415" 
d="M442 738l-139 -173h-80l-79 173h52l81 -84h3l111 84h51zM136 -15q-15 3 -34 8t-37.5 11t-34.5 12t-25 10l55 116q38 -19 85.5 -44.5t100.5 -48.5q8 4 12 10.5t4 13.5q0 14 -9 28t-37 34l-104 73q-28 20 -43.5 47t-15.5 58q0 37 23 70t85 63l105 52q29 -3 62 -12.5
t80 -29.5l-62 -116q-39 25 -83 49t-88 43q-12 -8 -12 -23q0 -14 9.5 -25t35.5 -29l104 -73q36 -26 48 -53.5t12 -55.5q0 -51 -30 -83.5t-74 -50.5z" />
    <glyph glyph-name="Tcommaaccent" unicode="&#x162;" horiz-adv-x="605" 
d="M186 -92l7 41h144l-13 -79l-130 -125l-37 7l60 115zM285 657l-88 -1l-95 -168h-40l29 213l292 -2l285 2l-30 -213h-40l-47 168l-87 1l-94 -608l88 -11l-7 -39l-179 2l-171 -2l2 39l88 11z" />
    <glyph glyph-name="tcommaaccent" unicode="&#x163;" horiz-adv-x="384" 
d="M44 -92l7 41h145l-14 -79l-129 -125l-37 7l59 115zM44 27l70 393h-79l5 23l27 22h55l7 41l143 112h36l-27 -154h104l-8 -44h-104l-64 -363l128 55l11 -21l-189 -107z" />
    <glyph glyph-name="Tcaron" unicode="&#x164;" horiz-adv-x="605" 
d="M587 910l-146 -141h-94l-94 141h64l88 -66h4l114 66h64zM285 657l-88 -1l-95 -168h-40l29 213l292 -2l285 2l-30 -213h-40l-47 168l-87 1l-94 -608l88 -11l-7 -39l-179 2l-171 -2l2 39l88 11z" />
    <glyph glyph-name="tcaron" unicode="&#x165;" horiz-adv-x="430" 
d="M372 675l7 39h147l-14 -80l-131 -131l-38 7l63 120zM44 27l70 393h-79l5 23l27 22h55l7 41l143 112h36l-27 -154h104l-8 -44h-104l-64 -363l128 55l11 -21l-189 -107z" />
    <glyph glyph-name="Tbar" unicode="&#x166;" horiz-adv-x="605" 
d="M170 446h82l33 211l-88 -1l-95 -168h-40l29 213l292 -2l285 2l-30 -213h-40l-47 168l-87 1l-33 -211h84l-7 -37h-83l-55 -360l88 -11l-7 -39l-179 2l-171 -2l2 39l88 11l55 360h-83z" />
    <glyph glyph-name="tbar" unicode="&#x167;" horiz-adv-x="384" 
d="M44 27l46 260h-52l6 33h52l18 100h-79l5 23l27 22h55l7 41l143 112h36l-27 -154h104l-8 -44h-104l-18 -100h95l-6 -33h-95l-40 -230l128 55l11 -21l-189 -107z" />
    <glyph glyph-name="Utilde" unicode="&#x168;" horiz-adv-x="666" 
d="M341 891l60 17l190 -58l48 57h28l-58 -132l-59 -14l-192 60l-46 -58h-28zM255 239q-7 -40 0.5 -72.5t26.5 -56t49 -36t68 -12.5q29 11 51 24.5t38 33t26.5 46.5t16.5 66l67 421l-69 11l7 37l100 -2l91 2l-2 -37l-69 -11l-63 -406q-6 -41 -17.5 -75.5t-31.5 -62.5
t-50.5 -49.5t-74.5 -36.5l-115 -41q-72 0 -120 18.5t-75 52.5t-34 82t2 106l63 412l-59 11l7 37l139 -2l154 2l-2 -37l-59 -11z" />
    <glyph glyph-name="utilde" unicode="&#x169;" horiz-adv-x="587" 
d="M242 706l60 17l190 -59l48 58h28l-58 -132l-59 -14l-191 60l-47 -59h-28zM171 -15q-69 0 -97 32t-15 104l53 296l-77 -24l-9 25l208 78l45 -39l-56 -314q-4 -21 3.5 -32.5t23.5 -11.5q13 0 24.5 6t24.5 15l30 21l61 342h160l-75 -426l85 57l16 -21l-154 -109l-113 39
l11 63l11 24z" />
    <glyph glyph-name="Umacron" unicode="&#x16a;" horiz-adv-x="666" 
d="M334 864h298l-14 -73h-298zM255 239q-7 -40 0.5 -72.5t26.5 -56t49 -36t68 -12.5q29 11 51 24.5t38 33t26.5 46.5t16.5 66l67 421l-69 11l7 37l100 -2l91 2l-2 -37l-69 -11l-63 -406q-6 -41 -17.5 -75.5t-31.5 -62.5t-50.5 -49.5t-74.5 -36.5l-115 -41q-72 0 -120 18.5
t-75 52.5t-34 82t2 106l63 412l-59 11l7 37l139 -2l154 2l-2 -37l-59 -11z" />
    <glyph glyph-name="umacron" unicode="&#x16b;" horiz-adv-x="587" 
d="M242 677h297l-13 -74h-298zM171 -15q-69 0 -97 32t-15 104l53 296l-77 -24l-9 25l208 78l45 -39l-56 -314q-4 -21 3.5 -32.5t23.5 -11.5q13 0 24.5 6t24.5 15l30 21l61 342h160l-75 -426l85 57l16 -21l-154 -109l-113 39l11 63l11 24z" />
    <glyph glyph-name="Ubreve" unicode="&#x16c;" horiz-adv-x="666" 
d="M471 849q25 0 46 6t38 14.5t30 18t22 16.5l24 -21q-14 -21 -27.5 -37t-31.5 -29.5t-42 -26.5t-59 -27q-32 0 -57.5 10t-44 26.5t-31 38t-18.5 44.5l31 21q7 -7 17.5 -16t25 -17.5t34 -14.5t43.5 -6zM255 239q-7 -40 0.5 -72.5t26.5 -56t49 -36t68 -12.5q29 11 51 24.5
t38 33t26.5 46.5t16.5 66l67 421l-69 11l7 37l100 -2l91 2l-2 -37l-69 -11l-63 -406q-6 -41 -17.5 -75.5t-31.5 -62.5t-50.5 -49.5t-74.5 -36.5l-115 -41q-72 0 -120 18.5t-75 52.5t-34 82t2 106l63 412l-59 11l7 37l139 -2l154 2l-2 -37l-59 -11z" />
    <glyph glyph-name="ubreve" unicode="&#x16d;" horiz-adv-x="587" 
d="M373 654q25 0 46 7t38 17t30.5 21.5t22.5 19.5l24 -21q-14 -22 -27.5 -39t-31.5 -32t-42.5 -29t-60.5 -30q-32 0 -56.5 10.5t-43 28.5t-30.5 41.5t-18 49.5l31 21q6 -8 16.5 -19.5t24.5 -21.5t33.5 -17t43.5 -7zM171 -15q-69 0 -97 32t-15 104l53 296l-77 -24l-9 25
l208 78l45 -39l-56 -314q-4 -21 3.5 -32.5t23.5 -11.5q13 0 24.5 6t24.5 15l30 21l61 342h160l-75 -426l85 57l16 -21l-154 -109l-113 39l11 63l11 24z" />
    <glyph glyph-name="Uring" unicode="&#x16e;" horiz-adv-x="666" 
d="M592 850q0 -27 -9.5 -45t-25 -30t-37 -19.5t-45.5 -14.5q-23 0 -45 5.5t-39 18t-28 33.5t-11 52q0 26 10 44t26.5 30.5t38.5 21t45 15.5q25 0 47 -5.5t38 -18t25.5 -34t9.5 -53.5zM404 850q0 -29 19.5 -48t48.5 -19t49 19t20 48t-20 49t-49 20t-48.5 -20t-19.5 -49z
M255 239q-7 -40 0.5 -72.5t26.5 -56t49 -36t68 -12.5q29 11 51 24.5t38 33t26.5 46.5t16.5 66l67 421l-69 11l7 37l100 -2l91 2l-2 -37l-69 -11l-63 -406q-6 -41 -17.5 -75.5t-31.5 -62.5t-50.5 -49.5t-74.5 -36.5l-115 -41q-72 0 -120 18.5t-75 52.5t-34 82t2 106l63 412
l-59 11l7 37l139 -2l154 2l-2 -37l-59 -11z" />
    <glyph glyph-name="uring" unicode="&#x16f;" horiz-adv-x="587" 
d="M490 658q0 -27 -9.5 -44.5t-25.5 -29t-37.5 -19.5t-45.5 -16q-23 0 -45 5.5t-39 18t-28 33.5t-11 52q0 26 10 44t26.5 30.5t38.5 21t45 15.5q25 0 47 -5.5t38.5 -18t26 -34t9.5 -53.5zM301 658q0 -29 20 -48t49 -19t49 19t20 48t-20 49t-49 20t-49 -20t-20 -49zM171 -15
q-69 0 -97 32t-15 104l53 296l-77 -24l-9 25l208 78l45 -39l-56 -314q-4 -21 3.5 -32.5t23.5 -11.5q13 0 24.5 6t24.5 15l30 21l61 342h160l-75 -426l85 57l16 -21l-154 -109l-113 39l11 63l11 24z" />
    <glyph glyph-name="Uhungarumlaut" unicode="&#x170;" horiz-adv-x="666" 
d="M315 769l65 139h150l-156 -139h-59zM510 769l65 139h150l-156 -139h-59zM255 239q-7 -40 0.5 -72.5t26.5 -56t49 -36t68 -12.5q29 11 51 24.5t38 33t26.5 46.5t16.5 66l67 421l-69 11l7 37l100 -2l91 2l-2 -37l-69 -11l-63 -406q-6 -41 -17.5 -75.5t-31.5 -62.5
t-50.5 -49.5t-74.5 -36.5l-115 -41q-72 0 -120 18.5t-75 52.5t-34 82t2 106l63 412l-59 11l7 37l139 -2l154 2l-2 -37l-59 -11z" />
    <glyph glyph-name="uhungarumlaut" unicode="&#x171;" horiz-adv-x="587" 
d="M234 565l68 168h144l-159 -168h-53zM422 565l68 168h144l-159 -168h-53zM171 -15q-69 0 -97 32t-15 104l53 296l-77 -24l-9 25l208 78l45 -39l-56 -314q-4 -21 3.5 -32.5t23.5 -11.5q13 0 24.5 6t24.5 15l30 21l61 342h160l-75 -426l85 57l16 -21l-154 -109l-113 39
l11 63l11 24z" />
    <glyph glyph-name="Uogonek" unicode="&#x172;" horiz-adv-x="666" 
d="M255 239q-7 -40 0.5 -72.5t26.5 -56t49 -36t68 -12.5q29 11 51 24.5t38 33t26.5 46.5t16.5 66l67 421l-69 11l7 37l100 -2l91 2l-2 -37l-69 -11l-63 -406q-6 -38 -16.5 -71t-28 -60t-43.5 -48.5t-64 -36.5l-64 -132l-7 -41q-2 -13 -1.5 -26t9 -24t28 -18t55.5 -7l-5 -30
q-58 0 -96.5 6.5t-61 19t-30.5 31.5t-4 44l11 60l119 100l-90 -32q-72 0 -120 18.5t-75 52.5t-34 82t2 106l63 412l-59 11l7 37l139 -2l154 2l-2 -37l-59 -11z" />
    <glyph glyph-name="uogonek" unicode="&#x173;" horiz-adv-x="587" 
d="M494 -249q-58 0 -96.5 6.5t-61 19t-30.5 31.5t-3 44l12 70l89 68l-95 33l11 63l11 24l-160 -125q-69 0 -97 32t-15 104l53 296l-77 -24l-9 25l208 78l45 -39l-56 -314q-4 -21 3.5 -32.5t23.5 -11.5q13 0 24.5 6t24.5 15l30 21l61 342h160l-75 -426l85 57l16 -21l-89 -63
l-71 -133l-8 -41q-2 -13 -1.5 -26t9.5 -24t28.5 -18t55.5 -7l-6 -30v0z" />
    <glyph glyph-name="Wcircumflex" unicode="&#x174;" horiz-adv-x="1001" 
d="M445 769l146 141h94l93 -141h-63l-89 66h-4l-114 -66h-63zM548 403l6 31l-168 -414l-150 -37l-107 670l-53 10l7 38l164 -2l137 2l-2 -38l-71 -11l70 -499l-8 -40l153 386l-24 154l-51 10l7 38l163 -2l142 2l-2 -38l-76 -11l69 -499l-8 -40l213 539l-82 11l7 38l104 -2
l81 2l-2 -38l-50 -10l-258 -633l-150 -37z" />
    <glyph glyph-name="wcircumflex" unicode="&#x175;" horiz-adv-x="752" 
d="M306 565l140 178h80l78 -178h-52l-79 89h-4l-111 -89h-52zM367 11l-5 145l9 37l-131 -208l-143 26l-13 409l-79 -25l-10 24l203 79l49 -44l8 -351l-4 -32l108 174l-6 187l163 53l8 -385l-5 -32l152 243l-94 108l125 79l45 -44l-17 -136l-221 -333z" />
    <glyph glyph-name="Ycircumflex" unicode="&#x176;" horiz-adv-x="686" 
d="M314 769l146 141h94l94 -141h-64l-88 66h-4l-114 -66h-64zM437 357v-37l203 332l-71 11l7 38l102 -2l79 1l-2 -37l-54 -11l-239 -377l-35 -226l88 -11l-6 -39l-179 2l-175 -2l1 39l92 11l36 230l-157 373l-49 12l7 37l143 -2l159 2l-1 -38l-66 -11z" />
    <glyph glyph-name="ycircumflex" unicode="&#x177;" horiz-adv-x="516" 
d="M171 565l140 178h80l77 -178h-51l-80 89h-3l-112 -89h-51zM276 33l-141 -30l-62 415l-77 -24l-10 25l199 79l48 -37l57 -399l148 253l-99 104l125 79l47 -42l-21 -145l-164 -279l-174 -267h-150l25 149h140z" />
    <glyph glyph-name="Ydieresis" unicode="&#x178;" horiz-adv-x="686" 
d="M391 893l34 -7l-3 -61l-23 -53l-74 -7l-34 7l4 62l21 52zM623 893l34 -7l-4 -61l-22 -53l-74 -7l-33 7l2 62l23 52zM437 357v-37l203 332l-71 11l7 38l102 -2l79 1l-2 -37l-54 -11l-239 -377l-35 -226l88 -11l-6 -39l-179 2l-175 -2l1 39l92 11l36 230l-157 373l-49 12
l7 37l143 -2l159 2l-1 -38l-66 -11z" />
    <glyph glyph-name="Zacute" unicode="&#x179;" horiz-adv-x="622" 
d="M329 769l64 139h149l-155 -139h-58zM3 0l-4 34l433 605l26 18l-218 -3l-101 -161h-40l33 207h523l3 -30l-434 -610l-25 -16l239 2l120 170h40l-52 -216h-543z" />
    <glyph glyph-name="zacute" unicode="&#x17a;" horiz-adv-x="478" 
d="M272 565l73 177h142l-162 -177h-53zM69 31l-49 -37l-29 19l345 353l-59 -35l-174 18l-29 -32l-24 8l88 168l296 -28l29 19l24 -17l-320 -329l49 23l190 -33l42 35l21 -8l-93 -171z" />
    <glyph glyph-name="Zdotaccent" unicode="&#x17b;" horiz-adv-x="622" 
d="M349 889l67 5l53 -7l-4 -68l-24 -57l-62 -7l-58 7l6 69zM3 0l-4 34l433 605l26 18l-218 -3l-101 -161h-40l33 207h523l3 -30l-434 -610l-25 -16l239 2l120 170h40l-52 -216h-543z" />
    <glyph glyph-name="zdotaccent" unicode="&#x17c;" horiz-adv-x="478" 
d="M297 721l66 5l53 -6l-4 -68l-24 -58l-62 -7l-57 7l5 69zM69 31l-49 -37l-29 19l345 353l-59 -35l-174 18l-29 -32l-24 8l88 168l296 -28l29 19l24 -17l-320 -329l49 23l190 -33l42 35l21 -8l-93 -171z" />
    <glyph glyph-name="Zcaron" unicode="&#x17d;" horiz-adv-x="622" 
d="M244 910h64l88 -66h4l115 66h63l-146 -141h-94zM3 0l-4 34l433 605l26 18l-218 -3l-101 -161h-40l33 207h523l3 -30l-434 -610l-25 -16l239 2l120 170h40l-52 -216h-543z" />
    <glyph glyph-name="zcaron" unicode="&#x17e;" horiz-adv-x="478" 
d="M497 738l-139 -173h-80l-79 173h52l81 -84h3l111 84h51zM69 31l-49 -37l-29 19l345 353l-59 -35l-174 18l-29 -32l-24 8l88 168l296 -28l29 19l24 -17l-320 -329l49 23l190 -33l42 35l21 -8l-93 -171z" />
    <glyph glyph-name="longs" unicode="&#x17f;" horiz-adv-x="362" 
d="M32 418l6 24l27 24h54l3 17q9 50 41 89t75 64l127 74h113l-20 -113h-139q-12 -10 -18.5 -30.5t-11.5 -42.5l-86 -497q-5 -26 -18 -48.5t-33.5 -43.5t-46 -41t-54.5 -41l-117 -86h-70l24 136h116q13 16 20.5 40.5t12.5 48.5l74 426h-79z" />
    <glyph glyph-name="florin" unicode="&#x192;" horiz-adv-x="415" 
d="M-99 -89h118q11 13 19 37t12 47l74 424h-81l6 23l27 22h57l3 21q8 50 40 89t76 65l124 74h107l-21 -116h-132q-11 -9 -18.5 -30t-10.5 -43l-10 -61h103l-11 -44h-101l-69 -397q-4 -25 -16.5 -45.5t-31 -39.5t-42.5 -37t-51 -38l-125 -92h-70z" />
    <glyph glyph-name="Aringacute" unicode="&#x1fa;" horiz-adv-x="703" 
d="M613 850q0 -27 -9.5 -44.5t-25 -29.5t-37 -19.5t-45.5 -15.5q-23 0 -45 5.5t-39 18t-28 33.5t-11 52q0 26 10 44t27 30.5t39 21t46 15.5l22 44l120 3l-82 -59q26 -11 42 -34t16 -65zM425 850q0 -29 20 -48t49 -19t48.5 19t19.5 48t-19.5 49t-48.5 20t-49 -20t-20 -49z
M215 274h195l-19 291l5 32zM151 -1l-90 2l-88 -2l3 39l51 10l366 627l161 43l66 -670l53 -10l-8 -39l-178 2l-137 -2l3 39l72 11l-12 182h-220l-106 -182l72 -11z" />
    <glyph glyph-name="aringacute" unicode="&#x1fb;" horiz-adv-x="556" 
d="M504 658q0 -27 -9.5 -44.5t-25 -29t-37 -19.5t-45.5 -16q-23 0 -45 5.5t-39 18t-28 33.5t-11 52q0 26 10 44t27 30.5t39 21t46 15.5l22 44l120 3l-82 -59q26 -11 42 -34t16 -65zM316 658q0 -29 20 -48t49 -19t48.5 19t19.5 48t-19.5 49t-48.5 20t-49 -20t-20 -49z
M193 240q0 -42 8 -74.5t29 -59.5l73 51l42 243q-19 11 -42 17t-46 6q-35 -37 -49.5 -86.5t-14.5 -96.5zM445 57l84 57l17 -21l-151 -109l-115 41l13 73l12 27l-166 -140q-53 21 -83 64.5t-30 116.5q0 46 15 86.5t42 75.5t65 63.5t85 51.5l112 55q42 0 85 -11t85 -31z" />
    <glyph glyph-name="AEacute" unicode="&#x1fc;" horiz-adv-x="916" 
d="M573 769l64 139h149l-155 -139h-58zM290 359h149l48 304zM-24 38l51 10l434 653l107 -2l370 2l-16 -190h-36l-53 144l-173 2l-46 -296l87 2l71 119h31l-30 -143l-15 -142h-31l-34 118l-85 2l-38 -273l195 2l89 150h37l-40 -197l-390 2l-133 -2l2 39l62 11l41 269h-169
l-174 -269l72 -11l-8 -39l-94 2l-87 -2z" />
    <glyph glyph-name="aeacute" unicode="&#x1fd;" horiz-adv-x="748" 
d="M571 87q13 6 30 13.5t35 16t35 17t31 16.5l16 -22q-35 -22 -74.5 -44.5t-80.5 -43.5l-98 -55q-27 5 -52 17t-46 30t-36.5 43t-22.5 55l-169 -145q-53 21 -83 64.5t-30 116.5q0 46 15 86.5t42 75.5t65 63.5t85 51.5l112 55q41 0 84.5 -14t81.5 -34l5 3l118 44
q45 -8 72.5 -40.5t27.5 -80.5q0 -22 -2.5 -40t-11.5 -42l-251 -73q10 -42 35 -78t67 -56zM193 240q0 -42 8 -74.5t29 -59.5l72 51v22q0 57 19.5 108t62.5 92q-26 16 -57.5 30t-69.5 14q-35 -37 -49.5 -86.5t-14.5 -96.5zM419 565l73 177h142l-162 -177h-53zM525 431
q-29 -23 -42 -64t-15 -84q-4 -16 -3 -35l91 32q7 20 8 36t1 34q0 29 -12 52.5t-28 28.5z" />
    <glyph glyph-name="Oslashacute" unicode="&#x1fe;" horiz-adv-x="733" 
d="M430 718q54 0 99.5 -14.5t82.5 -40.5l45 52h59l-70 -82q41 -43 63 -103t22 -135q0 -58 -15.5 -115.5t-50.5 -108.5t-90.5 -92.5t-136.5 -67.5l-89 -29q-62 0 -112.5 18t-88.5 52l-58 -67h-61l87 101q-33 42 -50.5 97.5t-17.5 122.5q0 58 15.5 115.5t50.5 108.5t90.5 92.5
t136.5 67.5zM535 380q0 58 -11 111l-264 -307q17 -62 48 -102t75 -48q41 21 70 55.5t47 79t26.5 98t8.5 113.5zM244 320q0 -21 1 -40.5t4 -38.5l261 303q-18 51 -47 83.5t-67 40.5q-40 -20 -68.5 -54t-47 -79.5t-27.5 -100t-9 -114.5zM382 769l64 139h149l-155 -139h-58z
" />
    <glyph glyph-name="oslashacute" unicode="&#x1ff;" horiz-adv-x="535" 
d="M314 498q40 0 75.5 -11t63.5 -33l32 35h46l-53 -58q21 -24 33.5 -57t12.5 -75q0 -90 -49.5 -160.5t-153.5 -116.5l-82 -37q-39 0 -73.5 9.5t-61.5 29.5l-32 -35h-48l53 58q-23 24 -35.5 57.5t-12.5 76.5q0 181 203 278zM267 437q-17 -14 -30 -37t-22 -51.5t-13.5 -60.5
t-4.5 -64q0 -12 0.5 -23t1.5 -22l148 161q-21 78 -80 97zM357 257q0 11 -0.5 21t-1.5 19l-148 -160q11 -38 31.5 -61.5t47.5 -31.5q18 13 31 36t22 51.5t13.5 61t4.5 64.5zM287 565l73 177h142l-162 -177h-53z" />
    <glyph glyph-name="Scommaaccent" unicode="&#x218;" horiz-adv-x="524" 
d="M154 -92l7 41h145l-14 -79l-129 -125l-38 7l60 115zM520 492h-46l-24 113q-35 32 -70 45t-80 15q-35 -13 -48.5 -33.5t-13.5 -44.5q0 -27 16.5 -47.5t51.5 -49.5l109 -93q21 -18 38.5 -36t30 -38.5t19.5 -45t7 -56.5q0 -30 -11.5 -59.5t-33 -56t-53 -48.5t-70.5 -37
l-103 -38q-70 0 -129 16.5t-97 42.5l43 189h50l4 -111q16 -16 38 -29t47 -22.5t52 -15t53 -5.5q25 15 38.5 38t13.5 52q0 36 -20 60.5t-46 46.5l-97 81q-46 39 -75.5 78.5t-29.5 90.5q0 63 41 107t129 80l89 37q75 0 127 -14.5t86 -35.5z" />
    <glyph glyph-name="scommaaccent" unicode="&#x219;" horiz-adv-x="415" 
d="M61 -91l7 40h145l-14 -79l-129 -125l-38 7l60 115zM136 -15q-15 3 -34 8t-37.5 11t-34.5 12t-25 10l55 116q38 -19 85.5 -44.5t100.5 -48.5q8 4 12 10.5t4 13.5q0 14 -9 28t-37 34l-104 73q-28 20 -43.5 47t-15.5 58q0 37 23 70t85 63l105 52q29 -3 62 -12.5t80 -29.5
l-62 -116q-39 25 -83 49t-88 43q-12 -8 -12 -23q0 -14 9.5 -25t35.5 -29l104 -73q36 -26 48 -53.5t12 -55.5q0 -51 -30 -83.5t-74 -50.5z" />
    <glyph glyph-name="uni021A" unicode="&#x21a;" horiz-adv-x="605" 
d="M187 -92l7 41h144l-13 -79l-130 -125l-37 7l60 115zM285 657l-88 -1l-95 -168h-40l29 213l292 -2l285 2l-30 -213h-40l-47 168l-87 1l-94 -608l88 -11l-7 -39l-179 2l-171 -2l2 39l88 11z" />
    <glyph glyph-name="uni021B" unicode="&#x21b;" horiz-adv-x="384" 
d="M44 -92l7 41h145l-14 -79l-129 -125l-37 7l59 115zM44 27l70 393h-79l5 23l27 22h55l7 41l143 112h36l-27 -154h104l-8 -44h-104l-64 -363l128 55l11 -21l-189 -107z" />
    <glyph glyph-name="hsuperior" unicode="&#x2b0;" horiz-adv-x="373" 
d="M184 400h-109l67 351l-48 -11l-6 16l138 37l30 -20l-30 -153l-6 -12l103 68q44 0 61 -17.5t8 -62.5l-32 -160l49 30l11 -13l-94 -62l-78 26l32 168q3 21 -16 21q-7 0 -13.5 -2.5t-14.5 -6.5l-16 -8z" />
    <glyph glyph-name="jsuperior" unicode="&#x2b2;" horiz-adv-x="193" 
d="M-28 271l17 81h72q8 15 12 30.5t7 32.5l41 214l-42 -13l-7 16l129 43l34 -26l-41 -214q-6 -31 -37 -56t-71 -53l-77 -55h-37zM163 784l31 5l57 -5v-46l-16 -35l-28 -6l-62 6l2 40z" />
    <glyph glyph-name="wsuperior" unicode="&#x2b7;" horiz-adv-x="463" 
d="M401 629l83 47l29 -24l-11 -80l-131 -179l-96 14l-3 71l6 22l-75 -107l-96 14l-8 224l-45 -13l-6 14l125 44l36 -28l5 -183l-2 -19l59 85l-5 106l111 32l5 -206l-3 -20l82 122z" />
    <glyph glyph-name="ysuperior" unicode="&#x2b8;" horiz-adv-x="320" 
d="M74 363h91l61 58l-96 -19l-37 228l-44 -12l-6 15l127 43l30 -24l36 -213l84 129l-64 61l82 47l32 -23l-14 -85l-98 -151l-105 -146h-96z" />
    <glyph glyph-name="apostrophemod" unicode="&#x2bc;" horiz-adv-x="268" 
d="M97 415q4 7 18 28.5t29 45.5t27 44.5t13 25.5l-71 5l6 76l22 63l100 7l37 -7l-5 -73l-22 -66l-121 -163z" />
    <glyph glyph-name="circumflex" unicode="&#x2c6;" horiz-adv-x="491" 
d="M98 565l140 178h80l78 -178h-52l-79 89h-4l-111 -89h-52z" />
    <glyph glyph-name="caron" unicode="&#x2c7;" horiz-adv-x="494" 
d="M408 738l-139 -173h-80l-79 173h51l81 -84h4l110 84h52z" />
    <glyph glyph-name="breve" unicode="&#x2d8;" horiz-adv-x="494" 
d="M248 654q24 0 45 7t38.5 17t31 21.5t22.5 19.5l23 -21q-14 -22 -27.5 -39t-31.5 -32t-42.5 -29t-59.5 -30q-32 0 -56.5 10.5t-43.5 28.5t-31 41.5t-18 49.5l32 21q6 -8 16 -19.5t24.5 -21.5t33.5 -17t44 -7z" />
    <glyph glyph-name="dotaccent" unicode="&#x2d9;" horiz-adv-x="417" 
d="M174 721l66 5l53 -6l-4 -68l-24 -58l-62 -7l-57 7l5 69z" />
    <glyph glyph-name="ring" unicode="&#x2da;" horiz-adv-x="459" 
d="M352 658q0 -27 -9.5 -44.5t-25.5 -29t-37.5 -19.5t-45.5 -16q-23 0 -45 5.5t-39 18t-28 33.5t-11 52q0 26 10 44t26.5 30.5t38.5 21t45 15.5q25 0 47 -5.5t38.5 -18t26 -34t9.5 -53.5zM163 658q0 -29 20 -48t49 -19t49 19t20 48t-20 49t-49 20t-49 -20t-20 -49z" />
    <glyph glyph-name="ogonek" unicode="&#x2db;" horiz-adv-x="632" 
d="M341 -103l-7 -41q-2 -13 -1.5 -26t9 -24t28 -18t55.5 -7l-5 -30q-58 0 -97 6.5t-61.5 19t-30.5 31.5t-3 44l13 70l149 115h27z" />
    <glyph glyph-name="tilde" unicode="&#x2dc;" horiz-adv-x="505" 
d="M114 706l60 17l190 -59l48 58h28l-58 -132l-59 -14l-191 60l-47 -59h-28z" />
    <glyph glyph-name="hungarumlaut" unicode="&#x2dd;" horiz-adv-x="557" 
d="M78 565l68 168h144l-158 -168h-54zM267 565l67 168h145l-159 -168h-53z" />
    <glyph glyph-name="xsuperior" unicode="&#x2e3;" horiz-adv-x="330" 
d="M200 418l-24 73v9l-59 -101h-74l21 94h69q3 1 11.5 7.5t10.5 8.5l12 10l-36 114l-51 -15l-7 15l129 45l35 -26l21 -69v-12l65 100h77l-22 -96h-71q-2 -1 -9.5 -6.5t-12.5 -7.5l-17 -9l39 -119l56 32l11 -12l-96 -62z" />
    <glyph glyph-name="Delta" unicode="&#x394;" horiz-adv-x="694" 
d="M20 0v46l313 653l38 12l303 -665v-46h-654zM461 47l-178 402l-3 27l-203 -429h384z" />
    <glyph glyph-name="Omega" unicode="&#x3a9;" horiz-adv-x="731" 
d="M286 144q-48 7 -93 26.5t-80 51.5t-56.5 78t-21.5 108q0 58 19 106.5t60 86.5t105.5 66.5t155.5 47.5q72 0 131 -22t101 -59.5t65.5 -88t23.5 -108.5q0 -68 -19 -114t-53 -78t-81 -54.5t-104 -43.5v-46l190 12l24 66h38v-179h-303v181q15 2 33 14t33.5 38.5t26.5 69
t11 104.5q0 58 -11 106t-30 82t-45.5 52.5t-56.5 18.5q-23 0 -43 -17.5t-35 -48.5t-23.5 -72.5t-8.5 -89.5q0 -57 9.5 -103t24.5 -79.5t33.5 -53t36.5 -21.5v-181h-303v179h38l20 -66l188 -12v43z" />
    <glyph glyph-name="mu" unicode="&#x3bc;" 
d="M167 -230h-141l125 713h160l-61 -340q-4 -21 3.5 -32.5t23.5 -11.5q12 0 23 5.5t24 14.5l32 21l61 343h160l-74 -419l85 50l17 -21l-154 -111l-114 42l9 61l12 25l-160 -127q-30 0 -57 9.5t-38 27.5l5 -52z" />
    <glyph glyph-name="pi" unicode="&#x3c0;" 
d="M555 71l10 -25l-162 -56l-78 66l63 361h-86l-73 -417h-168l73 417h-30l-60 -107h-35l28 163h607l-10 -56h-78l-64 -362z" />
    <glyph glyph-name="Wgrave" unicode="&#x1e80;" horiz-adv-x="1001" 
d="M594 769l-109 139h141l20 -139h-52zM548 403l6 31l-168 -414l-150 -37l-107 670l-53 10l7 38l164 -2l137 2l-2 -38l-71 -11l70 -499l-8 -40l153 386l-24 154l-51 10l7 38l163 -2l142 2l-2 -38l-76 -11l69 -499l-8 -40l213 539l-82 11l7 38l104 -2l81 2l-2 -38l-50 -10
l-258 -633l-150 -37z" />
    <glyph glyph-name="wgrave" unicode="&#x1e81;" horiz-adv-x="752" 
d="M409 565l-99 177h142l9 -177h-52zM367 11l-5 145l9 37l-131 -208l-143 26l-13 409l-79 -25l-10 24l203 79l49 -44l8 -351l-4 -32l108 174l-6 187l163 53l8 -385l-5 -32l152 243l-94 108l125 79l45 -44l-17 -136l-221 -333z" />
    <glyph glyph-name="Wacute" unicode="&#x1e82;" horiz-adv-x="1001" 
d="M554 769l64 139h148l-154 -139h-58zM548 403l6 31l-168 -414l-150 -37l-107 670l-53 10l7 38l164 -2l137 2l-2 -38l-71 -11l70 -499l-8 -40l153 386l-24 154l-51 10l7 38l163 -2l142 2l-2 -38l-76 -11l69 -499l-8 -40l213 539l-82 11l7 38l104 -2l81 2l-2 -38l-50 -10
l-258 -633l-150 -37z" />
    <glyph glyph-name="wacute" unicode="&#x1e83;" horiz-adv-x="752" 
d="M372 565l73 177h142l-162 -177h-53zM367 11l-5 145l9 37l-131 -208l-143 26l-13 409l-79 -25l-10 24l203 79l49 -44l8 -351l-4 -32l108 174l-6 187l163 53l8 -385l-5 -32l152 243l-94 108l125 79l45 -44l-17 -136l-221 -333z" />
    <glyph glyph-name="Wdieresis" unicode="&#x1e84;" horiz-adv-x="1001" 
d="M556 893l34 -7l-3 -61l-23 -53l-74 -7l-34 7l4 62l21 52zM788 893l34 -7l-4 -61l-22 -53l-74 -7l-33 7l2 62l23 52zM548 403l6 31l-168 -414l-150 -37l-107 670l-53 10l7 38l164 -2l137 2l-2 -38l-71 -11l70 -499l-8 -40l153 386l-24 154l-51 10l7 38l163 -2l142 2
l-2 -38l-76 -11l69 -499l-8 -40l213 539l-82 11l7 38l104 -2l81 2l-2 -38l-50 -10l-258 -633l-150 -37z" />
    <glyph glyph-name="wdieresis" unicode="&#x1e85;" horiz-adv-x="752" 
d="M409 716l33 -7l-3 -61l-23 -53l-73 -6l-35 6l4 62l21 52zM605 716l34 -7l-4 -61l-22 -53l-74 -6l-34 6l3 62l22 52zM367 11l-5 145l9 37l-131 -208l-143 26l-13 409l-79 -25l-10 24l203 79l49 -44l8 -351l-4 -32l108 174l-6 187l163 53l8 -385l-5 -32l152 243l-94 108
l125 79l45 -44l-17 -136l-221 -333z" />
    <glyph glyph-name="Ygrave" unicode="&#x1ef2;" horiz-adv-x="686" 
d="M454 769l-110 139h142l19 -139h-51zM437 357v-37l203 332l-71 11l7 38l102 -2l79 1l-2 -37l-54 -11l-239 -377l-35 -226l88 -11l-6 -39l-179 2l-175 -2l1 39l92 11l36 230l-157 373l-49 12l7 37l143 -2l159 2l-1 -38l-66 -11z" />
    <glyph glyph-name="ygrave" unicode="&#x1ef3;" horiz-adv-x="516" 
d="M290 565l-98 177h142l8 -177h-52zM276 33l-141 -30l-62 415l-77 -24l-10 25l199 79l48 -37l57 -399l148 253l-99 104l125 79l47 -42l-21 -145l-164 -279l-174 -267h-150l25 149h140z" />
    <glyph glyph-name="endash" unicode="&#x2013;" horiz-adv-x="653" 
d="M71 309h537l-11 -56h-537z" />
    <glyph glyph-name="emdash" unicode="&#x2014;" horiz-adv-x="908" 
d="M81 309h782l-10 -56h-783z" />
    <glyph glyph-name="quoteleft" unicode="&#x2018;" horiz-adv-x="256" 
d="M267 698q-4 -7 -18 -28.5t-29 -45.5t-27 -44.5t-13 -25.5l71 -5l-6 -76l-21 -63l-101 -7l-37 7l5 73l23 66l121 163z" />
    <glyph glyph-name="quoteright" unicode="&#x2019;" horiz-adv-x="268" 
d="M98 415q4 7 18 28.5t29 45.5t27 44.5t13 25.5l-71 5l6 76l21 63l101 7l37 -7l-5 -73l-23 -66l-121 -163z" />
    <glyph glyph-name="quotesinglbase" unicode="&#x201a;" horiz-adv-x="271" 
d="M19 -145q4 7 18 28.5t29 45.5t27 44.5t13 25.5l-71 6l6 76l22 62l100 8l37 -8l-5 -72l-22 -66l-121 -164z" />
    <glyph glyph-name="quotedblleft" unicode="&#x201c;" horiz-adv-x="461" 
d="M472 702q-4 -6 -18 -27.5t-29 -46t-27 -45t-13 -25.5l71 -5l-6 -76l-21 -62l-101 -8l-37 8l5 72l23 66l121 164zM267 702q-4 -6 -18 -27.5t-29 -46t-27 -45t-13 -25.5l71 -5l-6 -76l-21 -62l-101 -8l-37 8l5 72l23 66l121 164z" />
    <glyph glyph-name="quotedblright" unicode="&#x201d;" horiz-adv-x="473" 
d="M98 416q4 6 18 27.5t29 46t27 45t13 25.5l-71 5l6 76l21 62l101 8l37 -8l-5 -72l-23 -66l-121 -163zM303 416q4 6 18 27.5t29 46t27 45t13 25.5l-72 5l7 76l21 62l101 8l36 -8l-5 -72l-22 -66l-121 -163z" />
    <glyph glyph-name="quotedblbase" unicode="&#x201e;" horiz-adv-x="476" 
d="M224 -145q4 7 18 28.5t29 45.5t27 44.5t13 25.5l-71 6l6 76l21 62l101 8l37 -8l-5 -72l-23 -66l-121 -164zM19 -145q4 7 18 28.5t29 45.5t27 44.5t13 25.5l-71 6l6 76l22 62l100 8l37 -8l-5 -72l-22 -66l-121 -164z" />
    <glyph glyph-name="dagger" unicode="&#x2020;" horiz-adv-x="461" 
d="M86 564l165 -53l-20 199h149l-91 -199l192 53l-23 -133l-173 52l6 -113l40 -45l-68 -103l-83 -282h-17l16 282l-33 103l56 45l44 113l-184 -52z" />
    <glyph glyph-name="daggerdbl" unicode="&#x2021;" horiz-adv-x="524" 
d="M234 370l44 113l-183 -52l23 133l166 -53l-20 199h149l-91 -199l192 53l-24 -133l-172 52l6 -113l40 -42l-55 -43l-46 -113l188 53l-24 -134l-169 54l21 -200h-149l90 200l-188 -54l23 134l169 -53l-4 113l-40 43z" />
    <glyph glyph-name="bullet" unicode="&#x2022;" horiz-adv-x="301" 
d="M190 383l46 -7l-7 -76l-19 -69l-99 -6l-46 6l7 77l20 68z" />
    <glyph glyph-name="ellipsis" unicode="&#x2026;" horiz-adv-x="882" 
d="M192 153l37 -8l-5 -77l-24 -67l-103 -8l-37 8l6 78l23 66zM477 153l36 -8l-4 -77l-24 -67l-104 -8l-36 8l6 78l22 66zM762 153l37 -8l-5 -77l-24 -67l-103 -8l-37 8l6 78l22 66z" />
    <glyph glyph-name="perthousand" unicode="&#x2030;" horiz-adv-x="1160" 
d="M119 -5h-74l646 710h73zM193 351q-61 0 -95 39t-27 109q8 75 58.5 124.5t130.5 71.5l20 7q63 0 97 -39.5t27 -108.5q-8 -75 -59 -125t-132 -72zM251 667q-27 -11 -45.5 -45t-23.5 -93q-8 -66 4.5 -101.5t35.5 -41.5q26 11 44.5 44.5t23.5 92.5q8 68 -4 103t-35 41zM901 0
q-60 0 -94.5 39.5t-27.5 108.5q8 76 58.5 125.5t130.5 71.5l21 7q62 0 96 -39.5t27 -108.5q-8 -76 -58.5 -125.5t-131.5 -71.5zM530 0q-61 0 -95 39.5t-27 108.5q8 76 58.5 125.5t130.5 71.5l21 7q62 0 96 -39.5t27 -108.5q-8 -76 -59 -125.5t-132 -71.5zM959 317
q-27 -11 -45 -45t-23 -93q-8 -67 4 -102t35 -42q26 11 45 45t24 93q8 68 -4 103t-36 41zM587 317q-26 -11 -44.5 -45t-23.5 -93q-8 -67 4.5 -102t35.5 -42q26 11 44.5 45t23.5 93q8 68 -4 103t-36 41z" />
    <glyph glyph-name="guilsinglleft" unicode="&#x2039;" horiz-adv-x="329" 
d="M177 15l-142 220l221 220h68l-166 -221l89 -219h-70z" />
    <glyph glyph-name="guilsinglright" unicode="&#x203a;" horiz-adv-x="345" 
d="M23 15l166 219l-89 221h68l145 -220l-220 -220h-70z" />
    <glyph glyph-name="fraction" unicode="&#x2044;" horiz-adv-x="176" 
d="M-129 -50h-56l521 760h55z" />
    <glyph glyph-name="zerosuperior" unicode="&#x2070;" horiz-adv-x="409" 
d="M86 548q0 32 10 67t31 66.5t54.5 57.5t81.5 41l50 15q66 0 101.5 -42t35.5 -115q0 -32 -10 -67t-31 -66.5t-55 -57.5t-82 -41l-49 -16q-66 0 -101.5 42.5t-35.5 115.5zM251 424q39 24 62 77.5t23 122.5q0 60 -14.5 93.5t-37.5 43.5q-39 -24 -61 -77t-22 -122
q0 -60 14 -93.5t36 -44.5z" />
    <glyph glyph-name="foursuperior" unicode="&#x2074;" horiz-adv-x="355" 
d="M317 557h66l-8 -44h-66l-22 -115h-101l23 115h-142l-13 30l217 248h119l-5 -25l-292 -221l33 13h91l8 44l95 56h17z" />
    <glyph glyph-name="fivesuperior" unicode="&#x2075;" horiz-adv-x="343" 
d="M139 603l114 56q54 0 83 -20t29 -55q0 -30 -13.5 -51.5t-34.5 -38t-46 -28.5t-48 -22l-103 -47h-54l16 86h139q14 13 20.5 29.5t6.5 31.5q0 23 -11 39.5t-40 16.5q-14 0 -29 -4t-31 -11l-19 -8l-11 6l64 204h228l-5 -19l-30 -66h-193z" />
    <glyph glyph-name="sixsuperior" unicode="&#x2076;" horiz-adv-x="343" 
d="M379 783q-49 -17 -82 -39t-54 -47t-31.5 -50.5t-14.5 -50.5l96 60q43 -3 64 -30t21 -63q0 -60 -35.5 -98t-92.5 -55l-56 -18q-51 0 -85.5 35.5t-34.5 98.5q0 48 22.5 92t62.5 80t95 62.5t120 38.5zM195 578q-2 -15 -3 -27t-1 -26q0 -42 9 -67.5t23 -36.5q12 8 20 20.5
t13 27t7 29t2 25.5q0 29 -7 50.5t-22 21.5q-14 0 -30 -11z" />
    <glyph glyph-name="sevensuperior" unicode="&#x2077;" horiz-adv-x="317" 
d="M92 785h273l16 -17l-240 -368h-67l1 31l226 272l-18 -7h-205z" />
    <glyph glyph-name="eightsuperior" unicode="&#x2078;" horiz-adv-x="355" 
d="M273 645q12 11 20 30t8 38q0 23 -11 40.5t-33 21.5q-16 -7 -23 -22t-7 -30q0 -20 11 -38t35 -40zM193 389q-27 0 -50 6t-40 17.5t-26.5 27.5t-9.5 36q0 21 9.5 37.5t25.5 29t35.5 22t39.5 18.5q-29 23 -46 45t-17 51q0 21 9.5 37.5t25.5 29t36.5 22t42.5 15.5l59 16
q54 0 86.5 -20t32.5 -49q0 -22 -10 -38t-26 -27.5t-36 -20t-40 -15.5q41 -35 59 -57.5t18 -51.5q0 -23 -10 -40.5t-27.5 -31t-40 -24t-47.5 -18.5zM176 502q0 -31 14.5 -54.5t31.5 -30.5q18 8 26.5 24t8.5 33q0 24 -14 44.5t-43 48.5q-24 -27 -24 -65z" />
    <glyph glyph-name="ninesuperior" unicode="&#x2079;" horiz-adv-x="348" 
d="M269 610q2 15 2.5 27t0.5 26q0 42 -8.5 67.5t-22.5 36.5q-12 -7 -20 -19.5t-13 -26.5t-7 -28t-2 -25q0 -31 8 -53t22 -22q12 0 29 11zM84 406q49 17 82.5 39t54.5 46.5t31.5 50t13.5 50.5l-93 -59q-44 3 -66 30t-22 63q0 60 36 98t93 55l58 18q51 0 84 -36t33 -99
q0 -48 -22.5 -92t-62 -80t-94.5 -62t-120 -38z" />
    <glyph glyph-name="plussuperior" unicode="&#x207a;" horiz-adv-x="404" 
d="M252 475v124h-136v33h136v126h37v-126h136v-33h-136v-124h-37z" />
    <glyph glyph-name="minussuperior" unicode="&#x207b;" horiz-adv-x="409" 
d="M116 640h315v-34h-315v34z" />
    <glyph glyph-name="equalsuperior" unicode="&#x207c;" horiz-adv-x="407" 
d="M423 649h-312v34h312v-34zM423 542h-312v34h312v-34z" />
    <glyph glyph-name="parenleftsuperior" unicode="&#x207d;" horiz-adv-x="249" 
d="M340 835q-69 -64 -106 -150t-37 -183q0 -49 9 -92.5t32 -80.5l-17 -10q-24 28 -41 53.5t-28 50t-16 49.5t-5 54q0 47 11 88.5t35 80t60.5 75.5t87.5 76z" />
    <glyph glyph-name="parenrightsuperior" unicode="&#x207e;" horiz-adv-x="249" 
d="M36 331q69 64 106 150t37 183q0 49 -8.5 92.5t-32.5 80.5l17 9q47 -56 68.5 -102t21.5 -104q0 -48 -11 -88.5t-35 -79t-60.5 -76t-87.5 -77.5z" />
    <glyph glyph-name="nsuperior" unicode="&#x207f;" horiz-adv-x="378" 
d="M189 400h-109l43 228l-41 -12l-7 16l129 43l33 -25l-6 -30l-6 -11l100 67q42 0 59 -17.5t9 -62.5l-32 -162l51 31l11 -13l-94 -61l-80 26l33 168q3 21 -15 21q-6 0 -13 -2.5t-14 -6.5l-16 -8z" />
    <glyph glyph-name="zeroinferior" unicode="&#x2080;" horiz-adv-x="405" 
d="M-12 -3q0 33 10 67.5t31 66.5t54.5 58t81.5 41l50 15q66 0 101.5 -42t35.5 -115q0 -32 -10 -67t-31 -67t-55 -58t-82 -41l-49 -15q-66 0 -101.5 42.5t-35.5 114.5zM153 -126q39 24 62 77.5t23 122.5q0 60 -14.5 93.5t-37.5 43.5q-39 -24 -61 -77t-22 -122q0 -60 14 -93.5
t36 -44.5z" />
    <glyph glyph-name="oneinferior" unicode="&#x2081;" horiz-adv-x="307" 
d="M156 -116l72 -8l-4 -27l-126 1l-130 -1l2 27l76 8l56 281l6 10l-19 -13l-65 -15l-6 29l167 62h40z" />
    <glyph glyph-name="twoinferior" unicode="&#x2082;" horiz-adv-x="359" 
d="M-42 -150l-6 19l125 109q21 19 42 38.5t37.5 40.5t27 43.5t10.5 48.5t-10.5 44t-30.5 21l-22 -6l-39 -83h-66l5 73l154 48q64 0 93 -23.5t29 -64.5q0 -30 -15 -55t-38 -46t-50 -39t-52 -33l-114 -67l57 14h187v-22l-37 -60h-287z" />
    <glyph glyph-name="threeinferior" unicode="&#x2083;" horiz-adv-x="325" 
d="M75 127h-71l7 70l159 47q57 0 79.5 -18t22.5 -44q0 -20 -11 -35.5t-29 -27.5t-40 -20t-45 -12q59 -5 82 -27t23 -47q0 -27 -15 -46.5t-37 -33.5t-48 -24t-48 -19l-106 -44h-49l16 86h144q14 11 20 24.5t6 29.5q0 20 -17.5 34.5t-52.5 15.5l-5 17l40 23q32 18 47 43t15 51
q0 18 -7.5 28t-18.5 12l-22 -5z" />
    <glyph glyph-name="fourinferior" unicode="&#x2084;" horiz-adv-x="354" 
d="M228 10h66l-8 -45h-66l-22 -115h-101l23 115h-143l-13 30l218 249h119l-5 -25l-292 -222l33 13h91l8 44l95 57h17z" />
    <glyph glyph-name="fiveinferior" unicode="&#x2085;" horiz-adv-x="335" 
d="M38 52l114 56q54 0 83.5 -20t29.5 -55q0 -30 -14 -52t-35 -38.5t-46 -28.5t-47 -22l-104 -46h-54l16 86h139q14 12 20.5 28.5t6.5 32.5q0 23 -10.5 39.5t-39.5 16.5q-14 0 -29 -4t-31 -11l-20 -8l-11 6l65 204h228l-6 -19l-29 -66h-193z" />
    <glyph glyph-name="sixinferior" unicode="&#x2086;" horiz-adv-x="346" 
d="M291 235q-49 -17 -82 -39t-54 -47t-31.5 -50.5t-14.5 -50.5l96 60q42 -3 63.5 -30t21.5 -63q0 -60 -36 -98.5t-93 -55.5l-55 -18q-26 0 -48 9.5t-38 27t-25.5 42.5t-9.5 56q0 48 22.5 92t63 80t95 62.5t119.5 38.5zM107 30q-2 -15 -3 -27t-1 -26q0 -42 8.5 -67.5
t22.5 -36.5q12 7 20.5 20t13 27t6.5 28.5t2 26.5q0 29 -6.5 50.5t-22.5 21.5q-12 0 -30 -11z" />
    <glyph glyph-name="seveninferior" unicode="&#x2087;" horiz-adv-x="308" 
d="M-4 233h273l16 -17l-240 -369h-68l1 31l227 273l-18 -8h-206z" />
    <glyph glyph-name="eightinferior" unicode="&#x2088;" horiz-adv-x="359" 
d="M178 99q12 11 20 30t8 37q0 24 -11 41t-34 22q-15 -8 -22.5 -22.5t-7.5 -30.5q0 -20 11.5 -37.5t35.5 -39.5zM97 -158q-27 0 -50 6t-40 17.5t-26.5 27.5t-9.5 36q0 21 9.5 37.5t25.5 29t36 22t40 18.5q-29 24 -46.5 46t-17.5 51q0 21 9.5 37.5t25.5 29t36.5 21.5t42.5 15
l59 17q54 0 87 -20.5t33 -49.5q0 -21 -10 -37t-26 -28t-36 -20.5t-41 -15.5q20 -17 35 -31t24.5 -26.5t14 -24.5t4.5 -27q0 -23 -10.5 -40.5t-27.5 -31t-39.5 -24t-47.5 -18.5zM80 -45q0 -31 15 -54.5t32 -30.5q17 8 25.5 24t8.5 33q0 24 -13.5 44.5t-43.5 48.5
q-24 -27 -24 -65z" />
    <glyph glyph-name="nineinferior" unicode="&#x2089;" horiz-adv-x="345" 
d="M165 55q2 15 2.5 27t0.5 26q0 42 -8.5 67.5t-22.5 36.5q-12 -7 -20 -19.5t-13 -26.5t-7 -28t-2 -25q0 -31 8 -53t22 -22q12 0 29 11zM-20 -150q49 18 82.5 40t54.5 46.5t31.5 50t13.5 50.5l-93 -60q-44 3 -66 30.5t-22 63.5q0 60 36 98t93 55l58 18q51 0 84 -36t33 -99
q0 -48 -22.5 -92t-62 -80t-94.5 -62.5t-120 -38.5z" />
    <glyph glyph-name="parenleftinferior" unicode="&#x208d;" horiz-adv-x="240" 
d="M231 315q-69 -64 -106 -150t-37 -183q0 -50 9 -93t32 -80l-17 -10q-24 28 -41 53t-28 49.5t-16 50t-5 54.5q0 47 11 88.5t35 80t60.5 75.5t87.5 76z" />
    <glyph glyph-name="parenrightinferior" unicode="&#x208e;" horiz-adv-x="241" 
d="M-58 -189q69 63 106 149.5t37 183.5q0 49 -8.5 92.5t-32.5 80.5l17 9q47 -56 68.5 -102t21.5 -104q0 -48 -11 -89t-35 -79t-60.5 -75.5t-87.5 -77.5z" />
    <glyph glyph-name="Euro" unicode="&#x20ac;" horiz-adv-x="684" 
d="M393 -17q-68 0 -123.5 20t-95.5 56.5t-63 88t-25 115.5v5h-76l10 50h67q3 35 13 68h-67l9 50h75q34 80 106 145.5t189 103.5l107 33q21 -1 46.5 -8.5t50 -17.5t45.5 -21.5t33 -20.5l-65 -94q-14 12 -37.5 27.5t-51 29.5t-56.5 24.5t-53 14.5q-54 -29 -89.5 -85.5
t-51.5 -130.5h262l-36 -50h-234q-2 -17 -3 -34t0 -34h196l-35 -50h-158q12 -87 57 -138.5t109 -68.5q18 2 39.5 8.5t43 15t41.5 17.5t34 16l19 -31q-31 -20 -93.5 -47.5t-138.5 -56.5z" />
    <glyph glyph-name="afii61289" unicode="&#x2113;" horiz-adv-x="534" 
d="M119 275l57 324l228 120q42 0 70 -12.5t45 -32t24 -43.5t7 -48q0 -56 -24 -100.5t-63 -81t-88 -66.5t-99 -57l-36 -209l189 65l14 -25l-258 -126l-114 23l37 211q-1 -1 -11 -4.5t-21 -8t-21 -8.5t-11 -4l9 56zM287 341q28 16 48 44.5t33 62t19 70t6 69.5q0 25 -6.5 43
t-23.5 18q-2 0 -12 -5t-11 -6z" />
    <glyph glyph-name="afii61352" unicode="&#x2116;" horiz-adv-x="993" 
d="M750 105q-33 0 -62.5 8.5t-51 26t-34 44.5t-12.5 64q0 69 38.5 126.5t119.5 87.5l68 26q33 0 62 -8.5t51 -26t34.5 -44.5t12.5 -64q0 -69 -38.5 -127t-119.5 -88zM491 0h-106l-175 526l-6 42l-100 -568h-114l3 36l70 19l104 593l-73 14l9 38l100 -1l115 1l155 -436l6 -40
l85 476h122l-3 -35l-79 -22zM778 439q-25 -22 -37 -68.5t-12 -97.5q0 -60 17.5 -87.5t41.5 -32.5q23 22 36 69t13 98q0 60 -17.5 87t-41.5 32zM555 63h367l-10 -57h-367z" />
    <glyph glyph-name="trademark" unicode="&#x2122;" horiz-adv-x="1010" 
d="M490 341l35 6v322l-35 6l2 26l65 -1l107 1l105 -253l-2 -34l109 287l79 -1l81 1l1 -26l-36 -6v-322l36 -6l-1 -27l-94 1l-89 -1l-2 27l33 6v270l4 35l-129 -339h-67l-126 311l-7 37v-314l38 -6l-1 -27l-54 1l-51 -1zM173 341l55 6v325l-50 -1l-46 -100h-27v130h370v-130
h-27l-46 100l-49 1v-325l55 -6l-2 -27l-116 1l-116 -1z" />
    <glyph glyph-name="uni2126" unicode="&#x2126;" horiz-adv-x="731" 
d="M286 144q-48 7 -93 26.5t-80 51.5t-56.5 78t-21.5 108q0 58 19 106.5t60 86.5t105.5 66.5t155.5 47.5q72 0 131 -22t101 -59.5t65.5 -88t23.5 -108.5q0 -68 -19 -114t-53 -78t-81 -54.5t-104 -43.5v-46l190 12l24 66h38v-179h-303v181q15 2 33 14t33.5 38.5t26.5 69
t11 104.5q0 58 -11 106t-30 82t-45.5 52.5t-56.5 18.5q-23 0 -43 -17.5t-35 -48.5t-23.5 -72.5t-8.5 -89.5q0 -57 9.5 -103t24.5 -79.5t33.5 -53t36.5 -21.5v-181h-303v179h38l20 -66l188 -12v43z" />
    <glyph glyph-name="estimated" unicode="&#x212e;" horiz-adv-x="888" 
d="M786 220q-26 -51 -62.5 -88t-85 -64t-109.5 -46.5t-135 -36.5q-79 0 -141 23.5t-104 64.5t-62 98t-15 125q6 89 34 155t83 115.5t138.5 85t199.5 63.5q78 0 139.5 -23t101 -66t56.5 -104.5t7 -137.5l-10 -52h-561l-14 -87q-3 -101 40.5 -151.5t122.5 -50.5q34 0 65.5 14
t58 38.5t47 56.5t31.5 68h175zM272 398h371l18 99q-4 78 -46 120t-120 42q-74 0 -127 -42t-77 -111z" />
    <glyph glyph-name="arrowleft" unicode="&#x2190;" horiz-adv-x="610" 
d="M171 257l25 -9l124 -116v-102l-270 265l270 265v-101l-124 -116l-25 -10h389v-76h-389z" />
    <glyph glyph-name="arrowup" unicode="&#x2191;" horiz-adv-x="631" 
d="M278 430l-10 -26l-116 -124h-102l266 270l265 -270h-102l-116 124l-9 26v-390h-76v390z" />
    <glyph glyph-name="arrowright" unicode="&#x2192;" horiz-adv-x="610" 
d="M50 333h390l-26 10l-124 116v101l270 -265l-270 -265v102l124 116l26 9h-390v76z" />
    <glyph glyph-name="arrowdown" unicode="&#x2193;" horiz-adv-x="631" 
d="M354 550v-389l9 25l116 124h102l-265 -270l-266 270h102l116 -124l10 -25v389h76z" />
    <glyph glyph-name="uni2196" unicode="&#x2196;" horiz-adv-x="488" 
d="M108 363l11 -25l1 -171l-70 -72v380h380l-72 -70l-171 1l-25 11l276 -276l-54 -53z" />
    <glyph glyph-name="uni2197" unicode="&#x2197;" horiz-adv-x="488" 
d="M326 417l-25 -11l-171 -1l-72 70h380v-380l-70 72l1 171l11 25l-276 -275l-54 53z" />
    <glyph glyph-name="uni2198" unicode="&#x2198;" horiz-adv-x="488" 
d="M104 468l276 -276l-11 25l-1 172l70 72v-380h-380l72 70l171 -1l25 -11l-276 276z" />
    <glyph glyph-name="uni2199" unicode="&#x2199;" horiz-adv-x="488" 
d="M162 139l25 11l171 1l72 -70h-380v380l70 -72l-1 -172l-11 -25l276 276l54 -53z" />
    <glyph glyph-name="partialdiff" unicode="&#x2202;" 
d="M566 286q0 -124 -62.5 -195.5t-176.5 -93.5l-28 -12q-55 9 -100 27.5t-77.5 48.5t-50 71.5t-17.5 95.5q0 41 11.5 79.5t35 70t58 55t81.5 34.5l110 -39l32 -9q-12 88 -56.5 153t-141.5 110l13 37q110 -32 181.5 -79.5t113 -105t58 -121t16.5 -127.5zM381 363l-8 4
q-4 2 -16 6.5t-25 9t-25 8t-16 3.5q-28 -12 -43.5 -62t-15.5 -119q0 -49 6.5 -82.5t17.5 -54.5t25.5 -30.5t31.5 -10.5q34 11 51 80.5t17 188.5v59z" />
    <glyph glyph-name="uni2206" unicode="&#x2206;" horiz-adv-x="694" 
d="M20 0v46l313 653l38 12l303 -665v-46h-654zM461 47l-178 402l-3 27l-203 -429h384z" />
    <glyph glyph-name="product" unicode="&#x220f;" horiz-adv-x="762" 
d="M187 -159l-149 -1l-3 38l61 11v763l-61 11l3 38l127 -2h404l155 2l3 -38l-66 -11v-763l58 -11l-3 -38l-147 1l-139 -1l-3 38l51 11v764h-200v-764l48 -11l-2 -38z" />
    <glyph glyph-name="summation" unicode="&#x2211;" 
d="M58 -160l-19 28l279 360l-263 436l20 36h487v-186h-38l-69 140l-195 3l189 -316v-24l-267 -340l312 7l47 68h40l-18 -212h-505z" />
    <glyph glyph-name="minus" unicode="&#x2212;" 
d="M47 311h525v-58h-525v58z" />
    <glyph glyph-name="radical" unicode="&#x221a;" 
d="M-50 424l-56 10l4 35h229l121 -331l5 -39l265 785h208l-14 -51h-154l-292 -820l-133 -33z" />
    <glyph glyph-name="infinity" unicode="&#x221e;" horiz-adv-x="803" 
d="M203 129q-35 0 -63.5 12.5t-48.5 34t-30.5 51t-10.5 63.5q0 26 8.5 51.5t27.5 49t49.5 43.5t75.5 36q33 0 63.5 -10.5t57.5 -26t51 -35t43 -37.5l2 -2l30 34q28 32 67 54.5t76 22.5q36 0 64.5 -12.5t48 -34.5t29.5 -51.5t10 -63.5q0 -62 -36 -104.5t-125 -74.5
q-31 0 -61 9.5t-57 24.5t-50.5 33.5t-41.5 36.5l-2 3l-34 -36q-14 -15 -31.5 -28t-36.5 -22.5t-38 -15t-37 -5.5zM203 227q29 0 56 7t53 23l27 16l-1 1q-12 9 -27.5 19t-33.5 18.5t-37.5 14t-39.5 5.5q-41 1 -66 -11.5t-25 -36.5t23.5 -40t70.5 -16zM471 320l1 -1
q11 -8 27 -17.5t33.5 -17.5t36 -13t35.5 -5q15 0 31.5 3.5t29.5 10t21.5 15.5t8.5 20q0 24 -23 38t-74 14q-49 0 -94 -27z" />
    <glyph glyph-name="integral" unicode="&#x222b;" 
d="M266 483q8 50 41 91.5t76 66.5l127 74h101l-20 -113h-129q-11 -10 -18 -30.5t-11 -42.5l-88 -505q-9 -49 -48.5 -88.5t-94.5 -78.5l-126 -92h-68l24 136h117q11 15 19 39.5t12 49.5z" />
    <glyph glyph-name="approxequal" unicode="&#x2248;" 
d="M561 394h38l-45 -82l-99 -37l-346 66l-50 -57h-38l44 80l102 39l344 -66zM561 209h38l-46 -82l-98 -37l-346 66l-51 -57h-38l45 80l101 39l344 -66z" />
    <glyph glyph-name="notequal" unicode="&#x2260;" 
d="M244 119l-99 -119h-67l100 119h-128v58h177l115 136h-292v59h341l91 108h64l-91 -108h114v-59h-163l-113 -136h276v-58h-325z" />
    <glyph glyph-name="lessequal" unicode="&#x2264;" 
d="M54 59h513v-59h-513v59zM570 620v-65l-444 -194l444 -194v-65l-520 237v43z" />
    <glyph glyph-name="greaterequal" unicode="&#x2265;" 
d="M53 59h512v-59h-512v59zM570 382v-43l-520 -237v65l444 194l-444 194v65z" />
    <glyph glyph-name="lozenge" unicode="&#x25ca;" 
d="M365 160l4 -18l83 130l-195 279l-3 18l-87 -131zM298 703l37 12l238 -346l-247 -373l-38 -13l-241 347z" />
    <glyph glyph-name="commaaccent" unicode="&#xf6c3;" horiz-adv-x="398" 
d="M169 -133l-31 41l7 41h144l-14 -79l-129 -125l-37 7z" />
    <glyph glyph-name="asuperior" unicode="&#xf6e9;" horiz-adv-x="351" 
d="M185 540q0 -20 4 -38.5t18 -35.5l37 23l24 130q-21 12 -47 12q-20 -18 -28 -44.5t-8 -46.5zM339 433l51 31l11 -12l-94 -61l-79 24l8 39l8 16l-105 -78q-66 24 -66 100q0 49 34 87t91 63l77 34q55 0 107 -23z" />
    <glyph glyph-name="bsuperior" unicode="&#xf6ea;" horiz-adv-x="350" 
d="M88 740l-6 16l139 37l31 -20l-28 -145l-10 -16l105 64q35 -11 52 -36.5t17 -62.5q0 -49 -31 -88.5t-82 -61.5l-82 -35q-32 -1 -64 6.5t-54 23.5l63 328zM217 597l-27 -144q7 -5 22 -11t31 -6q18 20 24.5 47t6.5 49q0 23 -5 43t-19 33z" />
    <glyph glyph-name="dsuperior" unicode="&#xf6eb;" horiz-adv-x="363" 
d="M232 418l6 38l9 16l-101 -80q-37 14 -55 41t-18 65q0 49 31 84t81 58l77 36q2 0 9 -0.5t9 -1.5l15 77l-50 -10l-6 15l139 37l29 -20l-65 -340l51 33l11 -13l-93 -62zM244 489l27 135q-16 6 -27.5 8.5t-29.5 2.5q-14 -20 -21 -45.5t-7 -48.5q0 -21 4.5 -38t18.5 -34z" />
    <glyph glyph-name="esuperior" unicode="&#xf6ec;" horiz-adv-x="307" 
d="M169 392q-17 4 -34.5 13t-31 22.5t-22 31.5t-8.5 41q0 46 26.5 84t85.5 58l101 34q26 -5 42.5 -24.5t16.5 -44.5q0 -14 -1.5 -23.5t-6.5 -22.5l-149 -38q6 -19 19.5 -38t37.5 -32q16 6 41 16t42 18l9 -13q-23 -13 -49 -25.5t-52 -23.5zM205 545q1 3 5 6t8 6.5t7.5 7
t3.5 5.5q2 15 -1.5 25t-8.5 17q-19 3 -25 -16q-15 -23 -11 -59z" />
    <glyph glyph-name="isuperior" unicode="&#xf6ed;" horiz-adv-x="210" 
d="M159 784l31 5l57 -5v-46l-16 -35l-29 -6l-61 6l2 40zM74 616l-6 16l128 43l34 -26l-41 -213l49 30l11 -13l-94 -62l-78 26l40 212z" />
    <glyph glyph-name="lsuperior" unicode="&#xf6ee;" horiz-adv-x="213" 
d="M95 740l-6 16l139 37l29 -20l-65 -338l51 31l11 -13l-94 -62l-80 26l63 332z" />
    <glyph glyph-name="msuperior" unicode="&#xf6ef;" horiz-adv-x="538" 
d="M410 417l31 167q3 20 -14 20q-5 0 -9.5 -2.5t-9.5 -5.5l-20 -11l-36 -185h-110l36 186q3 20 -13 20q-5 0 -10.5 -2.5t-10.5 -5.5l-20 -12l-35 -186h-110l44 228l-41 -12l-7 16l129 43l33 -25l-7 -32l-6 -12l99 70q38 0 55.5 -14.5t13.5 -52.5v-1l94 68q42 0 58.5 -17.5
t8.5 -62.5l-32 -164l52 33l10 -13l-94 -61z" />
    <glyph glyph-name="osuperior" unicode="&#xf6f0;" horiz-adv-x="344" 
d="M249 676q57 0 96 -28t39 -82q0 -50 -29.5 -87.5t-94.5 -64.5l-51 -22q-57 0 -96.5 27t-39.5 80q0 51 31 88t94 66zM221 638q-16 -16 -25.5 -45.5t-9.5 -65.5q0 -41 13.5 -66t37.5 -33q16 16 25 45.5t9 65.5q0 83 -50 99z" />
    <glyph glyph-name="rsuperior" unicode="&#xf6f1;" horiz-adv-x="279" 
d="M213 577l-11 -38l89 132h58l-22 -99h-64q-8 -5 -22.5 -19t-23.5 -22l-12 -10l-22 -121h-109l44 228l-41 -12l-7 16l129 43l28 -22z" />
    <glyph glyph-name="ssuperior" unicode="&#xf6f2;" horiz-adv-x="258" 
d="M137 392q-20 3 -45.5 9.5t-36.5 9.5l34 72q26 -11 53 -23.5t63 -26.5q6 3 6 9t-3.5 11t-13.5 11l-75 44q-18 11 -28 27t-10 34q0 20 13 38.5t49 35.5l71 33q19 -2 38.5 -6t52.5 -16l-37 -67l-55 27.5t-50 21.5q-4 -3 -4 -7q0 -8 4.5 -14t18.5 -14l66 -38q24 -14 31 -30.5
t7 -31.5q0 -28 -18.5 -46.5t-44.5 -28.5l-86 -34v0z" />
    <glyph glyph-name="tsuperior" unicode="&#xf6f3;" horiz-adv-x="234" 
d="M266 463l7 -12l-116 -60l-80 26l41 212h-47l3 14l19 14h30l5 19l96 68h25l-17 -88h60l-6 -27h-59l-38 -195z" />
    <glyph glyph-name="apple" unicode="&#xf8ff;" horiz-adv-x="685" 
d="M635 460l-3 -41l-8 -35l-12 -31l-3 -156l-21 -7l-50 70l-27 -7l-19 -140l-32 4l-7 -4l-4 -94l30 -19l16 -14l-3 -15l-30 1l-24 18h-14l-8 8l7 76l-4 47l-61 1l-3 -52l-2 -56v-20l-15 -6l-8 6l-30 -10h-32l-1 11l11 11l50 21l-6 96l-98 -6l-147 140l-4 115l-13 10l-10 36
v26l15 8l-3 78l92 -62l9 47l10 36l22 35l28 35l39 29l40 15l38 14h22l-68 22l4 17h7l79 -20l-4 51l16 12h32l19 -5l29 -25l32 -8l32 -10l15 -13v-20l-20 -31l30 -28l28 -32l18 -34l15 -41zM525 399l-4 7h-205l-66 -3l-7 -9l-6 -44l-48 20l-11 -4l57 -27l1 -45l-5 -73v-91
l18 4l2 40l41 -3l3 9l-44 6v16l48 -6l1 9l-47 7l1 22l43 -3l3 6l-45 9l3 94h74l11 10h-79l2 9h74l8 7h-82l2 22l117 4l140 -4v11zM206 569l29 12l13 -15l-17 -20l-10 -3l17 -3h5l36 24h32l18 -12l8 3l4 14l7 5l10 -4v-18h8l10 22l11 8l-5 6l-3 8l1 21l-30 -10l-10 -8l-8 5
l4 21l14 10l11 11l38 -2l12 13l-4 8h-49l-45 -13l-53 -26l-29 -23zM616 465l-8 37l-19 50l-20 36l-23 28l-34 21h-11l17 -19l25 -10l11 -11l3 -33l-25 13l-15 -29l12 -8v-19l15 3l-12 26l15 -5l10 -20l-5 -12l-8 -7h-23l-3 11l-12 2l1 -22h-14l14 -18l-7 -10l-21 5l-3 -27
l41 6l8 17l22 -2l6 -28l-16 -13v-15l8 -6l18 12h23l6 11l-18 6l-5 9l9 42h7l14 -20zM102 434l57 -32l7 10l-68 38v18l59 -34l43 -28l28 -14l3 10l-103 64l-13 7l-41 33l2 -78l19 -17v-5h-21l19 -14l1 -11l-20 7l18 -18l-4 -7l3 -97l11 -12v180zM511 331l-54 1l-1 -24v-6
l-2 -31l19 -3l-8 -61l-48 3l-8 -6l51 -5l-2 -9h-49l-4 -5l53 -7l-6 -35l27 -1l12 79l4 36l-15 3l-1 8l20 1l5 3l-28 16l2 5l30 -6l-30 15l5 5l21 -5l4 10zM206 331l-66 39v-7l-2 -13l1 -27v-48l64 -44l-1 60zM380 214l-64 4v-51l64 -6v53zM532 306l8 -6l8 2l20 15l13 13
l11 18l-7 5h-14l-10 3l-14 7l-17 -3q-2 -13 -3 -24q-2 -9 -2.5 -17t-0.5 -7zM428 585l5 -6l19 11l8 -2l6 -24h13l6 6l-9 18l17 28l-15 9v5l-25 7v-20l-13 -5v-9l-9 -6zM433 336l4 30l-54 5l-3 -35h53zM366 455l-7 -11h-12l-5 7l11 8l-15 2v6l-23 4l3 -17l8 -14l20 -9l13 -1
l18 10l6 9l5 20l-30 2l7 -5zM589 312l-6 -3l-33 -27l39 -48v78zM244 454l1 4l14 2l-13 6l2 7l-20 -1l3 -19l14 -15l12 -6l11 5l16 12l6 12l2 13l-22 -4l6 -10l-12 -13l-14 -1zM394 281l-72 7l-6 -13l78 -4v10zM206 203l-74 50l20 -23l50 -41zM394 312h-73v-10h73v10z
M384 256l-68 4v-10h68v6zM515 359h-48v-13l44 4zM351 520l-4 -12l49 -17l3 4zM214 498l59 12l-4 12zM414 642l-8 -9v-19l12 -6l3 17zM491 530l-8 -4v-9l8 -3l2 7zM564 386l5 7v7l-10 -4v-10h5z" />
    <glyph glyph-name="AE.sc" horiz-adv-x="790" 
d="M252 270h124l40 215zM398 1l-109 -2l1 40l46 8l34 187h-145l-142 -187l58 -8l-7 -40l-86 2l-68 -2l2 40l39 8l363 471l100 -1l322 1l-13 -149h-34l-47 106l-136 1l-37 -204l68 2l60 86h29l-26 -108l-12 -109h-27l-30 86l-69 1l-34 -187l161 1l75 103h34l-33 -148z" />
    <glyph glyph-name="AEacute.002" horiz-adv-x="916" 
d="M553 748l73 103h144l-154 -103h-63zM290 359h149l48 304zM-24 38l51 10l434 653l107 -2l370 2l-16 -190h-36l-53 144l-173 2l-46 -296l87 2l71 119h31l-30 -143l-15 -142h-31l-34 118l-85 2l-38 -273l195 2l89 150h37l-40 -197l-390 2l-133 -2l2 39l62 11l41 269h-169
l-174 -269l72 -11l-8 -39l-94 2l-87 -2z" />
    <glyph glyph-name="AEacute.sc" horiz-adv-x="790" 
d="M498 572l56 101h133l-134 -101h-55zM252 270h124l40 215zM398 1l-109 -2l1 40l46 8l34 187h-145l-142 -187l58 -8l-7 -40l-86 2l-68 -2l2 40l39 8l363 471l100 -1l322 1l-13 -149h-34l-47 106l-136 1l-37 -204l68 2l60 86h29l-26 -108l-12 -109h-27l-30 86l-69 1
l-34 -187l161 1l75 103h34l-33 -148z" />
    <glyph glyph-name="Aacute.002" horiz-adv-x="703" 
d="M500 851h143l-154 -103h-63zM215 274h195l-19 291l5 32zM151 -1l-90 2l-88 -2l3 39l51 10l366 627l161 43l66 -670l53 -10l-8 -39l-178 2l-137 -2l3 39l72 11l-12 182h-220l-106 -182l72 -11z" />
    <glyph glyph-name="Aacute.sc" horiz-adv-x="607" 
d="M367 569l56 103h134l-134 -103h-56zM420 1l-123 -2l3 40l58 8l-9 116h-188l-79 -116l58 -8l-7 -40l-81 2l-72 -2l3 40l38 8l302 442l160 43l57 -485l40 -8l-7 -40zM185 203h161l-12 204l5 26z" />
    <glyph glyph-name="Abreve.002" horiz-adv-x="703" 
d="M477 808q25 0 46 5t38 12.5t30.5 16t22.5 15.5l24 -16q-14 -18 -28 -32t-32.5 -26t-42.5 -22.5t-58 -21.5q-63 0 -100.5 29t-50.5 73l30 16q6 -7 16.5 -15.5t25.5 -16t34.5 -12.5t44.5 -5zM215 274h195l-19 291l5 32zM151 -1l-90 2l-88 -2l3 39l51 10l366 627l161 43
l66 -670l53 -10l-8 -39l-178 2l-137 -2l3 39l72 11l-12 182h-220l-106 -182l72 -11z" />
    <glyph glyph-name="Abreve.sc" horiz-adv-x="607" 
d="M422 645q42 0 71 13.5t45 24.5l22 -22q-22 -34 -55 -55t-87 -39q-53 0 -85 25t-43 67l28 22q11 -10 36.5 -23t67.5 -13zM420 1l-123 -2l3 40l58 8l-9 116h-188l-79 -116l58 -8l-7 -40l-81 2l-72 -2l3 40l38 8l302 442l160 43l57 -485l40 -8l-7 -40zM185 203h161l-12 204
l5 26z" />
    <glyph glyph-name="Acircumflex.002" horiz-adv-x="703" 
d="M327 748l135 108h94l95 -108h-68l-80 50h-4l-104 -50h-68zM215 274h195l-19 291l5 32zM151 -1l-90 2l-88 -2l3 39l51 10l366 627l161 43l66 -670l53 -10l-8 -39l-178 2l-137 -2l3 39l72 11l-12 182h-220l-106 -182l72 -11z" />
    <glyph glyph-name="Acircumflex.sc" horiz-adv-x="607" 
d="M273 573l126 102h88l82 -102h-60l-75 42h-5l-95 -42h-61zM420 1l-123 -2l3 40l58 8l-9 116h-188l-79 -116l58 -8l-7 -40l-81 2l-72 -2l3 40l38 8l302 442l160 43l57 -485l40 -8l-7 -40zM185 203h161l-12 204l5 26z" />
    <glyph glyph-name="Adieresis.002" horiz-adv-x="703" 
d="M422 856l33 -7l-3 -52l-23 -44l-73 -7l-35 7l4 53l21 43zM653 856l34 -7l-3 -52l-23 -44l-74 -7l-33 7l2 53l23 43zM215 274h195l-19 291l5 32zM151 -1l-90 2l-88 -2l3 39l51 10l366 627l161 43l66 -670l53 -10l-8 -39l-178 2l-137 -2l3 39l72 11l-12 182h-220l-106 -182
l72 -11z" />
    <glyph glyph-name="Adieresis.sc" horiz-adv-x="614" 
d="M362 674l26 -7l-3 -56l-21 -46l-70 -7l-26 7l3 55l19 47zM566 674l26 -7l-4 -56l-19 -46l-72 -7l-24 7l1 55l21 47zM420 1l-123 -2l3 40l58 8l-9 116h-188l-79 -116l58 -8l-7 -40l-81 2l-72 -2l3 40l38 8l302 442l160 43l57 -485l40 -8l-7 -40zM185 203h161l-12 204l5 26
z" />
    <glyph glyph-name="Agrave.002" horiz-adv-x="703" 
d="M455 748l-99 103h136l24 -103h-61zM215 274h195l-19 291l5 32zM151 -1l-90 2l-88 -2l3 39l51 10l366 627l161 43l66 -670l53 -10l-8 -39l-178 2l-137 -2l3 39l72 11l-12 182h-220l-106 -182l72 -11z" />
    <glyph glyph-name="Agrave.sc" horiz-adv-x="607" 
d="M133 -1l-81 2l-72 -2l3 40l38 8l302 442l160 43l57 -485l40 -8l-7 -40l-153 2l-123 -2l3 40l58 8l-9 116h-188l-79 -116l58 -8zM346 203l-12 204l5 26l-154 -230h161zM395 572l-94 101h127l15 -101h-48z" />
    <glyph glyph-name="Amacron.002" horiz-adv-x="703" 
d="M351 825h298l-12 -64h-298zM215 274h195l-19 291l5 32zM151 -1l-90 2l-88 -2l3 39l51 10l366 627l161 43l66 -670l53 -10l-8 -39l-178 2l-137 -2l3 39l72 11l-12 182h-220l-106 -182l72 -11z" />
    <glyph glyph-name="Amacron.sc" horiz-adv-x="607" 
d="M309 649h256l-13 -73h-256zM420 1l-123 -2l3 40l58 8l-9 116h-188l-79 -116l58 -8l-7 -40l-81 2l-72 -2l3 40l38 8l302 442l160 43l57 -485l40 -8l-7 -40zM185 203h161l-12 204l5 26z" />
    <glyph glyph-name="Aogonek.001" horiz-adv-x="703" 
d="M473 -179q-54 0 -91.5 4.5t-59 15t-29.5 27.5t-4 41l5 23l132 95l-13 204h-220l-106 -182l72 -11l-8 -39l-90 2l-88 -2l3 39l51 10l366 627l161 43l66 -670l53 -10l-8 -39l-223 2l-47 -62l-3 -19q-6 -30 12.5 -49t74.5 -19zM410 274l-19 291l5 32l-181 -323h195z" />
    <glyph glyph-name="Aogonek.sc" horiz-adv-x="607" 
d="M404 -189q-50 0 -84 4.5t-53.5 14t-26.5 23.5t-4 33l12 65l111 75l-9 137h-189l-79 -116l58 -8l-7 -40l-81 2l-72 -2l3 40l38 8l302 442l160 43l57 -485l40 -8l-7 -40l-192 2l-42 -69l-6 -29q-1 -8 -1 -19t7 -21t23.5 -16.5t47.5 -6.5zM347 203l-13 204l5 26l-154 -230
h162z" />
    <glyph glyph-name="Aring.002" horiz-adv-x="703" 
d="M424 790q0 -18 12 -29.5t30 -11.5q19 0 30.5 11.5t11.5 29.5q0 17 -11.5 29t-30.5 12q-18 0 -30 -12t-12 -29zM466 719q-14 0 -29 3.5t-27 12t-19.5 21.5t-7.5 32q0 18 7 29.5t19 19.5t27 13l30 10q15 0 29.5 -3.5t26.5 -12t19 -22t7 -32.5q0 -18 -7 -29.5t-18 -19.5
t-26 -13t-31 -9zM215 274h195l-19 291l5 32zM151 -1l-90 2l-88 -2l3 39l51 10l366 627l161 43l66 -670l53 -10l-8 -39l-178 2l-137 -2l3 39l72 11l-12 182h-220l-106 -182l72 -11z" />
    <glyph glyph-name="Aring.sc" horiz-adv-x="607" 
d="M525 636q0 -23 -8 -37t-22 -24t-32.5 -16.5t-39.5 -12.5q-20 0 -39.5 4.5t-34.5 15t-24.5 27.5t-9.5 43q0 21 9 36t23.5 26t33.5 18t39 13q22 0 41 -4.5t33 -15t22.5 -28.5t8.5 -45zM362 636q0 -22 16.5 -36.5t41.5 -14.5q26 0 43 14.5t17 36.5t-17 37.5t-43 15.5
q-25 0 -41.5 -15.5t-16.5 -37.5zM420 1l-123 -2l3 40l58 8l-9 116h-188l-79 -116l58 -8l-7 -40l-81 2l-72 -2l3 40l38 8l302 442l160 43l57 -485l40 -8l-7 -40zM185 203h161l-12 204l5 26z" />
    <glyph glyph-name="Aringacute.002" horiz-adv-x="703" 
d="M462 719q-15 0 -30 3.5t-27 12t-19.5 21.5t-7.5 32q0 18 8 30.5t20.5 20.5t28 12.5t30.5 8.5q17 0 30 -7l9 15l80 1l-57 -36q17 -17 17 -44q0 -18 -7 -29.5t-18.5 -19t-26 -12.5t-30.5 -9zM419 789q0 -18 12 -29.5t30 -11.5q19 0 31 11.5t12 29.5q0 17 -12 29t-31 12
q-18 0 -30 -12t-12 -29zM215 274h195l-19 291l5 32zM151 -1l-90 2l-88 -2l3 39l51 10l366 627l161 43l66 -670l53 -10l-8 -39l-178 2l-137 -2l3 39l72 11l-12 182h-220l-106 -182l72 -11z" />
    <glyph glyph-name="Aringacute.sc" horiz-adv-x="607" 
d="M525 636q0 -23 -8 -37t-22 -24t-32.5 -16.5t-39.5 -12.5q-20 0 -39.5 4.5t-34.5 15t-24.5 27.5t-9.5 43q0 21 9 36t23.5 26t34 18t40.5 13l18 30l106 2l-70 -43q22 -10 35.5 -29t13.5 -53zM362 636q0 -22 16.5 -36.5t41.5 -14.5q26 0 43 14.5t17 36.5t-17 37.5t-43 15.5
q-25 0 -41.5 -15.5t-16.5 -37.5zM420 1l-123 -2l3 40l58 8l-9 116h-188l-79 -116l58 -8l-7 -40l-81 2l-72 -2l3 40l38 8l302 442l160 43l57 -485l40 -8l-7 -40zM185 203h161l-12 204l5 26z" />
    <glyph glyph-name="Atilde.002" horiz-adv-x="703" 
d="M373 842l60 17l183 -52l47 51h27l-60 -105l-60 -13l-184 53l-45 -52h-27zM215 274h195l-19 291l5 32zM151 -1l-90 2l-88 -2l3 39l51 10l366 627l161 43l66 -670l53 -10l-8 -39l-178 2l-137 -2l3 39l72 11l-12 182h-220l-106 -182l72 -11z" />
    <glyph glyph-name="Atilde.sc" horiz-adv-x="617" 
d="M314 673l51 10l163 -37l42 37h27l-54 -119l-50 -7l-163 38l-42 -38h-27zM420 1l-123 -2l3 40l58 8l-9 116h-188l-79 -116l58 -8l-7 -40l-81 2l-72 -2l3 40l38 8l302 442l160 43l57 -485l40 -8l-7 -40zM185 203h161l-12 204l5 26z" />
    <glyph glyph-name="B.sc" horiz-adv-x="548" 
d="M293 51q35 19 49 50t14 60q0 38 -21 65.5t-55 27.5h-24l-37 -203h74zM107 1l-105 -2l2 40l49 8l77 423l-44 10l6 38l105 -1l177 1q81 0 126.5 -31t45.5 -77q0 -42 -36.5 -73.5t-108.5 -45.5l-57 -10q192 -22 192 -116q0 -30 -16.5 -51.5t-42.5 -37.5t-58 -27t-64 -20
l-94 -30zM296 478l-34 -187h20q19 0 37 8t32 22t22.5 33t8.5 42q0 42 -20 62t-49 20h-17z" />
    <glyph glyph-name="C.sc" horiz-adv-x="576" 
d="M307 -13q-60 0 -108.5 16t-82.5 46t-52 72t-18 94q0 91 65.5 164t202.5 115l114 37q50 0 83.5 -9t59.5 -19l-10 -178h-43l-34 108q-23 13 -55.5 24t-69.5 13q-66 -25 -98.5 -82t-32.5 -134q0 -38 10.5 -70.5t29.5 -58.5t43.5 -44.5t53.5 -27.5q26 8 45.5 17t38.5 22
l67 118h46l-36 -170z" />
    <glyph glyph-name="Cacute.002" horiz-adv-x="666" 
d="M398 748l74 103h143l-153 -103h-64zM350 -18q-70 0 -126 21.5t-95 60.5t-60 94.5t-21 123.5q0 59 18 118.5t56 113t96.5 96.5t139.5 69l127 40q60 0 101.5 -15t71.5 -32l-9 -205h-46l-43 133q-27 21 -65 36.5t-88 20.5q-81 -40 -122 -124.5t-41 -199.5q0 -56 12.5 -103
t34.5 -83.5t52.5 -61t67.5 -35.5q32 12 55 25t47 33l82 144h49l-42 -198z" />
    <glyph glyph-name="Cacute.sc" horiz-adv-x="576" 
d="M343 572l56 101h133l-133 -101h-56zM307 -13q-60 0 -108.5 16t-82.5 46t-52 72t-18 94q0 91 65.5 164t202.5 115l114 37q50 0 83.5 -9t59.5 -19l-10 -178h-43l-34 108q-23 13 -55.5 24t-69.5 13q-66 -25 -98.5 -82t-32.5 -134q0 -38 10.5 -70.5t29.5 -58.5t43.5 -44.5
t53.5 -27.5q26 8 45.5 17t38.5 22l67 118h46l-36 -170z" />
    <glyph glyph-name="Ccaron.002" horiz-adv-x="666" 
d="M643 851l-133 -107h-96l-89 107h67l76 -53h4l105 53h66zM350 -18q-70 0 -126 21.5t-95 60.5t-60 94.5t-21 123.5q0 59 18 118.5t56 113t96.5 96.5t139.5 69l127 40q60 0 101.5 -15t71.5 -32l-9 -205h-46l-43 133q-27 21 -65 36.5t-88 20.5q-81 -40 -122 -124.5
t-41 -199.5q0 -56 12.5 -103t34.5 -83.5t52.5 -61t67.5 -35.5q32 12 55 25t47 33l82 144h49l-42 -198z" />
    <glyph glyph-name="Ccaron.sc" horiz-adv-x="576" 
d="M548 672l-127 -100h-87l-83 100h61l76 -42h3l96 42h61zM307 -13q-60 0 -108.5 16t-82.5 46t-52 72t-18 94q0 91 65.5 164t202.5 115l114 37q50 0 83.5 -9t59.5 -19l-10 -178h-43l-34 108q-23 13 -55.5 24t-69.5 13q-66 -25 -98.5 -82t-32.5 -134q0 -38 10.5 -70.5
t29.5 -58.5t43.5 -44.5t53.5 -27.5q26 8 45.5 17t38.5 22l67 118h46l-36 -170z" />
    <glyph glyph-name="Ccedilla.001" horiz-adv-x="666" 
d="M350 -18l-12 -15q35 -2 59 -13.5t24 -34.5q0 -16 -9 -27.5t-24 -20.5t-33 -15.5t-36 -12.5l-71 -22h-51l36 49h80q20 12 20 32q0 14 -19.5 22t-48.5 8l44 52q-61 6 -109.5 29.5t-82 62.5t-51.5 91t-18 115q0 59 18 118.5t56 113t96.5 96.5t139.5 69l127 40
q60 0 101.5 -15t71.5 -32l-9 -205h-46l-43 133q-27 21 -65 36.5t-88 20.5q-81 -40 -122 -124.5t-41 -199.5q0 -56 12.5 -103t34.5 -83.5t52.5 -61t67.5 -35.5q32 12 55 25t47 33l82 144h49l-42 -198z" />
    <glyph glyph-name="Ccedilla.sc" horiz-adv-x="576" 
d="M187 -140h63q17 14 17 34q0 23 -13.5 30.5t-30.5 9.5l40 55q-101 12 -158.5 72t-57.5 154q0 91 65.5 164t202.5 115l113 37q51 0 84.5 -9t59.5 -19l-10 -178h-44l-34 108q-23 13 -55 24t-69 13q-66 -25 -98.5 -82t-32.5 -134q0 -38 10.5 -70.5t29 -58.5t43 -44.5
t53.5 -27.5q27 8 46 17t39 22l67 118h45l-36 -170l-219 -53h-9l-11 -16q37 -4 53.5 -20t16.5 -36q0 -18 -10 -30.5t-25 -21.5t-32.5 -16t-33.5 -14l-57 -22h-41z" />
    <glyph glyph-name="Ccircumflex.002" horiz-adv-x="666" 
d="M318 748l134 108h94l96 -108h-68l-81 50h-4l-103 -50h-68zM350 -18q-70 0 -126 21.5t-95 60.5t-60 94.5t-21 123.5q0 59 18 118.5t56 113t96.5 96.5t139.5 69l127 40q60 0 101.5 -15t71.5 -32l-9 -205h-46l-43 133q-27 21 -65 36.5t-88 20.5q-81 -40 -122 -124.5
t-41 -199.5q0 -56 12.5 -103t34.5 -83.5t52.5 -61t67.5 -35.5q32 12 55 25t47 33l82 144h49l-42 -198z" />
    <glyph glyph-name="Ccircumflex.sc" horiz-adv-x="576" 
d="M259 573l126 102h87l83 -102h-61l-75 42h-4l-96 -42h-60zM307 -13q-60 0 -108.5 16t-82.5 46t-52 72t-18 94q0 91 65.5 164t202.5 115l114 37q50 0 83.5 -9t59.5 -19l-10 -178h-43l-34 108q-23 13 -55.5 24t-69.5 13q-66 -25 -98.5 -82t-32.5 -134q0 -38 10.5 -70.5
t29.5 -58.5t43.5 -44.5t53.5 -27.5q26 8 45.5 17t38.5 22l67 118h46l-36 -170z" />
    <glyph glyph-name="Cdotaccent.002" horiz-adv-x="666" 
d="M498 856l34 -7l-3 -53l-23 -44l-74 -7l-35 7l4 54l21 43zM350 -18q-70 0 -126 21.5t-95 60.5t-60 94.5t-21 123.5q0 59 18 118.5t56 113t96.5 96.5t139.5 69l127 40q60 0 101.5 -15t71.5 -32l-9 -205h-46l-43 133q-27 21 -65 36.5t-88 20.5q-81 -40 -122 -124.5
t-41 -199.5q0 -56 12.5 -103t34.5 -83.5t52.5 -61t67.5 -35.5q32 12 55 25t47 33l82 144h49l-42 -198z" />
    <glyph glyph-name="Cdotaccent.sc" horiz-adv-x="576" 
d="M373 683l65 3l45 -5l-4 -64l-21 -51l-61 -6l-49 6l6 65zM307 -13q-60 0 -108.5 16t-82.5 46t-52 72t-18 94q0 91 65.5 164t202.5 115l114 37q50 0 83.5 -9t59.5 -19l-10 -178h-43l-34 108q-23 13 -55.5 24t-69.5 13q-66 -25 -98.5 -82t-32.5 -134q0 -38 10.5 -70.5
t29.5 -58.5t43.5 -44.5t53.5 -27.5q26 8 45.5 17t38.5 22l67 118h46l-36 -170z" />
    <glyph glyph-name="D.sc" horiz-adv-x="608" 
d="M297 476l-77 -426h72q58 37 94.5 106t36.5 157q0 33 -8 62.5t-21.5 52t-32 35.5t-39.5 13h-25zM123 1l-121 -2l3 40l48 8l77 423l-46 10l7 38l124 -1l144 1q57 0 102.5 -14.5t77.5 -41t49 -62.5t17 -80q0 -109 -65.5 -179.5t-189.5 -112.5l-87 -29z" />
    <glyph glyph-name="Dcaron.002" horiz-adv-x="702" 
d="M567 851l-133 -107h-96l-89 107h66l77 -53h4l104 53h67zM144 1l-148 -2l2 39l61 11l94 604l-58 11l8 37l156 -2l154 2q66 0 119 -20t90 -56.5t57 -87.5t20 -112q1 -135 -73.5 -236.5t-222.5 -153.5l-100 -36zM339 55q36 24 66 60.5t51.5 83t34 101.5t12.5 116
q0 52 -10.5 96t-28.5 76.5t-42 50.5t-50 18h-39l-93 -602h99z" />
    <glyph glyph-name="Dcaron.sc" horiz-adv-x="608" 
d="M285 572l-83 100h61l76 -42h3l96 42h61l-127 -100h-87zM123 1l-122 -2l3 40l47 8l77 423l-45 10l7 38l129 -1l139 1q57 0 102.5 -14.5t77 -41t48.5 -62.5t17 -80q1 -109 -64.5 -179.5t-190.5 -112.5l-86 -29zM291 50q57 37 93.5 106t37.5 157q0 33 -8 62.5t-21.5 52
t-32 35.5t-39.5 13h-26l-77 -426h73z" />
    <glyph glyph-name="Dcroat.sc" horiz-adv-x="608" 
d="M125 1l-124 -2l3 40l47 8l37 207h-54l7 34h53l34 182l-45 10l7 38l131 -1l137 1q57 0 102.5 -14.5t77 -41t48.5 -62.5t17 -80q1 -109 -64.5 -179.5t-190.5 -112.5l-86 -29zM291 50q57 37 93.5 106t37.5 157q0 33 -8 62.5t-21.5 52t-32 35.5t-39.5 13h-26l-34 -188h67
l-6 -34h-67l-37 -204h73z" />
    <glyph glyph-name="E.sc" horiz-adv-x="530" 
d="M5 39l47 8l77 423l-46 10l6 38l114 -1l344 1l-13 -160h-40l-46 117l-152 1l-33 -182l69 2l61 92h34l-26 -115l-13 -115h-34l-29 91l-70 1l-37 -207l175 1l81 119h39l-39 -164l-362 2l-110 -2z" />
    <glyph glyph-name="Eacute.002" horiz-adv-x="611" 
d="M337 748l73 103h143l-153 -103h-63zM-2 38l61 11l94 603l-59 11l7 38l136 -2l397 2l-16 -197h-42l-53 151l-190 2l-42 -267l92 2l71 118h36l-30 -142l-15 -142h-36l-34 118l-90 2l-47 -302l218 2l93 158h42l-44 -205l-420 2l-131 -2z" />
    <glyph glyph-name="Eacute.sc" horiz-adv-x="530" 
d="M348 673h134l-134 -101h-56zM5 39l47 8l77 423l-46 10l6 38l115 -1l343 1l-13 -160h-40l-46 117l-152 1l-33 -182l69 2l61 92h34l-26 -115l-13 -115h-34l-29 91l-70 1l-37 -207l175 1l81 119h39l-39 -164l-361 2l-111 -2z" />
    <glyph glyph-name="Ebreve.002" horiz-adv-x="611" 
d="M395 808q25 0 46 5t38 12.5t30.5 16t22.5 15.5l23 -16q-14 -18 -28 -32t-32 -26t-42 -22.5t-58 -21.5q-63 0 -100.5 29t-50.5 73l30 16q6 -7 16.5 -15.5t25.5 -16t34.5 -12.5t44.5 -5zM-2 38l61 11l94 603l-59 11l7 38l136 -2l397 2l-16 -197h-42l-53 151l-190 2
l-42 -267l92 2l71 118h36l-30 -142l-15 -142h-36l-34 118l-90 2l-47 -302l218 2l93 158h42l-44 -205l-420 2l-131 -2z" />
    <glyph glyph-name="Ebreve.sc" horiz-adv-x="530" 
d="M342 645q42 0 71 13.5t45 24.5l22 -22q-23 -34 -55.5 -55t-86.5 -39q-53 0 -85.5 25t-42.5 67l28 22q11 -10 36.5 -23t67.5 -13zM5 39l47 8l77 423l-46 10l6 38l117 -1l341 1l-13 -160h-40l-46 117l-152 1l-33 -182l69 2l61 92h34l-26 -115l-13 -115h-34l-29 91l-70 1
l-37 -207l175 1l81 119h39l-39 -164l-360 2l-112 -2z" />
    <glyph glyph-name="Ecaron.002" horiz-adv-x="611" 
d="M571 851l-133 -107h-96l-90 107h67l77 -53h4l104 53h67zM-2 38l61 11l94 603l-59 11l7 38l136 -2l397 2l-16 -197h-42l-53 151l-190 2l-42 -267l92 2l71 118h36l-30 -142l-15 -142h-36l-34 118l-90 2l-47 -302l218 2l93 158h42l-44 -205l-420 2l-131 -2z" />
    <glyph glyph-name="Ecaron.sc" horiz-adv-x="530" 
d="M338 633h3l96 42h60l-126 -102h-87l-83 102h61zM5 39l47 8l77 423l-46 10l6 38l116 -1l342 1l-13 -160h-40l-46 117l-152 1l-33 -182l69 2l61 92h34l-26 -115l-13 -115h-34l-29 91l-70 1l-37 -207l175 1l81 119h39l-39 -164l-360 2l-112 -2z" />
    <glyph glyph-name="Ecircumflex.002" horiz-adv-x="611" 
d="M234 748l134 108h94l96 -108h-68l-81 50h-4l-103 -50h-68zM-2 38l61 11l94 603l-59 11l7 38l136 -2l397 2l-16 -197h-42l-53 151l-190 2l-42 -267l92 2l71 118h36l-30 -142l-15 -142h-36l-34 118l-90 2l-47 -302l218 2l93 158h42l-44 -205l-420 2l-131 -2z" />
    <glyph glyph-name="Ecircumflex.sc" horiz-adv-x="530" 
d="M308 675h87l83 -102h-61l-75 42h-4l-96 -42h-60zM547 518l-13 -160h-40l-46 117l-152 1l-33 -182l69 2l61 92h34l-26 -115l-13 -115h-34l-29 91l-70 1l-37 -207l175 1l81 119h39l-39 -164l-358 2l-114 -2l3 40l47 8l77 423l-46 10l6 38l116 -1z" />
    <glyph glyph-name="Edieresis.002" horiz-adv-x="611" 
d="M330 856l34 -7l-3 -52l-23 -44l-74 -7l-34 7l4 53l21 43zM562 856l34 -7l-4 -52l-22 -44l-74 -7l-33 7l2 53l22 43zM-2 38l61 11l94 603l-59 11l7 38l136 -2l397 2l-16 -197h-42l-53 151l-190 2l-42 -267l92 2l71 118h36l-30 -142l-15 -142h-36l-34 118l-90 2l-47 -302
l218 2l93 158h42l-44 -205l-420 2l-131 -2z" />
    <glyph glyph-name="Edieresis.sc" horiz-adv-x="530" 
d="M278 674l26 -7l-3 -56l-21 -46l-70 -7l-26 7l3 55l19 47zM482 674l26 -7l-4 -56l-20 -46l-71 -7l-25 7l2 55l20 47zM5 39l47 8l77 423l-46 10l6 38l116 -1l342 1l-13 -160h-40l-46 117l-152 1l-33 -182l69 2l61 92h34l-26 -115l-13 -115h-34l-29 91l-70 1l-37 -207l175 1
l81 119h39l-39 -164l-359 2l-113 -2z" />
    <glyph glyph-name="Edotaccent.002" horiz-adv-x="611" 
d="M435 856l34 -7l-3 -53l-23 -44l-74 -7l-35 7l4 54l21 43zM-2 38l61 11l94 603l-59 11l7 38l136 -2l397 2l-16 -197h-42l-53 151l-190 2l-42 -267l92 2l71 118h36l-30 -142l-15 -142h-36l-34 118l-90 2l-47 -302l218 2l93 158h42l-44 -205l-420 2l-131 -2z" />
    <glyph glyph-name="Edotaccent.sc" horiz-adv-x="530" 
d="M303 678l65 4l46 -6l-5 -64l-22 -51l-60 -5l-49 5l5 65zM5 39l47 8l77 423l-46 10l6 38l118 -1l340 1l-13 -160h-40l-46 117l-152 1l-33 -182l69 2l61 92h34l-26 -115l-13 -115h-34l-29 91l-70 1l-37 -207l175 1l81 119h39l-39 -164l-359 2l-113 -2z" />
    <glyph glyph-name="Egrave.002" horiz-adv-x="611" 
d="M389 748l-99 103h137l23 -103h-61zM-2 38l61 11l94 603l-59 11l7 38l136 -2l397 2l-16 -197h-42l-53 151l-190 2l-42 -267l92 2l71 118h36l-30 -142l-15 -142h-36l-34 118l-90 2l-47 -302l218 2l93 158h42l-44 -205l-420 2l-131 -2z" />
    <glyph glyph-name="Egrave.sc" horiz-adv-x="530" 
d="M330 572l-94 101h127l15 -101h-48zM5 39l47 8l77 423l-46 10l6 38l116 -1l342 1l-13 -160h-40l-46 117l-152 1l-33 -182l69 2l61 92h34l-26 -115l-13 -115h-34l-29 91l-70 1l-37 -207l175 1l81 119h39l-39 -164l-359 2l-113 -2z" />
    <glyph glyph-name="Emacron.002" horiz-adv-x="611" 
d="M262 825h298l-13 -64h-298zM-2 38l61 11l94 603l-59 11l7 38l136 -2l397 2l-16 -197h-42l-53 151l-190 2l-42 -267l92 2l71 118h36l-30 -142l-15 -142h-36l-34 118l-90 2l-47 -302l218 2l93 158h42l-44 -205l-420 2l-131 -2z" />
    <glyph glyph-name="Emacron.sc" horiz-adv-x="530" 
d="M226 649h256l-13 -73h-256zM5 39l47 8l77 423l-46 10l6 38l117 -1l341 1l-13 -160h-40l-46 117l-152 1l-33 -182l69 2l61 92h34l-26 -115l-13 -115h-34l-29 91l-70 1l-37 -207l175 1l81 119h39l-39 -164l-362 2l-110 -2z" />
    <glyph glyph-name="Eng.001" horiz-adv-x="674" 
d="M610 652l-63 11l7 38l85 -1l89 1l-1 -38l-61 -11l-102 -652h2l-120 -172h-140l18 101h115l82 56l25 15h-101l-242 547l-6 60l-82 -558l73 -11l-9 -39l-95 2l-88 -2l2 39l61 11l94 604l-57 10l6 38l102 -2l126 2l208 -448l6 -63z" />
    <glyph glyph-name="Eng.sc" horiz-adv-x="583" 
d="M466 242l5 -73l53 302l-50 8l6 39l69 -1l73 1l-2 -39l-48 -8l-85 -471h-8l-114 -177h-121l23 107h87l82 58l26 12h-87l-199 366l-6 66l-68 -385l60 -8l-8 -40l-81 2l-71 -2l3 40l48 8l78 428l-45 4l6 39l87 -1l115 1z" />
    <glyph glyph-name="Eogonek.001" horiz-adv-x="611" 
d="M-2 38l61 11l94 603l-59 11l7 38l136 -2l397 2l-16 -197h-42l-53 151l-190 2l-42 -267l92 2l71 118h36l-30 -142l-15 -142h-36l-34 118l-90 2l-47 -302l218 2l93 158h42l-44 -205l-85 1l-40 -61l-4 -19q-6 -30 14.5 -49t77.5 -19l-6 -31q-109 0 -151 19.5t-33 68.5l3 15
l91 76l-287 1l-131 -2z" />
    <glyph glyph-name="Eogonek.sc" horiz-adv-x="530" 
d="M430 -189q-101 0 -138.5 18.5t-29.5 56.5l11 65l82 49l-239 1l-114 -2l3 40l47 8l77 423l-46 10l6 38l116 -1l342 1l-13 -160h-40l-46 117l-152 1l-33 -182l69 2l61 92h34l-26 -115l-13 -115h-34l-29 91l-70 1l-37 -207l175 1l81 119h39l-39 -164h-61l-49 -67l-5 -29
q-2 -8 -1.5 -19t7 -21t23 -16.5t47.5 -6.5l-5 -29v0z" />
    <glyph glyph-name="Eth.sc" horiz-adv-x="608" 
d="M118 1l-125 -2l3 40l48 8l37 207h-47l7 34h46l34 182l-45 10l7 38l133 -1l135 1q57 0 102.5 -14.5t77 -41t48.5 -62.5t17 -80q1 -109 -64.5 -179.5t-190.5 -112.5l-86 -29zM284 50q57 37 93.5 106t37.5 157q0 33 -8 62.5t-21.5 52t-32 35.5t-39.5 13h-26l-34 -188h75
l-7 -34h-74l-37 -204h73z" />
    <glyph glyph-name="Euro.sc" horiz-adv-x="602" 
d="M376 475q-40 -17 -66.5 -56t-37.5 -95h211l-33 -43h-186q0 -10 -0.5 -20.5t0.5 -20.5h154l-32 -44h-119q11 -60 47.5 -95.5t87.5 -48.5q15 0 33 4t36 9.5t34.5 11.5t28.5 11l18 -27q-14 -7 -35.5 -16t-48 -18.5t-56.5 -19.5t-61 -19q-60 0 -108.5 14.5t-83 42t-54 66
t-21.5 85.5h-65l8 44h59q2 10 3.5 20t4.5 21h-56l9 43h65q29 57 89 106t157 76l95 24q18 0 41 -5t44.5 -13t40.5 -17t30 -15l-57 -81q-12 10 -32.5 22t-45 23.5t-50.5 20t-48 10.5z" />
    <glyph glyph-name="Euro.tlf" 
d="M349 -17q-68 0 -123.5 20t-95.5 56.5t-63 88t-26 115.5v5h-76l10 50h68q3 33 12 68h-67l9 50h76q34 80 106 145.5t189 103.5l107 33q21 -1 46 -8.5t49.5 -17.5t45.5 -21.5t34 -20.5l-65 -94q-14 12 -38 27.5t-51.5 29.5t-56.5 24.5t-53 14.5q-54 -29 -89.5 -85.5
t-50.5 -130.5h262l-36 -50h-235q-2 -17 -2.5 -34t0.5 -34h196l-35 -50h-159q12 -87 57 -138.5t109 -68.5q18 2 40 8.5t43.5 15t41 17.5t33.5 16l19 -31q-31 -20 -93 -47.5t-138 -56.5z" />
    <glyph glyph-name="Euro.tlf.sc" 
d="M383 475q-40 -17 -66 -56t-37 -95h211l-33 -43h-186q-1 -10 -1 -20.5v-20.5h154l-32 -44h-119q11 -60 47.5 -95.5t88.5 -48.5q15 0 33 4t36 9.5t34.5 11.5t28.5 11l18 -27q-14 -7 -35.5 -16t-48 -18.5t-56.5 -19.5t-61 -19q-60 0 -108.5 14.5t-83 42t-54.5 66t-22 85.5
h-65l9 44h58q3 21 9 41h-57l9 43h66q28 57 88 106t158 76l94 24q19 0 41.5 -5t44.5 -13t40.5 -17t29.5 -15l-57 -81q-12 10 -32.5 22t-45 23.5t-50.5 20t-48 10.5z" />
    <glyph glyph-name="F.sc" horiz-adv-x="505" 
d="M301 39l-7 -40l-169 2l-123 -2l3 40l47 8l77 423l-46 10l6 38l114 -1l344 1l-13 -167h-40l-46 124l-152 1l-35 -195l69 1l61 92h34l-26 -115l-13 -115h-34l-30 91l-69 2l-35 -190z" />
    <glyph glyph-name="G.sc" horiz-adv-x="586" 
d="M279 -13q-54 0 -97 17.5t-73.5 47t-46.5 68.5t-16 83q0 46 15.5 89t48.5 81.5t84 70t121 53.5l107 33q54 0 90 -8t61 -17l-7 -180h-42l-36 103q-30 20 -63 29.5t-74 13.5q-31 -15 -54.5 -40t-39 -54.5t-23 -61t-7.5 -58.5q0 -81 34.5 -132.5t91.5 -80.5q6 1 11.5 3t8.5 4
l25 148l-51 8l7 43l131 -2l112 1l-1 -42l-33 -8l-28 -148z" />
    <glyph glyph-name="Gbreve.002" horiz-adv-x="694" 
d="M462 808q25 0 46 5t38 12.5t30.5 16t22.5 15.5l24 -16q-14 -18 -28 -32t-32.5 -26t-42.5 -22.5t-58 -21.5q-63 0 -100.5 29t-50.5 73l30 16q6 -7 16.5 -15.5t25.5 -16t34.5 -12.5t44.5 -5zM321 -18q-64 0 -114.5 23t-86 63t-54 93.5t-18.5 114.5t18.5 121.5t56.5 114
t97.5 97.5t142.5 71l120 38q63 0 107 -15t73 -32l-10 -203h-45l-42 129q-33 27 -72.5 42.5t-90.5 18.5q-43 -23 -73 -58.5t-49 -78.5t-28 -91t-9 -96q0 -121 41 -191t111 -99q11 2 22.5 7t18.5 9l33 219l-63 11l7 40l148 -1l129 1l-1 -40l-42 -11l-34 -218z" />
    <glyph glyph-name="Gbreve.sc" horiz-adv-x="586" 
d="M387 645q43 0 72 13.5t44 24.5l23 -22q-23 -34 -55.5 -55t-86.5 -39q-54 0 -86.5 25t-42.5 67l28 22q11 -10 36.5 -23t67.5 -13zM279 -13q-54 0 -97 17.5t-73.5 47t-46.5 68.5t-16 83q0 46 15.5 89t48.5 81.5t84 70t121 53.5l107 33q54 0 90 -8t61 -17l-7 -180h-42
l-36 103q-30 20 -63 29.5t-74 13.5q-31 -15 -54.5 -40t-39 -54.5t-23 -61t-7.5 -58.5q0 -81 34.5 -132.5t91.5 -80.5q6 1 11.5 3t8.5 4l25 148l-51 8l7 43l131 -2l112 1l-1 -42l-33 -8l-28 -148z" />
    <glyph glyph-name="Gcircumflex.002" horiz-adv-x="694" 
d="M319 748l135 108h94l95 -108h-68l-80 50h-5l-103 -50h-68zM321 -18q-64 0 -114.5 23t-86 63t-54 93.5t-18.5 114.5t18.5 121.5t56.5 114t97.5 97.5t142.5 71l120 38q63 0 107 -15t73 -32l-10 -203h-45l-42 129q-33 27 -72.5 42.5t-90.5 18.5q-43 -23 -73 -58.5t-49 -78.5
t-28 -91t-9 -96q0 -121 41 -191t111 -99q11 2 22.5 7t18.5 9l33 219l-63 11l7 40l148 -1l129 1l-1 -40l-42 -11l-34 -218z" />
    <glyph glyph-name="Gcircumflex.sc" horiz-adv-x="586" 
d="M313 573h-60l126 102h88l82 -102h-60l-76 42h-4zM279 -13q-54 0 -97 17.5t-73.5 47t-46.5 68.5t-16 83q0 46 15.5 89t48.5 81.5t84 70t121 53.5l107 33q54 0 90 -8t61 -17l-7 -180h-42l-36 103q-30 20 -63 29.5t-74 13.5q-31 -15 -54.5 -40t-39 -54.5t-23 -61t-7.5 -58.5
q0 -81 34.5 -132.5t91.5 -80.5q6 1 11.5 3t8.5 4l25 148l-51 8l7 43l134 -2l109 1l-1 -42l-33 -8l-28 -148z" />
    <glyph glyph-name="Gcommaaccent.001" horiz-adv-x="694" 
d="M309 -109l-57 34l6 33h144l-12 -71l-105 -63l-31 9zM321 -18q-64 0 -114.5 23t-86 63t-54 93.5t-18.5 114.5t18.5 121.5t56.5 114t97.5 97.5t142.5 71l120 38q63 0 107 -15t73 -32l-10 -203h-45l-42 129q-33 27 -72.5 42.5t-90.5 18.5q-43 -23 -73 -58.5t-49 -78.5
t-28 -91t-9 -96q0 -121 41 -191t111 -99q11 2 22.5 7t18.5 9l33 219l-63 11l7 40l148 -1l129 1l-1 -40l-42 -11l-34 -218z" />
    <glyph glyph-name="Gcommaaccent.sc" horiz-adv-x="586" 
d="M235 -108l-27 36l6 30h131l-12 -60l-115 -98l-35 6zM279 -13q-54 0 -97 17.5t-73.5 47t-46.5 68.5t-16 83q0 46 15.5 89t48.5 81.5t84 70t121 53.5l107 33q54 0 90 -8t61 -17l-7 -180h-42l-36 103q-30 20 -63 29.5t-74 13.5q-31 -15 -54.5 -40t-39 -54.5t-23 -61
t-7.5 -58.5q0 -81 34.5 -132.5t91.5 -80.5q6 1 11.5 3t8.5 4l25 148l-51 8l7 43l131 -2l112 1l-1 -42l-33 -8l-28 -148z" />
    <glyph glyph-name="Gdotaccent.002" horiz-adv-x="694" 
d="M496 856l33 -7l-2 -53l-23 -44l-75 -7l-35 7l4 54l21 43zM321 -18q-64 0 -114.5 23t-86 63t-54 93.5t-18.5 114.5t18.5 121.5t56.5 114t97.5 97.5t142.5 71l120 38q63 0 107 -15t73 -32l-10 -203h-45l-42 129q-33 27 -72.5 42.5t-90.5 18.5q-43 -23 -73 -58.5t-49 -78.5
t-28 -91t-9 -96q0 -121 41 -191t111 -99q11 2 22.5 7t18.5 9l33 219l-63 11l7 40l148 -1l129 1l-1 -40l-42 -11l-34 -218z" />
    <glyph glyph-name="Gdotaccent.sc" horiz-adv-x="586" 
d="M358 683l64 3l46 -5l-4 -64l-22 -51l-60 -6l-49 6l5 65zM279 -13q-54 0 -97 17.5t-73.5 47t-46.5 68.5t-16 83q0 46 15.5 89t48.5 81.5t84 70t121 53.5l107 33q54 0 90 -8t61 -17l-7 -180h-42l-36 103q-30 20 -63 29.5t-74 13.5q-31 -15 -54.5 -40t-39 -54.5t-23 -61
t-7.5 -58.5q0 -81 34.5 -132.5t91.5 -80.5q6 1 11.5 3t8.5 4l25 148l-51 8l7 43l131 -2l112 1l-1 -42l-33 -8l-28 -148z" />
    <glyph glyph-name="H.sc" horiz-adv-x="642" 
d="M132 1l-130 -2l3 40l49 8l77 424l-46 9l6 38l129 -1l125 1l-2 -38l-44 -9l-33 -184h159l33 184l-41 9l7 38l123 -1l132 1l-3 -38l-49 -9l-77 -424l46 -8l-6 -40l-131 2l-124 -2l3 40l43 8l37 201h-159l-37 -201l42 -8l-6 -40z" />
    <glyph glyph-name="Hbar.sc" horiz-adv-x="642" 
d="M85 480l6 38l129 -1l125 1l-2 -38l-44 -9l-14 -79h159l14 79l-41 9l7 38l123 -1l132 1l-3 -38l-49 -9l-77 -424l46 -8l-6 -40l-131 2l-124 -2l3 40l43 8l37 201h-159l-37 -201l42 -8l-6 -40l-126 2l-130 -2l3 40l49 8l77 424zM425 287l13 74h-159l-13 -74h159z" />
    <glyph glyph-name="Hcircumflex.002" horiz-adv-x="736" 
d="M291 748l134 108h94l95 -108h-68l-80 50h-4l-103 -50h-68zM146 1l-150 -2l2 39l62 11l93 603l-58 11l7 38l148 -2l144 2l-2 -38l-56 -11l-42 -268h203l42 268l-54 11l7 38l143 -2l149 2l-2 -38l-61 -11l-94 -603l59 -11l-7 -39l-149 2l-144 -2l2 39l57 11l46 292h-203
l-46 -292l54 -11l-7 -39z" />
    <glyph glyph-name="Hcircumflex.sc" horiz-adv-x="642" 
d="M252 573l126 102h87l82 -102h-60l-75 42h-4l-96 -42h-60zM85 480l6 38l129 -1l125 1l-2 -38l-44 -9l-33 -184h159l33 184l-41 9l7 38l123 -1l132 1l-3 -38l-49 -9l-77 -424l46 -8l-6 -40l-131 2l-124 -2l3 40l43 8l37 201h-159l-37 -201l42 -8l-6 -40l-126 2l-130 -2
l3 40l49 8l77 424z" />
    <glyph glyph-name="I.sc" horiz-adv-x="313" 
d="M5 39l49 8l77 423l-46 9l7 39l133 -1l124 1l-3 -39l-48 -9l-78 -423l47 -8l-7 -40l-129 2l-129 -2z" />
    <glyph glyph-name="IJ.sc" horiz-adv-x="535" 
d="M254 -128l25 121h67q8 13 14.5 27.5t9.5 31.5l80 419l-56 8l7 39l138 -1l130 1l-3 -39l-49 -8l-65 -340q-6 -33 -19.5 -58t-31.5 -45t-40 -36.5t-46 -33.5l-115 -86h-46zM218 47l47 -8l-7 -40l-128 2l-129 -2l2 40l50 8l76 423l-46 9l7 39l134 -1l124 1l-3 -39l-49 -9z
" />
    <glyph glyph-name="Iacute.002" horiz-adv-x="352" 
d="M291 851h143l-154 -103h-63zM398 663l-61 -11l-94 -603l59 -11l-8 -39l-147 2l-149 -2l3 39l62 11l94 603l-59 11l8 38l152 -2l143 2z" />
    <glyph glyph-name="Iacute.sc" horiz-adv-x="313" 
d="M247 673h133l-133 -101h-56zM5 39l49 8l77 423l-46 9l7 39l133 -1l124 1l-3 -39l-48 -9l-78 -423l47 -8l-7 -40l-129 2l-129 -2z" />
    <glyph glyph-name="Ibreve.002" horiz-adv-x="352" 
d="M274 808q25 0 46 5t38 12.5t30.5 16t22.5 15.5l24 -16q-14 -18 -28 -32t-32 -26t-42.5 -22.5t-57.5 -21.5q-63 0 -101 29t-51 73l30 16q7 -7 17.5 -15.5t25.5 -16t34.5 -12.5t43.5 -5zM398 663l-61 -11l-94 -603l59 -11l-8 -39l-147 2l-149 -2l3 39l62 11l94 603l-59 11
l8 38l152 -2l143 2z" />
    <glyph glyph-name="Ibreve.sc" horiz-adv-x="313" 
d="M247 645q43 0 72 13.5t44 24.5l23 -22q-23 -34 -55.5 -55t-86.5 -39q-54 0 -86.5 25t-42.5 67l29 22q11 -10 36 -23t67 -13zM220 47l47 -8l-7 -40l-129 2l-129 -2l3 40l49 8l77 423l-46 9l7 39l133 -1l124 1l-3 -39l-48 -9z" />
    <glyph glyph-name="Icircumflex.002" horiz-adv-x="352" 
d="M99 748l134 108h94l96 -108h-69l-80 50h-4l-103 -50h-68zM398 663l-61 -11l-94 -603l59 -11l-8 -39l-147 2l-149 -2l3 39l62 11l94 603l-59 11l8 38l152 -2l143 2z" />
    <glyph glyph-name="Icircumflex.sc" horiz-adv-x="313" 
d="M82 573l126 102h87l83 -102h-60l-76 42h-4l-96 -42h-60zM220 47l47 -8l-7 -40l-129 2l-129 -2l3 40l49 8l77 423l-46 9l7 39l133 -1l124 1l-3 -39l-48 -9z" />
    <glyph glyph-name="Idieresis.002" horiz-adv-x="352" 
d="M197 856l34 -7l-3 -52l-23 -44l-74 -7l-34 7l4 53l21 43zM411 856l34 -7l-3 -52l-22 -44l-75 -7l-33 7l2 53l23 43zM398 663l-61 -11l-94 -603l59 -11l-8 -39l-147 2l-149 -2l3 39l62 11l94 603l-59 11l8 38l152 -2l143 2z" />
    <glyph glyph-name="Idieresis.sc" horiz-adv-x="313" 
d="M186 674l25 -7l-3 -56l-21 -46l-70 -7l-26 7l3 55l19 47zM372 674l26 -7l-4 -56l-20 -46l-71 -7l-25 7l2 55l20 47zM298 470l-78 -423l47 -8l-7 -40l-129 2l-129 -2l3 40l49 8l77 423l-46 9l7 39l133 -1l124 1l-3 -39z" />
    <glyph glyph-name="Idotaccent.002" horiz-adv-x="352" 
d="M306 856l34 -7l-3 -53l-23 -44l-74 -7l-35 7l3 54l22 43zM398 663l-61 -11l-94 -603l59 -11l-8 -39l-147 2l-149 -2l3 39l62 11l94 603l-59 11l8 38l152 -2l143 2z" />
    <glyph glyph-name="Idotaccent.sc" horiz-adv-x="313" 
d="M201 678l65 4l45 -6l-4 -64l-22 -51l-60 -5l-49 5l5 65zM298 470l-78 -423l47 -8l-7 -40l-129 2l-129 -2l3 40l49 8l77 423l-46 9l7 39l133 -1l124 1l-3 -39z" />
    <glyph glyph-name="Igrave.002" horiz-adv-x="352" 
d="M246 748l-99 103h136l24 -103h-61zM398 663l-61 -11l-94 -603l59 -11l-8 -39l-147 2l-149 -2l3 39l62 11l94 603l-59 11l8 38l152 -2l143 2z" />
    <glyph glyph-name="Igrave.sc" horiz-adv-x="313" 
d="M215 572l-93 101h127l14 -101h-48zM5 39l49 8l77 423l-46 9l7 39l133 -1l124 1l-3 -39l-48 -9l-78 -423l47 -8l-7 -40l-129 2l-129 -2z" />
    <glyph glyph-name="Imacron.002" horiz-adv-x="352" 
d="M127 825h298l-13 -64h-298zM398 663l-61 -11l-94 -603l59 -11l-8 -39l-147 2l-149 -2l3 39l62 11l94 603l-59 11l8 38l152 -2l143 2z" />
    <glyph glyph-name="Imacron.sc" horiz-adv-x="313" 
d="M124 649h256l-13 -73h-256zM298 470l-78 -423l47 -8l-7 -40l-129 2l-129 -2l3 40l49 8l77 423l-46 9l7 39l133 -1l124 1l-3 -39z" />
    <glyph glyph-name="Iogonek.001" horiz-adv-x="352" 
d="M398 663l-61 -11l-94 -603l59 -11l-8 -39l-121 1l-40 -61l-4 -19q-6 -30 14.5 -49t77.5 -19l-6 -31q-109 0 -151 19.5t-33 68.5l4 15l91 76l-128 -1l3 39l62 11l94 603l-59 11l8 38l152 -2l143 2z" />
    <glyph glyph-name="Iogonek.sc" horiz-adv-x="313" 
d="M298 470l-78 -423l47 -8l-7 -40l-94 1l-49 -68l-5 -29q-2 -8 -1.5 -19t7 -21t23 -16.5t47.5 -6.5l-5 -29q-101 0 -138.5 18.5t-29.5 56.5l11 65l81 49l-105 -1l3 40l49 8l77 423l-46 9l7 39l133 -1l124 1l-3 -39z" />
    <glyph glyph-name="Itilde.002" horiz-adv-x="352" 
d="M148 842l60 17l183 -52l46 51h28l-61 -105l-59 -13l-184 53l-45 -52h-27zM398 663l-61 -11l-94 -603l59 -11l-8 -39l-147 2l-149 -2l3 39l62 11l94 603l-59 11l8 38l152 -2l143 2z" />
    <glyph glyph-name="Itilde.sc" horiz-adv-x="313" 
d="M134 673l50 10l163 -37l43 37h27l-54 -119l-51 -7l-163 38l-42 -38h-26zM298 470l-78 -423l47 -8l-7 -40l-129 2l-129 -2l3 40l49 8l77 423l-46 9l7 39l133 -1l124 1l-3 -39z" />
    <glyph glyph-name="J.sc" horiz-adv-x="332" 
d="M-37 -7h102q18 25 25 59l79 419l-56 8l7 39l139 -1l129 1l-3 -39l-49 -8l-64 -340q-6 -33 -19.5 -57.5t-31.5 -44t-40 -35.5t-46 -32l-136 -90h-60z" />
    <glyph glyph-name="Jcircumflex.002" horiz-adv-x="367" 
d="M108 748l134 108h94l95 -108h-68l-80 50h-4l-103 -50h-68zM171 652l-69 11l8 38l157 -2l148 2l-3 -38l-61 -11l-81 -518q-11 -68 -49 -116t-96 -88l-155 -103h-69l26 126h119q14 39 24 75.5t16 77.5z" />
    <glyph glyph-name="Jcircumflex.sc" horiz-adv-x="332" 
d="M108 573l126 102h87l83 -102h-60l-76 42h-4l-96 -42h-60zM-61 -128l24 121h102q18 25 25 59l79 419l-56 8l7 39l139 -1l129 1l-3 -39l-49 -8l-64 -340q-6 -33 -19.5 -57.5t-31.5 -44t-40 -35.5t-46 -32l-136 -90h-60z" />
    <glyph glyph-name="K.sc" horiz-adv-x="642" 
d="M262 281l15 5l241 184l-68 14l6 34l100 -1l109 1l-1 -30l-77 -14l-256 -187l94 -19l157 -222l33 -6l-6 -41l-87 2l-111 -2l-146 239l-7 18l-38 -209l42 -8l-6 -40l-125 2l-129 -2l3 40l49 8l77 423l-46 9l7 39l133 -1l120 1l-3 -39l-45 -9z" />
    <glyph glyph-name="Kcommaaccent.001" horiz-adv-x="746" 
d="M324 -109l-56 34l6 33h144l-12 -71l-106 -63l-30 9zM334 652l-42 -270l17 8l288 262l-79 11l7 38l115 -2l123 2l-1 -38l-89 -11l-305 -265l100 -18l196 -322l42 -9l-7 -39l-99 2l-121 -2l-183 339l-8 20l-48 -309l54 -11l-7 -39l-143 2l-148 -2l2 39l63 11l93 603l-58 11
l7 38l152 -2l139 2l-3 -38z" />
    <glyph glyph-name="Kcommaaccent.sc" horiz-adv-x="642" 
d="M260 -108l-27 36l6 30h130l-11 -60l-115 -98l-35 6zM262 281l15 5l241 184l-68 14l6 34l100 -1l109 1l-1 -30l-77 -14l-256 -187l94 -19l157 -222l33 -6l-6 -41l-90 2l-108 -2l-146 239l-7 18l-38 -209l42 -8l-6 -40l-125 2l-129 -2l3 40l49 8l77 423l-46 9l7 39l133 -1
l120 1l-3 -39l-45 -9z" />
    <glyph glyph-name="L.sc" horiz-adv-x="493" 
d="M220 43l144 1l93 128h39l-40 -173l-339 2l-115 -2l3 40l49 8l77 423l-46 9l7 39l116 -1l141 1l-3 -39l-48 -9z" />
    <glyph glyph-name="Lacute.002" horiz-adv-x="572" 
d="M212 748l73 103h144l-154 -103h-63zM239 44l180 2l109 165h42l-48 -212l-392 2l-134 -2l2 39l62 11l94 603l-59 11l8 38l136 -2l159 2l-3 -38l-62 -11z" />
    <glyph glyph-name="Lacute.sc" horiz-adv-x="493" 
d="M249 673h133l-134 -101h-55zM220 43l144 1l93 128h39l-40 -173l-341 2l-113 -2l3 40l49 8l77 423l-46 9l7 39l116 -1l141 1l-3 -39l-48 -9z" />
    <glyph glyph-name="Lcaron.sc" horiz-adv-x="493" 
d="M398 286l15 20t25 33.5t23.5 33t10.5 18.5l-62 4l6 68l18 53l88 8l32 -8l-5 -63l-20 -58l-102 -122zM220 43l144 1l93 128h39l-40 -173l-339 2l-115 -2l3 40l49 8l77 423l-46 9l7 39l116 -1l141 1l-3 -39l-48 -9z" />
    <glyph glyph-name="Lcommaaccent.001" horiz-adv-x="572" 
d="M233 -109l-56 34l5 33h145l-13 -71l-105 -63l-30 9zM239 44l180 2l109 165h42l-48 -212l-392 2l-134 -2l2 39l62 11l94 603l-59 11l8 38l136 -2l159 2l-3 -38l-62 -11z" />
    <glyph glyph-name="Lcommaaccent.sc" horiz-adv-x="493" 
d="M182 -108l-26 36l6 30h130l-12 -60l-115 -98l-34 6zM220 43l144 1l93 128h39l-40 -173l-339 2l-115 -2l3 40l49 8l77 423l-46 9l7 39l116 -1l141 1l-3 -39l-48 -9z" />
    <glyph glyph-name="Ldot.sc" horiz-adv-x="493" 
d="M457 363l34 -8l-3 -64l-18 -53l-86 -5l-33 5l4 66l17 51zM220 43l144 1l93 128h39l-40 -173l-339 2l-115 -2l3 40l49 8l77 423l-46 9l7 39l116 -1l141 1l-3 -39l-48 -9z" />
    <glyph glyph-name="Lslash.sc" horiz-adv-x="504" 
d="M285 337l74 30l-9 -46l-74 -30l-45 -248l144 1l93 128h39l-40 -173l-338 2l-116 -2l3 40l49 8l31 171l-51 -20l9 46l50 20l38 206l-46 9l7 39l116 -1l141 1l-3 -39l-48 -9z" />
    <glyph glyph-name="M.sc" horiz-adv-x="780" 
d="M580 518l127 -1l110 1l-3 -39l-48 -9l-78 -423l48 -8l-7 -40l-131 2l-125 -2l1 40l50 8l68 382l12 41l-241 -472h-98l-81 384l-6 81l-75 -416l49 -8l-5 -40l-72 2l-73 -2l3 40l49 8l78 425l-46 7l7 39l86 -1l152 1l62 -320l-4 -48z" />
    <glyph glyph-name="N.sc" horiz-adv-x="583" 
d="M524 471l-50 8l6 39l68 -1l74 1l-2 -39l-48 -8l-85 -471h-112l-199 366l-6 66l-68 -385l60 -8l-8 -40l-79 2l-73 -2l3 40l48 8l78 428l-45 4l6 39l87 -1l115 1l172 -276l5 -73z" />
    <glyph glyph-name="Nacute.002" horiz-adv-x="674" 
d="M357 748l73 103h144l-154 -103h-63zM610 652l-63 11l7 38l85 -1l89 1l-1 -38l-61 -11l-102 -652h-119l-242 547l-6 60l-82 -558l73 -11l-9 -39l-95 2l-88 -2l2 39l61 11l94 604l-57 10l6 38l102 -2l126 2l208 -448l6 -63z" />
    <glyph glyph-name="Nacute.sc" horiz-adv-x="583" 
d="M375 673h134l-134 -101h-56zM524 471l-50 8l6 39l69 -1l73 1l-2 -39l-48 -8l-85 -471h-112l-199 366l-6 66l-68 -385l60 -8l-8 -40l-79 2l-73 -2l3 40l48 8l78 428l-45 4l6 39l87 -1l115 1l172 -276l5 -73z" />
    <glyph glyph-name="Ncaron.002" horiz-adv-x="674" 
d="M599 851l-133 -107h-96l-89 107h66l77 -53h4l104 53h67zM610 652l-63 11l7 38l85 -1l89 1l-1 -38l-61 -11l-102 -652h-119l-242 547l-6 60l-82 -558l73 -11l-9 -39l-95 2l-88 -2l2 39l61 11l94 604l-57 10l6 38l102 -2l126 2l208 -448l6 -63z" />
    <glyph glyph-name="Ncaron.sc" horiz-adv-x="583" 
d="M525 675l-126 -102h-87l-83 102h60l76 -42h4l96 42h60zM102 47l60 -8l-8 -40l-80 2l-72 -2l3 40l48 8l78 428l-45 4l6 39l87 -1l115 1l172 -276l5 -73l53 302l-50 8l6 39l69 -1l73 1l-2 -39l-48 -8l-85 -471h-112l-199 366l-6 66z" />
    <glyph glyph-name="Ncommaaccent.001" horiz-adv-x="674" 
d="M288 -109l-56 34l6 33h144l-12 -71l-106 -63l-30 9zM610 652l-63 11l7 38l85 -1l89 1l-1 -38l-61 -11l-102 -652h-119l-242 547l-6 60l-82 -558l73 -11l-9 -39l-95 2l-88 -2l2 39l61 11l94 604l-57 10l6 38l102 -2l126 2l208 -448l6 -63z" />
    <glyph glyph-name="Ncommaaccent.sc" horiz-adv-x="583" 
d="M210 -108l-27 36l6 30h131l-12 -60l-115 -98l-35 6zM524 471l-50 8l6 39l67 -1l75 1l-2 -39l-48 -8l-85 -471h-112l-199 366l-6 66l-68 -385l60 -8l-8 -40l-81 2l-71 -2l3 40l48 8l78 428l-45 4l6 39l87 -1l115 1l172 -276l5 -73z" />
    <glyph glyph-name="Ntilde.002" horiz-adv-x="674" 
d="M313 842l60 17l183 -52l46 51h27l-60 -105l-59 -13l-184 53l-45 -52h-28zM610 652l-63 11l7 38l85 -1l89 1l-1 -38l-61 -11l-102 -652h-119l-242 547l-6 60l-82 -558l73 -11l-9 -39l-95 2l-88 -2l2 39l61 11l94 604l-57 10l6 38l102 -2l126 2l208 -448l6 -63z" />
    <glyph glyph-name="Ntilde.sc" horiz-adv-x="583" 
d="M269 673l51 10l163 -37l42 37h27l-53 -119l-51 -7l-163 38l-42 -38h-26zM524 471l-50 8l6 39l67 -1l75 1l-2 -39l-48 -8l-85 -471h-112l-199 366l-6 66l-68 -385l60 -8l-8 -40l-79 2l-73 -2l3 40l48 8l78 428l-45 4l6 39l87 -1l115 1l172 -276l5 -73z" />
    <glyph glyph-name="O.sc" horiz-adv-x="632" 
d="M303 -13q-60 0 -108 16.5t-81 47t-50.5 74.5t-17.5 98q0 47 13.5 90.5t44 81t79.5 67t119 48.5l71 20q121 0 188.5 -63.5t67.5 -174.5q0 -47 -13.5 -89.5t-44 -79.5t-79.5 -66.5t-119 -49.5zM342 482q-31 -12 -53.5 -35.5t-36.5 -56t-21 -71.5t-7 -81q0 -38 7.5 -73
t21.5 -62t34 -45t46 -22q63 27 90.5 92.5t27.5 150.5q0 39 -7.5 74t-21.5 62t-34.5 45t-45.5 22z" />
    <glyph glyph-name="OE.sc" horiz-adv-x="849" 
d="M385 47l78 425q-2 0 -18.5 2t-36 3.5t-36.5 3t-18 1.5q-67 -29 -97.5 -92.5t-30.5 -148.5q0 -38 7 -73t19.5 -63t31 -46.5t42.5 -22.5zM299 -13q-59 0 -105.5 17.5t-79.5 49.5t-50.5 77t-17.5 100q0 47 14 88t45.5 75.5t82 63t122.5 50.5l71 22q1 0 20 -2t41 -4
t40.5 -4.5t20.5 -2.5l363 1l-14 -160h-39l-47 117l-136 1l-37 -196l62 1l61 93h32l-26 -115l-13 -115h-31l-30 92l-61 1l-37 -194l162 1l80 119h39l-39 -164l-395 2z" />
    <glyph glyph-name="Oacute.002" horiz-adv-x="733" 
d="M387 748l74 103h143l-154 -103h-63zM244 320q0 -56 9.5 -105t27.5 -87.5t44 -63t58 -30.5q41 21 70 55.5t47 79t26.5 98t8.5 113.5q0 57 -9.5 106.5t-27.5 87.5t-44 63t-58 31q-40 -20 -68.5 -54t-47 -79.5t-27.5 -100t-9 -114.5zM430 718q69 0 125 -23.5t95 -66t60 -102
t21 -131.5q0 -58 -15.5 -115.5t-50.5 -108.5t-90.5 -92.5t-136.5 -67.5l-89 -29q-69 0 -125 23.5t-95 66t-60 102t-21 132.5q0 58 15.5 115.5t50.5 108.5t90.5 92.5t136.5 67.5z" />
    <glyph glyph-name="Oacute.sc" horiz-adv-x="632" 
d="M327 572l56 101h133l-134 -101h-55zM313 -13q-60 0 -107.5 16.5t-80.5 47t-50.5 74.5t-17.5 98q0 47 13.5 90.5t44 81t79 67t119.5 48.5l70 20q121 0 188.5 -63.5t67.5 -174.5q0 -47 -13.5 -89.5t-44 -79.5t-79 -66.5t-118.5 -49.5zM353 482q-31 -12 -53.5 -35.5
t-36.5 -56t-21 -71.5t-7 -81q0 -38 7.5 -73t21 -62t33.5 -45t46 -22q32 13 54.5 37t36.5 55.5t20.5 70t6.5 80.5q0 39 -7.5 74t-21 62t-34 45t-45.5 22z" />
    <glyph glyph-name="Obreve.002" horiz-adv-x="733" 
d="M450 808q25 0 46 5t38 12.5t30.5 16t22.5 15.5l23 -16q-14 -18 -28 -32t-32 -26t-42 -22.5t-58 -21.5q-63 0 -100.5 29t-50.5 73l30 16q6 -7 16.5 -15.5t25.5 -16t34.5 -12.5t44.5 -5zM244 320q0 -56 9.5 -105t27.5 -87.5t44 -63t58 -30.5q41 21 70 55.5t47 79t26.5 98
t8.5 113.5q0 57 -9.5 106.5t-27.5 87.5t-44 63t-58 31q-40 -20 -68.5 -54t-47 -79.5t-27.5 -100t-9 -114.5zM430 718q69 0 125 -23.5t95 -66t60 -102t21 -131.5q0 -58 -15.5 -115.5t-50.5 -108.5t-90.5 -92.5t-136.5 -67.5l-89 -29q-69 0 -125 23.5t-95 66t-60 102
t-21 132.5q0 58 15.5 115.5t50.5 108.5t90.5 92.5t136.5 67.5z" />
    <glyph glyph-name="Obreve.sc" horiz-adv-x="632" 
d="M395 645q42 0 71 13.5t45 24.5l22 -22q-22 -34 -54.5 -55t-86.5 -39q-54 0 -86.5 25t-42.5 67l28 22q11 -10 36.5 -23t67.5 -13zM313 -13q-60 0 -107.5 16.5t-80.5 47t-50.5 74.5t-17.5 98q0 47 13.5 90.5t44 81t79 67t119.5 48.5l70 20q121 0 188.5 -63.5t67.5 -174.5
q0 -47 -13.5 -89.5t-44 -79.5t-79 -66.5t-118.5 -49.5zM353 482q-31 -12 -53.5 -35.5t-36.5 -56t-21 -71.5t-7 -81q0 -38 7.5 -73t21 -62t33.5 -45t46 -22q32 13 54.5 37t36.5 55.5t20.5 70t6.5 80.5q0 39 -7.5 74t-21 62t-34 45t-45.5 22z" />
    <glyph glyph-name="Ocircumflex.002" horiz-adv-x="733" 
d="M278 748l135 108h93l96 -108h-68l-80 50h-5l-103 -50h-68zM244 320q0 -56 9.5 -105t27.5 -87.5t44 -63t58 -30.5q41 21 70 55.5t47 79t26.5 98t8.5 113.5q0 57 -9.5 106.5t-27.5 87.5t-44 63t-58 31q-40 -20 -68.5 -54t-47 -79.5t-27.5 -100t-9 -114.5zM430 718
q69 0 125 -23.5t95 -66t60 -102t21 -131.5q0 -58 -15.5 -115.5t-50.5 -108.5t-90.5 -92.5t-136.5 -67.5l-89 -29q-69 0 -125 23.5t-95 66t-60 102t-21 132.5q0 58 15.5 115.5t50.5 108.5t90.5 92.5t136.5 67.5z" />
    <glyph glyph-name="Ocircumflex.sc" horiz-adv-x="632" 
d="M233 573l126 102h87l83 -102h-60l-76 42h-4l-96 -42h-60zM313 -13q-60 0 -107.5 16.5t-80.5 47t-50.5 74.5t-17.5 98q0 47 13.5 90.5t44 81t79 67t119.5 48.5l70 20q121 0 188.5 -63.5t67.5 -174.5q0 -47 -13.5 -89.5t-44 -79.5t-79 -66.5t-118.5 -49.5zM353 482
q-31 -12 -53.5 -35.5t-36.5 -56t-21 -71.5t-7 -81q0 -38 7.5 -73t21 -62t33.5 -45t46 -22q32 13 54.5 37t36.5 55.5t20.5 70t6.5 80.5q0 39 -7.5 74t-21 62t-34 45t-45.5 22z" />
    <glyph glyph-name="Odieresis.002" horiz-adv-x="733" 
d="M368 856l33 -7l-3 -52l-23 -44l-73 -7l-35 7l4 53l21 43zM599 856l34 -7l-3 -52l-22 -44l-75 -7l-33 7l2 53l23 43zM244 320q0 -56 9.5 -105t27.5 -87.5t44 -63t58 -30.5q41 21 70 55.5t47 79t26.5 98t8.5 113.5q0 57 -9.5 106.5t-27.5 87.5t-44 63t-58 31
q-40 -20 -68.5 -54t-47 -79.5t-27.5 -100t-9 -114.5zM430 718q69 0 125 -23.5t95 -66t60 -102t21 -131.5q0 -58 -15.5 -115.5t-50.5 -108.5t-90.5 -92.5t-136.5 -67.5l-89 -29q-69 0 -125 23.5t-95 66t-60 102t-21 132.5q0 58 15.5 115.5t50.5 108.5t90.5 92.5t136.5 67.5z
" />
    <glyph glyph-name="Odieresis.sc" horiz-adv-x="632" 
d="M326 674l26 -7l-4 -56l-20 -46l-70 -7l-26 7l2 55l20 47zM530 674l25 -7l-3 -56l-20 -46l-71 -7l-25 7l2 55l20 47zM313 -13q-60 0 -107.5 16.5t-80.5 47t-50.5 74.5t-17.5 98q0 47 13.5 90.5t44 81t79 67t119.5 48.5l70 20q121 0 188.5 -63.5t67.5 -174.5
q0 -47 -13.5 -89.5t-44 -79.5t-79 -66.5t-118.5 -49.5zM353 482q-31 -12 -53.5 -35.5t-36.5 -56t-21 -71.5t-7 -81q0 -38 7.5 -73t21 -62t33.5 -45t46 -22q32 13 54.5 37t36.5 55.5t20.5 70t6.5 80.5q0 39 -7.5 74t-21 62t-34 45t-45.5 22z" />
    <glyph glyph-name="Ograve.002" horiz-adv-x="733" 
d="M420 748l-99 103h136l24 -103h-61zM244 320q0 -56 9.5 -105t27.5 -87.5t44 -63t58 -30.5q41 21 70 55.5t47 79t26.5 98t8.5 113.5q0 57 -9.5 106.5t-27.5 87.5t-44 63t-58 31q-40 -20 -68.5 -54t-47 -79.5t-27.5 -100t-9 -114.5zM430 718q69 0 125 -23.5t95 -66t60 -102
t21 -131.5q0 -58 -15.5 -115.5t-50.5 -108.5t-90.5 -92.5t-136.5 -67.5l-89 -29q-69 0 -125 23.5t-95 66t-60 102t-21 132.5q0 58 15.5 115.5t50.5 108.5t90.5 92.5t136.5 67.5z" />
    <glyph glyph-name="Ograve.sc" horiz-adv-x="632" 
d="M366 572l-93 101h127l15 -101h-49zM313 -13q-60 0 -107.5 16.5t-80.5 47t-50.5 74.5t-17.5 98q0 47 13.5 90.5t44 81t79 67t119.5 48.5l70 20q121 0 188.5 -63.5t67.5 -174.5q0 -47 -13.5 -89.5t-44 -79.5t-79 -66.5t-118.5 -49.5zM353 482q-31 -12 -53.5 -35.5
t-36.5 -56t-21 -71.5t-7 -81q0 -38 7.5 -73t21 -62t33.5 -45t46 -22q32 13 54.5 37t36.5 55.5t20.5 70t6.5 80.5q0 39 -7.5 74t-21 62t-34 45t-45.5 22z" />
    </font>
</defs>
</svg>
