<svg xmlns="http://www.w3.org/2000/svg">
<defs>
<font id="GTSectraFine-MediumItalic" horiz-adv-x="620" >
  <font-face 
    font-family="GTSectraFine-MediumItalic"
    font-weight="550"
    font-style="italic"
    font-stretch="normal"
    units-per-em="1000"
    panose-1="2 0 5 3 7 0 0 2 0 3"
    ascent="750"
    descent="-250"
    x-height="483"
    cap-height="701"
    bbox="-186 -245 1670 990"
    underline-thickness="50"
    underline-position="-150"
    slope="-12"
    unicode-range="U+000D-FB04"
  />
<missing-glyph horiz-adv-x="662" 
d="M449 -28l-24 18h-14l-8 8l7 76l-4 47l-61 1l-3 -52l-2 -56v-20l-15 -6l-8 6l-30 -10h-32l-1 11l11 11l50 21l-6 96l-98 -6l-147 140l-4 115l-13 10l-10 36v26l15 8l-3 78l92 -62l9 47l10 36l22 35l28 35l39 29l40 15l38 14h22l-68 22l4 17h7l79 -20l-4 51l16 12h32l19 -5
l29 -25l32 -8l32 -10l15 -13v-20l-20 -31l30 -28l28 -32l18 -34l15 -41l9 -54l-3 -41l-8 -35l-12 -31l-3 -156l-21 -7l-50 70l-27 -7l-19 -140l-32 4l-7 -4l-4 -94l30 -19l16 -14l-3 -15zM512 399l-4 7h-205l-66 -3l-7 -9l-6 -44l-48 20l-11 -4l57 -27l1 -45l-5 -73v-91
l18 4l2 40l41 -3l3 9l-44 6v16l48 -6l1 9l-47 7l1 22l43 -3l3 6l-45 9l3 94h74l11 10h-79l2 9h74l8 7h-82l2 22l117 4l140 -4v11zM193 569l29 12l13 -15l-17 -20l-10 -3l17 -3h5l36 24h32l18 -12l8 3l4 14l7 5l10 -4v-18h8l10 22l11 8l-5 6l-3 8l1 21l-30 -10l-10 -8l-8 5
l4 21l14 10l11 11l38 -2l12 13l-4 8h-49l-45 -13l-53 -26l-29 -23zM603 465l-8 37l-19 50l-20 36l-23 28l-34 21h-11l17 -19l25 -10l11 -11l3 -33l-25 13l-15 -29l12 -8v-19l15 3l-12 26l15 -5l10 -20l-5 -12l-8 -7h-23l-3 11l-12 2l1 -22h-14l14 -18l-7 -10l-21 5l-3 -27
l41 6l8 17l22 -2l6 -28l-16 -13v-15l8 -6l18 12h23l6 11l-18 6l-5 9l9 42h7l14 -20zM89 434l57 -32l7 10l-68 38v18l59 -34l43 -28l28 -14l3 10l-103 64l-13 7l-41 33l2 -78l19 -17v-5h-21l19 -14l1 -11l-20 7l18 -18l-4 -7l3 -97l11 -12v180zM498 331l-54 1l-1 -24v-6

<glyph glyph-name="ff" unicode="ff" horiz-adv-x="591" 
d="M229 428l-76 -438q-8 -43 -33.5 -79t-64.5 -63l-122 -83h-63l19 99h116q13 17 21 41t13 49l83 474h-81l4 16l21 19h62l6 36q8 45 32.5 81.5t59.5 59.5l121 75h170l-136 -89h-96q-14 -15 -22.5 -39t-13.5 -49l-14 -77h168l7 38q8 45 32.5 81.5t59.5 59.5l121 75h80
l-17 -89h-125q-14 -15 -23 -39t-14 -49l-13 -77h104l-7 -33h-103l-76 -438q-8 -43 -33.5 -79t-64.5 -63l-122 -83h-57l19 99h109q14 17 22 41t13 49l82 474h-168z" />
    <glyph glyph-name="fi" unicode="fi" horiz-adv-x="557" 
d="M285 626q-14 -15 -22.5 -39t-13.5 -49l-14 -77h162l83 26l28 -25l-73 -415l88 60l13 -17l-140 -106l-74 36l72 412l-26 -4h-139l-76 -438q-8 -43 -33.5 -79t-64.5 -63l-122 -83h-63l19 99h116q13 17 21 41t13 49l83 474h-81l4 16l21 19h62l6 36q8 45 32.5 81.5t59.5 59.5
l121 75h210l-17 -89h-255z" />
    <glyph glyph-name="fl" unicode="fl" horiz-adv-x="561" 
d="M401 461l30 176l-37 -11h-109q-14 -15 -22.5 -39t-13.5 -49l-14 -77h166zM322 20l72 408h-165l-76 -438q-8 -43 -33.5 -79t-64.5 -63l-122 -83h-63l19 99h116q13 17 21 41t13 49l83 474h-81l4 16l21 19h62l6 36q8 45 32.5 81.5t59.5 59.5l121 75h189l16 -13l-115 -655
l87 60l14 -17l-140 -106z" />
    <glyph glyph-name="ffi" unicode="ffi" horiz-adv-x="832" 
d="M710 47l88 60l13 -17l-140 -106l-74 36l72 412l-26 -4h-138l-76 -438q-8 -43 -33.5 -79t-64.5 -63l-122 -83h-57l19 99h109q14 17 22 41t13 49l82 474h-168l-76 -438q-8 -43 -33.5 -79t-64.5 -63l-122 -83h-63l19 99h116q13 17 21 41t13 49l83 474h-81l4 16l21 19h62
l6 36q8 45 32.5 81.5t59.5 59.5l121 75h170l-136 -89h-96q-14 -15 -22.5 -39t-13.5 -49l-14 -77h168l7 38q8 45 32.5 81.5t59.5 59.5l121 75h209l-17 -89h-254q-14 -15 -23 -39t-14 -49l-13 -77h161l83 26l28 -25z" />
    <glyph glyph-name="ffl" unicode="ffl" horiz-adv-x="837" 
d="M-111 -136h116q13 17 21 41t13 49l83 474h-81l4 16l21 19h62l6 36q8 45 32.5 81.5t59.5 59.5l121 75h170l-136 -89h-96q-14 -15 -22.5 -39t-13.5 -49l-14 -77h168l7 38q8 45 32.5 81.5t59.5 59.5l121 75h188l16 -13l-115 -655l89 60l12 -17l-139 -106l-75 36l72 408h-166
l-76 -438q-8 -43 -33.5 -79t-64.5 -63l-122 -83h-57l19 99h109q14 17 22 41t13 49l82 474h-168l-76 -438q-8 -43 -33.5 -79t-64.5 -63l-122 -83h-63zM676 461l32 176l-37 -11h-110q-14 -15 -23 -39t-14 -49l-13 -77h165z" />
    <glyph glyph-name="Th" unicode="Th" horiz-adv-x="1002" 
d="M779 20l57 324q5 28 -3 44t-31 16q-18 0 -39 -9.5t-43 -25.5l-37 -24l-61 -345h-108l116 657l8 13l-40 -4l-179 1l-97 -630l88 -10l-6 -28l-149 2l-145 -2l1 28l87 10l97 630l-123 -1l-82 -154h-29l28 189l273 -2l280 2l78 14l25 -20l-54 -305l-8 -16l167 114
q63 0 86.5 -32t12.5 -86l-57 -322l87 59l13 -17l-139 -106z" />
    <glyph glyph-name="fb" unicode="fb" horiz-adv-x="774" 
d="M495 390l-10 -23l151 121q53 -13 87 -56t34 -121q0 -45 -12.5 -88t-36 -80.5t-58 -67.5t-77.5 -49l-93 -41q-82 5 -155 50l105 602l-37 -11h-108q-14 -15 -22.5 -39t-13.5 -49l-14 -77h99l-6 -33h-99l-76 -438q-8 -43 -33.5 -79t-64.5 -63l-122 -83h-63l19 99h116
q13 17 21 41t13 49l83 474h-81l4 16l21 19h62l6 36q8 45 32.5 81.5t59.5 59.5l121 75h187l16 -13zM487 341l-46 -262q20 -17 49 -28t52 -11q28 15 47 39.5t30.5 54.5t16.5 62.5t5 62.5q0 60 -18 96t-47 51z" />
    <glyph glyph-name="ffb" unicode="ffb" horiz-adv-x="1050" 
d="M763 341l-46 -262q20 -17 49.5 -28t52.5 -11q27 15 45.5 39.5t30.5 54.5t17 62.5t5 62.5q0 60 -18 96t-47 51zM-111 -136h116q13 17 21 41t13 49l83 474h-81l4 16l21 19h62l6 36q8 45 32.5 81.5t59.5 59.5l121 75h170l-136 -89h-96q-14 -15 -22.5 -39t-13.5 -49l-14 -77
h168l7 38q8 45 32.5 81.5t59.5 59.5l121 75h187l16 -13l-54 -312l-10 -23l150 121q53 -13 87 -56t34 -121q0 -45 -12.5 -88t-36.5 -80.5t-58 -67.5t-77 -49l-93 -41q-83 5 -156 50l106 602l-36 -11h-109q-14 -15 -23 -39t-14 -49l-13 -77h99l-6 -33h-99l-76 -438
q-8 -43 -33.5 -79t-64.5 -63l-122 -83h-57l19 99h109q14 17 22 41t13 49l82 474h-168l-76 -438q-8 -43 -33.5 -79t-64.5 -63l-122 -83h-63z" />
    <glyph glyph-name="ffh" unicode="ffh" horiz-adv-x="1085" 
d="M429 -10q-8 -43 -33.5 -79t-64.5 -63l-122 -83h-57l19 99h109q14 17 22 41t13 49l82 474h-168l-76 -438q-8 -43 -33.5 -79t-64.5 -63l-122 -83h-63l19 99h116q13 17 21 41t13 49l83 474h-81l4 16l21 19h62l6 36q8 45 32.5 81.5t59.5 59.5l121 75h170l-136 -89h-96
q-14 -15 -22.5 -39t-13.5 -49l-14 -77h168l7 38q8 45 32.5 81.5t59.5 59.5l121 75h189l17 -13l-55 -312l-8 -16l166 114q63 0 86.5 -32t13.5 -86l-57 -322l87 59l14 -17l-140 -106l-74 36l57 324q5 28 -3 44t-31 16q-19 0 -39.5 -9.5t-42.5 -25.5l-37 -24l-61 -345h-108
l112 637l-37 -11h-111q-14 -15 -23 -39t-14 -49l-13 -77h99l-6 -33h-99z" />
    <glyph glyph-name="ffj" unicode="ffj" horiz-adv-x="820" 
d="M-111 -136h116q13 17 21 41t13 49l83 474h-81l4 16l21 19h62l6 36q8 45 32.5 81.5t59.5 59.5l121 75h170l-136 -89h-96q-14 -15 -22.5 -39t-13.5 -49l-14 -77h168l7 38q8 45 32.5 81.5t59.5 59.5l121 75h214l-17 -89h-259q-14 -15 -23 -39t-14 -49l-13 -77h164l83 26
l27 -25l-81 -462q-8 -44 -35.5 -81.5t-68.5 -66.5l-122 -87h-48l17 99h109q13 21 20.5 44.5t12.5 49.5l83 474l-26 -4h-141l-76 -438q-8 -43 -33.5 -79t-64.5 -63l-122 -83h-57l19 99h109q14 17 22 41t13 49l82 474h-168l-76 -438q-8 -43 -33.5 -79t-64.5 -63l-122 -83h-63z
" />
    <glyph glyph-name="ffk" unicode="ffk" horiz-adv-x="1061" 
d="M-111 -136h116q13 17 21 41t13 49l83 474h-81l4 16l21 19h62l6 36q8 45 32.5 81.5t59.5 59.5l121 75h170l-136 -89h-96q-14 -15 -22.5 -39t-13.5 -49l-14 -77h168l7 38q8 45 32.5 81.5t59.5 59.5l121 75h188l16 -13l-74 -420l10 3l189 193h95l-23 -112h-111
q-6 -1 -20 -9.5t-29 -19.5t-28.5 -21.5t-19.5 -14.5l-29 -24l82 -24l93 -202l78 53l12 -18l-136 -102l-66 28l-100 253l-46 -265h-109l112 637l-37 -11h-109q-14 -15 -23 -39t-14 -49l-13 -77h99l-6 -33h-99l-76 -438q-8 -43 -33.5 -79t-64.5 -63l-122 -83h-57l19 99h109
q14 17 22 41t13 49l82 474h-168l-76 -438q-8 -43 -33.5 -79t-64.5 -63l-122 -83h-63z" />
    <glyph glyph-name="fh" unicode="fh" horiz-adv-x="809" 
d="M153 -10q-8 -43 -33.5 -79t-64.5 -63l-122 -83h-63l19 99h116q13 17 21 41t13 49l83 474h-81l4 16l21 19h62l6 36q8 45 32.5 81.5t59.5 59.5l121 75h190l16 -13l-55 -312l-8 -16l167 114q63 0 86.5 -32t13.5 -86l-58 -322l88 59l12 -17l-139 -106l-75 36l58 324
q5 28 -3 44t-32 16q-17 0 -38 -9.5t-43 -25.5l-37 -24l-61 -345h-108l112 637l-37 -11h-111q-14 -15 -22.5 -39t-13.5 -49l-14 -77h99l-6 -33h-99z" />
    <glyph glyph-name="fj" unicode="fj" horiz-adv-x="543" 
d="M-111 -136h116q13 17 21 41t13 49l83 474h-81l4 16l21 19h62l6 36q8 45 32.5 81.5t59.5 59.5l121 75h210l-17 -89h-255q-14 -15 -22.5 -39t-13.5 -49l-14 -77h162l84 26l27 -25l-81 -462q-8 -44 -35.5 -81.5t-68.5 -66.5l-122 -87h-49l18 99h109q14 21 20.5 44.5
t11.5 49.5l84 474l-26 -4h-140l-76 -438q-8 -43 -33.5 -79t-64.5 -63l-122 -83h-63z" />
    <glyph glyph-name="fk" unicode="fk" horiz-adv-x="785" 
d="M-111 -136h116q13 17 21 41t13 49l83 474h-81l4 16l21 19h62l6 36q8 45 32.5 81.5t59.5 59.5l121 75h188l16 -13l-73 -420l10 3l188 193h95l-24 -112h-110q-6 -1 -20 -9.5t-29 -19.5t-28.5 -21.5t-19.5 -14.5l-29 -24l82 -24l93 -202l78 53l12 -18l-137 -102l-64 28
l-100 253l-48 -265h-108l112 637l-37 -11h-109q-14 -15 -22.5 -39t-13.5 -49l-14 -77h99l-6 -33h-99l-76 -438q-8 -43 -33.5 -79t-64.5 -63l-122 -83h-63z" />
    <glyph glyph-name="ft" unicode="ft" horiz-adv-x="604" 
d="M-111 -136h116q13 17 21 41t13 49l83 474h-81l4 16l21 19h62l6 36q8 45 32.5 81.5t59.5 59.5l121 75h120l-64 -89h-118q-14 -15 -22.5 -39t-13.5 -49l-14 -77h161l11 58l98 83h24l-25 -141h111l-7 -33h-109l-67 -382l126 60l11 -18l-176 -104l-75 34l72 410h-161
l-76 -438q-8 -43 -33.5 -79t-64.5 -63l-122 -83h-63z" />
    <glyph glyph-name="fu" unicode="fu" horiz-adv-x="801" 
d="M-111 -136h116q13 17 21 41t13 49l83 474h-81l4 16l21 19h62l6 36q8 45 32.5 81.5t59.5 59.5l121 75h80l-16 -89h-126q-14 -15 -22.5 -39t-13.5 -49l-14 -77h157l84 26l27 -25l-60 -337q-5 -30 4.5 -43.5t27.5 -13.5t38.5 11.5t42.5 26.5l37 25l59 342h109l-75 -426
l89 58l13 -17l-144 -104l-69 33l12 68l7 18l-163 -118q-63 0 -86 32.5t-13 85.5l58 329l-27 -4h-134l-76 -438q-8 -43 -33.5 -79t-64.5 -63l-122 -83h-63z" />
    <glyph glyph-name="fy" unicode="fy" horiz-adv-x="726" 
d="M492 20l-91 -18l-63 432l-24 -6h-83l-76 -438q-8 -43 -33.5 -79t-64.5 -63l-122 -83h-63l19 99h116q13 17 21 41t13 49l83 474h-81l4 16l21 19h62l6 36q8 45 32.5 81.5t59.5 59.5l121 75h80l-16 -89h-126q-14 -15 -22.5 -39t-13.5 -49l-14 -77h95l82 27l38 -22l53 -422
l163 295l-80 90l94 59l39 -43l-17 -118l-168 -297l-164 -266l-125 1l20 108h106z" />
    <glyph glyph-name="ky" unicode="ky" horiz-adv-x="943" 
d="M485 -127h105l119 147l-90 -18l-66 448h-28l-81 -84h-86q-6 -1 -20 -9.5t-29 -19.5t-28.5 -21.5t-19.5 -14.5l-29 -24l81 -24l93 -202l78 53l12 -18l-136 -102l-65 28l-100 253l-48 -265h-107l115 660l-93 -24l-7 21l190 58l25 -20l-72 -413l9 3l189 193h255l18 -12
l53 -422l163 295l-80 90l95 59l38 -43l-16 -118l-168 -295l-165 -267h-123z" />
    <glyph glyph-name="tt" unicode="tt" horiz-adv-x="627" 
d="M51 18l72 410h-79l4 16l21 19h60l10 56l99 83h24l-26 -141h183l11 58l98 83h24l-25 -141h111l-7 -33h-110l-66 -382l126 60l11 -18l-176 -104l-74 34l71 410h-183l-66 -382l111 54l11 -19l-161 -97z" />
    <glyph glyph-name="ty" unicode="ty" horiz-adv-x="760" 
d="M302 -127h105l119 147l-90 -18l-63 430l-31 -4h-112l-66 -382l110 53l12 -20l-161 -95l-74 34l72 410h-79l4 16l21 19h60l10 56l99 83h24l-26 -141h133l81 27l37 -25l53 -419l163 295l-81 90l94 59l39 -43l-16 -118l-169 -295l-163 -268l-125 1z" />
    <glyph glyph-name="www" unicode="www" horiz-adv-x="1675" 
d="M104 10l-12 398l8 18l-95 -33l-8 20l180 75l27 -27l5 -389l-4 -25l136 216l-5 173l112 40l5 -404l-3 -25l138 219l-5 175l103 37l10 -12l5 -394l-4 -25l136 217l-5 172l113 40l5 -404l-5 -25l138 218l-4 177l101 36l11 -10l5 -396l-4 -25l136 217l-5 172l113 40l5 -404
l-5 -25l184 289l-77 93l93 59l38 -44l-17 -116l-223 -340l-99 22l-5 180l6 31l-147 -233l-98 22l-6 197l-142 -219l-98 22l-5 180l4 31l-145 -233l-99 22l-6 197l-143 -219l-99 22l-5 179l6 32l-146 -233z" />
    <glyph glyph-name=".notdef" horiz-adv-x="662" 
d="M449 -28l-24 18h-14l-8 8l7 76l-4 47l-61 1l-3 -52l-2 -56v-20l-15 -6l-8 6l-30 -10h-32l-1 11l11 11l50 21l-6 96l-98 -6l-147 140l-4 115l-13 10l-10 36v26l15 8l-3 78l92 -62l9 47l10 36l22 35l28 35l39 29l40 15l38 14h22l-68 22l4 17h7l79 -20l-4 51l16 12h32l19 -5
l29 -25l32 -8l32 -10l15 -13v-20l-20 -31l30 -28l28 -32l18 -34l15 -41l9 -54l-3 -41l-8 -35l-12 -31l-3 -156l-21 -7l-50 70l-27 -7l-19 -140l-32 4l-7 -4l-4 -94l30 -19l16 -14l-3 -15zM512 399l-4 7h-205l-66 -3l-7 -9l-6 -44l-48 20l-11 -4l57 -27l1 -45l-5 -73v-91
l18 4l2 40l41 -3l3 9l-44 6v16l48 -6l1 9l-47 7l1 22l43 -3l3 6l-45 9l3 94h74l11 10h-79l2 9h74l8 7h-82l2 22l117 4l140 -4v11zM193 569l29 12l13 -15l-17 -20l-10 -3l17 -3h5l36 24h32l18 -12l8 3l4 14l7 5l10 -4v-18h8l10 22l11 8l-5 6l-3 8l1 21l-30 -10l-10 -8l-8 5
l4 21l14 10l11 11l38 -2l12 13l-4 8h-49l-45 -13l-53 -26l-29 -23zM603 465l-8 37l-19 50l-20 36l-23 28l-34 21h-11l17 -19l25 -10l11 -11l3 -33l-25 13l-15 -29l12 -8v-19l15 3l-12 26l15 -5l10 -20l-5 -12l-8 -7h-23l-3 11l-12 2l1 -22h-14l14 -18l-7 -10l-21 5l-3 -27
l41 6l8 17l22 -2l6 -28l-16 -13v-15l8 -6l18 12h23l6 11l-18 6l-5 9l9 42h7l14 -20zM89 434l57 -32l7 10l-68 38v18l59 -34l43 -28l28 -14l3 10l-103 64l-13 7l-41 33l2 -78l19 -17v-5h-21l19 -14l1 -11l-20 7l18 -18l-4 -7l3 -97l11 -12v180zM498 331l-54 1l-1 -24v-6
l-2 -31l19 -3l-8 -61l-48 3l-8 -6l51 -5l-2 -9h-49l-4 -5l53 -7l-6 -35l27 -1l12 79l4 36l-15 3l-1 8l20 1l5 3l-28 16l2 5l30 -6l-30 15l5 5l21 -5l4 10zM193 331l-66 39v-7l-2 -13l1 -27v-48l64 -44l-1 60zM367 214l-64 4v-51l64 -6v53zM519 306l8 -6l8 2l20 15l13 13
l11 18l-7 5h-14l-10 3l-14 7l-17 -3q-2 -13 -3 -24q-2 -9 -2.5 -17t-0.5 -7zM415 585l5 -6l19 11l8 -2l6 -24h13l6 6l-9 18l17 28l-15 9v5l-25 7v-20l-13 -5v-9l-9 -6zM420 336l4 30l-54 5l-3 -35h53zM353 455l-7 -11h-12l-5 7l11 8l-15 2v6l-23 4l3 -17l8 -14l20 -9l13 -1
l18 10l6 9l5 20l-30 2l7 -5zM576 312l-6 -3l-33 -27l39 -48v78zM231 454l1 4l14 2l-13 6l2 7l-20 -1l3 -19l14 -15l12 -6l11 5l16 12l6 12l2 13l-22 -4l6 -10l-12 -13l-14 -1zM381 281l-72 7l-6 -13l78 -4v10zM193 203l-74 50l20 -23l50 -41zM381 312h-73v-10h73v10z
M371 256l-68 4v-10h68v6zM502 359h-48v-13l44 4zM338 520l-4 -12l49 -17l3 4zM201 498l59 12l-4 12zM401 642l-8 -9v-19l12 -6l3 17zM478 530l-8 -4v-9l8 -3l2 7zM551 386l5 7v7l-10 -4v-10h5z" />
    <glyph glyph-name=".null" horiz-adv-x="0" 
 />
    <glyph glyph-name=".null" horiz-adv-x="0" 
 />
    <glyph glyph-name="nonmarkingreturn" unicode="&#xd;" horiz-adv-x="360" 
 />
    <glyph glyph-name="space" unicode=" " horiz-adv-x="240" 
 />
    <glyph glyph-name="exclam" unicode="!" horiz-adv-x="329" 
d="M240 416l-69 -194h-35v193l44 295h121zM159 114l29 -6l-4 -56l-16 -51l-77 -6l-29 6l5 58l15 49z" />
    <glyph glyph-name="quotedbl" unicode="&#x22;" horiz-adv-x="418" 
d="M100 448q4 6 16.5 27t26 45t24.5 44t12 25l-59 3l5 62l18 51l78 6l34 -6l-5 -59l-18 -54l-109 -155zM274 448q4 6 16 27t25.5 45t24.5 44t12 25l-59 3l6 62l18 51l77 6l34 -6l-5 -59l-17 -54l-109 -155z" />
    <glyph glyph-name="numbersign" unicode="#" horiz-adv-x="610" 
d="M218 241h155l52 172h-155zM543 655l-60 -202h131l-12 -40h-131l-52 -172h131l-12 -40h-131l-59 -201h-46l59 201h-156l-59 -201h-45l59 201h-132l13 40h131l52 172h-131l12 40h131l60 202h45l-60 -202h156l60 202h46z" />
    <glyph glyph-name="dollar" unicode="$" horiz-adv-x="554" 
d="M517 510h-36l-17 107q-37 37 -92 51l-41 -235l80 -64q18 -15 34 -31t28 -35.5t19 -44t7 -55.5q0 -59 -40 -110.5t-112 -76.5l-95 -33l-11 -63h-29l11 63q-60 3 -107 19.5t-79 40.5l35 163h42l2 -99q18 -20 49 -38t68 -29l45 260l-70 56q-38 31 -64.5 68t-26.5 88
q0 114 151 172l83 32l12 65h29l-11 -64q58 -2 98.5 -15.5t67.5 -31.5zM304 280l-43 -247q16 -4 38 -4q45 16 65.5 47.5t20.5 71.5q0 22 -5.5 40t-16 33t-24.5 29t-32 28zM228 574q0 -40 20 -65t57 -56l39 220q-7 1 -13.5 1.5t-13.5 0.5q-49 -16 -69 -42t-20 -59z" />
    <glyph glyph-name="percent" unicode="%" horiz-adv-x="809" 
d="M709 705h57l-664 -710h-58zM215 350q-54 0 -87.5 36t-31.5 98q1 72 40.5 128t127.5 82l20 7q57 0 89.5 -37.5t30.5 -96.5q-1 -36 -11 -69t-30.5 -60.5t-52 -48.5t-74.5 -32zM264 669q-21 -6 -37 -22t-26.5 -39t-16 -51t-6.5 -58q-2 -53 13.5 -82.5t44.5 -34.5
q20 6 35.5 22t26.5 39t16.5 51t6.5 58q2 54 -13.5 83t-43.5 34zM529 0q-54 0 -87.5 36t-31.5 97q2 73 40.5 129t126.5 82l20 7q57 0 89.5 -37.5t30.5 -96.5q-1 -36 -11 -69t-30.5 -60.5t-51.5 -48.5t-75 -33zM578 319q-21 -6 -37 -22t-26.5 -39t-16.5 -51t-6 -58
q-2 -54 13.5 -83.5t44.5 -34.5q20 6 35.5 22t26 39t16.5 51t7 58q2 54 -14 83.5t-43 34.5z" />
    <glyph glyph-name="ampersand" unicode="&#x26;" horiz-adv-x="602" 
d="M493 584q-15 13 -34 26t-39.5 25t-40 22t-35.5 15q-41 -22 -64 -52.5t-23 -75.5q0 -29 8 -52.5t20.5 -41t27.5 -28t28 -11.5l-5 -27q-35 -1 -67 -17t-56.5 -43t-39.5 -63t-15 -77q0 -34 8 -63.5t24.5 -51.5t41.5 -35.5t58 -14.5q27 12 47.5 28t35 38t24 50.5t16.5 64.5
l12 66h-56l-16 -23h-15l18 100h228l15 23h15l-19 -100h-61l-13 -76q-6 -32 -16 -58.5t-31 -49t-55.5 -41.5t-88.5 -35q-4 -2 -15.5 -5.5t-25 -7t-26 -7t-17.5 -4.5q-52 0 -92 13.5t-67 38t-41 57.5t-14 72q0 73 45.5 125.5t130.5 84.5l48 19q-20 4 -40.5 15t-37 28.5
t-27.5 41t-11 50.5q0 33 15 58.5t41.5 45.5t63.5 35.5t81 27.5l90 24q14 -1 31.5 -7t34 -14t31.5 -17t25 -16z" />
    <glyph glyph-name="quotesingle" unicode="'" horiz-adv-x="243" 
d="M98 447q4 7 16.5 28t26 44.5t24.5 43.5t12 25l-59 4l5 61l19 52l78 5l33 -5l-5 -60l-17 -53l-109 -156z" />
    <glyph glyph-name="parenleft" unicode="(" horiz-adv-x="348" 
d="M392 710q-117 -121 -180.5 -269.5t-63.5 -337.5q0 -90 18 -172t58 -149l-18 -19q-36 48 -62 91.5t-43 86.5t-25.5 86.5t-8.5 91.5q0 92 15.5 167t51.5 145t95 140t146 153z" />
    <glyph glyph-name="parenright" unicode=")" horiz-adv-x="348" 
d="M-68 -223q118 120 181 269.5t63 338.5q0 89 -18 171.5t-58 149.5l18 18q36 -49 62 -92.5t43.5 -86t26 -85.5t8.5 -91q0 -92 -15.5 -167t-51.5 -145t-95.5 -141t-147.5 -153l-16 14v0z" />
    <glyph glyph-name="asterisk" unicode="*" horiz-adv-x="358" 
d="M157 399l-73 59l119 90l-142 11l43 95l110 -76l-18 137h100l-50 -137l129 74l19 -93l-141 -11l98 -89l-88 -60l-38 131z" />
    <glyph glyph-name="plus" unicode="+" 
d="M286 0v230h-234v48h234v237h48v-237h233v-48h-233v-230h-48z" />
    <glyph glyph-name="comma" unicode="," horiz-adv-x="245" 
d="M29 -137q4 6 16 26t24.5 42t23 41t11.5 24l-55 4l4 64l19 53l79 6l34 -6l-4 -61l-19 -56l-108 -149z" />
    <glyph glyph-name="hyphen" unicode="-" horiz-adv-x="390" 
d="M59 305h305l-10 -54h-305z" />
    <glyph glyph-name="period" unicode="." horiz-adv-x="255" 
d="M147 123l30 -6l-5 -62l-17 -55l-84 -6l-31 6l5 64l18 53z" />
    <glyph glyph-name="slash" unicode="/" horiz-adv-x="482" 
d="M-84 -230h-47l619 948h45z" />
    <glyph glyph-name="zero" unicode="0" horiz-adv-x="566" 
d="M325 488q48 0 87 -15.5t67 -43.5t43 -65.5t15 -82.5q0 -43 -11.5 -82.5t-37 -74.5t-66.5 -64.5t-101 -50.5l-66 -24q-48 0 -87 16t-67 43.5t-43 65t-15 81.5q0 43 11 83.5t36.5 75.5t66 64t100.5 50zM281 24q63 29 98 91.5t35 150.5q0 74 -32.5 122.5t-84.5 61.5
q-61 -28 -96.5 -90.5t-35.5 -153.5q0 -72 31.5 -120t84.5 -62z" />
    <glyph glyph-name="one" unicode="1" horiz-adv-x="454" 
d="M6 27l149 11l62 351l5 11l-21 -9l-146 -43l-7 26l263 107h36l-78 -443l145 -11l-6 -28l-200 2l-203 -2z" />
    <glyph glyph-name="two" unicode="2" horiz-adv-x="514" 
d="M-7 30l179 124q86 60 134 110t48 105q0 35 -19 55t-54 21l-57 -16l-55 -123h-80l11 113l226 69q79 0 115.5 -31t36.5 -77q0 -39 -23.5 -72.5t-60 -62t-80.5 -53t-84 -45.5l-124 -64l95 15h289v-25l-38 -73h-446z" />
    <glyph glyph-name="three" unicode="3" horiz-adv-x="464" 
d="M-41 -236l18 101h224q43 30 62 64t19 76q0 52 -37 86.5t-119 36.5l-6 21l59 32q66 31 101 73t35 99q0 37 -20 62t-53 30l-53 -17l-55 -124h-76l9 114l217 69q39 0 67.5 -9.5t46.5 -25.5t27 -38t9 -47q0 -33 -15 -61t-41 -50.5t-60.5 -39.5t-74.5 -29q85 -7 124.5 -47.5
t39.5 -98.5q0 -48 -22.5 -83t-57 -61t-76.5 -45t-81 -35l-122 -53h-89z" />
    <glyph glyph-name="four" unicode="4" horiz-adv-x="567" 
d="M286 -6h-262l-19 35l380 446h131l-5 -28l-455 -412l29 9h209l21 120l105 68h18l-33 -188h131l-9 -50h-131l-40 -221h-110z" />
    <glyph glyph-name="five" unicode="5" horiz-adv-x="482" 
d="M75 154l156 89q55 0 91.5 -14.5t58.5 -37.5t30.5 -51t8.5 -55q0 -52 -21.5 -93t-56 -73t-77.5 -55.5t-86 -41.5l-119 -54h-93l19 101h219q43 33 66.5 74.5t23.5 89.5q0 27 -6 50t-19.5 40.5t-34 27.5t-49.5 10q-27 0 -50 -7t-52 -21l-36 -23l-16 16l105 349h347l-4 -17
l-35 -83h-301z" />
    <glyph glyph-name="six" unicode="6" horiz-adv-x="542" 
d="M188 320q-6 -20 -10.5 -46t-4.5 -59q0 -37 7 -68.5t20 -56.5t32.5 -41t45.5 -22q27 12 47 33.5t32.5 48.5t19 57.5t6.5 60.5q0 75 -23.5 111t-54.5 36q-18 0 -37 -8.5t-47 -25.5zM535 691q-75 -20 -134 -59t-102 -86.5t-70 -98.5t-36 -95l165 103q31 -2 58.5 -17
t47.5 -40t31.5 -57t11.5 -67q0 -90 -46.5 -157.5t-140.5 -100.5l-83 -32q-41 0 -75.5 15t-60 44.5t-40 71.5t-14.5 96q0 88 36 170t100 149.5t151.5 116t191.5 71.5z" />
    <glyph glyph-name="seven" unicode="7" horiz-adv-x="493" 
d="M53 473h435l14 -19l-402 -684h-92l3 27l407 581l-17 -9h-366z" />
    <glyph glyph-name="eight" unicode="8" horiz-adv-x="544" 
d="M342 413q85 60 85 154q0 45 -24 76.5t-77 36.5q-43 -20 -60.5 -52t-17.5 -70q0 -35 23 -70t71 -75zM161 173q0 -32 9.5 -58.5t25 -46t36 -31.5t41.5 -15q49 25 73 62t24 85q0 25 -9.5 47t-24.5 42t-35 38.5t-41 37.5q-44 -30 -71.5 -69t-27.5 -92zM234 -17
q-38 0 -73 10.5t-62 31t-43 49.5t-16 66q0 43 17 76t45 58.5t63 44.5t70 33q-23 19 -43 37t-35 37.5t-23.5 41.5t-8.5 48q1 66 49 111t122 68l69 21q39 0 72 -8.5t57 -25t37 -39.5t13 -51q0 -41 -16 -71.5t-41.5 -54t-57.5 -41t-64 -31.5q27 -23 51 -43.5t42.5 -41.5t29 -45
t10.5 -54q0 -75 -56 -125t-148 -81z" />
    <glyph glyph-name="nine" unicode="9" horiz-adv-x="536" 
d="M363 153q5 20 9.5 46t4.5 59q0 36 -7 68t-20 56.5t-33 41t-45 22.5q-27 -12 -46.5 -33.5t-32 -48.5t-19 -57t-6.5 -60q0 -75 24 -111.5t53 -36.5q20 0 38 8t47 25zM15 -219q75 20 134 59t102.5 86.5t70 98.5t36.5 95l-163 -102q-32 1 -60 16.5t-48.5 40t-32 57
t-11.5 67.5q0 89 47 157.5t140 100.5l85 31q42 0 76.5 -15t59 -44.5t38.5 -71.5t14 -96q0 -88 -36 -169.5t-99.5 -149t-151.5 -116.5t-192 -71z" />
    <glyph glyph-name="colon" unicode=":" horiz-adv-x="276" 
d="M210 485l31 -6l-5 -62l-18 -54l-84 -6l-30 6l5 63l17 53zM152 123l30 -6l-5 -62l-17 -55l-84 -6l-31 6l5 64l18 53z" />
    <glyph glyph-name="semicolon" unicode=";" horiz-adv-x="275" 
d="M26 -137q4 6 16 26t25.5 42t24 41t11.5 24l-58 4l5 64l19 53l78 6l35 -6l-5 -61l-18 -56l-107 -149zM210 485l30 -6l-5 -62l-17 -54l-84 -6l-31 6l6 63l17 53z" />
    <glyph glyph-name="less" unicode="&#x3c;" 
d="M570 542v-55l-453 -200l453 -200v-56l-520 236v39z" />
    <glyph glyph-name="equal" unicode="=" 
d="M568 318h-517v48h517v-48zM568 125h-517v48h517v-48z" />
    <glyph glyph-name="greater" unicode="&#x3e;" 
d="M570 306v-39l-520 -236v56l453 200l-453 200v55z" />
    <glyph glyph-name="question" unicode="?" horiz-adv-x="421" 
d="M162 114l29 -6l-5 -56l-15 -51l-78 -6l-28 6l4 58l16 49zM154 338l72 43q48 29 75 72.5t27 94.5q0 22 -5 43t-14.5 38.5t-24.5 29.5t-35 15l-23 -8l-47 -109h-60l5 101l157 52q38 0 69.5 -12t54 -32.5t34.5 -48.5t12 -60q0 -65 -42.5 -108.5t-118.5 -70.5l-67 -27
l-49 -137h-38z" />
    <glyph glyph-name="at" unicode="@" horiz-adv-x="934" 
d="M612 113q34 3 70 23.5t66 57t49 87.5t19 114q0 57 -20.5 105.5t-58 84t-90.5 55.5t-119 20t-130.5 -27.5t-115 -78.5t-82 -122.5t-31.5 -159.5q0 -86 30 -149t78.5 -104t111 -60.5t127.5 -19.5q62 0 110.5 18.5t80.5 34.5l10 -20q-29 -16 -61 -29.5t-64 -25t-61.5 -19.5
t-53.5 -12q-90 0 -164.5 27t-127 75.5t-81.5 115t-29 145.5q0 73 25.5 139t71 120.5t109.5 96t141 65.5l96 29q94 0 166 -21.5t121 -60t74 -91.5t25 -115q0 -66 -25 -124t-68 -101.5t-99 -69.5t-117 -29l-61 64l34 109l-15 -18t-37 -44t-47.5 -57t-47.5 -56q-26 1 -50 12.5
t-42.5 31t-29.5 46.5t-11 61q0 42 13 80t36.5 70.5t56.5 58.5t73 44l107 48l118 -62zM598 432l-83 53q-39 -19 -65 -45.5t-41.5 -55t-21.5 -57.5t-6 -54q0 -45 20 -71.5t55 -33.5l107 119z" />
    <glyph glyph-name="A" unicode="A" horiz-adv-x="680" 
d="M226 273h205l-23 298l1 35zM172 -1l-100 2l-97 -2l2 28l71 9l369 651l100 29l66 -680l69 -9l-6 -28l-145 2l-133 -2l1 28l82 10l-17 201h-226l-111 -201l81 -10z" />
    <glyph glyph-name="B" unicode="B" horiz-adv-x="594" 
d="M340 43q54 32 77.5 75t23.5 93q0 28 -8 54t-24.5 45.5t-41.5 31t-59 11.5h-64l-47 -310h143zM126 1l-133 -2v28l78 10l98 629l-74 8l6 27q34 -1 61 -1q23 -1 44 -1h26h31.5t55.5 1q34 0 77 1q46 0 81 -11t58.5 -30t35.5 -44.5t12 -53.5q0 -57 -41 -102.5t-122 -67.5
l-54 -14q52 -3 91.5 -16t66.5 -34.5t40.5 -49t13.5 -58.5q0 -40 -16 -70.5t-42.5 -53t-61 -39t-70.5 -29.5l-83 -29zM293 668l-44 -283h48q28 0 56 13t50.5 35.5t36 53.5t13.5 66q0 52 -25.5 83.5t-79.5 31.5h-55z" />
    <glyph glyph-name="C" unicode="C" horiz-adv-x="626" 
d="M337 -18q-65 0 -118 21.5t-90.5 61.5t-58 95.5t-20.5 124.5q0 58 16 118.5t51 114.5t90.5 98t134.5 71l99 32q66 0 113 -19t76 -39l-8 -173h-36l-36 122q-26 21 -66.5 37t-102.5 24q-96 -41 -145.5 -132.5t-49.5 -214.5q0 -65 14.5 -116t41 -87.5t62.5 -59t79 -30.5
q68 26 111 60l75 137h38l-37 -176z" />
    <glyph glyph-name="D" unicode="D" horiz-adv-x="673" 
d="M134 1l-140 -2v28l77 10l97 629l-74 8l5 27l139 -2l153 2q63 0 114 -20.5t87 -58t56 -90t20 -115.5q0 -62 -17 -121t-52 -110t-88 -91.5t-126 -64.5l-91 -31zM337 45q42 24 77.5 60.5t61.5 83.5t41 102.5t15 117.5q0 61 -13.5 108.5t-37.5 80.5t-55.5 50.5t-67.5 18.5
h-65l-97 -622h141z" />
    <glyph glyph-name="E" unicode="E" horiz-adv-x="587" 
d="M-6 27l77 10l98 627l-74 10l5 27l135 -2l374 2l-15 -182h-27l-46 146l-228 2l-44 -284l121 2l65 114h24l-28 -132l-15 -131h-24l-29 113l-119 2l-49 -317l248 2l86 155h30l-39 -192l-395 2l-132 -2z" />
    <glyph glyph-name="F" unicode="F" horiz-adv-x="559" 
d="M306 27l-5 -28l-172 2l-136 -2l1 28l77 10l98 627l-74 10l5 27l132 -2l377 2l-15 -184h-27l-46 148l-228 2l-46 -297l121 2l65 114h24l-28 -133l-15 -131h-24l-28 114l-120 2l-47 -302z" />
    <glyph glyph-name="G" unicode="G" horiz-adv-x="665" 
d="M315 -18q-62 0 -112.5 22t-86 62t-55 94t-19.5 119q0 60 17 122t54 117t95 100t139 71l97 29q66 0 113.5 -20t75.5 -42l-9 -166h-36l-34 113q-27 26 -70.5 46t-102.5 22q-96 -45 -149 -134t-53 -214q0 -67 14 -118t39 -87.5t60 -58.5t76 -31q25 8 49 20t37 21l33 218
l-73 10l5 26h131l115 1v-27l-55 -10l-36 -232z" />
    <glyph glyph-name="H" unicode="H" horiz-adv-x="701" 
d="M129 1l-136 -2l1 28l78 10l96 627l-74 10l6 27l135 -2l132 2l-1 -27l-73 -10l-44 -283h257l43 283l-71 10l5 27l134 -2l132 2l-1 -27l-74 -10l-97 -627l73 -10l-5 -28l-134 2l-135 -2v28l76 10l48 308h-256l-48 -308l72 -10l-5 -28z" />
    <glyph glyph-name="I" unicode="I" horiz-adv-x="321" 
d="M368 674l-74 -10l-97 -627l73 -10l-6 -28l-135 2l-135 -2v28l78 10l98 627l-74 10l5 27l136 -2l132 2z" />
    <glyph glyph-name="J" unicode="J" horiz-adv-x="321" 
d="M177 664l-77 10l6 27l137 -2l133 2v-27l-75 -10l-86 -558q-11 -66 -38.5 -109.5t-69.5 -75.5l-128 -95h-66l20 98h111q17 38 26.5 75t17.5 87z" />
    <glyph glyph-name="K" unicode="K" horiz-adv-x="696" 
d="M293 664l-43 -281l13 8l305 273l-76 10l4 27l113 -2l103 2l-1 -27l-86 -10l-316 -278l68 -14l229 -335l50 -10l-5 -28l-89 2l-87 -2l-221 351l-7 17l-51 -330l69 -10l-6 -28l-130 2l-136 -2l1 28l79 10l96 627l-74 10l6 27l134 -2l128 2v-27z" />
    <glyph glyph-name="L" unicode="L" horiz-adv-x="549" 
d="M195 34l211 2l104 158h29l-49 -195l-365 2l-132 -2l1 28l77 10l98 627l-75 10l7 27l131 -2l138 2l-1 -27l-76 -10z" />
    <glyph glyph-name="M" unicode="M" horiz-adv-x="874" 
d="M708 701l93 -2l121 2v-27l-75 -10l-98 -627l72 -10l-6 -28l-129 2l-137 -2v28l79 10l88 565l15 56l-323 -659h-72l-122 603l-5 54l-94 -619l75 -10l-5 -28l-95 2l-97 -2l1 28l74 10l98 625l-75 12l6 27l108 -2l114 2l108 -544l-2 -35z" />
    <glyph glyph-name="N" unicode="N" horiz-adv-x="681" 
d="M613 664l-76 10l5 27l95 -2l99 2v-27l-78 -10l-104 -664h-77l-264 586l-5 45l-92 -594l79 -10l-6 -28l-98 2l-98 -2l1 28l77 10l99 625l-73 12l6 27l96 -2l94 2l235 -507l8 -45z" />
    <glyph glyph-name="O" unicode="O" horiz-adv-x="696" 
d="M186 305q0 -63 13.5 -113.5t36.5 -86t55 -56.5t70 -25q46 18 82 54.5t60.5 85.5t37 108.5t12.5 123.5t-13 114t-36.5 86t-55.5 56.5t-69 25.5q-45 -17 -81 -53.5t-61 -86t-38 -109.5t-13 -124zM414 718q63 0 114 -22t87 -62t55.5 -96.5t19.5 -125.5q0 -59 -15.5 -120
t-49 -115.5t-87.5 -98.5t-132 -69l-80 -27q-62 0 -113 22t-87 62t-56 97t-20 126q0 59 15 120.5t49 116t88 98.5t131 68z" />
    <glyph glyph-name="P" unicode="P" horiz-adv-x="569" 
d="M366 351q21 13 41 31t35 41t24 51.5t9 61.5q0 63 -28.5 97t-85.5 35h-68l-49 -317h122zM323 304h-87l-41 -267l110 -10l-5 -28l-175 2l-132 -2l1 28l77 10l98 629l-75 8l7 27l134 -2l178 2q94 1 146 -41.5t52 -110.5q0 -79 -56 -129.5t-159 -87.5z" />
    <glyph glyph-name="Q" unicode="Q" horiz-adv-x="696" 
d="M414 718q63 0 114 -22t87 -62t55.5 -96.5t19.5 -125.5q0 -59 -15.5 -120t-49 -115.5t-87.5 -98.5t-132 -69l-58 -20l31 -5l119 -56l78 -57l39 -15l-40 -23l-155 43l-107 107q-60 2 -108.5 24.5t-83 62.5t-53 95.5t-18.5 123.5q0 59 15 120.5t49 116t88 98.5t131 68z
M186 305q0 -63 13.5 -113.5t36.5 -86t55 -56.5t70 -25q46 18 82 54.5t60.5 85.5t37 108.5t12.5 123.5t-13 114t-36.5 86t-55.5 56.5t-69 25.5q-45 -17 -81 -53.5t-61 -86t-38 -109.5t-13 -124z" />
    <glyph glyph-name="R" unicode="R" horiz-adv-x="652" 
d="M361 372q23 11 43.5 27t36.5 37.5t25 48.5t9 60q0 57 -28 90t-85 35h-69l-46 -298h114zM125 1l-132 -2l1 28l77 10l98 629l-75 8l7 27l134 -2l178 2q46 0 83 -11t62.5 -30.5t39 -46.5t13.5 -59q0 -40 -15 -70.5t-41.5 -54t-62.5 -41t-78 -30.5l-67 -21l108 -38l119 -262
l44 -11l-5 -27l-90 2l-75 -2l-136 324l-6 5h-66l-45 -291l82 -10l-6 -28z" />
    <glyph glyph-name="S" unicode="S" horiz-adv-x="500" 
d="M494 510h-36l-17 107q-28 28 -65.5 42.5t-81.5 15.5q-49 -16 -69 -42t-20 -59q0 -20 5.5 -36t16 -30t25.5 -27.5t34 -29.5l102 -82q18 -15 34 -31t28 -35.5t19 -44t7 -55.5q0 -59 -40 -110.5t-112 -76.5l-98 -34q-69 0 -123 17.5t-89 43.5l35 163h42l2 -99
q13 -14 33.5 -27.5t45 -25t51.5 -18.5t53 -7q45 16 65.5 47.5t20.5 71.5q0 22 -5.5 40t-16 33t-24.5 29t-32 28l-99 78q-38 31 -64.5 68t-26.5 88q0 114 151 172l88 34q69 0 115 -14t76 -34z" />
    <glyph glyph-name="T" unicode="T" horiz-adv-x="581" 
d="M299 667l-123 -1l-83 -154h-29l28 189l274 -2l273 2l-28 -189h-30l-35 154l-124 1l-97 -630l88 -10l-5 -28l-151 2l-143 -2l1 28l86 10z" />
    <glyph glyph-name="U" unicode="U" horiz-adv-x="646" 
d="M208 230q-6 -41 0 -75.5t25 -60.5t51 -40.5t76 -14.5q31 12 55.5 26.5t43 37t31 54t19.5 77.5l69 431l-78 9l6 27l100 -2l103 2l-1 -27l-78 -9l-68 -425q-7 -42 -18.5 -77.5t-32.5 -64t-53.5 -50.5t-80.5 -36l-89 -30q-65 0 -108 17.5t-67 50.5t-30.5 79.5t2.5 103.5
l66 432l-74 9l5 27l133 -2l137 2l-1 -27l-74 -9z" />
    <glyph glyph-name="V" unicode="V" horiz-adv-x="650" 
d="M265 -15l-120 681l-69 8l5 27l140 -2l133 2v-27l-82 -9l90 -538l-6 -35l249 573l-82 9l6 27l106 -2l82 2l-1 -27l-61 -8l-295 -655z" />
    <glyph glyph-name="W" unicode="W" horiz-adv-x="947" 
d="M520 430l2 28l-177 -447l-95 -27l-106 681l-69 9l6 27l138 -2l125 2l-1 -27l-74 -10l77 -537l-6 -31l165 417l-23 152l-55 9l5 27l126 -2l136 2l-1 -27l-86 -10l77 -537l-5 -31l225 568l-83 10l5 27l105 -2l83 2l-1 -27l-59 -9l-271 -654l-95 -27z" />
    <glyph glyph-name="X" unicode="X" horiz-adv-x="678" 
d="M69 1l-90 -2v28l70 9l254 300l-168 329l-54 9l5 27l118 -2l144 2v-27l-75 -10l114 -232l1 -20l212 252l-78 10l6 27l110 -2l81 2v-27l-62 -9l-244 -284l176 -345l50 -9l-5 -28l-113 2l-148 -2l1 28l75 10l-120 248v21l-220 -270l76 -9l-5 -28z" />
    <glyph glyph-name="Y" unicode="Y" horiz-adv-x="634" 
d="M389 347v-25l211 342l-82 10l5 27l104 -2l75 2l-1 -27l-53 -9l-240 -381l-38 -247l95 -10l-5 -28l-158 2l-156 -2v28l100 10l39 248l-154 380l-55 9l5 27l122 -2l143 2v-27l-79 -10z" />
    <glyph glyph-name="Z" unicode="Z" horiz-adv-x="561" 
d="M-3 0l-4 28l446 621l29 20l-263 -5l-90 -156h-28l32 192h470l10 -27l-444 -622l-26 -17l280 2l109 170h27l-49 -206h-499z" />
    <glyph glyph-name="bracketleft" unicode="[" horiz-adv-x="329" 
d="M216 -203l-5 -27l-116 1l-86 -1q23 126 41 232l16 90t14.5 83.5t12 67.5t7.5 42q1 7 5 29t9.5 53.5t12 69.5t13.5 77q16 91 35 201l81 -1l122 1l-5 -27l-128 -8q-16 -85 -30 -161q-6 -32 -12 -66t-12 -64.5t-10.5 -56.5t-7.5 -43q-4 -20 -9.5 -52t-11.5 -70t-13 -79.5
t-14 -81.5q-16 -95 -34 -201z" />
    <glyph glyph-name="backslash" unicode="\" horiz-adv-x="414" 
d="M97 718h42l286 -948h-44z" />
    <glyph glyph-name="bracketright" unicode="]" horiz-adv-x="329" 
d="M60 -195q17 100 34 190q7 38 14 77.5t14 75.5t12.5 66.5t9.5 51.5q3 17 7.5 44t10 59t11.5 67.5t12 70.5q13 81 29 173l-125 8l4 27l113 -1l90 1q-21 -117 -38 -212q-7 -41 -14 -81t-13 -73t-10 -56t-5 -30q-2 -13 -7 -41.5t-11.5 -65.5t-14.5 -80t-15 -86
q-18 -101 -39 -220l-89 1l-113 -1l4 27l129 8v0z" />
    <glyph glyph-name="asciicircum" unicode="^" horiz-adv-x="375" 
d="M133 460h-57l166 245h29l84 -245h-57l-51 180z" />
    <glyph glyph-name="underscore" unicode="_" horiz-adv-x="591" 
d="M-21 -65h556l-7 -43h-555z" />
    <glyph glyph-name="grave" unicode="`" horiz-adv-x="478" 
d="M264 551l-95 174h110l17 -174h-32z" />
    <glyph glyph-name="a" unicode="a" horiz-adv-x="500" 
d="M148 212q0 -48 15 -82.5t43 -57.5l95 79l44 250q-20 13 -49 21t-52 8q-45 -34 -70.5 -91.5t-25.5 -126.5zM391 47l88 60l13 -18l-139 -105l-75 35l15 83l9 23l-154 -140q-25 9 -46 23.5t-36 36t-23.5 51.5t-8.5 69q0 95 53.5 167t144.5 117l80 39q15 0 33.5 -3.5t38.5 -9
t40 -12.5t38 -16z" />
    <glyph glyph-name="b" unicode="b" horiz-adv-x="486" 
d="M235 715l26 -20l-53 -305l-10 -23l154 121q51 -13 84 -56t33 -121q0 -45 -12.5 -88t-36 -80.5t-58 -67.5t-78.5 -49l-91 -41q-84 5 -156 50l110 624l-94 -24l-7 22zM200 341l-47 -262q20 -17 49 -28t52 -11q28 15 47 39.5t30.5 54.5t16.5 62.5t5 62.5q0 60 -16 96t-45 51
z" />
    <glyph glyph-name="c" unicode="c" horiz-adv-x="425" 
d="M258 63q12 5 27 13.5t31.5 17.5t31.5 18t27 17l14 -18q-26 -20 -57 -40.5t-66 -43.5l-63 -42q-32 1 -62.5 14t-53.5 37t-37 59t-14 80q0 93 51.5 160t151.5 113l82 40q21 -2 51 -13t53 -25l-57 -89q-29 20 -60 35.5t-61 27.5q-51 -32 -73 -83t-22 -109q0 -70 30.5 -111.5
t75.5 -57.5z" />
    <glyph glyph-name="d" unicode="d" horiz-adv-x="522" 
d="M285 21l15 82l9 23l-151 -141q-26 9 -48 24t-38.5 38t-26 54t-9.5 71q0 91 49.5 163t138.5 113l84 40q24 -2 57 -14l33 185l-92 -24l-8 22l189 58l25 -20l-114 -648l88 60l13 -17l-139 -106zM308 152l45 251q-11 6 -25 11.5t-29 9.5t-29 6.5t-26 2.5q-46 -34 -69 -93.5
t-23 -124.5q0 -50 16 -83.5t46 -56.5z" />
    <glyph glyph-name="e" unicode="e" horiz-adv-x="439" 
d="M259 63q13 6 29.5 14t33.5 17t33 18t28 17l13 -18q-26 -19 -61 -42t-71 -44l-66 -40q-33 3 -62.5 17t-51.5 38.5t-35 58.5t-13 76q0 44 12.5 86t37 78t61 65.5t85.5 48.5l91 34q44 -8 71.5 -34t27.5 -76q0 -18 -3.5 -37t-14.5 -44l-254 -77v-10q5 -63 36.5 -98.5
t72.5 -47.5zM253 438q-47 -26 -73.5 -75.5t-29.5 -111.5q0 -4 1 -9l142 55q7 17 9.5 32t2.5 31q0 33 -15 53t-37 25z" />
    <glyph glyph-name="f" unicode="f" horiz-adv-x="315" 
d="M45 444l21 19h62l6 36q8 45 32.5 81.5t59.5 59.5l121 75h80l-16 -89h-126q-14 -15 -22.5 -39t-13.5 -49l-14 -77h103l-6 -33h-103l-76 -438q-8 -43 -33.5 -79t-64.5 -63l-122 -83h-63l19 99h116q13 17 21 41t13 49l83 474h-81z" />
    <glyph glyph-name="g" unicode="g" horiz-adv-x="495" 
d="M13 -235l18 99h195q18 17 35.5 50.5t23.5 70.5l20 117l10 23l-151 -139q-26 9 -48.5 24.5t-39 37.5t-26 52.5t-9.5 69.5q0 91 52 163t146 115l83 40q31 -1 74.5 -12t78.5 -29l-81 -453q-7 -38 -48.5 -75t-99.5 -78l-111 -76h-122zM157 216q0 -51 16.5 -86t45.5 -56l95 77
l44 249q-20 14 -49.5 22.5t-55.5 8.5q-48 -35 -72 -93.5t-24 -121.5z" />
    <glyph glyph-name="h" unicode="h" horiz-adv-x="528" 
d="M148 0h-108l116 659l-93 -24l-8 22l191 58l25 -20l-54 -305l-8 -16l166 114q63 0 87 -32t13 -86l-57 -322l88 59l13 -17l-141 -106l-74 36l58 324q5 28 -3 44t-32 16q-18 0 -38.5 -9.5t-43.5 -25.5l-36 -24z" />
    <glyph glyph-name="i" unicode="i" horiz-adv-x="290" 
d="M179 691l35 6l65 -6v-57l-19 -47l-33 -7l-71 7l3 55zM39 392l-7 20l182 75l27 -25l-72 -415l87 60l13 -17l-140 -106l-74 36l71 402z" />
    <glyph glyph-name="j" unicode="j" horiz-adv-x="283" 
d="M-119 -235l18 99h120q13 21 20 44.5t12 49.5l82 464l-87 -30l-8 20l182 75l27 -25l-81 -462q-8 -44 -35.5 -81.5t-67.5 -66.5l-124 -87h-58zM186 691l34 6l65 -6v-57l-20 -47l-32 -7l-72 7l4 55z" />
    <glyph glyph-name="k" unicode="k" horiz-adv-x="505" 
d="M295 12l-100 253l-48 -265h-107l115 660l-93 -24l-7 21l190 58l25 -20l-72 -413l9 3l189 193h95l-23 -112h-110q-6 -1 -20 -9.5t-29 -19.5t-28.5 -21.5t-19.5 -14.5l-29 -24l81 -24l93 -202l78 53l12 -18l-136 -102z" />
    <glyph glyph-name="l" unicode="l" horiz-adv-x="285" 
d="M68 635l-8 22l191 58l24 -20l-114 -648l88 60l13 -17l-140 -106l-74 36l112 639z" />
    <glyph glyph-name="m" unicode="m" horiz-adv-x="783" 
d="M559 20l57 324q5 28 -2 43.5t-27 15.5q-16 0 -35 -9.5t-39 -23.5l-39 -27l-62 -343h-108l60 344q5 28 -2.5 44t-26.5 16q-16 0 -35 -10t-39 -24l-40 -27l-61 -343h-108l73 422l-85 -30l-8 20l182 75l27 -25l-13 -74l-7 -16l158 116q59 0 82 -29t18 -79l-2 -6l155 114
q61 0 84.5 -32t13.5 -86l-57 -323l88 60l12 -18l-139 -105z" />
    <glyph glyph-name="n" unicode="n" horiz-adv-x="540" 
d="M160 0h-108l74 422l-86 -30l-8 20l182 75l27 -25l-12 -72l-8 -16l165 114q63 0 86.5 -32t13.5 -86l-57 -323l88 60l13 -18l-140 -105l-75 36l58 324q5 28 -2.5 44t-31.5 16q-18 0 -39 -9.5t-43 -25.5l-36 -24z" />
    <glyph glyph-name="o" unicode="o" horiz-adv-x="489" 
d="M297 488q35 0 67 -12.5t56 -37t38 -61t14 -84.5q0 -90 -48.5 -164.5t-142.5 -113.5l-71 -30q-35 0 -66.5 12.5t-55.5 37.5t-38 61.5t-14 84.5q0 90 48 163t142 113zM254 443q-29 -13 -48.5 -39t-31.5 -59t-17 -69t-5 -69q0 -42 8 -73.5t22 -52.5t32 -33.5t39 -17.5
q28 12 48 38.5t32 59.5t17.5 69.5t5.5 69.5q0 43 -8 73.5t-21.5 51.5t-32.5 33.5t-40 17.5z" />
    <glyph glyph-name="p" unicode="p" horiz-adv-x="512" 
d="M377 259q0 60 -17 96t-46 49l-90 -63l-46 -264q23 -18 51.5 -28t51.5 -11q28 16 46.5 41.5t29.5 55.5t15.5 62t4.5 62zM16 -230l114 652l-87 -30l-7 20l182 75l27 -24l-12 -72l-9 -23l150 120q53 -11 86.5 -55t33.5 -123q0 -44 -11.5 -86.5t-34 -80t-55 -68t-75.5 -49.5
l-88 -41q-33 4 -68 21l-1 -29l-37 -207h-108z" />
    <glyph glyph-name="q" unicode="q" horiz-adv-x="484" 
d="M354 407q-12 7 -26 12t-29 8.5t-28.5 5t-23.5 1.5q-25 -16 -43 -40t-29.5 -53t-17 -60.5t-5.5 -62.5q0 -54 17.5 -88.5t46.5 -51.5l92 72zM298 97l11 26l-149 -138q-56 18 -90 62t-34 119q0 46 13.5 89t38.5 80.5t61 67.5t81 50l79 35q18 -1 39.5 -4t43 -8.5t42 -12
t35.5 -14.5l-120 -679h-108z" />
    <glyph glyph-name="r" unicode="r" horiz-adv-x="400" 
d="M51 0l75 422l-87 -30l-7 20l182 75l24 -22l-25 -144l-16 -56l139 213h77l-23 -116h-80q-5 -3 -17.5 -16.5t-26.5 -30t-26.5 -31.5t-18.5 -22l-19 -24l-42 -238h-109z" />
    <glyph glyph-name="s" unicode="s" horiz-adv-x="378" 
d="M121 -15q-12 3 -28.5 9.5t-33 14t-31.5 15t-23 12.5l51 82q27 -17 66 -39.5t80 -41.5q41 13 41 53q0 19 -8 36t-31 37l-90 73q-22 18 -35 42t-13 52q0 37 26.5 68t89.5 57l77 33q22 -3 53.5 -15.5t60.5 -26.5l-50 -83q-29 19 -66.5 39t-69.5 34q-35 -14 -35 -49
q0 -18 8.5 -33t29.5 -33l87 -71q30 -26 42 -50t12 -54q0 -45 -26 -74.5t-76 -47.5z" />
    <glyph glyph-name="t" unicode="t" horiz-adv-x="336" 
d="M51 18l72 410h-79l4 16l21 19h60l10 56l99 83h24l-26 -141h111l-7 -33h-110l-66 -382l126 60l11 -18l-176 -104z" />
    <glyph glyph-name="u" unicode="u" horiz-adv-x="536" 
d="M166 -15q-63 0 -86 32.5t-14 85.5l58 320l-88 -29l-8 20l183 73l27 -25l-60 -337q-5 -30 4.5 -43.5t26.5 -13.5q19 0 39 11.5t43 26.5l36 25l60 342h109l-75 -426l89 58l13 -17l-144 -104l-69 33l11 68l8 18l-163 -118v0z" />
    <glyph glyph-name="v" unicode="v" horiz-adv-x="456" 
d="M5 393l-8 20l181 75l27 -27l3 -399l-5 -26l192 298l-80 96l97 58l39 -44l-20 -121l-222 -337l-105 22l-12 415z" />
    <glyph glyph-name="w" unicode="w" horiz-adv-x="689" 
d="M346 8l-5 177l6 32l-144 -231l-99 22l-12 415l-87 -30l-8 20l180 75l27 -27l5 -390l-4 -26l133 214l-5 177l113 40l5 -406l-5 -25l184 291l-78 93l94 59l38 -44l-17 -116l-223 -342z" />
    <glyph glyph-name="x" unicode="x" horiz-adv-x="497" 
d="M271 16l-48 155v21l-130 -196h-96l23 110h89q5 1 15.5 10.5t22 22.5t22.5 26t17 21l23 30l-63 212l-92 -32l-7 20l172 73l30 -24l46 -155v-24l118 192h96l-23 -110h-83q-5 -2 -14 -10.5t-19 -20.5l-20 -24t-16 -20l-26 -28l66 -217l91 57l13 -18l-143 -102z" />
    <glyph glyph-name="y" unicode="y" horiz-adv-x="473" 
d="M239 20l-91 -18l-60 420l-86 -30l-9 19l168 77l38 -22l53 -422l163 295l-80 90l94 59l39 -43l-17 -118l-168 -297l-164 -266l-125 1l20 108h106z" />
    <glyph glyph-name="z" unicode="z" horiz-adv-x="430" 
d="M56 27l-43 -33l-22 15l334 369l-41 -19l-179 22l-29 -38l-19 7l65 133l273 -28l29 20l20 -14l-320 -356l35 15l199 -29l36 40l18 -7l-68 -138z" />
    <glyph glyph-name="braceleft" unicode="{" horiz-adv-x="323" 
d="M37 262q27 9 42.5 22t24.5 28.5t13.5 33.5t7.5 39l33 190q6 32 21.5 58t38 44t50.5 28t58 10h48l-5 -27h-42q-14 0 -27.5 -5t-25.5 -17.5t-21.5 -33t-13.5 -50.5l-32 -193q-3 -18 -8.5 -35.5t-16 -33.5t-28 -30.5t-44.5 -25.5l66 -53l-58 -308q-6 -30 -3.5 -50.5t11 -33
t20.5 -17.5t26 -5h41l-4 -27h-52q-62 0 -94.5 38t-21.5 102l51 286l-56 56z" />
    <glyph glyph-name="bar" unicode="|" horiz-adv-x="390" 
d="M265 718h45l-169 -963h-45z" />
    <glyph glyph-name="braceright" unicode="}" horiz-adv-x="323" 
d="M266 249q-21 -6 -36 -18.5t-25 -28t-16 -33t-9 -33.5l-40 -226q-6 -32 -21.5 -58t-38 -44t-50.5 -28t-58 -10h-48l6 27h41q14 0 27.5 5t25.5 17.5t21 33t14 50.5l39 236q2 13 9.5 29t19.5 31.5t28.5 29.5t37.5 23q-5 2 -15.5 11t-21.5 19.5t-19 20.5t-7 15l49 264
q6 30 3.5 50.5t-10 33t-20 17.5t-25.5 5h-42l4 27h52q62 0 94.5 -38t21.5 -102l-44 -250q-1 -5 5.5 -14.5t15.5 -20t18.5 -19.5t14.5 -12z" />
    <glyph glyph-name="asciitilde" unicode="~" horiz-adv-x="693" 
d="M619 317h27l-54 -86l-99 -26l-352 61l-57 -65h-27l53 85l101 28l352 -61z" />
    <glyph glyph-name="nonbreakingspace" unicode="&#xa0;" horiz-adv-x="0" 
 />
    <glyph glyph-name="exclamdown" unicode="&#xa1;" horiz-adv-x="329" 
d="M60 50l70 194h35v-194l-44 -295h-123zM141 352l-29 6l5 56l15 50l78 6l28 -6l-5 -58l-15 -48z" />
    <glyph glyph-name="cent" unicode="&#xa2;" horiz-adv-x="446" 
d="M265 63q12 5 27 13.5t31.5 17.5t31.5 18t27 17l14 -18q-26 -20 -57 -40.5t-66 -43.5l-49 -32l-13 -75h-39l11 68q-28 5 -53.5 20t-44.5 38.5t-30.5 56t-11.5 72.5q0 93 51.5 160t151.5 113l28 13l16 86h39l-11 -64l10 5q21 -2 51 -13t53 -25l-57 -89q-29 20 -60 35.5
t-61 27.5q-51 -32 -73 -83t-22 -109q0 -70 30.5 -111.5t75.5 -57.5z" />
    <glyph glyph-name="sterling" unicode="&#xa3;" horiz-adv-x="562" 
d="M374 665q-27 -14 -46 -44.5t-26 -75.5l-31 -172h164l-6 -36l-165 1l-33 -191q-3 -16 -10 -33.5t-16 -33t-19 -27.5t-18 -17l238 1l75 127h38l-43 -164l-343 2l-122 -2l3 24l87 28l50 286h-79l3 17l20 18h62l22 127q7 37 20.5 65.5t36 51t55 40t76.5 31.5q2 0 16 3.5
t31 7.5t32 6.5t18 -0.5q9 -2 20.5 -6.5t24 -10t24.5 -12t20 -12.5l-56 -74q-27 25 -59 45t-64 30z" />
    <glyph glyph-name="currency" unicode="&#xa4;" 
d="M101 336q6 87 70 149l-55 67l35 30l56 -68q30 21 65 33t72 12q35 0 68 -12t56 -32l78 66l24 -30l-76 -65q16 -24 24 -55.5t4 -66.5q-3 -41 -20 -77t-46 -65l50 -60l-36 -30l-48 59q-32 -23 -69 -36.5t-76 -13.5t-73 13.5t-57 37.5l-72 -62l-25 31l73 62q-28 48 -22 113z
M138 337q-3 -34 6.5 -63.5t29 -51t47.5 -33.5t63 -12q36 0 71 15t63 40.5t46 59.5t21 72q3 34 -6.5 63t-29.5 50.5t-48.5 34t-63.5 12.5q-37 0 -71.5 -15t-62 -40.5t-45 -59.5t-20.5 -72z" />
    <glyph glyph-name="yen" unicode="&#xa5;" horiz-adv-x="633" 
d="M382 347v-25l207 342l-82 10l6 27l104 -2l75 2l-1 -27l-52 -9l-238 -381l-2 -9h137l-6 -31h-135l-10 -64h132l-5 -32h-132l-17 -111l96 -10l-6 -28l-157 2l-157 -2v28l100 10l17 111h-127l6 32h126l10 64h-124l5 31h123l2 10l-151 380l-55 9l5 27l127 -2l139 2l-1 -27
l-79 -10z" />
    <glyph glyph-name="brokenbar" unicode="&#xa6;" horiz-adv-x="390" 
d="M265 718h45l-76 -430h-44zM171 185h45l-76 -430h-44z" />
    <glyph glyph-name="section" unicode="&#xa7;" horiz-adv-x="549" 
d="M148 -245q-16 5 -36 16.5t-39.5 25t-37 28t-28.5 25.5l64 72q12 -13 30 -29.5t39 -33.5t42.5 -32t40.5 -24l7 5q32 16 49 40t17 53q0 24 -5.5 43.5t-18 38t-32 39t-46.5 45.5q-33 30 -58 54t-41.5 46.5t-25 45t-8.5 49.5q0 56 35.5 97t92.5 62q-17 19 -26.5 43t-9.5 53
q0 60 42 107.5t125 69.5l82 22q12 -3 28.5 -10.5t33 -18t32 -22t26.5 -22.5l-68 -60q-11 12 -26 25t-32.5 25.5t-35.5 23t-34 16.5l-9 -6q-64 -33 -64 -100q0 -36 17 -67t59 -67l163 -145v-46q0 -37 -12 -65t-31.5 -48.5t-44.5 -35.5t-50 -25q22 -23 34 -52.5t12 -61.5
q0 -26 -7 -50t-23 -45t-43 -38.5t-66 -30.5zM292 316q-10 9 -23.5 21t-26.5 24.5t-23.5 23.5t-14.5 17q-26 -15 -39 -38t-13 -50q0 -40 25 -71t73 -74q4 -4 17 -15.5t27.5 -25t27 -25.5t15.5 -15q28 17 44 44.5t16 62.5v28z" />
    <glyph glyph-name="dieresis" unicode="&#xa8;" horiz-adv-x="501" 
d="M178 688l42 -6l-2 -49l-18 -44l-40 -5l-46 5l3 51l18 42zM353 688l42 -6l-1 -49l-18 -44l-41 -5l-46 5l3 51l19 42z" />
    <glyph glyph-name="copyright" unicode="&#xa9;" horiz-adv-x="840" 
d="M436 18q61 0 116.5 22t97.5 64t67 102.5t25 137.5q0 87 -30 151t-75.5 106t-99 62t-99.5 20q-60 0 -115.5 -22t-98 -64t-67.5 -103t-25 -138q0 -87 30 -150.5t75.5 -105.5t99 -62t99.5 -20zM438 -15q-74 1 -141 26t-118 72.5t-81 116t-30 156.5q0 79 26.5 140.5t75 106
t116 72.5t150.5 40q74 -1 141 -26t118 -72.5t81 -116t30 -156.5q0 -79 -26.5 -140.5t-74.5 -106t-116 -72.5t-151 -40zM606 282l-6 -101q-32 -13 -68 -24t-82 -16q-44 0 -83.5 13t-69.5 38t-48 62.5t-18 86.5q0 50 16 88t46 65t72.5 43t95.5 22q47 0 81.5 -11.5t59.5 -25.5
v-97h-24l-34 74q-14 14 -34 25.5t-52 11.5q-57 0 -93.5 -45t-36.5 -135q0 -39 8.5 -73.5t26 -60.5t43 -41t58.5 -15q26 0 45 9.5t33 22.5l40 84h24z" />
    <glyph glyph-name="ordfeminine" unicode="&#xaa;" horiz-adv-x="424" 
d="M139 493q0 -35 11.5 -63t31.5 -45l82 62l37 196q-16 11 -38.5 17.5t-41.5 6.5q-37 -26 -59.5 -72t-22.5 -102zM340 364l70 45l10 -15l-111 -84l-65 28l13 66l8 20l-126 -113q-41 14 -67 48t-26 96q0 76 45 134t122 93l62 31q26 -1 61 -10t65 -22z" />
    <glyph glyph-name="guillemotleft" unicode="&#xab;" horiz-adv-x="489" 
d="M365 15l-142 220l221 220h40l-167 -220l89 -220h-41zM177 15l-142 220l221 220h40l-167 -220l90 -220h-42z" />
    <glyph glyph-name="logicalnot" unicode="&#xac;" 
d="M567 180h-48v136h-467v48h515v-184z" />
    <glyph glyph-name="softhyphen" unicode="&#xad;" horiz-adv-x="366" 
d="M43 305h298l-9 -52h-298z" />
    <glyph glyph-name="registered" unicode="&#xae;" horiz-adv-x="588" 
d="M326 185q-51 0 -96.5 17.5t-80.5 50t-55.5 79.5t-20.5 107q0 54 18 96t51 72.5t79.5 50t102.5 27.5q51 0 96.5 -17.5t80.5 -49.5t55.5 -79.5t20.5 -107.5q0 -54 -18 -96t-51 -72.5t-79.5 -50t-102.5 -27.5zM324 207q42 0 79.5 14.5t66.5 43t46 70.5t17 96q0 61 -20.5 105
t-51.5 72.5t-67.5 42t-67.5 13.5q-42 0 -79.5 -15t-66.5 -43.5t-46 -70.5t-17 -96q0 -60 20.5 -104t51.5 -72.5t67 -42t68 -13.5zM196 315l29 4v236l-29 3l1 14h151q35 0 61 -16.5t26 -49.5t-29 -50.5t-74 -23.5l58 -17l62 -95l18 -5v-13h-83l-74 123l-3 2h-21v-108l28 -4
l-1 -13h-119zM289 443h21q26 0 41 15.5t15 44.5q0 26 -14 40.5t-35 14.5l-28 -2v-113z" />
    <glyph glyph-name="macron" unicode="&#xaf;" horiz-adv-x="493" 
d="M109 662h286l-9 -53h-287z" />
    <glyph glyph-name="degree" unicode="&#xb0;" horiz-adv-x="380" 
d="M104 598q0 32 10.5 56t30.5 42t49 31.5t66 25.5q31 0 59.5 -12.5t49.5 -33.5t33.5 -49t12.5 -60q0 -64 -36 -101t-119 -55q-32 0 -60.5 12.5t-49.5 33.5t-33.5 49.5t-12.5 60.5zM156 598q0 -22 8.5 -41.5t22.5 -34t33 -23t40 -8.5q22 0 40.5 8.5t32.5 23t22 34t8 41.5
q0 21 -8 40.5t-22.5 34t-33 23t-39.5 8.5q-22 0 -41 -8.5t-33 -23t-22 -34t-8 -40.5z" />
    <glyph glyph-name="plusminus" unicode="&#xb1;" 
d="M282 137v229h-233v49h233v237h48v-237h234v-49h-234v-229h-48zM48 49h523v-49h-523v49z" />
    <glyph glyph-name="twosuperior" unicode="&#xb2;" horiz-adv-x="351" 
d="M57 400l-6 18l124 105q53 43 87 85.5t34 90.5q0 29 -12 47.5t-35 21.5l-28 -8l-37 -77h-53l6 69l140 43q58 0 84.5 -24.5t26.5 -62.5q0 -29 -13 -54t-34.5 -47.5t-49.5 -42.5t-57 -38l-111 -70l52 11h187v-18l-30 -49h-275z" />
    <glyph glyph-name="threesuperior" unicode="&#xb3;" horiz-adv-x="307" 
d="M49 398l13 69h138q20 14 29 30.5t9 36.5q0 23 -19.5 40t-63.5 18l-4 14l37 19q74 35 74 96q0 19 -10.5 31t-26.5 14l-28 -7l-36 -74h-56l7 68l143 42q52 0 73.5 -19t21.5 -45q0 -20 -10 -35.5t-26.5 -27.5t-38 -21t-45.5 -14q54 -5 78 -26.5t24 -49.5q0 -27 -14 -46.5
t-36 -34t-47.5 -24.5t-48.5 -18l-87 -36h-50z" />
    <glyph glyph-name="acute" unicode="&#xb4;" horiz-adv-x="497" 
d="M153 551l84 174h111l-162 -174h-33z" />
    <glyph glyph-name="uni00B5" unicode="&#xb5;" 
d="M169 -230h-111l123 703h108l-62 -348q-5 -30 4.5 -43.5t27.5 -13.5t38 11.5t43 26.5l37 25l60 342h108l-74 -424l89 56l13 -17l-144 -104l-70 34l11 68l8 17l-163 -119q-29 0 -49.5 9t-30.5 25l-4 -49z" />
    <glyph glyph-name="paragraph" unicode="&#xb6;" horiz-adv-x="530" 
d="M483 700v-33l-50 -8v-818h-46v820h-123v-820h-46v553q-33 0 -63 9t-53 27t-37 44.5t-14 60.5q0 27 13 50.5t34.5 43.5t50 37.5t59.5 33.5h275z" />
    <glyph glyph-name="periodcentered" unicode="&#xb7;" horiz-adv-x="441" 
d="M290 465l30 -6l-4 -59l-17 -53l-80 -5l-30 5l5 61l16 51z" />
    <glyph glyph-name="cedilla" unicode="&#xb8;" horiz-adv-x="570" 
d="M320 14l21 -9l-39 -50q35 -3 56.5 -21.5t21.5 -48.5q0 -23 -10.5 -39.5t-26 -29t-34.5 -21.5t-35 -15l-66 -23h-42l30 43h80q15 10 24 25t9 34q0 32 -20.5 44t-45.5 13z" />
    <glyph glyph-name="onesuperior" unicode="&#xb9;" horiz-adv-x="303" 
d="M194 400l-127 -1l2 21l85 6l58 300l6 9l-16 -9l-77 -20l-5 21l160 61h31l-70 -362l82 -6l-4 -21z" />
    <glyph glyph-name="ordmasculine" unicode="&#xba;" horiz-adv-x="416" 
d="M269 713q29 0 55.5 -10t46 -29.5t31 -49t11.5 -67.5q0 -72 -40 -131.5t-118 -91.5l-57 -23q-29 0 -55 10t-46 29.5t-31.5 48.5t-11.5 68q0 72 40 131t118 91zM233 675q-22 -10 -37.5 -31t-25 -47t-13.5 -54.5t-4 -54.5q0 -68 23.5 -100.5t56.5 -40.5q22 10 37.5 31.5
t25 47.5t14 55t4.5 55q0 68 -23.5 99.5t-57.5 39.5z" />
    <glyph glyph-name="guillemotright" unicode="&#xbb;" horiz-adv-x="507" 
d="M27 15l166 220l-89 220h41l143 -220l-220 -220h-41zM215 15l166 220l-89 220h40l144 -220l-220 -220h-41z" />
    <glyph glyph-name="onequarter" unicode="&#xbc;" horiz-adv-x="799" 
d="M172 -50h-49l521 760h47zM232 342l82 -6l-4 -21l-125 1l-127 -1l2 21l85 6l58 300l6 8l-17 -8l-76 -20l-6 20l160 61h32zM664 155h72l-6 -37h-73l-23 -118h-80l23 118h-151l-12 26l223 246h97l-4 -21l-282 -223l23 9h112l12 58l75 47h15z" />
    <glyph glyph-name="onehalf" unicode="&#xbd;" horiz-adv-x="811" 
d="M172 -50h-49l521 760h47zM232 342l82 -6l-4 -21l-125 1l-127 -1l2 21l85 6l58 300l6 8l-17 -8l-76 -20l-6 20l160 61h32zM753 309q0 -29 -13 -54.5t-34.5 -47.5t-49.5 -42t-57 -38l-111 -70l52 11h187v-19l-29 -49h-276l-6 18l124 105q54 44 87.5 86t33.5 91
q0 28 -12 46.5t-35 21.5l-27 -8l-37 -77h-54l6 69l140 43q58 0 84.5 -24t26.5 -62z" />
    <glyph glyph-name="threequarters" unicode="&#xbe;" horiz-adv-x="772" 
d="M149 -50h-49l521 760h47zM638 155h73l-8 -37h-73l-22 -118h-80l22 118h-151l-11 26l223 246h96l-3 -21l-283 -223l23 9h113l11 58l76 47h14zM59 313l13 69h138q39 27 39 68q0 23 -20 40t-63 18l-5 14l37 19q36 17 54.5 41.5t18.5 53.5q0 20 -10 31.5t-25 13.5l-28 -7
l-36 -73h-57l7 67l143 42q51 0 73 -18.5t21 -44.5q0 -20 -9.5 -35.5t-26 -28t-38 -21t-45.5 -14.5q55 -5 78.5 -26t23.5 -49q0 -27 -14 -47t-35.5 -34t-47.5 -24.5t-49 -18.5l-86 -36h-51z" />
    <glyph glyph-name="questiondown" unicode="&#xbf;" horiz-adv-x="420" 
d="M257 352l-29 6l5 56l15 51l78 6l28 -6l-4 -58l-16 -49zM265 128l-72 -43q-48 -29 -75 -72.5t-27 -94.5q0 -22 5 -43t14.5 -38.5t24.5 -29.5t35 -15l23 8l47 109h60l-5 -101l-157 -52q-38 0 -69.5 12t-54 32.5t-34.5 48.5t-12 60q0 65 42.5 108.5t118.5 70.5l67 27l49 137
h38z" />
    <glyph glyph-name="Agrave" unicode="&#xc0;" horiz-adv-x="680" 
d="M464 764l-104 139h111l27 -139h-34zM226 273h205l-23 298l1 35zM172 -1l-100 2l-97 -2l2 28l71 9l369 651l100 29l66 -680l69 -9l-6 -28l-145 2l-133 -2l1 28l82 10l-17 201h-226l-111 -201l81 -10z" />
    <glyph glyph-name="Aacute" unicode="&#xc1;" horiz-adv-x="680" 
d="M450 764l58 139h116l-138 -139h-36zM226 273h205l-23 298l1 35zM172 -1l-100 2l-97 -2l2 28l71 9l369 651l100 29l66 -680l69 -9l-6 -28l-145 2l-133 -2l1 28l82 10l-17 201h-226l-111 -201l81 -10z" />
    <glyph glyph-name="Acircumflex" unicode="&#xc2;" horiz-adv-x="680" 
d="M339 764l136 143h65l82 -143h-40l-85 79h-2l-116 -79h-40zM226 273h205l-23 298l1 35zM172 -1l-100 2l-97 -2l2 28l71 9l369 651l100 29l66 -680l69 -9l-6 -28l-145 2l-133 -2l1 28l82 10l-17 201h-226l-111 -201l81 -10z" />
    <glyph glyph-name="Atilde" unicode="&#xc3;" horiz-adv-x="682" 
d="M374 879l61 19l164 -68l49 67h19l-51 -113l-60 -16l-164 68l-49 -66h-18zM226 273h205l-23 298l1 35zM172 -1l-100 2l-97 -2l2 28l71 9l369 651l100 29l66 -680l69 -9l-6 -28l-145 2l-133 -2l1 28l82 10l-17 201h-226l-111 -201l81 -10z" />
    <glyph glyph-name="Adieresis" unicode="&#xc4;" horiz-adv-x="680" 
d="M405 878l44 -5l-2 -50l-18 -45l-43 -6l-46 6l3 52l19 43zM608 878l44 -5l-1 -50l-18 -45l-43 -6l-45 6l2 52l19 43zM226 273h205l-23 298l1 35zM172 -1l-100 2l-97 -2l2 28l71 9l369 651l100 29l66 -680l69 -9l-6 -28l-145 2l-133 -2l1 28l82 10l-17 201h-226l-111 -201
l81 -10z" />
    <glyph glyph-name="Aring" unicode="&#xc5;" horiz-adv-x="680" 
d="M591 842q0 -25 -8.5 -41t-23 -26.5t-34 -17.5t-41.5 -14q-20 0 -40 5t-35.5 16.5t-25 30.5t-9.5 46q0 24 9 40.5t24.5 28t35 19t40.5 13.5q22 0 41.5 -5t34.5 -16.5t23.5 -31t8.5 -47.5zM417 841q0 -29 19 -47t48 -18q28 0 47 18t19 47t-19 48.5t-47 19.5
q-29 0 -48 -19.5t-19 -48.5zM226 273h205l-23 298l1 35zM172 -1l-100 2l-97 -2l2 28l71 9l369 651l100 29l66 -680l69 -9l-6 -28l-145 2l-133 -2l1 28l82 10l-17 201h-226l-111 -201l81 -10z" />
    <glyph glyph-name="AE" unicode="&#xc6;" horiz-adv-x="890" 
d="M296 355h147l48 311zM-24 27l71 9l425 665l79 -2l361 2l-15 -180h-26l-45 144l-214 1l-48 -311l109 2l67 120h21l-29 -137l-15 -139h-21l-29 118l-109 2l-42 -287l228 2l87 157h28l-39 -194l-374 2l-130 -2v28l78 10l43 284h-161l-178 -284l81 -10l-7 -28l-103 2l-95 -2z
" />
    <glyph glyph-name="Ccedilla" unicode="&#xc7;" horiz-adv-x="627" 
d="M208 -200h81q32 21 32 59q0 32 -20.5 44t-45.5 13l53 67q-59 4 -106.5 28t-81.5 63t-52 92.5t-18 118.5q0 58 16 118.5t51 114.5t90.5 98t134.5 71l99 32q66 0 113 -19t76 -39l-8 -173h-36l-36 122q-25 21 -66 37t-103 24q-96 -41 -145 -132.5t-49 -214.5
q0 -65 14.5 -116t41 -87.5t62.5 -59t78 -30.5q67 26 112 60l75 137h37l-37 -176l-233 -70l-23 -27q36 -3 57.5 -21.5t21.5 -48.5q0 -23 -10.5 -39.5t-26.5 -29t-35 -21.5t-35 -15l-65 -23h-43z" />
    <glyph glyph-name="Egrave" unicode="&#xc8;" horiz-adv-x="587" 
d="M390 764l-104 139h111l27 -139h-34zM-6 27l77 10l98 627l-74 10l5 27l135 -2l374 2l-15 -182h-27l-46 146l-228 2l-44 -284l121 2l65 114h24l-28 -132l-15 -131h-24l-29 113l-119 2l-49 -317l248 2l86 155h30l-39 -192l-395 2l-132 -2z" />
    <glyph glyph-name="Eacute" unicode="&#xc9;" horiz-adv-x="587" 
d="M360 764l58 139h116l-138 -139h-36zM-6 27l77 10l98 627l-74 10l5 27l135 -2l374 2l-15 -182h-27l-46 146l-228 2l-44 -284l121 2l65 114h24l-28 -132l-15 -131h-24l-29 113l-119 2l-49 -317l248 2l86 155h30l-39 -192l-395 2l-132 -2z" />
    <glyph glyph-name="Ecircumflex" unicode="&#xca;" horiz-adv-x="587" 
d="M243 764l137 143h64l82 -143h-39l-87 79h-2l-116 -79h-39zM-6 27l77 10l98 627l-74 10l5 27l135 -2l374 2l-15 -182h-27l-46 146l-228 2l-44 -284l121 2l65 114h24l-28 -132l-15 -131h-24l-29 113l-119 2l-49 -317l248 2l86 155h30l-39 -192l-395 2l-132 -2z" />
    <glyph glyph-name="Edieresis" unicode="&#xcb;" horiz-adv-x="587" 
d="M307 878l44 -5v-50l-19 -45l-43 -6l-46 6l3 52l19 43zM511 878l44 -5l-1 -50l-18 -45l-43 -6l-46 6l3 52l19 43zM-6 27l77 10l98 627l-74 10l5 27l135 -2l374 2l-15 -182h-27l-46 146l-228 2l-44 -284l121 2l65 114h24l-28 -132l-15 -131h-24l-29 113l-119 2l-49 -317
l248 2l86 155h30l-39 -192l-395 2l-132 -2z" />
    <glyph glyph-name="Igrave" unicode="&#xcc;" horiz-adv-x="321" 
d="M244 764l-104 139h111l27 -139h-34zM368 674l-74 -10l-97 -627l73 -10l-6 -28l-135 2l-135 -2v28l78 10l98 627l-74 10l5 27l136 -2l132 2z" />
    <glyph glyph-name="Iacute" unicode="&#xcd;" horiz-adv-x="321" 
d="M282 903h117l-139 -139h-37zM368 674l-74 -10l-97 -627l73 -10l-6 -28l-135 2l-135 -2v28l78 10l98 627l-74 10l5 27l136 -2l132 2z" />
    <glyph glyph-name="Icircumflex" unicode="&#xce;" horiz-adv-x="321" 
d="M103 764l136 143h65l82 -143h-39l-86 79h-2l-117 -79h-39zM368 674l-74 -10l-97 -627l73 -10l-6 -28l-135 2l-135 -2v28l78 10l98 627l-74 10l5 27l136 -2l132 2z" />
    <glyph glyph-name="Idieresis" unicode="&#xcf;" horiz-adv-x="321" 
d="M174 878l42 -5l-1 -50l-19 -43l-40 -6l-46 6l3 50l18 43zM364 878l42 -5l-2 -50l-18 -43l-41 -6l-46 6l3 50l19 43zM368 674l-74 -10l-97 -627l73 -10l-6 -28l-135 2l-135 -2v28l78 10l98 627l-74 10l5 27l136 -2l132 2z" />
    <glyph glyph-name="Eth" unicode="&#xd0;" horiz-adv-x="673" 
d="M134 1l-140 -2v28l77 10l48 312h-77l6 33h76l44 284l-74 8l5 27l139 -2l153 2q63 0 114 -20.5t87 -58t56 -90t20 -115.5q0 -62 -17 -121t-52 -110t-88 -91.5t-126 -64.5l-91 -31zM337 45q42 24 77.5 60.5t61.5 83.5t41 102.5t15 117.5q0 61 -13.5 108.5t-37.5 80.5
t-55.5 50.5t-67.5 18.5h-65l-45 -285h116l-6 -33h-115l-47 -304h141z" />
    <glyph glyph-name="Ntilde" unicode="&#xd1;" horiz-adv-x="681" 
d="M324 879l61 19l162 -68l51 67h19l-51 -113l-61 -16l-164 68l-48 -66h-19zM613 664l-76 10l5 27l95 -2l99 2v-27l-78 -10l-104 -664h-77l-264 586l-5 45l-92 -594l79 -10l-6 -28l-98 2l-98 -2l1 28l77 10l99 625l-73 12l6 27l96 -2l94 2l235 -507l8 -45z" />
    <glyph glyph-name="Ograve" unicode="&#xd2;" horiz-adv-x="696" 
d="M420 764l-103 139h111l26 -139h-34zM186 305q0 -63 13.5 -113.5t36.5 -86t55 -56.5t70 -25q46 18 82 54.5t60.5 85.5t37 108.5t12.5 123.5t-13 114t-36.5 86t-55.5 56.5t-69 25.5q-45 -17 -81 -53.5t-61 -86t-38 -109.5t-13 -124zM414 718q63 0 114 -22t87 -62
t55.5 -96.5t19.5 -125.5q0 -59 -15.5 -120t-49 -115.5t-87.5 -98.5t-132 -69l-80 -27q-62 0 -113 22t-87 62t-56 97t-20 126q0 59 15 120.5t49 116t88 98.5t131 68z" />
    <glyph glyph-name="Oacute" unicode="&#xd3;" horiz-adv-x="696" 
d="M389 764l57 139h117l-138 -139h-36zM186 305q0 -63 13.5 -113.5t36.5 -86t55 -56.5t70 -25q46 18 82 54.5t60.5 85.5t37 108.5t12.5 123.5t-13 114t-36.5 86t-55.5 56.5t-69 25.5q-45 -17 -81 -53.5t-61 -86t-38 -109.5t-13 -124zM414 718q63 0 114 -22t87 -62
t55.5 -96.5t19.5 -125.5q0 -59 -15.5 -120t-49 -115.5t-87.5 -98.5t-132 -69l-80 -27q-62 0 -113 22t-87 62t-56 97t-20 126q0 59 15 120.5t49 116t88 98.5t131 68z" />
    <glyph glyph-name="Ocircumflex" unicode="&#xd4;" horiz-adv-x="696" 
d="M291 764l137 143h64l83 -143h-39l-87 79h-3l-116 -79h-39zM186 305q0 -63 13.5 -113.5t36.5 -86t55 -56.5t70 -25q46 18 82 54.5t60.5 85.5t37 108.5t12.5 123.5t-13 114t-36.5 86t-55.5 56.5t-69 25.5q-45 -17 -81 -53.5t-61 -86t-38 -109.5t-13 -124zM414 718
q63 0 114 -22t87 -62t55.5 -96.5t19.5 -125.5q0 -59 -15.5 -120t-49 -115.5t-87.5 -98.5t-132 -69l-80 -27q-62 0 -113 22t-87 62t-56 97t-20 126q0 59 15 120.5t49 116t88 98.5t131 68z" />
    <glyph glyph-name="Otilde" unicode="&#xd5;" horiz-adv-x="696" 
d="M329 879l62 19l163 -68l51 67h17l-50 -113l-60 -16l-165 68l-48 -66h-19zM186 305q0 -63 13.5 -113.5t36.5 -86t55 -56.5t70 -25q46 18 82 54.5t60.5 85.5t37 108.5t12.5 123.5t-13 114t-36.5 86t-55.5 56.5t-69 25.5q-45 -17 -81 -53.5t-61 -86t-38 -109.5t-13 -124z
M414 718q63 0 114 -22t87 -62t55.5 -96.5t19.5 -125.5q0 -59 -15.5 -120t-49 -115.5t-87.5 -98.5t-132 -69l-80 -27q-62 0 -113 22t-87 62t-56 97t-20 126q0 59 15 120.5t49 116t88 98.5t131 68z" />
    <glyph glyph-name="Odieresis" unicode="&#xd6;" horiz-adv-x="696" 
d="M354 878l44 -5l-1 -50l-18 -45l-43 -6l-45 6l3 52l17 43zM558 878l45 -5l-2 -50l-18 -45l-42 -6l-47 6l3 52l19 43zM186 305q0 -63 13.5 -113.5t36.5 -86t55 -56.5t70 -25q46 18 82 54.5t60.5 85.5t37 108.5t12.5 123.5t-13 114t-36.5 86t-55.5 56.5t-69 25.5
q-45 -17 -81 -53.5t-61 -86t-38 -109.5t-13 -124zM414 718q63 0 114 -22t87 -62t55.5 -96.5t19.5 -125.5q0 -59 -15.5 -120t-49 -115.5t-87.5 -98.5t-132 -69l-80 -27q-62 0 -113 22t-87 62t-56 97t-20 126q0 59 15 120.5t49 116t88 98.5t131 68z" />
    <glyph glyph-name="multiply" unicode="&#xd7;" 
d="M480 20l-170 169l-170 -170l-34 34l171 170l-172 171l34 34l171 -172l170 171l34 -34l-170 -170l170 -169z" />
    <glyph glyph-name="Oslash" unicode="&#xd8;" horiz-adv-x="696" 
d="M417 718q56 0 102.5 -18t81.5 -50l55 64h41l-75 -86q34 -40 52.5 -95t18.5 -121q0 -59 -15.5 -120t-49 -115.5t-87.5 -98.5t-132 -69l-80 -27q-61 0 -111 21t-86 59l-66 -77h-43l89 102q-29 39 -44 90t-15 112q0 59 15 120.5t49 116t88 98.5t131 68zM556 396q0 38 -5 71
t-14 62l-324 -374q23 -59 62 -92t89 -39q46 18 82 54.5t60.5 85.5t37 108.5t12.5 123.5zM189 305q0 -32 3.5 -60t9.5 -54l322 371q-23 51 -60 80.5t-82 35.5q-45 -17 -81 -53.5t-61 -86t-38 -109.5t-13 -124z" />
    <glyph glyph-name="Ugrave" unicode="&#xd9;" horiz-adv-x="646" 
d="M421 764l-104 139h112l26 -139h-34zM208 230q-6 -41 0 -75.5t25 -60.5t51 -40.5t76 -14.5q31 12 55.5 26.5t43 37t31 54t19.5 77.5l69 431l-78 9l6 27l100 -2l103 2l-1 -27l-78 -9l-68 -425q-7 -42 -18.5 -77.5t-32.5 -64t-53.5 -50.5t-80.5 -36l-89 -30q-65 0 -108 17.5
t-67 50.5t-30.5 79.5t2.5 103.5l66 432l-74 9l5 27l133 -2l137 2l-1 -27l-74 -9z" />
    <glyph glyph-name="Uacute" unicode="&#xda;" horiz-adv-x="646" 
d="M399 764l58 139h117l-139 -139h-36zM208 230q-6 -41 0 -75.5t25 -60.5t51 -40.5t76 -14.5q31 12 55.5 26.5t43 37t31 54t19.5 77.5l69 431l-78 9l6 27l100 -2l103 2l-1 -27l-78 -9l-68 -425q-7 -42 -18.5 -77.5t-32.5 -64t-53.5 -50.5t-80.5 -36l-89 -30q-65 0 -108 17.5
t-67 50.5t-30.5 79.5t2.5 103.5l66 432l-74 9l5 27l133 -2l137 2l-1 -27l-74 -9z" />
    <glyph glyph-name="Ucircumflex" unicode="&#xdb;" horiz-adv-x="646" 
d="M291 764l137 143h65l82 -143h-39l-87 79h-2l-116 -79h-40zM208 230q-6 -41 0 -75.5t25 -60.5t51 -40.5t76 -14.5q31 12 55.5 26.5t43 37t31 54t19.5 77.5l69 431l-78 9l6 27l100 -2l103 2l-1 -27l-78 -9l-68 -425q-7 -42 -18.5 -77.5t-32.5 -64t-53.5 -50.5t-80.5 -36
l-89 -30q-65 0 -108 17.5t-67 50.5t-30.5 79.5t2.5 103.5l66 432l-74 9l5 27l133 -2l137 2l-1 -27l-74 -9z" />
    <glyph glyph-name="Udieresis" unicode="&#xdc;" horiz-adv-x="646" 
d="M353 878l44 -5l-1 -50l-19 -45l-43 -6l-46 6l3 52l19 43zM556 878l45 -5l-2 -50l-18 -45l-43 -6l-45 6l2 52l19 43zM208 230q-6 -41 0 -75.5t25 -60.5t51 -40.5t76 -14.5q31 12 55.5 26.5t43 37t31 54t19.5 77.5l69 431l-78 9l6 27l100 -2l103 2l-1 -27l-78 -9l-68 -425
q-7 -42 -18.5 -77.5t-32.5 -64t-53.5 -50.5t-80.5 -36l-89 -30q-65 0 -108 17.5t-67 50.5t-30.5 79.5t2.5 103.5l66 432l-74 9l5 27l133 -2l137 2l-1 -27l-74 -9z" />
    <glyph glyph-name="Yacute" unicode="&#xdd;" horiz-adv-x="634" 
d="M408 764l58 139h116l-138 -139h-36zM389 347v-25l211 342l-82 10l5 27l104 -2l75 2l-1 -27l-53 -9l-240 -381l-38 -247l95 -10l-5 -28l-158 2l-156 -2v28l100 10l39 248l-154 380l-55 9l5 27l122 -2l143 2v-27l-79 -10z" />
    <glyph glyph-name="Thorn" unicode="&#xde;" horiz-adv-x="565" 
d="M127 1l-134 -2l1 28l78 10l97 628l-74 9l6 27l134 -2l133 2v-27l-76 -9l-16 -109h115q46 1 83 -10t62 -31t38.5 -48t13.5 -62q0 -79 -56 -130.5t-158 -87.5l-73 -27h-87l-19 -123l95 -10l-6 -28zM343 206q22 13 42 31t35 41t24 51.5t9 61.5q0 63 -28.5 97t-85.5 36h-69
l-49 -318h122z" />
    <glyph glyph-name="germandbls" unicode="&#xdf;" horiz-adv-x="545" 
d="M-101 -137h105q13 18 21.5 42t13.5 49l82 474h-83l4 16l21 19h64l3 21q11 57 35.5 95t59.5 58l135 79q32 0 61.5 -5.5t52 -18.5t35.5 -35t13 -56q0 -25 -9.5 -46.5t-25 -39t-35 -31.5t-39.5 -25l-54 -33q-3 -6 -5.5 -15.5t-2.5 -17.5q0 -20 9 -35.5t26 -30.5q1 -2 9 -9.5
t17 -15.5t17.5 -15.5t10.5 -9.5q35 -32 57 -62t22 -68q0 -47 -26 -77t-80 -50l-101 -36q-11 4 -26.5 11t-31.5 15t-29.5 16t-20.5 13l52 78q25 -18 58.5 -40t68.5 -41q23 7 34.5 23t11.5 35q0 32 -18 55t-51 52q-2 1 -9.5 8t-15.5 14.5t-15.5 14t-8.5 8.5q-22 20 -32 41.5
t-12 47.5q-1 17 2 30t8 24l65 59q29 26 49 58t20 77q0 23 -7 39.5t-18 27t-24 15.5t-25 5l-6 -3q-41 -27 -58.5 -59.5t-25.5 -74.5l-95 -541q-7 -41 -28 -74.5t-61 -61.5l-131 -91h-52z" />
    <glyph glyph-name="agrave" unicode="&#xe0;" horiz-adv-x="500" 
d="M350 551l-95 174h109l17 -174h-31zM148 212q0 -48 15 -82.5t43 -57.5l95 79l44 250q-20 13 -49 21t-52 8q-45 -34 -70.5 -91.5t-25.5 -126.5zM391 47l88 60l13 -18l-139 -105l-75 35l15 83l9 23l-154 -140q-25 9 -46 23.5t-36 36t-23.5 51.5t-8.5 69q0 95 53.5 167
t144.5 117l80 39q15 0 33.5 -3.5t38.5 -9t40 -12.5t38 -16z" />
    <glyph glyph-name="aacute" unicode="&#xe1;" horiz-adv-x="500" 
d="M295 551l84 174h111l-162 -174h-33zM148 212q0 -48 15 -82.5t43 -57.5l95 79l44 250q-20 13 -49 21t-52 8q-45 -34 -70.5 -91.5t-25.5 -126.5zM391 47l88 60l13 -18l-139 -105l-75 35l15 83l9 23l-154 -140q-25 9 -46 23.5t-36 36t-23.5 51.5t-8.5 69q0 95 53.5 167
t144.5 117l80 39q15 0 33.5 -3.5t38.5 -9t40 -12.5t38 -16z" />
    <glyph glyph-name="acircumflex" unicode="&#xe2;" horiz-adv-x="500" 
d="M210 551l137 178h54l72 -178h-31l-82 99h-2l-116 -99h-32zM148 212q0 -48 15 -82.5t43 -57.5l95 79l44 250q-20 13 -49 21t-52 8q-45 -34 -70.5 -91.5t-25.5 -126.5zM391 47l88 60l13 -18l-139 -105l-75 35l15 83l9 23l-154 -140q-25 9 -46 23.5t-36 36t-23.5 51.5
t-8.5 69q0 95 53.5 167t144.5 117l80 39q15 0 33.5 -3.5t38.5 -9t40 -12.5t38 -16z" />
    <glyph glyph-name="atilde" unicode="&#xe3;" horiz-adv-x="500" 
d="M234 691l61 19l164 -68l49 67h19l-51 -113l-60 -17l-164 69l-49 -67h-18zM148 212q0 -48 15 -82.5t43 -57.5l95 79l44 250q-20 13 -49 21t-52 8q-45 -34 -70.5 -91.5t-25.5 -126.5zM391 47l88 60l13 -18l-139 -105l-75 35l15 83l9 23l-154 -140q-25 9 -46 23.5t-36 36
t-23.5 51.5t-8.5 69q0 95 53.5 167t144.5 117l80 39q15 0 33.5 -3.5t38.5 -9t40 -12.5t38 -16z" />
    <glyph glyph-name="adieresis" unicode="&#xe4;" horiz-adv-x="500" 
d="M284 688l42 -6l-1 -49l-18 -44l-41 -5l-46 5l4 51l17 42zM460 688l42 -6l-2 -49l-18 -44l-41 -5l-45 5l2 51l20 42zM148 212q0 -48 15 -82.5t43 -57.5l95 79l44 250q-20 13 -49 21t-52 8q-45 -34 -70.5 -91.5t-25.5 -126.5zM391 47l88 60l13 -18l-139 -105l-75 35l15 83
l9 23l-154 -140q-25 9 -46 23.5t-36 36t-23.5 51.5t-8.5 69q0 95 53.5 167t144.5 117l80 39q15 0 33.5 -3.5t38.5 -9t40 -12.5t38 -16z" />
    <glyph glyph-name="aring" unicode="&#xe5;" horiz-adv-x="500" 
d="M479 642q0 -25 -8.5 -40.5t-23 -26t-34 -17.5t-41.5 -15q-20 0 -40 5t-35.5 16.5t-25 30t-9.5 46.5q0 24 9 40.5t24 28t34.5 19t40.5 13.5q22 0 42 -5t35 -16.5t23.5 -31t8.5 -47.5zM305 641q0 -29 18.5 -47t47.5 -18q28 0 47.5 18t19.5 47t-19.5 48.5t-47.5 19.5
q-29 0 -47.5 -19.5t-18.5 -48.5zM148 212q0 -48 15 -82.5t43 -57.5l95 79l44 250q-20 13 -49 21t-52 8q-45 -34 -70.5 -91.5t-25.5 -126.5zM391 47l88 60l13 -18l-139 -105l-75 35l15 83l9 23l-154 -140q-25 9 -46 23.5t-36 36t-23.5 51.5t-8.5 69q0 95 53.5 167t144.5 117
l80 39q15 0 33.5 -3.5t38.5 -9t40 -12.5t38 -16z" />
    <glyph glyph-name="ae" unicode="&#xe6;" horiz-adv-x="684" 
d="M505 63q13 6 29 14t33 17t33.5 18t28.5 17l13 -18q-26 -19 -61 -42t-71 -44l-67 -40q-54 5 -96 39t-57 93l-142 -132q-50 18 -83 59.5t-33 120.5q0 95 53.5 167t144.5 117l80 39q31 -1 73 -14t77 -31l14 7l95 37q43 -8 70.5 -34t27.5 -76q0 -18 -3.5 -37t-13.5 -44
l-254 -76v-10q5 -66 36.5 -101t72.5 -46zM147 212q0 -48 15 -82.5t44 -57.5l78 66q-1 5 -1 10v10q-4 63 18 123t70 105q-29 18 -64 31t-65 13q-45 -34 -70 -91.5t-25 -126.5zM499 438q-38 -21 -59 -60.5t-31 -83.5q-12 -22 -13 -52l143 53q7 18 9 33.5t2 31.5q0 33 -14.5 53
t-36.5 25z" />
    <glyph glyph-name="ccedilla" unicode="&#xe7;" horiz-adv-x="425" 
d="M87 -243h-43l31 43h79q16 10 25 25t9 34q0 32 -21 44t-46 13l57 72q-28 5 -54 19.5t-45.5 38.5t-31 56.5t-11.5 72.5q0 93 51.5 160t151.5 113l82 40q21 -2 51 -13t53 -25l-57 -89q-29 20 -60 35.5t-61 27.5q-51 -32 -73 -83t-22 -109q0 -70 30.5 -111.5t75.5 -57.5
q12 5 27 13.5t31.5 17.5t31.5 18t27 17l14 -18q-26 -20 -57 -40.5t-66 -43.5l-60 -41l-25 -31q35 -3 56.5 -21.5t21.5 -48.5q0 -23 -10.5 -39.5t-26 -29t-34.5 -21.5t-36 -15z" />
    <glyph glyph-name="egrave" unicode="&#xe8;" horiz-adv-x="439" 
d="M259 63q13 6 29.5 14t33.5 17t33 18t28 17l13 -18q-26 -19 -61 -42t-71 -44l-66 -40q-33 3 -62.5 17t-51.5 38.5t-35 58.5t-13 76q0 44 12.5 86t37 78t61 65.5t85.5 48.5l91 34q44 -8 71.5 -34t27.5 -76q0 -18 -3.5 -37t-14.5 -44l-254 -77v-10q5 -63 36.5 -98.5
t72.5 -47.5zM253 438q-47 -26 -73.5 -75.5t-29.5 -111.5q0 -4 1 -9l142 55q7 17 9.5 32t2.5 31q0 33 -15 53t-37 25zM294 551l-95 174h109l18 -174h-32z" />
    <glyph glyph-name="eacute" unicode="&#xe9;" horiz-adv-x="439" 
d="M259 63q13 6 29.5 14t33.5 17t33 18t28 17l13 -18q-26 -19 -61 -42t-71 -44l-66 -40q-33 3 -62.5 17t-51.5 38.5t-35 58.5t-13 76q0 44 12.5 86t37 78t61 65.5t85.5 48.5l91 34q44 -8 71.5 -34t27.5 -76q0 -18 -3.5 -37t-14.5 -44l-254 -77v-10q5 -63 36.5 -98.5
t72.5 -47.5zM253 438q-47 -26 -73.5 -75.5t-29.5 -111.5q0 -4 1 -9l142 55q7 17 9.5 32t2.5 31q0 33 -15 53t-37 25zM260 551l84 174h110l-162 -174h-32z" />
    <glyph glyph-name="ecircumflex" unicode="&#xea;" horiz-adv-x="439" 
d="M259 63q13 6 29.5 14t33.5 17t33 18t28 17l13 -18q-26 -19 -61 -42t-71 -44l-66 -40q-33 3 -62.5 17t-51.5 38.5t-35 58.5t-13 76q0 44 12.5 86t37 78t61 65.5t85.5 48.5l91 34q44 -8 71.5 -34t27.5 -76q0 -18 -3.5 -37t-14.5 -44l-254 -77v-10q5 -63 36.5 -98.5
t72.5 -47.5zM253 438q-47 -26 -73.5 -75.5t-29.5 -111.5q0 -4 1 -9l142 55q7 17 9.5 32t2.5 31q0 33 -15 53t-37 25zM173 551l136 178h55l73 -178h-33l-81 99h-2l-116 -99h-32z" />
    <glyph glyph-name="edieresis" unicode="&#xeb;" horiz-adv-x="439" 
d="M259 63q13 6 29.5 14t33.5 17t33 18t28 17l13 -18q-26 -19 -61 -42t-71 -44l-66 -40q-33 3 -62.5 17t-51.5 38.5t-35 58.5t-13 76q0 44 12.5 86t37 78t61 65.5t85.5 48.5l91 34q44 -8 71.5 -34t27.5 -76q0 -18 -3.5 -37t-14.5 -44l-254 -77v-10q5 -63 36.5 -98.5
t72.5 -47.5zM253 438q-47 -26 -73.5 -75.5t-29.5 -111.5q0 -4 1 -9l142 55q7 17 9.5 32t2.5 31q0 33 -15 53t-37 25zM413 688l41 -6l-2 -49l-17 -44l-41 -5l-46 5l2 51l20 42zM237 688l42 -6l-1 -49l-19 -44l-41 -5l-45 5l3 51l18 42z" />
    <glyph glyph-name="igrave" unicode="&#xec;" horiz-adv-x="290" 
d="M210 551l-96 174h110l17 -174h-31zM39 392l-7 20l182 75l27 -25l-72 -415l87 60l13 -17l-140 -106l-74 36l71 402z" />
    <glyph glyph-name="iacute" unicode="&#xed;" horiz-adv-x="290" 
d="M160 551l84 174h111l-162 -174h-33zM39 392l-7 20l182 75l27 -25l-72 -415l87 60l13 -17l-140 -106l-74 36l71 402z" />
    <glyph glyph-name="icircumflex" unicode="&#xee;" horiz-adv-x="290" 
d="M66 551l137 178h55l72 -178h-32l-82 99h-1l-117 -99h-32zM39 392l-7 20l182 75l27 -25l-72 -415l87 60l13 -17l-140 -106l-74 36l71 402z" />
    <glyph glyph-name="idieresis" unicode="&#xef;" horiz-adv-x="290" 
d="M135 688l42 -6l-1 -49l-18 -44l-41 -5l-46 5l3 51l18 42zM311 688l42 -6l-2 -49l-18 -44l-41 -5l-45 5l2 51l19 42zM39 392l-7 20l182 75l27 -25l-72 -415l87 60l13 -17l-140 -106l-74 36l71 402z" />
    <glyph glyph-name="eth" unicode="&#xf0;" horiz-adv-x="504" 
d="M284 489q3 -1 16 -8.5t28 -16.5t27 -16.5t14 -8.5q-2 42 -22 87t-52 81l-120 -59v32l97 47q-45 44 -102 60l10 31q85 -26 140 -65l113 56v-32l-87 -43q43 -34 70 -74t42.5 -81t21.5 -81.5t6 -76.5q0 -65 -15.5 -115.5t-43.5 -88t-65.5 -64t-82.5 -44.5l-64 -24
q-42 4 -75 21.5t-56 46t-35.5 66t-12.5 81.5q0 42 12 83t35.5 76t59 63.5t82.5 45.5zM363 392q-11 7 -25.5 13.5t-29 11t-27 7.5t-19.5 3q-27 -9 -47.5 -31.5t-33.5 -53.5t-19.5 -67t-6.5 -72q0 -43 8 -73.5t21 -51.5t29.5 -32.5t33.5 -17.5q32 13 54.5 39.5t37 63.5
t21.5 83t7 98z" />
    <glyph glyph-name="ntilde" unicode="&#xf1;" horiz-adv-x="540" 
d="M230 691l62 19l162 -68l51 67h18l-50 -113l-61 -17l-165 69l-48 -67h-18zM160 0h-108l74 422l-86 -30l-8 20l182 75l27 -25l-12 -72l-8 -16l165 114q63 0 86.5 -32t13.5 -86l-57 -323l88 60l13 -18l-140 -105l-75 36l58 324q5 28 -2.5 44t-31.5 16q-18 0 -39 -9.5
t-43 -25.5l-36 -24z" />
    <glyph glyph-name="ograve" unicode="&#xf2;" horiz-adv-x="489" 
d="M299 551l-95 174h109l18 -174h-32zM297 488q35 0 67 -12.5t56 -37t38 -61t14 -84.5q0 -90 -48.5 -164.5t-142.5 -113.5l-71 -30q-35 0 -66.5 12.5t-55.5 37.5t-38 61.5t-14 84.5q0 90 48 163t142 113zM254 443q-29 -13 -48.5 -39t-31.5 -59t-17 -69t-5 -69q0 -42 8 -73.5
t22 -52.5t32 -33.5t39 -17.5q28 12 48 38.5t32 59.5t17.5 69.5t5.5 69.5q0 43 -8 73.5t-21.5 51.5t-32.5 33.5t-40 17.5z" />
    <glyph glyph-name="oacute" unicode="&#xf3;" horiz-adv-x="489" 
d="M275 551l85 174h111l-163 -174h-33zM297 488q35 0 67 -12.5t56 -37t38 -61t14 -84.5q0 -90 -48.5 -164.5t-142.5 -113.5l-71 -30q-35 0 -66.5 12.5t-55.5 37.5t-38 61.5t-14 84.5q0 90 48 163t142 113zM254 443q-29 -13 -48.5 -39t-31.5 -59t-17 -69t-5 -69
q0 -42 8 -73.5t22 -52.5t32 -33.5t39 -17.5q28 12 48 38.5t32 59.5t17.5 69.5t5.5 69.5q0 43 -8 73.5t-21.5 51.5t-32.5 33.5t-40 17.5z" />
    <glyph glyph-name="ocircumflex" unicode="&#xf4;" horiz-adv-x="489" 
d="M184 551l136 178h54l73 -178h-32l-81 99h-2l-116 -99h-32zM297 488q35 0 67 -12.5t56 -37t38 -61t14 -84.5q0 -90 -48.5 -164.5t-142.5 -113.5l-71 -30q-35 0 -66.5 12.5t-55.5 37.5t-38 61.5t-14 84.5q0 90 48 163t142 113zM254 443q-29 -13 -48.5 -39t-31.5 -59
t-17 -69t-5 -69q0 -42 8 -73.5t22 -52.5t32 -33.5t39 -17.5q28 12 48 38.5t32 59.5t17.5 69.5t5.5 69.5q0 43 -8 73.5t-21.5 51.5t-32.5 33.5t-40 17.5z" />
    <glyph glyph-name="otilde" unicode="&#xf5;" horiz-adv-x="489" 
d="M218 691l61 19l163 -68l50 67h19l-51 -113l-60 -17l-165 69l-48 -67h-19zM297 488q35 0 67 -12.5t56 -37t38 -61t14 -84.5q0 -90 -48.5 -164.5t-142.5 -113.5l-71 -30q-35 0 -66.5 12.5t-55.5 37.5t-38 61.5t-14 84.5q0 90 48 163t142 113zM254 443q-29 -13 -48.5 -39
t-31.5 -59t-17 -69t-5 -69q0 -42 8 -73.5t22 -52.5t32 -33.5t39 -17.5q28 12 48 38.5t32 59.5t17.5 69.5t5.5 69.5q0 43 -8 73.5t-21.5 51.5t-32.5 33.5t-40 17.5z" />
    <glyph glyph-name="odieresis" unicode="&#xf6;" horiz-adv-x="489" 
d="M264 688l42 -6l-1 -49l-19 -44l-40 -5l-46 5l3 51l18 42zM440 688l42 -6l-2 -49l-18 -44l-41 -5l-46 5l3 51l19 42zM297 488q35 0 67 -12.5t56 -37t38 -61t14 -84.5q0 -90 -48.5 -164.5t-142.5 -113.5l-71 -30q-35 0 -66.5 12.5t-55.5 37.5t-38 61.5t-14 84.5
q0 90 48 163t142 113zM254 443q-29 -13 -48.5 -39t-31.5 -59t-17 -69t-5 -69q0 -42 8 -73.5t22 -52.5t32 -33.5t39 -17.5q28 12 48 38.5t32 59.5t17.5 69.5t5.5 69.5q0 43 -8 73.5t-21.5 51.5t-32.5 33.5t-40 17.5z" />
    <glyph glyph-name="divide" unicode="&#xf7;" 
d="M335 121l30 -5l6 -57l-7 -50l-76 -6l-30 6l-6 58l6 49zM47 275h525v-48h-525v48zM335 490l30 -6l6 -57l-7 -49l-76 -6l-30 6l-6 58l6 48z" />
    <glyph glyph-name="oslash" unicode="&#xf8;" horiz-adv-x="489" 
d="M297 488q35 0 67.5 -12.5t56.5 -38.5l42 46h36l-62 -66q17 -24 26 -55t9 -69q0 -90 -48.5 -164.5t-142.5 -113.5l-71 -30q-37 0 -69 13.5t-56 39.5l-43 -46h-37l63 67q-15 23 -23.5 53.5t-8.5 68.5q0 90 48 163t142 113zM356 267q0 29 -5 57l-188 -202q13 -42 37 -63.5
t53 -28.5q28 12 48 38.5t32 59.5t17.5 69.5t5.5 69.5zM254 443q-29 -13 -48.5 -39t-31.5 -59t-17 -69t-5 -69q0 -15 1 -28.5t3 -25.5l188 202q-13 39 -37 59.5t-53 28.5z" />
    <glyph glyph-name="ugrave" unicode="&#xf9;" horiz-adv-x="536" 
d="M322 551l-96 174h110l17 -174h-31zM166 -15q-63 0 -86 32.5t-14 85.5l58 320l-88 -29l-8 20l183 73l27 -25l-60 -337q-5 -30 4.5 -43.5t26.5 -13.5q19 0 39 11.5t43 26.5l36 25l60 342h109l-75 -426l89 58l13 -17l-144 -104l-69 33l11 68l8 18z" />
    <glyph glyph-name="uacute" unicode="&#xfa;" horiz-adv-x="536" 
d="M281 551l84 174h111l-162 -174h-33zM166 -15q-63 0 -86 32.5t-14 85.5l58 320l-88 -29l-8 20l183 73l27 -25l-60 -337q-5 -30 4.5 -43.5t26.5 -13.5q19 0 39 11.5t43 26.5l36 25l60 342h109l-75 -426l89 58l13 -17l-144 -104l-69 33l11 68l8 18z" />
    <glyph glyph-name="ucircumflex" unicode="&#xfb;" horiz-adv-x="536" 
d="M203 551l136 178h55l72 -178h-32l-81 99h-2l-116 -99h-32zM166 -15q-63 0 -86 32.5t-14 85.5l58 320l-88 -29l-8 20l183 73l27 -25l-60 -337q-5 -30 4.5 -43.5t26.5 -13.5q19 0 39 11.5t43 26.5l36 25l60 342h109l-75 -426l89 58l13 -17l-144 -104l-69 33l11 68l8 18z
" />
    <glyph glyph-name="udieresis" unicode="&#xfc;" horiz-adv-x="536" 
d="M276 688l42 -5l-1 -50l-18 -43l-41 -5l-46 5l3 51l18 42zM451 688l42 -5l-1 -50l-18 -43l-41 -5l-45 5l2 51l19 42zM166 -15q-63 0 -86 32.5t-14 85.5l58 320l-88 -29l-8 20l183 73l27 -25l-60 -337q-5 -30 4.5 -43.5t26.5 -13.5q19 0 39 11.5t43 26.5l36 25l60 342h109
l-75 -426l89 58l13 -17l-144 -104l-69 33l11 68l8 18z" />
    <glyph glyph-name="yacute" unicode="&#xfd;" horiz-adv-x="473" 
d="M252 551l84 174h111l-162 -174h-33zM239 20l-91 -18l-60 420l-86 -30l-9 19l168 77l38 -22l53 -422l163 295l-80 90l94 59l39 -43l-17 -118l-168 -297l-164 -266l-125 1l20 108h106z" />
    <glyph glyph-name="thorn" unicode="&#xfe;" horiz-adv-x="512" 
d="M78 635l-7 22l190 58l25 -20l-54 -305l-9 -23l145 121q54 -11 89.5 -55t35.5 -123q0 -44 -11.5 -86.5t-34 -80t-55.5 -67.5t-76 -50l-85 -41q-16 2 -35 8t-34 13l-2 -29l-37 -207h-107l155 889zM223 339l-46 -262q23 -18 51.5 -28t51.5 -11q28 15 46.5 40.5t29.5 55.5
t16 62.5t5 62.5q0 60 -19 95.5t-49 48.5z" />
    <glyph glyph-name="ydieresis" unicode="&#xff;" horiz-adv-x="473" 
d="M249 688l43 -6l-2 -49l-18 -44l-41 -5l-46 5l4 51l18 42zM425 688l42 -6l-1 -49l-19 -44l-41 -5l-45 5l3 51l19 42zM239 20l-91 -18l-60 420l-86 -30l-9 19l168 77l38 -22l53 -422l163 295l-80 90l94 59l39 -43l-17 -118l-168 -297l-164 -266l-125 1l20 108h106z" />
    <glyph glyph-name="Amacron" unicode="&#x100;" horiz-adv-x="680" 
d="M353 853h286l-9 -53h-287zM226 273h205l-23 298l1 35zM172 -1l-100 2l-97 -2l2 28l71 9l369 651l100 29l66 -680l69 -9l-6 -28l-145 2l-133 -2l1 28l82 10l-17 201h-226l-111 -201l81 -10z" />
    <glyph glyph-name="amacron" unicode="&#x101;" horiz-adv-x="500" 
d="M230 662h287l-10 -53h-287zM148 212q0 -48 15 -82.5t43 -57.5l95 79l44 250q-20 13 -49 21t-52 8q-45 -34 -70.5 -91.5t-25.5 -126.5zM391 47l88 60l13 -18l-139 -105l-75 35l15 83l9 23l-154 -140q-25 9 -46 23.5t-36 36t-23.5 51.5t-8.5 69q0 95 53.5 167t144.5 117
l80 39q15 0 33.5 -3.5t38.5 -9t40 -12.5t38 -16z" />
    <glyph glyph-name="Abreve" unicode="&#x102;" horiz-adv-x="680" 
d="M481 828q24 0 44.5 7t37 17t29.5 21.5t21 20.5l18 -15q-11 -16 -22.5 -32t-28.5 -31t-40.5 -30t-57.5 -29q-31 0 -54 11t-39.5 28.5t-27.5 39t-17 42.5l22 15q6 -9 16 -20.5t24 -21t32.5 -16.5t42.5 -7zM226 273h205l-23 298l1 35zM172 -1l-100 2l-97 -2l2 28l71 9
l369 651l100 29l66 -680l69 -9l-6 -28l-145 2l-133 -2l1 28l82 10l-17 201h-226l-111 -201l81 -10z" />
    <glyph glyph-name="abreve" unicode="&#x103;" horiz-adv-x="500" 
d="M363 626q24 0 43.5 8t35.5 20t28.5 25.5t20.5 25.5l19 -16q-11 -18 -22.5 -35t-28.5 -33.5t-40.5 -32t-57.5 -31.5q-30 0 -53 12t-39.5 31t-27 42.5t-16.5 45.5l25 16q6 -12 15.5 -25.5t23 -25t32 -19.5t42.5 -8zM148 212q0 -48 15 -82.5t43 -57.5l95 79l44 250
q-20 13 -49 21t-52 8q-45 -34 -70.5 -91.5t-25.5 -126.5zM391 47l88 60l13 -18l-139 -105l-75 35l15 83l9 23l-154 -140q-25 9 -46 23.5t-36 36t-23.5 51.5t-8.5 69q0 95 53.5 167t144.5 117l80 39q15 0 33.5 -3.5t38.5 -9t40 -12.5t38 -16z" />
    <glyph glyph-name="Aogonek" unicode="&#x104;" horiz-adv-x="678" 
d="M483 -243q-101 0 -139 25.5t-29 75.5l9 54l128 108l-16 218h-226l-114 -201l81 -10l-6 -28l-99 2l-97 -2l2 28l71 9l373 651l97 29l63 -680l69 -9l-6 -28l-179 2l-66 -113l-7 -39q-6 -33 16 -51.5t79 -18.5zM228 273h205l-22 298l2 35z" />
    <glyph glyph-name="aogonek" unicode="&#x105;" horiz-adv-x="500" 
d="M397 -243q-102 0 -139.5 25.5t-28.5 75.5l9 54l102 78l-62 29l15 83l9 23l-154 -140q-25 9 -46 23.5t-36 36t-23.5 51.5t-8.5 69q0 95 53.5 167t144.5 117l80 39q15 0 33.5 -3.5t38.5 -9t40 -12.5t38 -16l-71 -400l88 60l13 -18l-95 -72l-83 -122l-9 -46q-6 -33 16 -51.5
t80 -18.5zM345 401q-20 13 -49 21t-52 8q-45 -34 -70.5 -91.5t-25.5 -126.5q0 -48 15 -82.5t43 -57.5l95 79z" />
    <glyph glyph-name="Cacute" unicode="&#x106;" horiz-adv-x="626" 
d="M474 903h114l-135 -139h-36zM337 -18q-65 0 -118 21.5t-90.5 61.5t-58 95.5t-20.5 124.5q0 58 16 118.5t51 114.5t90.5 98t134.5 71l99 32q66 0 113 -19t76 -39l-8 -173h-36l-36 122q-26 21 -66.5 37t-102.5 24q-96 -41 -145.5 -132.5t-49.5 -214.5q0 -65 14.5 -116
t41 -87.5t62.5 -59t79 -30.5q68 26 111 60l75 137h38l-37 -176z" />
    <glyph glyph-name="cacute" unicode="&#x107;" horiz-adv-x="425" 
d="M265 551l84 174h111l-162 -174h-33zM258 63q12 5 27 13.5t31.5 17.5t31.5 18t27 17l14 -18q-26 -20 -57 -40.5t-66 -43.5l-63 -42q-32 1 -62.5 14t-53.5 37t-37 59t-14 80q0 93 51.5 160t151.5 113l82 40q21 -2 51 -13t53 -25l-57 -89q-29 20 -60 35.5t-61 27.5
q-51 -32 -73 -83t-22 -109q0 -70 30.5 -111.5t75.5 -57.5z" />
    <glyph glyph-name="Ccircumflex" unicode="&#x108;" horiz-adv-x="626" 
d="M313 764l136 143h65l82 -143h-39l-86 79h-3l-116 -79h-39zM337 -18q-65 0 -118 21.5t-90.5 61.5t-58 95.5t-20.5 124.5q0 58 16 118.5t51 114.5t90.5 98t134.5 71l99 32q66 0 113 -19t76 -39l-8 -173h-36l-36 122q-26 21 -66.5 37t-102.5 24q-96 -41 -145.5 -132.5
t-49.5 -214.5q0 -65 14.5 -116t41 -87.5t62.5 -59t79 -30.5q68 26 111 60l75 137h38l-37 -176z" />
    <glyph glyph-name="ccircumflex" unicode="&#x109;" horiz-adv-x="425" 
d="M182 551l136 178h55l72 -178h-32l-80 99h-3l-115 -99h-33zM258 63q12 5 27 13.5t31.5 17.5t31.5 18t27 17l14 -18q-26 -20 -57 -40.5t-66 -43.5l-63 -42q-32 1 -62.5 14t-53.5 37t-37 59t-14 80q0 93 51.5 160t151.5 113l82 40q21 -2 51 -13t53 -25l-57 -89
q-29 20 -60 35.5t-61 27.5q-51 -32 -73 -83t-22 -109q0 -70 30.5 -111.5t75.5 -57.5z" />
    <glyph glyph-name="Cdotaccent" unicode="&#x10a;" horiz-adv-x="626" 
d="M428 880l42 5l53 -6l-1 -54l-19 -47l-40 -5l-59 5l4 55zM337 -18q-65 0 -118 21.5t-90.5 61.5t-58 95.5t-20.5 124.5q0 58 16 118.5t51 114.5t90.5 98t134.5 71l99 32q66 0 113 -19t76 -39l-8 -173h-36l-36 122q-26 21 -66.5 37t-102.5 24q-96 -41 -145.5 -132.5
t-49.5 -214.5q0 -65 14.5 -116t41 -87.5t62.5 -59t79 -30.5q68 26 111 60l75 137h38l-37 -176z" />
    <glyph glyph-name="cdotaccent" unicode="&#x10b;" horiz-adv-x="425" 
d="M300 701l42 5l53 -5l-2 -55l-19 -47l-39 -6l-59 6l5 55zM258 63q12 5 27 13.5t31.5 17.5t31.5 18t27 17l14 -18q-26 -20 -57 -40.5t-66 -43.5l-63 -42q-32 1 -62.5 14t-53.5 37t-37 59t-14 80q0 93 51.5 160t151.5 113l82 40q21 -2 51 -13t53 -25l-57 -89
q-29 20 -60 35.5t-61 27.5q-51 -32 -73 -83t-22 -109q0 -70 30.5 -111.5t75.5 -57.5z" />
    <glyph glyph-name="Ccaron" unicode="&#x10c;" horiz-adv-x="626" 
d="M609 907l-136 -143h-66l-81 143h39l86 -78h2l116 78h40zM337 -18q-65 0 -118 21.5t-90.5 61.5t-58 95.5t-20.5 124.5q0 58 16 118.5t51 114.5t90.5 98t134.5 71l99 32q66 0 113 -19t76 -39l-8 -173h-36l-36 122q-26 21 -66.5 37t-102.5 24q-96 -41 -145.5 -132.5
t-49.5 -214.5q0 -65 14.5 -116t41 -87.5t62.5 -59t79 -30.5q68 26 111 60l75 137h38l-37 -176z" />
    <glyph glyph-name="ccaron" unicode="&#x10d;" horiz-adv-x="425" 
d="M469 731l-136 -176h-54l-74 176h32l83 -98h1l117 98h31zM258 63q12 5 27 13.5t31.5 17.5t31.5 18t27 17l14 -18q-26 -20 -57 -40.5t-66 -43.5l-63 -42q-32 1 -62.5 14t-53.5 37t-37 59t-14 80q0 93 51.5 160t151.5 113l82 40q21 -2 51 -13t53 -25l-57 -89
q-29 20 -60 35.5t-61 27.5q-51 -32 -73 -83t-22 -109q0 -70 30.5 -111.5t75.5 -57.5z" />
    <glyph glyph-name="Dcaron" unicode="&#x10e;" horiz-adv-x="673" 
d="M549 907l-137 -143h-65l-82 143h40l85 -78h3l116 78h40zM134 1l-140 -2v28l77 10l97 629l-74 8l5 27l139 -2l153 2q63 0 114 -20.5t87 -58t56 -90t20 -115.5q0 -62 -17 -121t-52 -110t-88 -91.5t-126 -64.5l-91 -31zM337 45q42 24 77.5 60.5t61.5 83.5t41 102.5t15 117.5
q0 61 -13.5 108.5t-37.5 80.5t-55.5 50.5t-67.5 18.5h-65l-97 -622h141z" />
    <glyph glyph-name="dcaron" unicode="&#x10f;" horiz-adv-x="637" 
d="M556 674l7 38h117l-13 -77l-114 -133l-27 6l64 125zM285 21l15 82l9 23l-151 -141q-26 9 -48 24t-38.5 38t-26 54t-9.5 71q0 91 49.5 163t138.5 113l84 40q24 -2 57 -14l33 185l-92 -24l-8 22l189 58l25 -20l-114 -648l88 60l13 -17l-139 -106zM308 152l45 251
q-11 6 -25 11.5t-29 9.5t-29 6.5t-26 2.5q-46 -34 -69 -93.5t-23 -124.5q0 -50 16 -83.5t46 -56.5z" />
    <glyph glyph-name="Dcroat" unicode="&#x110;" horiz-adv-x="673" 
d="M134 1l-140 -2v28l77 10l48 312h-77l6 33h76l44 284l-74 8l5 27l139 -2l153 2q63 0 114 -20.5t87 -58t56 -90t20 -115.5q0 -62 -17 -121t-52 -110t-88 -91.5t-126 -64.5l-91 -31zM337 45q42 24 77.5 60.5t61.5 83.5t41 102.5t15 117.5q0 61 -13.5 108.5t-37.5 80.5
t-55.5 50.5t-67.5 18.5h-65l-45 -285h116l-6 -33h-115l-47 -304h141z" />
    <glyph glyph-name="dcroat" unicode="&#x111;" horiz-adv-x="522" 
d="M285 21l15 82l9 23l-151 -141q-26 9 -48 24t-38.5 38t-26 54t-9.5 71q0 91 49.5 163t138.5 113l84 40q24 -2 57 -14l14 82h-118l6 27h117l14 76l-92 -24l-8 22l189 58l25 -20l-20 -112h76l-6 -27h-75l-89 -509l88 60l13 -17l-139 -106zM308 152l45 251q-11 6 -25 11.5
t-29 9.5t-29 6.5t-26 2.5q-46 -34 -69 -93.5t-23 -124.5q0 -50 16 -83.5t46 -56.5z" />
    <glyph glyph-name="Emacron" unicode="&#x112;" horiz-adv-x="587" 
d="M256 853h287l-10 -53h-286zM-6 27l77 10l98 627l-74 10l5 27l135 -2l374 2l-15 -182h-27l-46 146l-228 2l-44 -284l121 2l65 114h24l-28 -132l-15 -131h-24l-29 113l-119 2l-49 -317l248 2l86 155h30l-39 -192l-395 2l-132 -2z" />
    <glyph glyph-name="emacron" unicode="&#x113;" horiz-adv-x="439" 
d="M259 63q13 6 29.5 14t33.5 17t33 18t28 17l13 -18q-26 -19 -61 -42t-71 -44l-66 -40q-33 3 -62.5 17t-51.5 38.5t-35 58.5t-13 76q0 44 12.5 86t37 78t61 65.5t85.5 48.5l91 34q44 -8 71.5 -34t27.5 -76q0 -18 -3.5 -37t-14.5 -44l-254 -77v-10q5 -63 36.5 -98.5
t72.5 -47.5zM253 438q-47 -26 -73.5 -75.5t-29.5 -111.5q0 -4 1 -9l142 55q7 17 9.5 32t2.5 31q0 33 -15 53t-37 25zM182 662h287l-9 -53h-287z" />
    <glyph glyph-name="Ebreve" unicode="&#x114;" horiz-adv-x="587" 
d="M392 828q24 0 44 7t37 17t30 21.5t22 20.5l16 -15q-11 -16 -22.5 -32t-28.5 -31t-40.5 -30t-57.5 -29q-31 0 -54 11t-39.5 28.5t-27.5 39t-17 42.5l23 15q6 -9 15.5 -20.5t23.5 -21t33 -16.5t43 -7zM-6 27l77 10l98 627l-74 10l5 27l135 -2l374 2l-15 -182h-27l-46 146
l-228 2l-44 -284l121 2l65 114h24l-28 -132l-15 -131h-24l-29 113l-119 2l-49 -317l248 2l86 155h30l-39 -192l-395 2l-132 -2z" />
    <glyph glyph-name="ebreve" unicode="&#x115;" horiz-adv-x="439" 
d="M259 63q13 6 29.5 14t33.5 17t33 18t28 17l13 -18q-26 -19 -61 -42t-71 -44l-66 -40q-33 3 -62.5 17t-51.5 38.5t-35 58.5t-13 76q0 44 12.5 86t37 78t61 65.5t85.5 48.5l91 34q44 -8 71.5 -34t27.5 -76q0 -18 -3.5 -37t-14.5 -44l-254 -77v-10q5 -63 36.5 -98.5
t72.5 -47.5zM253 438q-47 -26 -73.5 -75.5t-29.5 -111.5q0 -4 1 -9l142 55q7 17 9.5 32t2.5 31q0 33 -15 53t-37 25zM311 626q24 0 43.5 8t35.5 20t28 25.5t21 25.5l19 -16q-11 -18 -22.5 -35t-28.5 -33.5t-40.5 -32t-57.5 -31.5q-30 0 -53 12t-39.5 31t-27.5 42.5t-16 45.5
l24 16q6 -12 15.5 -25.5t23 -25t32.5 -19.5t43 -8z" />
    <glyph glyph-name="Edotaccent" unicode="&#x116;" horiz-adv-x="587" 
d="M358 876l43 5l53 -6l-2 -54l-19 -47l-39 -5l-59 5l4 56zM-6 27l77 10l98 627l-74 10l5 27l135 -2l374 2l-15 -182h-27l-46 146l-228 2l-44 -284l121 2l65 114h24l-28 -132l-15 -131h-24l-29 113l-119 2l-49 -317l248 2l86 155h30l-39 -192l-395 2l-132 -2z" />
    <glyph glyph-name="edotaccent" unicode="&#x117;" horiz-adv-x="439" 
d="M259 63q13 6 29.5 14t33.5 17t33 18t28 17l13 -18q-26 -19 -61 -42t-71 -44l-66 -40q-33 3 -62.5 17t-51.5 38.5t-35 58.5t-13 76q0 44 12.5 86t37 78t61 65.5t85.5 48.5l91 34q44 -8 71.5 -34t27.5 -76q0 -18 -3.5 -37t-14.5 -44l-254 -77v-10q5 -63 36.5 -98.5
t72.5 -47.5zM253 438q-47 -26 -73.5 -75.5t-29.5 -111.5q0 -4 1 -9l142 55q7 17 9.5 32t2.5 31q0 33 -15 53t-37 25zM277 701l43 5l53 -5l-2 -55l-19 -47l-39 -6l-60 6l5 55z" />
    <glyph glyph-name="Eogonek" unicode="&#x118;" horiz-adv-x="587" 
d="M478 -243q-102 0 -140 25.5t-29 75.5l10 54l107 88l-302 1l-131 -2l1 28l77 10l98 627l-74 10l5 27l133 -2l376 2l-15 -182h-27l-46 146l-228 2l-44 -284l121 2l65 114h24l-28 -132l-15 -131h-24l-29 113l-119 2l-49 -317l248 2l86 155h30l-39 -192h-57l-69 -111l-8 -39
q-5 -33 16.5 -51.5t79.5 -18.5l-4 -22v0z" />
    <glyph glyph-name="eogonek" unicode="&#x119;" horiz-adv-x="439" 
d="M106 -90l94 81l-11 -5q-31 4 -59 19t-49 39t-33 57t-12 74q0 44 12.5 86t37 78t61 65.5t85.5 48.5l91 34q44 -8 71.5 -34t27.5 -76q0 -18 -3.5 -37t-14.5 -44l-253 -77v-10q2 -32 11.5 -57t24.5 -43t33.5 -29t38.5 -17q13 6 29.5 14t33.5 17t33 18t28 17l13 -18
q-24 -18 -57 -40t-68 -42l-13 -9l-77 -130l-7 -41q-6 -33 16 -51.5t80 -18.5l-5 -22q-101 0 -139 25.5t-29 75.5zM253 438q-47 -26 -73 -75t-30 -110q0 -7 1 -11l142 55q7 17 9.5 32t2.5 31q0 33 -15 53t-37 25z" />
    <glyph glyph-name="Ecaron" unicode="&#x11a;" horiz-adv-x="587" 
d="M547 907l-136 -143h-65l-82 143h39l86 -78h2l117 78h39zM-6 27l77 10l98 627l-74 10l5 27l135 -2l374 2l-15 -182h-27l-46 146l-228 2l-44 -284l121 2l65 114h24l-28 -132l-15 -131h-24l-29 113l-119 2l-49 -317l248 2l86 155h30l-39 -192l-395 2l-132 -2z" />
    <glyph glyph-name="ecaron" unicode="&#x11b;" horiz-adv-x="439" 
d="M259 63q13 6 29.5 14t33.5 17t33 18t28 17l13 -18q-26 -19 -61 -42t-71 -44l-66 -40q-33 3 -62.5 17t-51.5 38.5t-35 58.5t-13 76q0 44 12.5 86t37 78t61 65.5t85.5 48.5l91 34q44 -8 71.5 -34t27.5 -76q0 -18 -3.5 -37t-14.5 -44l-254 -77v-10q5 -63 36.5 -98.5
t72.5 -47.5zM253 438q-47 -26 -73.5 -75.5t-29.5 -111.5q0 -4 1 -9l142 55q7 17 9.5 32t2.5 31q0 33 -15 53t-37 25zM459 732l-136 -177h-54l-74 177h32l81 -98h3l116 98h32z" />
    <glyph glyph-name="Gcircumflex" unicode="&#x11c;" horiz-adv-x="662" 
d="M304 764l136 143h66l82 -143h-40l-86 79h-3l-116 -79h-39zM315 -18q-62 0 -112.5 22t-86 62t-55 94t-19.5 119q0 60 17 122t54 117t95 100t139 71l97 29q66 0 113.5 -20t75.5 -42l-9 -166h-36l-34 113q-27 26 -70.5 46t-102.5 22q-96 -45 -149 -134t-53 -214
q0 -67 14 -118t39 -87.5t60 -58.5t76 -31q25 8 49 20t37 21l33 218l-73 10l5 26h131l115 1v-27l-55 -10l-36 -232z" />
    <glyph glyph-name="gcircumflex" unicode="&#x11d;" horiz-adv-x="495" 
d="M208 552l137 178h54l73 -178h-32l-82 99h-1l-117 -99h-32zM13 -235l18 99h195q18 17 35.5 50.5t23.5 70.5l20 117l10 23l-151 -139q-26 9 -48.5 24.5t-39 37.5t-26 52.5t-9.5 69.5q0 91 52 163t146 115l83 40q31 -1 74.5 -12t78.5 -29l-81 -453q-7 -38 -48.5 -75
t-99.5 -78l-111 -76h-122zM157 216q0 -51 16.5 -86t45.5 -56l95 77l44 249q-20 14 -49.5 22.5t-55.5 8.5q-48 -35 -72 -93.5t-24 -121.5z" />
    <glyph glyph-name="Gbreve" unicode="&#x11e;" horiz-adv-x="662" 
d="M442 828q24 0 44.5 7t37 17t29.5 21.5t21 20.5l17 -15q-10 -16 -22 -32t-28.5 -31t-40 -30t-57.5 -29q-32 0 -55 11t-39.5 28.5t-27 39t-17.5 42.5l23 15q6 -9 16 -20.5t24 -21t32.5 -16.5t42.5 -7zM315 -18q-62 0 -112.5 22t-86 62t-55 94t-19.5 119q0 60 17 122t54 117
t95 100t139 71l97 29q66 0 113.5 -20t75.5 -42l-9 -166h-36l-34 113q-27 26 -70.5 46t-102.5 22q-96 -45 -149 -134t-53 -214q0 -67 14 -118t39 -87.5t60 -58.5t76 -31q25 8 49 20t37 21l33 218l-73 10l5 26h131l115 1v-27l-55 -10l-36 -232z" />
    <glyph glyph-name="gbreve" unicode="&#x11f;" horiz-adv-x="495" 
d="M338 626q23 0 43 8t36 20t28 25.5t21 25.5l18 -16q-10 -18 -22 -35t-28.5 -33.5t-40 -32t-57.5 -31.5q-30 0 -53 12t-39.5 31t-27 42.5t-16.5 45.5l25 16q6 -12 15 -25.5t22.5 -25t32.5 -19.5t43 -8zM13 -235l18 99h195q18 17 35.5 50.5t23.5 70.5l20 117l10 23
l-151 -139q-26 9 -48.5 24.5t-39 37.5t-26 52.5t-9.5 69.5q0 91 52 163t146 115l83 40q31 -1 74.5 -12t78.5 -29l-81 -453q-7 -38 -48.5 -75t-99.5 -78l-111 -76h-122zM157 216q0 -51 16.5 -86t45.5 -56l95 77l44 249q-20 14 -49.5 22.5t-55.5 8.5q-48 -35 -72 -93.5
t-24 -121.5z" />
    <glyph glyph-name="Gdotaccent" unicode="&#x120;" horiz-adv-x="662" 
d="M419 880l43 5l53 -6l-2 -54l-19 -47l-40 -5l-58 5l3 55zM315 -18q-62 0 -112.5 22t-86 62t-55 94t-19.5 119q0 60 17 122t54 117t95 100t139 71l97 29q66 0 113.5 -20t75.5 -42l-9 -166h-36l-34 113q-27 26 -70.5 46t-102.5 22q-96 -45 -149 -134t-53 -214q0 -67 14 -118
t39 -87.5t60 -58.5t76 -31q25 8 49 20t37 21l33 218l-73 10l5 26h131l115 1v-27l-55 -10l-36 -232z" />
    <glyph glyph-name="gdotaccent" unicode="&#x121;" horiz-adv-x="495" 
d="M311 701l43 5l52 -5l-2 -55l-18 -47l-40 -6l-58 6l3 55zM13 -235l18 99h195q18 17 35.5 50.5t23.5 70.5l20 117l10 23l-151 -139q-26 9 -48.5 24.5t-39 37.5t-26 52.5t-9.5 69.5q0 91 52 163t146 115l83 40q31 -1 74.5 -12t78.5 -29l-81 -453q-7 -38 -48.5 -75t-99.5 -78
l-111 -76h-122zM157 216q0 -51 16.5 -86t45.5 -56l95 77l44 249q-20 14 -49.5 22.5t-55.5 8.5q-48 -35 -72 -93.5t-24 -121.5z" />
    <glyph glyph-name="Gcommaaccent" unicode="&#x122;" horiz-adv-x="662" 
d="M250 -94l7 42h111l-13 -77l-108 -115l-26 6l57 109zM315 -18q-62 0 -112.5 22t-86 62t-55 94t-19.5 119q0 60 17 122t54 117t95 100t139 71l97 29q66 0 113.5 -20t75.5 -42l-9 -166h-36l-34 113q-27 26 -70.5 46t-102.5 22q-96 -45 -149 -134t-53 -214q0 -67 14 -118
t39 -87.5t60 -58.5t76 -31q25 8 49 20t37 21l33 218l-73 10l5 26h131l115 1v-27l-55 -10l-36 -232z" />
    <glyph glyph-name="gcommaaccent" unicode="&#x123;" horiz-adv-x="495" 
d="M289 631l108 118l26 -7l-56 -111l27 -37l-8 -43h-111zM13 -235l18 99h195q18 17 35.5 50.5t23.5 70.5l20 117l10 23l-151 -139q-26 9 -48.5 24.5t-39 37.5t-26 52.5t-9.5 69.5q0 91 52 163t146 115l83 40q31 -1 74.5 -12t78.5 -29l-81 -453q-7 -38 -48.5 -75t-99.5 -78
l-111 -76h-122zM157 216q0 -51 16.5 -86t45.5 -56l95 77l44 249q-20 14 -49.5 22.5t-55.5 8.5q-48 -35 -72 -93.5t-24 -121.5z" />
    <glyph glyph-name="Hcircumflex" unicode="&#x124;" horiz-adv-x="701" 
d="M300 764l136 143h65l81 -143h-39l-85 79h-4l-115 -79h-39zM129 1l-136 -2l1 28l78 10l96 627l-74 10l6 27l135 -2l132 2l-1 -27l-73 -10l-44 -283h257l43 283l-71 10l5 27l134 -2l132 2l-1 -27l-74 -10l-97 -627l73 -10l-5 -28l-134 2l-135 -2v28l76 10l48 308h-256
l-48 -308l72 -10l-5 -28z" />
    <glyph glyph-name="hcircumflex" unicode="&#x125;" horiz-adv-x="528" 
d="M85 761l136 150h65l81 -150h-39l-86 84h-3l-115 -84h-39zM148 0h-108l116 659l-93 -24l-8 22l191 58l25 -20l-54 -305l-8 -16l166 114q63 0 87 -32t13 -86l-57 -322l88 59l13 -17l-141 -106l-74 36l58 324q5 28 -3 44t-32 16q-18 0 -38.5 -9.5t-43.5 -25.5l-36 -24z" />
    <glyph glyph-name="Hbar" unicode="&#x126;" horiz-adv-x="701" 
d="M129 1l-136 -2l1 28l78 10l96 627l-74 10l6 27l135 -2l132 2l-1 -27l-73 -10l-23 -148h256l23 148l-71 10l5 27l134 -2l132 2l-1 -27l-74 -10l-97 -627l73 -10l-5 -28l-134 2l-135 -2v28l76 10l48 308h-256l-48 -308l72 -10l-5 -28zM506 381l16 107h-257l-16 -107h257z
" />
    <glyph glyph-name="hbar" unicode="&#x127;" horiz-adv-x="528" 
d="M148 0h-108l98 556h-76l6 27h74l14 76l-93 -24l-8 22l191 58l25 -20l-20 -112h117l-5 -27h-117l-29 -166l-8 -16l166 114q63 0 87 -32t13 -86l-57 -322l88 59l13 -17l-141 -106l-74 36l58 324q5 28 -3 44t-32 16q-18 0 -38.5 -9.5t-43.5 -25.5l-36 -24z" />
    <glyph glyph-name="Itilde" unicode="&#x128;" horiz-adv-x="321" 
d="M142 879l62 19l163 -68l51 67h18l-51 -113l-60 -16l-165 68l-47 -66h-19zM368 674l-74 -10l-97 -627l73 -10l-6 -28l-135 2l-135 -2v28l78 10l98 627l-74 10l5 27l136 -2l132 2z" />
    <glyph glyph-name="itilde" unicode="&#x129;" horiz-adv-x="290" 
d="M86 691l61 19l163 -68l50 67h19l-51 -113l-61 -17l-164 69l-48 -67h-19zM39 392l-7 20l182 75l27 -25l-72 -415l87 60l13 -17l-140 -106l-74 36l71 402z" />
    <glyph glyph-name="Imacron" unicode="&#x12a;" horiz-adv-x="321" 
d="M118 853h287l-9 -53h-287zM368 674l-74 -10l-97 -627l73 -10l-6 -28l-135 2l-135 -2v28l78 10l98 627l-74 10l5 27l136 -2l132 2z" />
    <glyph glyph-name="imacron" unicode="&#x12b;" horiz-adv-x="290" 
d="M71 662h287l-9 -53h-287zM39 392l-7 20l182 75l27 -25l-72 -415l87 60l13 -17l-140 -106l-74 36l71 402z" />
    <glyph glyph-name="Ibreve" unicode="&#x12c;" horiz-adv-x="321" 
d="M262 828q24 0 44.5 7t37.5 17t29.5 21.5t21.5 20.5l17 -15q-11 -16 -22.5 -32t-28.5 -31t-40.5 -30t-57.5 -29q-31 0 -54 11t-39.5 28.5t-27.5 39t-17 42.5l23 15q6 -9 15.5 -20.5t23 -21t32.5 -16.5t43 -7zM368 674l-74 -10l-97 -627l73 -10l-6 -28l-135 2l-135 -2v28
l78 10l98 627l-74 10l5 27l136 -2l132 2z" />
    <glyph glyph-name="ibreve" unicode="&#x12d;" horiz-adv-x="290" 
d="M208 626q24 0 43.5 8t35.5 20t28 25.5t21 25.5l19 -16q-11 -18 -23 -35t-29 -33.5t-40.5 -32t-56.5 -31.5q-30 0 -53 12t-39.5 31t-27 42.5t-16.5 45.5l24 16q6 -12 15.5 -25.5t23 -25t32.5 -19.5t43 -8zM39 392l-7 20l182 75l27 -25l-72 -415l87 60l13 -17l-140 -106
l-74 36l71 402z" />
    <glyph glyph-name="Iogonek" unicode="&#x12e;" horiz-adv-x="321" 
d="M368 674l-74 -10l-97 -627l73 -10l-6 -28l-109 1l-63 -113l-8 -38q-5 -34 17 -52t79 -18l-4 -23q-101 0 -139 25.5t-29 75.5l9 55l103 89l-126 -2v28l78 10l98 627l-74 10l5 27l136 -2l132 2z" />
    <glyph glyph-name="iogonek" unicode="&#x12f;" horiz-adv-x="290" 
d="M179 691l35 6l65 -6v-57l-19 -47l-33 -7l-71 7l3 55zM180 -243q-101 0 -139 25.5t-29 75.5l10 54l95 78l-62 30l71 402l-87 -30l-7 20l182 75l27 -25l-72 -415l87 60l13 -17l-92 -70l-81 -132l-7 -39q-5 -33 16.5 -51.5t79.5 -18.5z" />
    <glyph glyph-name="Idotaccent" unicode="&#x130;" horiz-adv-x="321" 
d="M223 876l43 5l53 -6l-2 -54l-19 -47l-39 -5l-59 5l4 56zM368 674l-74 -10l-97 -627l73 -10l-6 -28l-135 2l-135 -2v28l78 10l98 627l-74 10l5 27l136 -2l132 2z" />
    <glyph glyph-name="dotlessi" unicode="&#x131;" horiz-adv-x="290" 
d="M39 392l-7 20l182 75l27 -25l-72 -415l87 60l13 -17l-140 -106l-74 36l71 402z" />
    <glyph glyph-name="IJ" unicode="&#x132;" horiz-adv-x="593" 
d="M292 665l-97 -628l71 -10l-5 -28l-133 2l-135 -2l1 28l78 10l97 628l-74 9l6 27l134 -2l121 2v-27zM464 665l-62 9l6 27l122 -1l134 1l-1 -27l-75 -9l-86 -559q-11 -67 -39 -109.5t-68 -74.5l-128 -96h-67l20 98h109q19 38 28.5 75t17.5 87z" />
    <glyph glyph-name="ij" unicode="&#x133;" horiz-adv-x="521" 
d="M179 691l35 6l65 -6v-57l-19 -47l-33 -7l-71 7l3 55zM39 392l-7 20l182 75l27 -25l-72 -415l78 55l13 -18l-131 -100l-74 36l71 402zM121 -235l17 99h119q13 21 20 44.5t12 49.5l82 464l-78 -26l-7 20l172 71l28 -25l-81 -462q-8 -44 -35.5 -81.5t-68.5 -66.5l-122 -87
h-58zM424 691l35 6l65 -6v-57l-20 -47l-32 -7l-72 7l4 55z" />
    <glyph glyph-name="Jcircumflex" unicode="&#x134;" horiz-adv-x="325" 
d="M106 764l136 143h65l82 -143h-39l-86 79h-2l-116 -79h-40zM177 664l-77 10l6 27l137 -2l133 2v-27l-75 -10l-86 -558q-11 -66 -38.5 -109.5t-69.5 -75.5l-128 -95h-66l20 98h111q17 38 26.5 75t17.5 87z" />
    <glyph glyph-name="jcircumflex" unicode="&#x135;" horiz-adv-x="283" 
d="M70 551l136 178h55l72 -178h-32l-81 99h-2l-116 -99h-32zM-119 -235l18 99h120q13 21 20 44.5t12 49.5l82 464l-87 -30l-8 20l182 75l27 -25l-81 -462q-8 -44 -35.5 -81.5t-67.5 -66.5l-124 -87h-58z" />
    <glyph glyph-name="Kcommaaccent" unicode="&#x136;" horiz-adv-x="696" 
d="M269 -94l7 42h112l-13 -77l-108 -115l-26 6l56 109zM293 664l-43 -281l13 8l305 273l-76 10l4 27l113 -2l103 2l-1 -27l-86 -10l-316 -278l68 -14l229 -335l50 -10l-5 -28l-89 2l-87 -2l-221 351l-7 17l-51 -330l69 -10l-6 -28l-130 2l-136 -2l1 28l79 10l96 627l-74 10
l6 27l134 -2l128 2v-27z" />
    <glyph glyph-name="kcommaaccent" unicode="&#x137;" horiz-adv-x="505" 
d="M144 -94l7 42h112l-14 -77l-107 -115l-26 6l56 109zM295 12l-100 253l-48 -265h-107l115 660l-93 -24l-7 21l190 58l25 -20l-72 -413l9 3l189 193h95l-23 -112h-110q-6 -1 -20 -9.5t-29 -19.5t-28.5 -21.5t-19.5 -14.5l-29 -24l81 -24l93 -202l78 53l12 -18l-136 -102z
" />
    <glyph glyph-name="kgreenlandic" unicode="&#x138;" horiz-adv-x="507" 
d="M205 278l10 3l188 197h96l-23 -112h-111q-6 -1 -20 -10t-29 -20.5t-28.5 -22.5t-19.5 -16l-29 -23l81 -24l94 -199l78 53l12 -18l-136 -102l-65 28l-101 250l-46 -262h-109l74 423l-87 -28l-7 21l180 71l29 -26z" />
    <glyph glyph-name="Lacute" unicode="&#x139;" horiz-adv-x="549" 
d="M279 903h117l-138 -139h-37zM195 34l211 2l104 158h29l-49 -195l-365 2l-132 -2l1 28l77 10l98 627l-75 10l7 27l131 -2l138 2l-1 -27l-76 -10z" />
    <glyph glyph-name="lacute" unicode="&#x13a;" horiz-adv-x="285" 
d="M200 764l58 139h117l-138 -139h-37zM68 635l-8 22l191 58l24 -20l-114 -648l88 60l13 -17l-140 -106l-74 36l112 639z" />
    <glyph glyph-name="Lcommaaccent" unicode="&#x13b;" horiz-adv-x="549" 
d="M196 -94l7 42h111l-13 -77l-108 -115l-26 6l56 109zM195 34l211 2l104 158h29l-49 -195l-365 2l-132 -2l1 28l77 10l98 627l-75 10l7 27l131 -2l138 2l-1 -27l-76 -10z" />
    <glyph glyph-name="lcommaaccent" unicode="&#x13c;" horiz-adv-x="285" 
d="M32 -94l7 42h112l-14 -77l-107 -115l-27 6l57 109zM68 635l-8 22l191 58l24 -20l-114 -648l88 60l13 -17l-140 -106l-74 36l112 639z" />
    <glyph glyph-name="Lcaron" unicode="&#x13d;" horiz-adv-x="604" 
d="M561 710l33 -6l-5 -59l-17 -53l-108 -153l-23 10l16 28t25.5 44t24.5 43t12 25l-59 3l5 62l19 50zM195 34l211 2l104 158h29l-49 -195l-365 2l-132 -2l1 28l77 10l98 627l-75 10l7 27l131 -2l138 2l-1 -27l-76 -10z" />
    <glyph glyph-name="lcaron" unicode="&#x13e;" horiz-adv-x="435" 
d="M333 674l7 38h117l-15 -80l-112 -130l-27 6l64 121zM68 635l-8 22l191 58l24 -20l-114 -648l88 60l13 -17l-140 -106l-74 36l112 639z" />
    <glyph glyph-name="Ldot" unicode="&#x13f;" horiz-adv-x="549" 
d="M438 464l37 -6l-3 -58l-16 -52l-70 -6l-40 6l6 59l15 51zM195 34l211 2l104 158h29l-49 -195l-365 2l-132 -2l1 28l77 10l98 627l-75 10l7 27l131 -2l138 2l-1 -27l-76 -10z" />
    <glyph glyph-name="ldot" unicode="&#x140;" horiz-adv-x="395" 
d="M361 464l37 -7l-3 -58l-17 -51l-69 -6l-40 6l5 59l16 50zM68 635l-8 22l191 58l24 -20l-114 -648l88 60l13 -17l-140 -106l-74 36l112 639z" />
    <glyph glyph-name="Lslash" unicode="&#x141;" horiz-adv-x="549" 
d="M256 425l109 50l-7 -38l-108 -49l-55 -354l211 2l104 158h29l-49 -195l-365 2l-132 -2l1 28l77 10l45 290l-81 -37l6 37l81 37l47 300l-75 10l7 27l131 -2l138 2l-1 -27l-76 -10z" />
    <glyph glyph-name="lslash" unicode="&#x142;" horiz-adv-x="285" 
d="M68 635l-8 22l191 58l24 -20l-49 -274l90 41l-6 -35l-90 -41l-59 -339l88 60l13 -17l-140 -106l-74 36l55 312l-72 -32l7 34l71 32l51 293z" />
    <glyph glyph-name="Nacute" unicode="&#x143;" horiz-adv-x="681" 
d="M399 764l57 139h118l-139 -139h-36zM613 664l-76 10l5 27l95 -2l99 2v-27l-78 -10l-104 -664h-77l-264 586l-5 45l-92 -594l79 -10l-6 -28l-98 2l-98 -2l1 28l77 10l99 625l-73 12l6 27l96 -2l94 2l235 -507l8 -45z" />
    <glyph glyph-name="nacute" unicode="&#x144;" horiz-adv-x="540" 
d="M281 551l84 174h111l-162 -174h-33zM160 0h-108l74 422l-86 -30l-8 20l182 75l27 -25l-12 -72l-8 -16l165 114q63 0 86.5 -32t13.5 -86l-57 -323l88 60l13 -18l-140 -105l-75 36l58 324q5 28 -2.5 44t-31.5 16q-18 0 -39 -9.5t-43 -25.5l-36 -24z" />
    <glyph glyph-name="Ncommaaccent" unicode="&#x145;" horiz-adv-x="681" 
d="M246 -94l7 42h111l-13 -77l-108 -115l-26 6l57 109zM613 664l-76 10l5 27l95 -2l99 2v-27l-78 -10l-104 -664h-77l-264 586l-5 45l-92 -594l79 -10l-6 -28l-98 2l-98 -2l1 28l77 10l99 625l-73 12l6 27l96 -2l94 2l235 -507l8 -45z" />
    <glyph glyph-name="ncommaaccent" unicode="&#x146;" horiz-adv-x="540" 
d="M174 -94l7 42h111l-14 -77l-107 -115l-26 6l56 109zM160 0h-108l74 422l-86 -30l-8 20l182 75l27 -25l-12 -72l-8 -16l165 114q63 0 86.5 -32t13.5 -86l-57 -323l88 60l13 -18l-140 -105l-75 36l58 324q5 28 -2.5 44t-31.5 16q-18 0 -39 -9.5t-43 -25.5l-36 -24z" />
    <glyph glyph-name="Ncaron" unicode="&#x147;" horiz-adv-x="681" 
d="M589 907l-137 -143h-64l-82 143h39l86 -78h3l116 78h39zM613 664l-76 10l5 27l95 -2l99 2v-27l-78 -10l-104 -664h-77l-264 586l-5 45l-92 -594l79 -10l-6 -28l-98 2l-98 -2l1 28l77 10l99 625l-73 12l6 27l96 -2l94 2l235 -507l8 -45z" />
    <glyph glyph-name="ncaron" unicode="&#x148;" horiz-adv-x="540" 
d="M495 731l-137 -176h-54l-74 176h32l82 -98h2l116 98h33zM160 0h-108l74 422l-86 -30l-8 20l182 75l27 -25l-12 -72l-8 -16l165 114q63 0 86.5 -32t13.5 -86l-57 -323l88 60l13 -18l-140 -105l-75 36l58 324q5 28 -2.5 44t-31.5 16q-18 0 -39 -9.5t-43 -25.5l-36 -24z" />
    <glyph glyph-name="napostrophe" unicode="&#x149;" horiz-adv-x="540" 
d="M138 674l7 38h118l-15 -80l-114 -125l-26 7l65 115zM160 0h-108l74 422l-86 -30l-8 20l182 75l27 -25l-12 -72l-8 -16l165 114q63 0 86.5 -32t13.5 -86l-57 -323l88 60l13 -18l-140 -105l-75 36l58 324q5 28 -2.5 44t-31.5 16q-18 0 -39 -9.5t-43 -25.5l-36 -24z" />
    <glyph glyph-name="Eng" unicode="&#x14a;" horiz-adv-x="681" 
d="M613 664l-76 10l5 27l95 -2l99 2v-27l-78 -10l-104 -664h1l-128 -237l-126 1l19 94h90l99 128l26 14h-58l-264 586l-5 45l-92 -594l79 -10l-6 -28l-98 2l-98 -2l1 28l77 10l99 625l-73 12l6 27l96 -2l94 2l235 -507l8 -45z" />
    <glyph glyph-name="eng" unicode="&#x14b;" horiz-adv-x="539" 
d="M135 -235l18 96h113q15 19 24 43.5t14 50.5l69 392q5 26 -3 41.5t-31 15.5q-18 0 -39 -9.5t-43 -25.5l-36 -24l-61 -345h-108l74 422l-86 -30l-8 20l182 75l27 -25l-12 -72l-8 -16l165 114q63 0 86.5 -32t13.5 -86l-67 -374q-8 -42 -34.5 -77.5t-65.5 -64.5l-126 -89h-58
z" />
    <glyph glyph-name="Omacron" unicode="&#x14c;" horiz-adv-x="696" 
d="M302 853h287l-9 -53h-287zM186 305q0 -63 13.5 -113.5t36.5 -86t55 -56.5t70 -25q46 18 82 54.5t60.5 85.5t37 108.5t12.5 123.5t-13 114t-36.5 86t-55.5 56.5t-69 25.5q-45 -17 -81 -53.5t-61 -86t-38 -109.5t-13 -124zM414 718q63 0 114 -22t87 -62t55.5 -96.5
t19.5 -125.5q0 -59 -15.5 -120t-49 -115.5t-87.5 -98.5t-132 -69l-80 -27q-62 0 -113 22t-87 62t-56 97t-20 126q0 59 15 120.5t49 116t88 98.5t131 68z" />
    <glyph glyph-name="omacron" unicode="&#x14d;" horiz-adv-x="489" 
d="M198 662h287l-9 -53h-287zM297 488q35 0 67 -12.5t56 -37t38 -61t14 -84.5q0 -90 -48.5 -164.5t-142.5 -113.5l-71 -30q-35 0 -66.5 12.5t-55.5 37.5t-38 61.5t-14 84.5q0 90 48 163t142 113zM254 443q-29 -13 -48.5 -39t-31.5 -59t-17 -69t-5 -69q0 -42 8 -73.5
t22 -52.5t32 -33.5t39 -17.5q28 12 48 38.5t32 59.5t17.5 69.5t5.5 69.5q0 43 -8 73.5t-21.5 51.5t-32.5 33.5t-40 17.5z" />
    <glyph glyph-name="Obreve" unicode="&#x14e;" horiz-adv-x="696" 
d="M436 828q24 0 45 7t37.5 17t29.5 21.5t21 20.5l18 -15q-11 -16 -22.5 -32t-28.5 -31t-40.5 -30t-57.5 -29q-31 0 -54.5 11t-40 28.5t-27.5 39t-17 42.5l24 15q6 -9 15 -20.5t23 -21t32.5 -16.5t42.5 -7zM186 305q0 -63 13.5 -113.5t36.5 -86t55 -56.5t70 -25
q46 18 82 54.5t60.5 85.5t37 108.5t12.5 123.5t-13 114t-36.5 86t-55.5 56.5t-69 25.5q-45 -17 -81 -53.5t-61 -86t-38 -109.5t-13 -124zM414 718q63 0 114 -22t87 -62t55.5 -96.5t19.5 -125.5q0 -59 -15.5 -120t-49 -115.5t-87.5 -98.5t-132 -69l-80 -27q-62 0 -113 22
t-87 62t-56 97t-20 126q0 59 15 120.5t49 116t88 98.5t131 68z" />
    <glyph glyph-name="obreve" unicode="&#x14f;" horiz-adv-x="489" 
d="M331 626q24 0 43.5 8t35.5 20t28 25.5t21 25.5l18 -16q-10 -18 -22 -35t-28.5 -33.5t-40.5 -32t-58 -31.5q-30 0 -52.5 12t-39 31t-27.5 42.5t-16 45.5l25 16q6 -12 15 -25.5t22.5 -25t32.5 -19.5t43 -8zM297 488q35 0 67 -12.5t56 -37t38 -61t14 -84.5
q0 -90 -48.5 -164.5t-142.5 -113.5l-71 -30q-35 0 -66.5 12.5t-55.5 37.5t-38 61.5t-14 84.5q0 90 48 163t142 113zM254 443q-29 -13 -48.5 -39t-31.5 -59t-17 -69t-5 -69q0 -42 8 -73.5t22 -52.5t32 -33.5t39 -17.5q28 12 48 38.5t32 59.5t17.5 69.5t5.5 69.5q0 43 -8 73.5
t-21.5 51.5t-32.5 33.5t-40 17.5z" />
    <glyph glyph-name="Ohungarumlaut" unicode="&#x150;" horiz-adv-x="696" 
d="M309 764l59 139h123l-146 -139h-36zM483 764l59 139h122l-145 -139h-36zM186 305q0 -63 13.5 -113.5t36.5 -86t55 -56.5t70 -25q46 18 82 54.5t60.5 85.5t37 108.5t12.5 123.5t-13 114t-36.5 86t-55.5 56.5t-69 25.5q-45 -17 -81 -53.5t-61 -86t-38 -109.5t-13 -124z
M414 718q63 0 114 -22t87 -62t55.5 -96.5t19.5 -125.5q0 -59 -15.5 -120t-49 -115.5t-87.5 -98.5t-132 -69l-80 -27q-62 0 -113 22t-87 62t-56 97t-20 126q0 59 15 120.5t49 116t88 98.5t131 68z" />
    <glyph glyph-name="ohungarumlaut" unicode="&#x151;" horiz-adv-x="489" 
d="M199 551l73 171h118l-158 -171h-33zM373 551l74 171h118l-159 -171h-33zM297 488q35 0 67 -12.5t56 -37t38 -61t14 -84.5q0 -90 -48.5 -164.5t-142.5 -113.5l-71 -30q-35 0 -66.5 12.5t-55.5 37.5t-38 61.5t-14 84.5q0 90 48 163t142 113zM254 443q-29 -13 -48.5 -39
t-31.5 -59t-17 -69t-5 -69q0 -42 8 -73.5t22 -52.5t32 -33.5t39 -17.5q28 12 48 38.5t32 59.5t17.5 69.5t5.5 69.5q0 43 -8 73.5t-21.5 51.5t-32.5 33.5t-40 17.5z" />
    <glyph glyph-name="OE" unicode="&#x152;" horiz-adv-x="946" 
d="M441 37l96 623q-5 2 -26 5t-45 6t-45.5 5t-27.5 2q-48 -17 -86 -53.5t-64.5 -86t-40.5 -109.5t-14 -124q0 -63 13 -113t36 -85.5t54.5 -56t68.5 -25.5zM325 -18q-62 0 -112.5 22t-86.5 62t-55.5 97t-19.5 126q0 59 16 120t51.5 115.5t91.5 98.5t137 69l81 26
q5 0 27.5 -2.5t48 -6t47.5 -6.5t28 -4l385 2l-15 -182h-26l-46 146l-215 2l-45 -289l111 2l65 114h24l-28 -133l-15 -131h-24l-27 113l-111 2l-48 -311l234 2l87 155h29l-39 -192l-414 2z" />
    <glyph glyph-name="oe" unicode="&#x153;" horiz-adv-x="758" 
d="M211 -15q-36 0 -67.5 12.5t-55.5 37t-38 60.5t-14 84q0 91 49 164t143 115l69 30q51 0 92.5 -25.5t62.5 -77.5q19 21 50.5 41.5t69.5 34.5l70 26q43 -8 70.5 -34t27.5 -76q0 -18 -3.5 -37t-13.5 -44l-253 -77q-1 -4 -1 -10q5 -65 36.5 -100t72.5 -46q13 6 29 14t33 17
t33 18t28 17l14 -18q-26 -19 -61 -42t-71 -44l-67 -40q-45 4 -82 29t-57 69q-39 -44 -96 -68zM255 442q-29 -13 -48.5 -39t-31.5 -58.5t-17.5 -68.5t-5.5 -69q0 -42 8 -73.5t22 -52.5t32 -33.5t39 -16.5q29 12 49 38.5t32.5 60t18 70t5.5 69.5q0 43 -7.5 73.5t-21.5 51
t-33 32t-41 16.5zM571 438q-46 -26 -72 -75t-31 -110q0 -2 0.5 -5t0.5 -6l143 55q7 17 9 32t2 31q0 33 -14.5 53t-37.5 25z" />
    <glyph glyph-name="Racute" unicode="&#x154;" horiz-adv-x="652" 
d="M334 764l58 139h117l-139 -139h-36zM361 372q23 11 43.5 27t36.5 37.5t25 48.5t9 60q0 57 -28 90t-85 35h-69l-46 -298h114zM125 1l-132 -2l1 28l77 10l98 629l-75 8l7 27l134 -2l178 2q46 0 83 -11t62.5 -30.5t39 -46.5t13.5 -59q0 -40 -15 -70.5t-41.5 -54t-62.5 -41
t-78 -30.5l-67 -21l108 -38l119 -262l44 -11l-5 -27l-90 2l-75 -2l-136 324l-6 5h-66l-45 -291l82 -10l-6 -28z" />
    <glyph glyph-name="racute" unicode="&#x155;" horiz-adv-x="400" 
d="M232 551l84 174h111l-162 -174h-33zM51 0l75 422l-87 -30l-7 20l182 75l24 -22l-25 -144l-16 -56l139 213h77l-23 -116h-80q-5 -3 -17.5 -16.5t-26.5 -30t-26.5 -31.5t-18.5 -22l-19 -24l-42 -238h-109z" />
    <glyph glyph-name="Rcommaaccent" unicode="&#x156;" horiz-adv-x="652" 
d="M235 -94l7 42h111l-14 -77l-107 -115l-26 6l56 109zM361 372q23 11 43.5 27t36.5 37.5t25 48.5t9 60q0 57 -28 90t-85 35h-69l-46 -298h114zM125 1l-132 -2l1 28l77 10l98 629l-75 8l7 27l134 -2l178 2q46 0 83 -11t62.5 -30.5t39 -46.5t13.5 -59q0 -40 -15 -70.5
t-41.5 -54t-62.5 -41t-78 -30.5l-67 -21l108 -38l119 -262l44 -11l-5 -27l-90 2l-75 -2l-136 324l-6 5h-66l-45 -291l82 -10l-6 -28z" />
    <glyph glyph-name="rcommaaccent" unicode="&#x157;" horiz-adv-x="400" 
d="M37 -94l7 42h112l-14 -77l-107 -115l-27 6l56 109zM51 0l75 422l-87 -30l-7 20l182 75l24 -22l-25 -144l-16 -56l139 213h77l-23 -116h-80q-5 -3 -17.5 -16.5t-26.5 -30t-26.5 -31.5t-18.5 -22l-19 -24l-42 -238h-109z" />
    <glyph glyph-name="Rcaron" unicode="&#x158;" horiz-adv-x="652" 
d="M538 907l-137 -143h-65l-82 143h40l86 -78h2l117 78h39zM361 372q23 11 43.5 27t36.5 37.5t25 48.5t9 60q0 57 -28 90t-85 35h-69l-46 -298h114zM125 1l-132 -2l1 28l77 10l98 629l-75 8l7 27l134 -2l178 2q46 0 83 -11t62.5 -30.5t39 -46.5t13.5 -59q0 -40 -15 -70.5
t-41.5 -54t-62.5 -41t-78 -30.5l-67 -21l108 -38l119 -262l44 -11l-5 -27l-90 2l-75 -2l-136 324l-6 5h-66l-45 -291l82 -10l-6 -28z" />
    <glyph glyph-name="rcaron" unicode="&#x159;" horiz-adv-x="400" 
d="M434 731l-136 -176h-55l-74 176h33l81 -98h3l116 98h32zM51 0l75 422l-87 -30l-7 20l182 75l24 -22l-25 -144l-16 -56l139 213h77l-23 -116h-80q-5 -3 -17.5 -16.5t-26.5 -30t-26.5 -31.5t-18.5 -22l-19 -24l-42 -238h-109z" />
    <glyph glyph-name="Sacute" unicode="&#x15a;" horiz-adv-x="500" 
d="M321 764l57 139h117l-138 -139h-36zM494 510h-36l-17 107q-28 28 -65.5 42.5t-81.5 15.5q-49 -16 -69 -42t-20 -59q0 -20 5.5 -36t16 -30t25.5 -27.5t34 -29.5l102 -82q18 -15 34 -31t28 -35.5t19 -44t7 -55.5q0 -59 -40 -110.5t-112 -76.5l-98 -34q-69 0 -123 17.5
t-89 43.5l35 163h42l2 -99q13 -14 33.5 -27.5t45 -25t51.5 -18.5t53 -7q45 16 65.5 47.5t20.5 71.5q0 22 -5.5 40t-16 33t-24.5 29t-32 28l-99 78q-38 31 -64.5 68t-26.5 88q0 114 151 172l88 34q69 0 115 -14t76 -34z" />
    <glyph glyph-name="sacute" unicode="&#x15b;" horiz-adv-x="378" 
d="M206 551l84 174h111l-162 -174h-33zM121 -15q-12 3 -28.5 9.5t-33 14t-31.5 15t-23 12.5l51 82q27 -17 66 -39.5t80 -41.5q41 13 41 53q0 19 -8 36t-31 37l-90 73q-22 18 -35 42t-13 52q0 37 26.5 68t89.5 57l77 33q22 -3 53.5 -15.5t60.5 -26.5l-50 -83q-29 19 -66.5 39
t-69.5 34q-35 -14 -35 -49q0 -18 8.5 -33t29.5 -33l87 -71q30 -26 42 -50t12 -54q0 -45 -26 -74.5t-76 -47.5z" />
    <glyph glyph-name="Scircumflex" unicode="&#x15c;" horiz-adv-x="500" 
d="M218 764l135 143h66l82 -143h-40l-86 79h-2l-116 -79h-39zM494 510h-36l-17 107q-28 28 -65.5 42.5t-81.5 15.5q-49 -16 -69 -42t-20 -59q0 -20 5.5 -36t16 -30t25.5 -27.5t34 -29.5l102 -82q18 -15 34 -31t28 -35.5t19 -44t7 -55.5q0 -59 -40 -110.5t-112 -76.5l-98 -34
q-69 0 -123 17.5t-89 43.5l35 163h42l2 -99q13 -14 33.5 -27.5t45 -25t51.5 -18.5t53 -7q45 16 65.5 47.5t20.5 71.5q0 22 -5.5 40t-16 33t-24.5 29t-32 28l-99 78q-38 31 -64.5 68t-26.5 88q0 114 151 172l88 34q69 0 115 -14t76 -34z" />
    <glyph glyph-name="scircumflex" unicode="&#x15d;" horiz-adv-x="378" 
d="M122 551l137 178h54l73 -178h-32l-81 99h-2l-116 -99h-33zM121 -15q-12 3 -28.5 9.5t-33 14t-31.5 15t-23 12.5l51 82q27 -17 66 -39.5t80 -41.5q41 13 41 53q0 19 -8 36t-31 37l-90 73q-22 18 -35 42t-13 52q0 37 26.5 68t89.5 57l77 33q22 -3 53.5 -15.5t60.5 -26.5
l-50 -83q-29 19 -66.5 39t-69.5 34q-35 -14 -35 -49q0 -18 8.5 -33t29.5 -33l87 -71q30 -26 42 -50t12 -54q0 -45 -26 -74.5t-76 -47.5z" />
    <glyph glyph-name="Scedilla" unicode="&#x15e;" horiz-adv-x="500" 
d="M110 -243h-44l31 43h80q16 10 25 25t9 34q0 32 -21 44t-46 13l53 67q-60 4 -106 20.5t-77 39.5l35 163h42l2 -99q13 -14 33.5 -27.5t45 -25t51.5 -18.5t53 -7q45 16 65.5 47.5t20.5 71.5q0 22 -5.5 40t-16 33t-24.5 29t-32 28l-99 78q-38 31 -64.5 68t-26.5 88
q0 114 151 172l88 34q69 0 115 -14t76 -34l-30 -160h-36l-17 107q-28 28 -65.5 42.5t-81.5 15.5q-49 -16 -69 -42t-20 -59q0 -20 5.5 -36t16 -30t25.5 -27.5t34 -29.5l102 -82q18 -15 34 -31t28 -35.5t19 -44t7 -55.5q0 -59 -40 -110.5t-112 -76.5q-27 -10 -49 -17
q-10 -4 -18.5 -7t-15.5 -5q-8 -3 -16 -5l-22 -27q35 -3 57 -21.5t22 -48.5q0 -23 -10.5 -39.5t-26.5 -29t-35 -21.5t-35 -15z" />
    <glyph glyph-name="scedilla" unicode="&#x15f;" horiz-adv-x="378" 
d="M-35 -243l31 43h80q33 20 33 59q0 32 -20.5 44t-46.5 13l61 75q-26 10 -55 23.5t-43 21.5l51 82q27 -17 66 -39.5t80 -41.5q41 13 41 53q0 19 -8 36t-31 37l-90 73q-22 18 -35 42t-13 52q0 37 26.5 68t89.5 57l77 33q22 -3 53.5 -15.5t60.5 -26.5l-50 -83
q-29 19 -66.5 39t-69.5 34q-35 -14 -35 -49q0 -18 8.5 -33t29.5 -33l87 -71q30 -26 42 -50t12 -54q0 -45 -26 -74.5t-76 -47.5l-101 -37l-26 -32q35 -3 57 -21.5t22 -48.5q0 -23 -10.5 -39.5t-26.5 -29t-35 -21.5t-36 -15l-64 -23h-44z" />
    <glyph glyph-name="Scaron" unicode="&#x160;" horiz-adv-x="502" 
d="M526 907l-137 -143h-65l-82 143h39l86 -78h3l116 78h40zM494 510h-36l-17 107q-28 28 -65.5 42.5t-81.5 15.5q-49 -16 -69 -42t-20 -59q0 -20 5.5 -36t16 -30t25.5 -27.5t34 -29.5l102 -82q18 -15 34 -31t28 -35.5t19 -44t7 -55.5q0 -59 -40 -110.5t-112 -76.5l-98 -34
q-69 0 -123 17.5t-89 43.5l35 163h42l2 -99q13 -14 33.5 -27.5t45 -25t51.5 -18.5t53 -7q45 16 65.5 47.5t20.5 71.5q0 22 -5.5 40t-16 33t-24.5 29t-32 28l-99 78q-38 31 -64.5 68t-26.5 88q0 114 151 172l88 34q69 0 115 -14t76 -34z" />
    <glyph glyph-name="scaron" unicode="&#x161;" horiz-adv-x="378" 
d="M414 731l-135 -176h-55l-74 176h33l82 -98h2l115 98h32zM121 -15q-12 3 -28.5 9.5t-33 14t-31.5 15t-23 12.5l51 82q27 -17 66 -39.5t80 -41.5q41 13 41 53q0 19 -8 36t-31 37l-90 73q-22 18 -35 42t-13 52q0 37 26.5 68t89.5 57l77 33q22 -3 53.5 -15.5t60.5 -26.5
l-50 -83q-29 19 -66.5 39t-69.5 34q-35 -14 -35 -49q0 -18 8.5 -33t29.5 -33l87 -71q30 -26 42 -50t12 -54q0 -45 -26 -74.5t-76 -47.5z" />
    <glyph glyph-name="Tcommaaccent" unicode="&#x162;" horiz-adv-x="581" 
d="M192 -94l7 42h111l-13 -77l-108 -115l-26 6l56 109zM299 667l-123 -1l-83 -154h-29l28 189l274 -2l273 2l-28 -189h-30l-35 154l-124 1l-97 -630l88 -10l-5 -28l-151 2l-143 -2l1 28l86 10z" />
    <glyph glyph-name="tcommaaccent" unicode="&#x163;" horiz-adv-x="336" 
d="M44 -94l7 42h112l-13 -77l-108 -115l-26 6l55 109zM51 18l72 410h-79l4 16l21 19h60l10 56l99 83h24l-26 -141h111l-7 -33h-110l-66 -382l126 60l11 -18l-176 -104z" />
    <glyph glyph-name="Tcaron" unicode="&#x164;" horiz-adv-x="581" 
d="M546 907l-136 -143h-65l-83 143h40l85 -78h3l116 78h40zM299 667l-123 -1l-83 -154h-29l28 189l274 -2l273 2l-28 -189h-30l-35 154l-124 1l-97 -630l88 -10l-5 -28l-151 2l-143 -2l1 28l86 10z" />
    <glyph glyph-name="tcaron" unicode="&#x165;" horiz-adv-x="361" 
d="M343 674l7 38h117l-14 -80l-114 -130l-26 6l64 121zM51 18l72 410h-79l4 16l21 19h60l10 56l99 83h24l-26 -141h111l-7 -33h-110l-66 -382l126 60l11 -18l-176 -104z" />
    <glyph glyph-name="Tbar" unicode="&#x166;" horiz-adv-x="581" 
d="M170 449h95l34 218l-123 -1l-83 -154h-29l28 189l274 -2l273 2l-28 -189h-30l-35 154l-124 1l-34 -218h103l-6 -32h-102l-58 -380l88 -10l-5 -28l-151 2l-143 -2l1 28l86 10l59 380h-96z" />
    <glyph glyph-name="tbar" unicode="&#x167;" horiz-adv-x="336" 
d="M51 18l48 273h-57l4 28h58l19 109h-79l4 16l21 19h60l10 56l99 83h24l-26 -141h111l-7 -33h-110l-19 -109h99l-5 -28h-99l-42 -245l126 60l11 -18l-176 -104z" />
    <glyph glyph-name="Utilde" unicode="&#x168;" horiz-adv-x="646" 
d="M332 879l62 19l163 -68l50 67h18l-50 -113l-61 -16l-165 68l-48 -66h-18zM208 230q-6 -41 0 -75.5t25 -60.5t51 -40.5t76 -14.5q31 12 55.5 26.5t43 37t31 54t19.5 77.5l69 431l-78 9l6 27l100 -2l103 2l-1 -27l-78 -9l-68 -425q-7 -42 -18.5 -77.5t-32.5 -64
t-53.5 -50.5t-80.5 -36l-89 -30q-65 0 -108 17.5t-67 50.5t-30.5 79.5t2.5 103.5l66 432l-74 9l5 27l133 -2l137 2l-1 -27l-74 -9z" />
    <glyph glyph-name="utilde" unicode="&#x169;" horiz-adv-x="536" 
d="M235 691l62 19l163 -68l50 67h18l-50 -113l-61 -17l-164 69l-49 -67h-18zM166 -15q-63 0 -86 32.5t-14 85.5l58 320l-88 -29l-8 20l183 73l27 -25l-60 -337q-5 -30 4.5 -43.5t26.5 -13.5q19 0 39 11.5t43 26.5l36 25l60 342h109l-75 -426l89 58l13 -17l-144 -104l-69 33
l11 68l8 18z" />
    <glyph glyph-name="Umacron" unicode="&#x16a;" horiz-adv-x="646" 
d="M310 853h287l-10 -53h-287zM208 230q-6 -41 0 -75.5t25 -60.5t51 -40.5t76 -14.5q31 12 55.5 26.5t43 37t31 54t19.5 77.5l69 431l-78 9l6 27l100 -2l103 2l-1 -27l-78 -9l-68 -425q-7 -42 -18.5 -77.5t-32.5 -64t-53.5 -50.5t-80.5 -36l-89 -30q-65 0 -108 17.5
t-67 50.5t-30.5 79.5t2.5 103.5l66 432l-74 9l5 27l133 -2l137 2l-1 -27l-74 -9z" />
    <glyph glyph-name="umacron" unicode="&#x16b;" horiz-adv-x="536" 
d="M218 662h286l-9 -53h-287zM166 -15q-63 0 -86 32.5t-14 85.5l58 320l-88 -29l-8 20l183 73l27 -25l-60 -337q-5 -30 4.5 -43.5t26.5 -13.5q19 0 39 11.5t43 26.5l36 25l60 342h109l-75 -426l89 58l13 -17l-144 -104l-69 33l11 68l8 18z" />
    <glyph glyph-name="Ubreve" unicode="&#x16c;" horiz-adv-x="646" 
d="M439 828q24 0 44.5 7t37 17t29.5 21.5t22 20.5l16 -15q-10 -16 -22 -32t-28.5 -31t-40 -30t-57.5 -29q-31 0 -54.5 11t-40 28.5t-27.5 39t-17 42.5l23 15q6 -9 16 -20.5t24 -21t32.5 -16.5t42.5 -7zM208 230q-6 -41 0 -75.5t25 -60.5t51 -40.5t76 -14.5q31 12 55.5 26.5
t43 37t31 54t19.5 77.5l69 431l-78 9l6 27l100 -2l103 2l-1 -27l-78 -9l-68 -425q-7 -42 -18.5 -77.5t-32.5 -64t-53.5 -50.5t-80.5 -36l-89 -30q-65 0 -108 17.5t-67 50.5t-30.5 79.5t2.5 103.5l66 432l-74 9l5 27l133 -2l137 2l-1 -27l-74 -9z" />
    <glyph glyph-name="ubreve" unicode="&#x16d;" horiz-adv-x="536" 
d="M353 626q24 0 43.5 8t36 20t28.5 25.5t21 25.5l18 -16q-10 -18 -22 -35t-29 -33.5t-40.5 -32t-57.5 -31.5q-30 0 -53 12t-39.5 31t-27 42.5t-16.5 45.5l25 16q6 -12 15.5 -25.5t23 -25t32 -19.5t42.5 -8zM166 -15q-63 0 -86 32.5t-14 85.5l58 320l-88 -29l-8 20l183 73
l27 -25l-60 -337q-5 -30 4.5 -43.5t26.5 -13.5q19 0 39 11.5t43 26.5l36 25l60 342h109l-75 -426l89 58l13 -17l-144 -104l-69 33l11 68l8 18z" />
    <glyph glyph-name="Uring" unicode="&#x16e;" horiz-adv-x="646" 
d="M547 842q0 -25 -8.5 -41t-23 -26.5t-33.5 -17.5t-41 -14q-20 0 -40 5t-35.5 16.5t-25 30.5t-9.5 46q0 24 9 40.5t24 28t34.5 19t40.5 13.5q22 0 41.5 -5t34.5 -16.5t23.5 -31t8.5 -47.5zM373 841q0 -29 18.5 -47t47.5 -18t48 18t19 47t-19 48.5t-48 19.5t-47.5 -19.5
t-18.5 -48.5zM208 230q-6 -41 0 -75.5t25 -60.5t51 -40.5t76 -14.5q31 12 55.5 26.5t43 37t31 54t19.5 77.5l69 431l-78 9l6 27l100 -2l103 2l-1 -27l-78 -9l-68 -425q-7 -42 -18.5 -77.5t-32.5 -64t-53.5 -50.5t-80.5 -36l-89 -30q-65 0 -108 17.5t-67 50.5t-30.5 79.5
t2.5 103.5l66 432l-74 9l5 27l133 -2l137 2l-1 -27l-74 -9z" />
    <glyph glyph-name="uring" unicode="&#x16f;" horiz-adv-x="536" 
d="M451 642q0 -25 -8.5 -40.5t-23 -26t-34 -17.5t-41.5 -15q-20 0 -39.5 5t-35.5 16.5t-25.5 30t-9.5 46.5q0 24 9 40.5t24 28t34.5 19t40.5 13.5q22 0 42 -5t35 -16.5t23.5 -31t8.5 -47.5zM277 641q0 -29 18.5 -47t47.5 -18t48 18t19 47t-19 48.5t-48 19.5t-47.5 -19.5
t-18.5 -48.5zM166 -15q-63 0 -86 32.5t-14 85.5l58 320l-88 -29l-8 20l183 73l27 -25l-60 -337q-5 -30 4.5 -43.5t26.5 -13.5q19 0 39 11.5t43 26.5l36 25l60 342h109l-75 -426l89 58l13 -17l-144 -104l-69 33l11 68l8 18z" />
    <glyph glyph-name="Uhungarumlaut" unicode="&#x170;" horiz-adv-x="646" 
d="M309 764l59 139h123l-145 -139h-37zM482 764l60 139h122l-145 -139h-37zM208 230q-6 -41 0 -75.5t25 -60.5t51 -40.5t76 -14.5q31 12 55.5 26.5t43 37t31 54t19.5 77.5l69 431l-78 9l6 27l100 -2l103 2l-1 -27l-78 -9l-68 -425q-7 -42 -18.5 -77.5t-32.5 -64t-53.5 -50.5
t-80.5 -36l-89 -30q-65 0 -108 17.5t-67 50.5t-30.5 79.5t2.5 103.5l66 432l-74 9l5 27l133 -2l137 2l-1 -27l-74 -9z" />
    <glyph glyph-name="uhungarumlaut" unicode="&#x171;" horiz-adv-x="536" 
d="M221 551l73 171h118l-159 -171h-32zM395 551l74 171h117l-158 -171h-33zM166 -15q-63 0 -86 32.5t-14 85.5l58 320l-88 -29l-8 20l183 73l27 -25l-60 -337q-5 -30 4.5 -43.5t26.5 -13.5q19 0 39 11.5t43 26.5l36 25l60 342h109l-75 -426l89 58l13 -17l-144 -104l-69 33
l11 68l8 18z" />
    <glyph glyph-name="Uogonek" unicode="&#x172;" horiz-adv-x="646" 
d="M208 230q-6 -41 0 -75.5t25 -60.5t51 -40.5t76 -14.5q31 12 55.5 26.5t43 37t31 54t19.5 77.5l69 431l-78 9l6 27l100 -2l103 2l-1 -27l-78 -9l-68 -425q-6 -39 -16.5 -72.5t-28.5 -61t-45 -49t-67 -36.5l-78 -132l-7 -40q-5 -32 17 -50t79 -18l-4 -24
q-102 0 -139.5 25.5t-29.5 75.5l9 50l116 101l-80 -27q-65 0 -108 17.5t-67 50.5t-30.5 79.5t2.5 103.5l66 432l-74 9l5 27l133 -2l137 2l-1 -27l-74 -9z" />
    <glyph glyph-name="uogonek" unicode="&#x173;" horiz-adv-x="536" 
d="M433 -243q-102 0 -139.5 25.5t-28.5 75.5l9 54l95 77l-59 28l11 68l8 18l-163 -118q-63 0 -86 32.5t-14 85.5l58 320l-88 -29l-8 20l183 73l27 -25l-60 -337q-5 -30 4.5 -43.5t26.5 -13.5q19 0 39 11.5t43 26.5l36 25l60 342h109l-75 -426l89 58l13 -17l-92 -66l-82 -134
l-8 -39q-5 -33 17 -51.5t80 -18.5l-5 -22v0z" />
    <glyph glyph-name="Wcircumflex" unicode="&#x174;" horiz-adv-x="947" 
d="M428 764l136 143h65l82 -143h-39l-86 79h-3l-116 -79h-39zM520 430l2 28l-177 -447l-95 -27l-106 681l-69 9l6 27l138 -2l125 2l-1 -27l-74 -10l77 -537l-6 -31l165 417l-23 152l-55 9l5 27l126 -2l136 2l-1 -27l-86 -10l77 -537l-5 -31l225 568l-83 10l5 27l105 -2l83 2
l-1 -27l-59 -9l-271 -654l-95 -27z" />
    <glyph glyph-name="wcircumflex" unicode="&#x175;" horiz-adv-x="689" 
d="M273 551l136 178h55l73 -178h-33l-81 99h-2l-115 -99h-33zM346 8l-5 177l6 32l-144 -231l-99 22l-12 415l-87 -30l-8 20l180 75l27 -27l5 -390l-4 -26l133 214l-5 177l113 40l5 -406l-5 -25l184 291l-78 93l94 59l38 -44l-17 -116l-223 -342z" />
    <glyph glyph-name="Ycircumflex" unicode="&#x176;" horiz-adv-x="634" 
d="M296 764l136 143h65l82 -143h-39l-86 79h-2l-117 -79h-39zM389 347v-25l211 342l-82 10l5 27l104 -2l75 2l-1 -27l-53 -9l-240 -381l-38 -247l95 -10l-5 -28l-158 2l-156 -2v28l100 10l39 248l-154 380l-55 9l5 27l122 -2l143 2v-27l-79 -10z" />
    <glyph glyph-name="ycircumflex" unicode="&#x177;" horiz-adv-x="473" 
d="M167 551l136 178h55l73 -178h-32l-82 99h-2l-116 -99h-32zM239 20l-91 -18l-60 420l-86 -30l-9 19l168 77l38 -22l53 -422l163 295l-80 90l94 59l39 -43l-17 -118l-168 -297l-164 -266l-125 1l20 108h106z" />
    <glyph glyph-name="Ydieresis" unicode="&#x178;" horiz-adv-x="634" 
d="M351 878l45 -5l-2 -50l-18 -45l-44 -6l-45 6l2 52l20 43zM555 878l44 -5l-2 -50l-18 -45l-43 -6l-45 6l2 52l20 43zM389 347v-25l211 342l-82 10l5 27l104 -2l75 2l-1 -27l-53 -9l-240 -381l-38 -247l95 -10l-5 -28l-158 2l-156 -2v28l100 10l39 248l-154 380l-55 9l5 27
l122 -2l143 2v-27l-79 -10z" />
    <glyph glyph-name="Zacute" unicode="&#x179;" horiz-adv-x="561" 
d="M320 764l58 139h117l-139 -139h-36zM-3 0l-4 28l446 621l29 20l-263 -5l-90 -156h-28l32 192h470l10 -27l-444 -622l-26 -17l280 2l109 170h27l-49 -206h-499z" />
    <glyph glyph-name="zacute" unicode="&#x17a;" horiz-adv-x="430" 
d="M244 551l84 174h111l-162 -174h-33zM56 27l-43 -33l-22 15l334 369l-41 -19l-179 22l-29 -38l-19 7l65 133l273 -28l29 20l20 -14l-320 -356l35 15l199 -29l36 40l18 -7l-68 -138z" />
    <glyph glyph-name="Zdotaccent" unicode="&#x17b;" horiz-adv-x="561" 
d="M329 876l43 5l52 -6l-1 -54l-19 -47l-40 -5l-59 5l5 56zM-3 0l-4 28l446 621l29 20l-263 -5l-90 -156h-28l32 192h470l10 -27l-444 -622l-26 -17l280 2l109 170h27l-49 -206h-499z" />
    <glyph glyph-name="zdotaccent" unicode="&#x17c;" horiz-adv-x="430" 
d="M266 701l42 5l53 -5l-2 -55l-19 -47l-40 -6l-58 6l4 55zM56 27l-43 -33l-22 15l334 369l-41 -19l-179 22l-29 -38l-19 7l65 133l273 -28l29 20l20 -14l-320 -356l35 15l199 -29l36 40l18 -7l-68 -138z" />
    <glyph glyph-name="Zcaron" unicode="&#x17d;" horiz-adv-x="561" 
d="M244 907h40l85 -78h3l116 78h40l-137 -143h-65zM-3 0l-4 28l446 621l29 20l-263 -5l-90 -156h-28l32 192h470l10 -27l-444 -622l-26 -17l280 2l109 170h27l-49 -206h-499z" />
    <glyph glyph-name="zcaron" unicode="&#x17e;" horiz-adv-x="430" 
d="M450 731l-136 -177h-55l-73 177h32l82 -98h1l117 98h32zM56 27l-43 -33l-22 15l334 369l-41 -19l-179 22l-29 -38l-19 7l65 133l273 -28l29 20l20 -14l-320 -356l35 15l199 -29l36 40l18 -7l-68 -138z" />
    <glyph glyph-name="longs" unicode="&#x17f;" horiz-adv-x="319" 
d="M42 427l4 17l20 18h62l6 37q8 45 32 81t59 58l122 76h85l-17 -89h-130q-14 -15 -22.5 -39t-13.5 -50l-96 -545q-8 -45 -34.5 -81t-67.5 -64l-118 -81h-63l19 99h114q14 18 22.5 41.5t13.5 48.5l82 473h-79z" />
    <glyph glyph-name="florin" unicode="&#x192;" horiz-adv-x="364" 
d="M-96 -134h115q14 17 22 40.5t13 48.5l82 473h-81l5 16l21 18h62l6 38q8 45 32 81t59 59l121 75h82l-17 -90h-127q-14 -15 -23 -39t-13 -50l-13 -75h105l-8 -33h-103l-76 -438q-8 -44 -33.5 -78.5t-64.5 -61.5l-122 -84h-63z" />
    <glyph glyph-name="Aringacute" unicode="&#x1fa;" horiz-adv-x="680" 
d="M591 842q0 -25 -8.5 -41t-23 -26.5t-34 -17.5t-41.5 -14q-20 0 -40 5t-35.5 16.5t-25 30.5t-9.5 46q0 24 9 40.5t24 28t35 19t41 13.5l24 46l102 2l-74 -58q25 -9 40.5 -30.5t15.5 -59.5zM417 841q0 -29 18.5 -47t47.5 -18t47.5 18t18.5 47t-18.5 48.5t-47.5 19.5
t-47.5 -19.5t-18.5 -48.5zM226 273h205l-23 298l1 35zM172 -1l-100 2l-97 -2l2 28l71 9l369 651l100 29l66 -680l69 -9l-6 -28l-145 2l-133 -2l1 28l82 10l-17 201h-226l-111 -201l81 -10z" />
    <glyph glyph-name="aringacute" unicode="&#x1fb;" horiz-adv-x="500" 
d="M479 642q0 -25 -8.5 -40.5t-23 -26t-34 -17.5t-41.5 -15q-20 0 -39.5 5t-35 16.5t-25 30t-9.5 46.5q0 24 9 40.5t24 28t34 19t40 13.5l25 46l102 2l-74 -57q25 -10 40.5 -31.5t15.5 -59.5zM305 641q0 -29 18.5 -47t47.5 -18t47.5 18t18.5 47t-18.5 48.5t-47.5 19.5
t-47.5 -19.5t-18.5 -48.5zM148 212q0 -48 15 -82.5t43 -57.5l95 79l44 250q-20 13 -49 21t-52 8q-45 -34 -70.5 -91.5t-25.5 -126.5zM391 47l88 60l13 -18l-139 -105l-75 35l15 83l9 23l-154 -140q-25 9 -46 23.5t-36 36t-23.5 51.5t-8.5 69q0 95 53.5 167t144.5 117l80 39
q15 0 33.5 -3.5t38.5 -9t40 -12.5t38 -16z" />
    <glyph glyph-name="AEacute" unicode="&#x1fc;" horiz-adv-x="890" 
d="M579 764l57 139h118l-140 -139h-35zM296 355h147l48 311zM-24 27l71 9l425 665l79 -2l361 2l-15 -180h-26l-45 144l-214 1l-48 -311l109 2l67 120h21l-29 -137l-15 -139h-21l-29 118l-109 2l-42 -287l228 2l87 157h28l-39 -194l-374 2l-130 -2v28l78 10l43 284h-161
l-178 -284l81 -10l-7 -28l-103 2l-95 -2z" />
    <glyph glyph-name="aeacute" unicode="&#x1fd;" horiz-adv-x="684" 
d="M505 63q13 6 29 14t33 17t33.5 18t28.5 17l13 -18q-26 -19 -61 -42t-71 -44l-67 -40q-54 5 -96 39t-57 93l-142 -132q-50 18 -83 59.5t-33 120.5q0 95 53.5 167t144.5 117l80 39q31 -1 73 -14t77 -31l14 7l95 37q43 -8 70.5 -34t27.5 -76q0 -18 -3.5 -37t-13.5 -44
l-254 -76v-10q5 -66 36.5 -101t72.5 -46zM147 212q0 -48 15 -82.5t44 -57.5l78 66q-1 5 -1 10v10q-4 63 18 123t70 105q-29 18 -64 31t-65 13q-45 -34 -70 -91.5t-25 -126.5zM499 438q-38 -21 -59 -60.5t-31 -83.5q-12 -22 -13 -52l143 53q7 18 9 33.5t2 31.5q0 33 -14.5 53
t-36.5 25zM396 551l84 174h111l-162 -174h-33z" />
    <glyph glyph-name="Oslashacute" unicode="&#x1fe;" horiz-adv-x="696" 
d="M417 718q56 0 102.5 -18t81.5 -50l55 64h41l-75 -86q34 -40 52.5 -95t18.5 -121q0 -59 -15.5 -120t-49 -115.5t-87.5 -98.5t-132 -69l-80 -27q-61 0 -111 21t-86 59l-66 -77h-43l89 102q-29 39 -44 90t-15 112q0 59 15 120.5t49 116t88 98.5t131 68zM556 396q0 38 -5 71
t-14 62l-324 -374q23 -59 62 -92t89 -39q46 18 82 54.5t60.5 85.5t37 108.5t12.5 123.5zM189 305q0 -32 3.5 -60t9.5 -54l322 371q-23 51 -60 80.5t-82 35.5q-45 -17 -81 -53.5t-61 -86t-38 -109.5t-13 -124zM391 764l58 139h117l-138 -139h-37z" />
    <glyph glyph-name="oslashacute" unicode="&#x1ff;" horiz-adv-x="489" 
d="M297 488q36 0 68 -13t56 -39l44 47h35l-62 -67q16 -23 25 -54t9 -69q0 -90 -48.5 -164.5t-142.5 -113.5l-71 -30q-36 0 -68.5 13t-56.5 39l-42 -45h-37l62 67q-15 23 -23.5 53.5t-8.5 68.5q0 90 48 163t142 113zM356 267q0 16 -1.5 29.5t-3.5 26.5l-188 -202
q13 -41 37 -62.5t53 -28.5q28 12 48 38.5t32 59.5t17.5 69.5t5.5 69.5zM254 443q-29 -13 -48.5 -39t-31.5 -59t-17 -69t-5 -69q0 -15 1 -29t3 -26l188 202q-13 40 -37 60.5t-53 28.5zM268 551l84 174h111l-162 -174h-33z" />
    <glyph glyph-name="Scommaaccent" unicode="&#x218;" horiz-adv-x="500" 
d="M158 -94l7 42h111l-13 -77l-108 -115l-26 6l56 109zM494 510h-36l-17 107q-28 28 -65.5 42.5t-81.5 15.5q-49 -16 -69 -42t-20 -59q0 -20 5.5 -36t16 -30t25.5 -27.5t34 -29.5l102 -82q18 -15 34 -31t28 -35.5t19 -44t7 -55.5q0 -59 -40 -110.5t-112 -76.5l-98 -34
q-69 0 -123 17.5t-89 43.5l35 163h42l2 -99q13 -14 33.5 -27.5t45 -25t51.5 -18.5t53 -7q45 16 65.5 47.5t20.5 71.5q0 22 -5.5 40t-16 33t-24.5 29t-32 28l-99 78q-38 31 -64.5 68t-26.5 88q0 114 151 172l88 34q69 0 115 -14t76 -34z" />
    <glyph glyph-name="scommaaccent" unicode="&#x219;" horiz-adv-x="378" 
d="M62 -93l7 41h112l-14 -77l-107 -115l-27 7l57 108zM121 -15q-12 3 -28.5 9.5t-33 14t-31.5 15t-23 12.5l51 82q27 -17 66 -39.5t80 -41.5q41 13 41 53q0 19 -8 36t-31 37l-90 73q-22 18 -35 42t-13 52q0 37 26.5 68t89.5 57l77 33q22 -3 53.5 -15.5t60.5 -26.5l-50 -83
q-29 19 -66.5 39t-69.5 34q-35 -14 -35 -49q0 -18 8.5 -33t29.5 -33l87 -71q30 -26 42 -50t12 -54q0 -45 -26 -74.5t-76 -47.5z" />
    <glyph glyph-name="uni021A" unicode="&#x21a;" horiz-adv-x="581" 
d="M189 -94l7 42h111l-13 -77l-108 -115l-26 6l56 109zM299 667l-123 -1l-83 -154h-29l28 189l274 -2l273 2l-28 -189h-30l-35 154l-124 1l-97 -630l88 -10l-5 -28l-151 2l-143 -2l1 28l86 10z" />
    <glyph glyph-name="uni021B" unicode="&#x21b;" horiz-adv-x="336" 
d="M44 -94l7 42h112l-13 -77l-108 -115l-26 6l55 109zM51 18l72 410h-79l4 16l21 19h60l10 56l99 83h24l-26 -141h111l-7 -33h-110l-66 -382l126 60l11 -18l-176 -104z" />
    <glyph glyph-name="hsuperior" unicode="&#x2b0;" horiz-adv-x="345" 
d="M158 400h-83l69 357l-52 -12l-5 13l123 36l22 -17l-32 -160l-5 -11l102 66q40 0 55.5 -17t8.5 -55l-35 -169l52 31l9 -11l-88 -59l-59 22l34 173q2 12 -2.5 19.5t-16.5 7.5q-17 0 -40 -15l-20 -10z" />
    <glyph glyph-name="jsuperior" unicode="&#x2b2;" horiz-adv-x="169" 
d="M-34 271l14 68h72q8 13 12 27.5t7 30.5l46 234l-48 -14l-6 13l117 41l25 -20l-46 -234q-5 -28 -28 -51t-54 -45l-75 -50h-36zM153 782l24 5l47 -5v-38l-13 -31l-23 -5l-51 5l2 35z" />
    <glyph glyph-name="wsuperior" unicode="&#x2b7;" horiz-adv-x="431" 
d="M383 633l68 39l26 -24l-11 -72l-132 -183l-75 13l-3 83l4 20l-81 -116l-74 13l-8 226l-49 -15l-6 13l115 42l26 -22l3 -197l-2 -17l71 101l-4 102l86 26l3 -214l-3 -18l98 142z" />
    <glyph glyph-name="ysuperior" unicode="&#x2b8;" horiz-adv-x="294" 
d="M59 346h74l67 70l-72 -15l-37 231l-48 -15l-6 13l112 42l26 -18l33 -222l92 145l-54 56l66 39l28 -23l-12 -74l-100 -159l-100 -145h-83z" />
    <glyph glyph-name="apostrophemod" unicode="&#x2bc;" horiz-adv-x="241" 
d="M96 447q4 7 16.5 28t26 44.5t24.5 43.5t12 25l-59 4l5 61l19 52l78 5l33 -5l-5 -60l-17 -53l-109 -156z" />
    <glyph glyph-name="circumflex" unicode="&#x2c6;" horiz-adv-x="495" 
d="M116 551l137 178h55l73 -178h-33l-81 99h-2l-116 -99h-33z" />
    <glyph glyph-name="caron" unicode="&#x2c7;" horiz-adv-x="497" 
d="M387 731l-136 -176h-55l-74 176h33l81 -98h3l116 98h32z" />
    <glyph glyph-name="breve" unicode="&#x2d8;" horiz-adv-x="497" 
d="M247 626q24 0 43.5 8t36 20t28.5 25.5t21 25.5l18 -16q-11 -18 -22.5 -35t-28.5 -33.5t-40.5 -32t-56.5 -31.5q-30 0 -53.5 12t-40 31t-27 42.5t-15.5 45.5l24 16q6 -12 15.5 -25.5t23 -25t32 -19.5t42.5 -8z" />
    <glyph glyph-name="dotaccent" unicode="&#x2d9;" horiz-adv-x="456" 
d="M198 701l42 5l53 -5l-2 -55l-19 -47l-39 -6l-59 6l5 55z" />
    <glyph glyph-name="ring" unicode="&#x2da;" horiz-adv-x="479" 
d="M348 642q0 -25 -8.5 -40.5t-23 -26t-33.5 -17.5t-41 -15q-20 0 -40 5t-35.5 16.5t-25 30t-9.5 46.5q0 24 9 40.5t24 28t34.5 19t40.5 13.5q22 0 41.5 -5t34.5 -16.5t23.5 -31t8.5 -47.5zM174 641q0 -29 18.5 -47t47.5 -18t48 18t19 47t-19 48.5t-48 19.5t-47.5 -19.5
t-18.5 -48.5z" />
    <glyph glyph-name="ogonek" unicode="&#x2db;" horiz-adv-x="570" 
d="M289 -112l-8 -39q-5 -33 17 -51.5t79 -18.5l-4 -22q-102 0 -139.5 25.5t-28.5 75.5l10 54l142 117h19z" />
    <glyph glyph-name="tilde" unicode="&#x2dc;" horiz-adv-x="503" 
d="M127 691l62 19l163 -68l50 67h18l-50 -113l-60 -17l-165 69l-48 -67h-19z" />
    <glyph glyph-name="hungarumlaut" unicode="&#x2dd;" horiz-adv-x="531" 
d="M82 551l74 171h117l-158 -171h-33zM257 551l73 171h118l-158 -171h-33z" />
    <glyph glyph-name="xsuperior" unicode="&#x2e3;" horiz-adv-x="299" 
d="M194 414l-26 79v10l-70 -105h-64l17 77h59q2 1 7 5t10.5 9.5l10.5 10.5t8 7l14 13l-38 114l-52 -16l-6 13l114 42l25 -20l25 -77v-12l68 103h66l-17 -78h-59q-4 -2 -15.5 -13t-17.5 -16l-16 -12l39 -119l56 32l8 -10l-89 -59z" />
    <glyph glyph-name="Delta" unicode="&#x394;" horiz-adv-x="688" 
d="M20 0v35l307 662l45 16l296 -677v-36h-648zM522 38l-213 503l-3 27l-238 -530h454z" />
    <glyph glyph-name="Omega" unicode="&#x3a9;" horiz-adv-x="714" 
d="M275 135q-45 7 -88.5 27.5t-77 54t-54 81.5t-20.5 110q0 115 77.5 192t254.5 115q70 0 127.5 -22t98.5 -60t63.5 -89t22.5 -109q0 -67 -17.5 -114t-49.5 -80.5t-76 -57t-98 -44.5v-65l185 16l29 80h27v-170h-284v166q21 2 46 15t46.5 41t35.5 73.5t14 112.5
q0 60 -15 108.5t-41 83t-62 53.5t-78 19q-36 0 -65.5 -18t-51.5 -50t-34 -75t-12 -92q0 -60 12.5 -109t32.5 -84t45 -55.5t51 -22.5v-166h-283v170h26l27 -80l186 -16v61z" />
    <glyph glyph-name="mu" unicode="&#x3bc;" 
d="M169 -230h-111l123 703h108l-62 -348q-5 -30 4.5 -43.5t27.5 -13.5t38 11.5t43 26.5l37 25l60 342h108l-74 -424l89 56l13 -17l-144 -104l-70 34l11 68l8 17l-163 -119q-29 0 -49.5 9t-30.5 25l-4 -49z" />
    <glyph glyph-name="pi" unicode="&#x3c0;" 
d="M517 64l8 -20l-139 -52l-51 59l66 379h-124l-75 -430h-113l76 430h-45l-64 -113h-25l26 151h563l-7 -38h-99l-68 -387z" />
    <glyph glyph-name="Wgrave" unicode="&#x1e80;" horiz-adv-x="947" 
d="M556 764l-103 139h111l26 -139h-34zM520 430l2 28l-177 -447l-95 -27l-106 681l-69 9l6 27l138 -2l125 2l-1 -27l-74 -10l77 -537l-6 -31l165 417l-23 152l-55 9l5 27l126 -2l136 2l-1 -27l-86 -10l77 -537l-5 -31l225 568l-83 10l5 27l105 -2l83 2l-1 -27l-59 -9
l-271 -654l-95 -27z" />
    <glyph glyph-name="wgrave" unicode="&#x1e81;" horiz-adv-x="689" 
d="M388 551l-96 174h109l18 -174h-31zM346 8l-5 177l6 32l-144 -231l-99 22l-12 415l-87 -30l-8 20l180 75l27 -27l5 -390l-4 -26l133 214l-5 177l113 40l5 -406l-5 -25l184 291l-78 93l94 59l38 -44l-17 -116l-223 -342z" />
    <glyph glyph-name="Wacute" unicode="&#x1e82;" horiz-adv-x="947" 
d="M531 764l57 139h117l-138 -139h-36zM520 430l2 28l-177 -447l-95 -27l-106 681l-69 9l6 27l138 -2l125 2l-1 -27l-74 -10l77 -537l-6 -31l165 417l-23 152l-55 9l5 27l126 -2l136 2l-1 -27l-86 -10l77 -537l-5 -31l225 568l-83 10l5 27l105 -2l83 2l-1 -27l-59 -9
l-271 -654l-95 -27z" />
    <glyph glyph-name="wacute" unicode="&#x1e83;" horiz-adv-x="689" 
d="M343 551l84 174h111l-162 -174h-33zM346 8l-5 177l6 32l-144 -231l-99 22l-12 415l-87 -30l-8 20l180 75l27 -27l5 -390l-4 -26l133 214l-5 177l113 40l5 -406l-5 -25l184 291l-78 93l94 59l38 -44l-17 -116l-223 -342z" />
    <glyph glyph-name="Wdieresis" unicode="&#x1e84;" horiz-adv-x="947" 
d="M495 878l44 -5l-1 -50l-19 -45l-42 -6l-46 6l3 52l18 43zM699 878l44 -5l-1 -50l-19 -45l-42 -6l-46 6l3 52l19 43zM520 430l2 28l-177 -447l-95 -27l-106 681l-69 9l6 27l138 -2l125 2l-1 -27l-74 -10l77 -537l-6 -31l165 417l-23 152l-55 9l5 27l126 -2l136 2l-1 -27
l-86 -10l77 -537l-5 -31l225 568l-83 10l5 27l105 -2l83 2l-1 -27l-59 -9l-271 -654l-95 -27z" />
    <glyph glyph-name="wdieresis" unicode="&#x1e85;" horiz-adv-x="689" 
d="M355 688l42 -6l-1 -49l-18 -44l-41 -5l-46 5l3 51l18 42zM531 688l42 -6l-2 -49l-18 -44l-41 -5l-46 5l3 51l19 42zM346 8l-5 177l6 32l-144 -231l-99 22l-12 415l-87 -30l-8 20l180 75l27 -27l5 -390l-4 -26l133 214l-5 177l113 40l5 -406l-5 -25l184 291l-78 93l94 59
l38 -44l-17 -116l-223 -342z" />
    <glyph glyph-name="Ygrave" unicode="&#x1ef2;" horiz-adv-x="634" 
d="M413 764l-104 139h111l26 -139h-33zM389 347v-25l211 342l-82 10l5 27l104 -2l75 2l-1 -27l-53 -9l-240 -381l-38 -247l95 -10l-5 -28l-158 2l-156 -2v28l100 10l39 248l-154 380l-55 9l5 27l122 -2l143 2v-27l-79 -10z" />
    <glyph glyph-name="ygrave" unicode="&#x1ef3;" horiz-adv-x="473" 
d="M283 551l-95 174h110l16 -174h-31zM239 20l-91 -18l-60 420l-86 -30l-9 19l168 77l38 -22l53 -422l163 295l-80 90l94 59l39 -43l-17 -118l-168 -297l-164 -266l-125 1l20 108h106z" />
    <glyph glyph-name="endash" unicode="&#x2013;" horiz-adv-x="619" 
d="M69 302h508l-8 -45h-509z" />
    <glyph glyph-name="emdash" unicode="&#x2014;" horiz-adv-x="895" 
d="M79 302h774l-7 -45h-776z" />
    <glyph glyph-name="quoteleft" unicode="&#x2018;" horiz-adv-x="230" 
d="M243 704q-4 -6 -16.5 -27t-26 -45t-24.5 -44t-12 -25l59 -4l-5 -62l-18 -51l-78 -5l-34 5l5 60l18 53l108 155z" />
    <glyph glyph-name="quoteright" unicode="&#x2019;" horiz-adv-x="242" 
d="M100 447q4 7 16.5 28t26 44.5t24.5 43.5t12 25l-59 4l5 61l18 52l78 5l34 -5l-5 -60l-18 -53l-109 -156z" />
    <glyph glyph-name="quotesinglbase" unicode="&#x201a;" horiz-adv-x="249" 
d="M17 -138q4 7 16.5 28t26 44.5t24.5 43.5t12 25l-59 4l5 63l20 50l77 7l33 -7l-5 -59l-17 -54l-109 -155z" />
    <glyph glyph-name="quotedblleft" unicode="&#x201c;" horiz-adv-x="404" 
d="M416 705q-4 -7 -16.5 -28t-26 -44.5t-24 -43.5t-11.5 -25l59 -4l-5 -62l-19 -51l-77 -5l-34 5l5 60l17 53l109 156zM243 705q-4 -7 -16.5 -28t-26 -44.5t-24.5 -43.5t-12 -25l59 -4l-5 -62l-18 -51l-78 -5l-34 5l5 60l18 53l108 156z" />
    <glyph glyph-name="quotedblright" unicode="&#x201d;" horiz-adv-x="418" 
d="M100 448q4 6 16.5 27t26 45t24.5 44t12 25l-59 3l5 62l18 51l78 6l34 -6l-5 -59l-18 -54l-109 -155zM274 448q4 6 16 27t25.5 45t24.5 44t12 25l-59 3l6 62l18 51l77 6l34 -6l-5 -59l-17 -54l-109 -155z" />
    <glyph glyph-name="quotedblbase" unicode="&#x201e;" horiz-adv-x="423" 
d="M191 -138q4 7 16.5 28t26 44.5t24.5 43.5t12 25l-59 4l5 63l19 50l77 7l34 -7l-5 -59l-18 -54l-109 -155zM17 -138q4 7 16.5 28t26 44.5t24.5 43.5t12 25l-59 4l5 63l20 50l77 7l33 -7l-5 -59l-17 -54l-109 -155z" />
    <glyph glyph-name="dagger" unicode="&#x2020;" horiz-adv-x="445" 
d="M80 553l170 -42l-11 199h118l-81 -199l189 42l-19 -110l-175 43l1 -116l31 -43l-59 -103l-74 -284h-13l25 284l-23 103l46 43l41 116l-185 -43z" />
    <glyph glyph-name="daggerdbl" unicode="&#x2021;" horiz-adv-x="508" 
d="M238 370l41 116l-185 -43l19 110l170 -42l-11 199h118l-82 -199l190 42l-20 -110l-174 43l1 -116l31 -41l-46 -43l-42 -116l187 45l-19 -111l-173 42l13 -200h-118l81 200l-188 -42l19 111l173 -45v116l-31 43z" />
    <glyph glyph-name="bullet" unicode="&#x2022;" horiz-adv-x="277" 
d="M174 371l38 -5l-6 -65l-17 -60l-86 -5l-38 5l7 68l18 57z" />
    <glyph glyph-name="ellipsis" unicode="&#x2026;" horiz-adv-x="785" 
d="M167 123l30 -6l-5 -62l-17 -55l-84 -6l-31 6l5 64l18 53zM418 123l30 -6l-4 -62l-18 -55l-84 -6l-31 6l5 64l18 53zM670 123l30 -6l-5 -62l-18 -55l-83 -6l-31 6l5 64l17 53z" />
    <glyph glyph-name="perthousand" unicode="&#x2030;" horiz-adv-x="1111" 
d="M101 -5h-58l665 710h57zM214 350q-53 0 -87.5 36t-32.5 98q2 72 41.5 128t127.5 82l19 7q58 0 90.5 -37.5t30.5 -96.5q-1 -36 -11 -69t-30.5 -60.5t-52 -48.5t-75.5 -32zM263 669q-21 -6 -37 -22t-26.5 -39t-16.5 -51t-7 -58q-2 -53 14 -82.5t45 -34.5q20 6 35.5 22
t26 39t16.5 51t6 58q2 54 -13 83t-43 34zM880 0q-27 0 -49 9.5t-38 26.5t-25 42t-8 55q2 73 41.5 129t126.5 82l20 7q57 0 89.5 -37.5t30.5 -96.5q-2 -72 -41.5 -129.5t-126.5 -81.5zM528 0q-27 0 -49.5 9.5t-38.5 26.5t-24.5 42t-7.5 55q2 73 41.5 129t126.5 82l20 7
q57 0 89.5 -37.5t30.5 -96.5q-1 -36 -11 -69t-30.5 -60.5t-51.5 -48.5t-75 -33zM928 319q-21 -6 -37 -22t-26.5 -39t-16 -51t-6.5 -58q-2 -54 13.5 -83.5t44.5 -34.5q20 6 35.5 22t26.5 39t17 51t7 58q2 54 -14 83.5t-44 34.5zM577 319q-21 -6 -37 -22t-27 -39t-16.5 -51
t-6.5 -58q-2 -54 14 -83.5t45 -34.5q20 6 35.5 22t26 39t16.5 51t6 58q2 54 -13.5 83.5t-42.5 34.5z" />
    <glyph glyph-name="guilsinglleft" unicode="&#x2039;" horiz-adv-x="301" 
d="M177 15l-142 220l221 220h40l-167 -220l90 -220h-42z" />
    <glyph glyph-name="guilsinglright" unicode="&#x203a;" horiz-adv-x="322" 
d="M29 15l167 220l-90 220h41l144 -220l-220 -220h-42z" />
    <glyph glyph-name="fraction" unicode="&#x2044;" horiz-adv-x="166" 
d="M-137 -50h-49l521 760h47z" />
    <glyph glyph-name="zerosuperior" unicode="&#x2070;" horiz-adv-x="381" 
d="M87 546q0 34 9 69.5t29.5 67t52 57.5t76.5 40l46 15q58 0 92 -41t34 -114q0 -34 -9.5 -69.5t-30 -67.5t-53 -57.5t-77.5 -40.5l-45 -14q-57 0 -90.5 41t-33.5 114zM236 419q44 23 71 80t27 129q0 63 -17 96t-43 42q-22 -11 -39.5 -31.5t-30 -47.5t-19.5 -60t-7 -69
q0 -63 16.5 -96t41.5 -43z" />
    <glyph glyph-name="foursuperior" unicode="&#x2074;" horiz-adv-x="341" 
d="M311 554h73l-7 -37h-73l-22 -117h-81l23 117h-151l-12 26l223 246h97l-5 -21l-281 -222l23 9h112l12 58l76 46h14z" />
    <glyph glyph-name="fivesuperior" unicode="&#x2075;" horiz-adv-x="327" 
d="M137 606l102 52q60 0 86.5 -24t26.5 -56q0 -29 -13.5 -51.5t-34.5 -39.5t-46.5 -29.5t-49.5 -22.5l-86 -38h-54l13 69h135q42 33 42 79q0 25 -13.5 43t-45.5 18q-15 0 -29.5 -4t-30.5 -11l-22 -10l-9 8l62 197h219l-4 -14l-25 -54h-185z" />
    <glyph glyph-name="sixsuperior" unicode="&#x2076;" horiz-adv-x="337" 
d="M382 782q-47 -15 -81 -36.5t-58 -46t-37.5 -51.5t-18.5 -54l97 60q42 -2 65 -30.5t23 -66.5q0 -54 -31.5 -92.5t-87.5 -56.5l-52 -17q-51 0 -84 35t-33 96q0 47 22 91.5t61 81t93 63.5t117 39zM184 576q-3 -14 -4 -27.5t-1 -27.5q0 -43 12.5 -69t35.5 -35q29 16 41 47.5
t12 60.5q0 35 -10 55.5t-27 20.5q-10 0 -19 -4t-22 -12z" />
    <glyph glyph-name="sevensuperior" unicode="&#x2077;" horiz-adv-x="303" 
d="M100 785h266l11 -14l-240 -371h-59l1 24l235 294l-13 -5h-213z" />
    <glyph glyph-name="eightsuperior" unicode="&#x2078;" horiz-adv-x="344" 
d="M266 636q20 13 30.5 33t10.5 42q0 24 -12.5 41.5t-39.5 21.5q-22 -8 -31 -25.5t-9 -36.5q0 -20 12.5 -37.5t38.5 -38.5zM195 390q-25 0 -47 6t-38.5 17.5t-26 27t-9.5 35.5q0 23 10 40t26.5 30.5t36.5 23.5t41 19q-29 21 -47 42t-18 49q0 20 8.5 36t23.5 28.5t34.5 21.5
t40.5 15l51 15q50 0 81.5 -19.5t31.5 -49.5q0 -23 -10 -39.5t-25.5 -28.5t-35.5 -21.5t-40 -16.5q37 -29 58 -50.5t21 -52.5q0 -22 -9.5 -39.5t-26 -31.5t-39 -24.5t-48.5 -18.5zM164 498q0 -33 18 -55.5t39 -27.5q24 10 36 29t12 40q0 26 -17.5 46.5t-44.5 44.5
q-20 -15 -31.5 -34.5t-11.5 -42.5z" />
    <glyph glyph-name="ninesuperior" unicode="&#x2079;" horiz-adv-x="337" 
d="M278 612q3 27 3 53q0 87 -47 104q-14 -7 -24.5 -19t-17 -26.5t-9.5 -30t-3 -29.5q0 -36 11 -56.5t28 -20.5q16 0 41 15zM78 405q47 15 81.5 36.5t58.5 46t37.5 51.5t18.5 54l-96 -59q-43 2 -67 30.5t-24 67.5q0 54 32 92t89 55l54 17q50 0 82 -34.5t32 -95.5
q0 -48 -22 -92.5t-61 -81t-92.5 -63t-116.5 -38.5z" />
    <glyph glyph-name="plussuperior" unicode="&#x207a;" horiz-adv-x="408" 
d="M253 457v124h-138v31h138v128h32v-128h139v-31h-139v-124h-32z" />
    <glyph glyph-name="minussuperior" unicode="&#x207b;" horiz-adv-x="414" 
d="M115 625h315v-31h-315v31z" />
    <glyph glyph-name="equalsuperior" unicode="&#x207c;" horiz-adv-x="410" 
d="M421 630h-311v32h311v-32zM421 524h-311v31h311v-31z" />
    <glyph glyph-name="parenleftsuperior" unicode="&#x207d;" horiz-adv-x="255" 
d="M345 838q-69 -66 -106.5 -148.5t-37.5 -184.5q0 -49 10 -93.5t33 -81.5l-14 -10q-45 54 -65.5 99t-20.5 99q0 50 10 91.5t32.5 80t58 76.5t87.5 82z" />
    <glyph glyph-name="parenrightsuperior" unicode="&#x207e;" horiz-adv-x="255" 
d="M42 330q69 66 106.5 148.5t37.5 184.5q0 49 -10.5 93.5t-33.5 81.5l14 10q45 -54 66 -98.5t21 -99.5q0 -50 -10 -91.5t-32.5 -79.5t-58.5 -76.5t-88 -82.5z" />
    <glyph glyph-name="nsuperior" unicode="&#x207f;" horiz-adv-x="346" 
d="M160 400h-84l45 230l-48 -13l-5 13l117 41l24 -19l-7 -35l-5 -10l99 65q39 0 55 -17t8 -55l-32 -170l51 31l9 -10l-87 -59l-60 21l33 174q3 12 -1.5 19.5t-16.5 7.5q-8 0 -18.5 -4t-20.5 -11l-20 -10z" />
    <glyph glyph-name="zeroinferior" unicode="&#x2080;" horiz-adv-x="379" 
d="M-11 -5q0 34 9.5 69.5t29.5 67.5t52.5 58t77.5 40l45 15q58 0 92 -41t34 -114q0 -34 -9.5 -69.5t-29.5 -67.5t-52.5 -57.5t-77.5 -40.5l-45 -15q-58 0 -92 41.5t-34 113.5zM140 -132q22 12 39.5 32.5t30.5 48t20 60.5t7 69q0 63 -16.5 96t-42.5 42q-44 -23 -70 -79.5
t-26 -128.5q0 -63 16.5 -96.5t41.5 -43.5z" />
    <glyph glyph-name="oneinferior" unicode="&#x2081;" horiz-adv-x="303" 
d="M146 -123l82 -8l-4 -20l-124 1l-129 -1l1 20l87 8l59 300l5 8l-17 -8l-76 -20l-5 20l160 61h31z" />
    <glyph glyph-name="twoinferior" unicode="&#x2082;" horiz-adv-x="346" 
d="M-38 -150l-6 18l125 104q53 45 87 87t34 91q0 28 -12.5 46.5t-35.5 21.5l-27 -8l-37 -77h-54l7 69l139 43q58 0 85 -24t27 -62q0 -29 -13 -54.5t-35 -47.5t-49.5 -42t-56.5 -39l-112 -70l52 11h188v-19l-30 -48h-276z" />
    <glyph glyph-name="threeinferior" unicode="&#x2083;" horiz-adv-x="305" 
d="M65 135h-57l7 68l143 42q51 0 73 -19t22 -45q0 -20 -10 -35.5t-26.5 -27.5t-38 -21t-44.5 -14q54 -5 77.5 -26.5t23.5 -49.5q0 -27 -14 -47t-35.5 -34t-47 -24t-48.5 -19l-88 -36h-51l13 69h139q39 27 39 68q0 23 -20 40t-63 18l-5 14l37 19q73 35 73 96q0 19 -10 31
t-25 14l-28 -7z" />
    <glyph glyph-name="fourinferior" unicode="&#x2084;" horiz-adv-x="341" 
d="M217 5h73l-6 -38h-74l-22 -117h-81l23 117h-152l-12 26l225 247h96l-4 -21l-282 -223l23 9h112l12 58l76 47h14z" />
    <glyph glyph-name="fiveinferior" unicode="&#x2085;" horiz-adv-x="325" 
d="M40 56l102 51q60 0 86.5 -23.5t26.5 -56.5q0 -29 -13.5 -51.5t-34.5 -39.5t-46.5 -29.5t-49.5 -22.5l-86 -37h-54l13 69h135q20 15 31 35.5t11 42.5q0 26 -13 44t-45 18q-16 0 -30 -4t-31 -12l-21 -8l-10 6l63 198h218l-4 -15l-25 -53h-185z" />
    <glyph glyph-name="sixinferior" unicode="&#x2086;" horiz-adv-x="338" 
d="M289 232q-47 -15 -81.5 -36.5t-58 -46t-37.5 -51.5t-19 -53l98 59q42 -2 65 -30t23 -66q0 -54 -32 -93t-88 -56l-52 -18q-51 0 -84 35t-33 96q0 47 22 91.5t61.5 81.5t93 63.5t116.5 38.5zM90 26q-2 -14 -3.5 -27.5t-1.5 -27.5q0 -85 48 -104q15 7 25 19.5t16 27.5
t9 30.5t3 29.5q0 36 -10.5 56.5t-27.5 20.5q-9 0 -18 -3.5t-23 -11.5z" />
    <glyph glyph-name="seveninferior" unicode="&#x2087;" horiz-adv-x="301" 
d="M4 235h266l12 -15l-241 -371h-60l1 23l236 296l-13 -7h-214z" />
    <glyph glyph-name="eightinferior" unicode="&#x2088;" horiz-adv-x="345" 
d="M171 87q19 13 30 33t11 42q0 24 -13 41.5t-40 21.5q-22 -9 -31 -26t-9 -36q0 -20 13 -37.5t39 -38.5zM98 -160q-24 0 -46 6t-38.5 17.5t-26 27.5t-9.5 36q0 22 10 39.5t26.5 31t36.5 23.5t41 18q-29 23 -47 44t-18 48q1 39 32 64t75 37l51 15q50 0 81.5 -19.5t31.5 -50.5
q0 -22 -10 -38.5t-25.5 -29t-35.5 -21.5t-40 -16q37 -29 58.5 -51t21.5 -52q0 -45 -35.5 -71.5t-88.5 -42.5zM68 -52q0 -32 18 -55t39 -29q24 11 36 30t12 41q0 26 -17 47t-45 44q-20 -15 -31.5 -34.5t-11.5 -43.5z" />
    <glyph glyph-name="nineinferior" unicode="&#x2089;" horiz-adv-x="336" 
d="M180 61q2 14 3 27t1 26q0 43 -12.5 69.5t-35.5 34.5q-14 -7 -24.5 -19t-17 -26.5t-9.5 -30t-3 -30.5q0 -35 11 -55.5t28 -20.5q16 0 41 14zM-20 -146q47 15 82 36t58.5 45.5t37.5 52t19 54.5l-97 -60q-42 2 -66.5 31t-24.5 67q0 54 32 92t89 56l54 16q50 0 82 -34t32 -96
q0 -47 -22 -91.5t-61 -81.5t-92.5 -63.5t-117.5 -38.5z" />
    <glyph glyph-name="parenleftinferior" unicode="&#x208d;" horiz-adv-x="253" 
d="M246 296q-69 -66 -107 -148.5t-38 -185.5q0 -48 10.5 -92.5t32.5 -81.5l-13 -11q-45 54 -65.5 99t-20.5 99q0 50 10 92t32.5 80.5t58 76.5t87.5 82z" />
    <glyph glyph-name="parenrightinferior" unicode="&#x208e;" horiz-adv-x="253" 
d="M-54 -212q69 65 107 147.5t38 185.5q0 49 -10.5 93.5t-33.5 81.5l14 10q45 -54 65.5 -98.5t20.5 -99.5q0 -50 -10 -91.5t-32.5 -80t-58 -77t-87.5 -82.5z" />
    <glyph glyph-name="Euro" unicode="&#x20ac;" horiz-adv-x="639" 
d="M365 -18q-57 0 -107 20t-87.5 56.5t-60 88.5t-25.5 117q0 6 1 9h-72l7 38h64q2 21 5.5 41.5t8.5 40.5h-63l7 38h68q34 85 109.5 152t196.5 106l92 29q18 -3 39 -10.5t41.5 -17t38 -19.5t29.5 -19l-55 -78q-14 12 -35.5 25.5t-45 26.5t-47.5 23t-44 15q-79 -32 -129 -94
t-71 -139h305l-26 -38h-287q-3 -21 -4.5 -41.5t-0.5 -40.5h240l-27 -38h-210q10 -95 59 -153t123 -73q21 3 44.5 11t45.5 18t41.5 19.5t34.5 17.5l14 -21q-30 -19 -81.5 -47t-135.5 -63z" />
    <glyph glyph-name="afii61289" unicode="&#x2113;" horiz-adv-x="483" 
d="M33 235q8 3 19.5 7.5t24 9.5t24.5 10t21 9l60 343l185 106q31 0 53 -11.5t35 -29.5t19 -41t6 -45q0 -56 -20.5 -103t-55 -86t-80 -71t-95.5 -57l-39 -227l177 64l12 -21l-220 -108l-83 23l38 223q-17 -8 -44 -18t-45 -18zM238 321q61 37 94.5 106t33.5 157q0 28 -8 49.5
t-28 21.5q-2 0 -7.5 -1.5t-11.5 -4t-11 -4.5t-6 -3z" />
    <glyph glyph-name="afii61352" unicode="&#x2116;" horiz-adv-x="977" 
d="M738 114q-67 0 -107 37.5t-40 103.5q0 78 41 131t118 78l62 22q68 0 107.5 -37t39.5 -103q0 -78 -41.5 -132t-119.5 -79zM481 0h-83l-176 569l-5 51l-109 -620h-118l1 25l87 21l109 614l-81 13l7 27l97 -1l93 1l160 -506l4 -51l99 557h118l-2 -24l-87 -23zM782 447
q-23 -7 -39.5 -24t-27.5 -40.5t-16 -51t-5 -55.5q0 -55 19.5 -88t54.5 -36q23 7 39.5 24.5t27.5 41t16.5 51.5t5.5 56q0 57 -20 88.5t-55 33.5zM557 59h355l-7 -44h-355z" />
    <glyph glyph-name="trademark" unicode="&#x2122;" horiz-adv-x="987" 
d="M175 335l59 6v336l-66 -1l-42 -93h-21v118l179 -1l174 1v-118h-21l-41 93l-65 1v-336l57 -6l-2 -20l-104 1l-106 -1zM481 335l41 6v334l-41 6l1 20l63 -1l88 1l118 -278l-1 -27l120 305l67 -1l76 1l2 -20l-42 -6v-334l41 -6l-1 -20l-86 1l-86 -1l-2 20l39 6v289l4 34
l-137 -350h-53l-132 320l-8 34v-327l42 -6l-1 -20l-56 1l-55 -1z" />
    <glyph glyph-name="uni2126" unicode="&#x2126;" horiz-adv-x="714" 
d="M275 135q-45 7 -88.5 27.5t-77 54t-54 81.5t-20.5 110q0 115 77.5 192t254.5 115q70 0 127.5 -22t98.5 -60t63.5 -89t22.5 -109q0 -67 -17.5 -114t-49.5 -80.5t-76 -57t-98 -44.5v-65l185 16l29 80h27v-170h-284v166q21 2 46 15t46.5 41t35.5 73.5t14 112.5
q0 60 -15 108.5t-41 83t-62 53.5t-78 19q-36 0 -65.5 -18t-51.5 -50t-34 -75t-12 -92q0 -60 12.5 -109t32.5 -84t45 -55.5t51 -22.5v-166h-283v170h26l27 -80l186 -16v61z" />
    <glyph glyph-name="estimated" unicode="&#x212e;" horiz-adv-x="862" 
d="M757 220q-26 -55 -61.5 -92.5t-82.5 -63.5t-106 -44.5t-132 -34.5q-75 0 -133.5 22.5t-98.5 63t-59.5 95.5t-17.5 121q3 93 29.5 162.5t79.5 121t134 86.5t194 58q77 0 136.5 -24t98.5 -68t55.5 -105.5t6.5 -135.5l-10 -50h-591l-13 -87q7 -100 60 -156.5t144 -56.5
q42 0 79 14t68 39t55.5 59.5t40.5 75.5h124zM209 387h454l14 79q-7 94 -59 148t-140 54q-89 0 -150.5 -45.5t-98.5 -118.5z" />
    <glyph glyph-name="arrowleft" unicode="&#x2190;" horiz-adv-x="610" 
d="M139 268l20 -9l161 -152v-73l-270 261l270 262v-74l-161 -151l-20 -10h421v-54h-421z" />
    <glyph glyph-name="arrowup" unicode="&#x2191;" horiz-adv-x="624" 
d="M285 462l-10 -20l-151 -162h-74l262 270l262 -270h-74l-152 162l-9 20v-422h-54v422z" />
    <glyph glyph-name="arrowright" unicode="&#x2192;" horiz-adv-x="610" 
d="M50 322h422l-20 10l-162 151v74l270 -262l-270 -261v73l162 152l20 9h-422v54z" />
    <glyph glyph-name="arrowdown" unicode="&#x2193;" horiz-adv-x="624" 
d="M339 550v-421l9 20l152 161h74l-262 -270l-262 270h74l151 -161l10 -20v421h54z" />
    <glyph glyph-name="uni2196" unicode="&#x2196;" horiz-adv-x="480" 
d="M93 394l7 -21l1 -223l-51 -51v376h377l-52 -51l-222 2l-22 6l299 -298l-38 -38z" />
    <glyph glyph-name="uni2197" unicode="&#x2197;" horiz-adv-x="480" 
d="M349 432l-22 -6l-221 -2l-53 51h377v-376l-51 51l1 223l7 21l-299 -298l-38 38z" />
    <glyph glyph-name="uni2198" unicode="&#x2198;" horiz-adv-x="480" 
d="M88 468l299 -299l-7 21l-1 223l51 52v-376h-377l53 51l221 -2l22 -6l-299 298z" />
    <glyph glyph-name="uni2199" unicode="&#x2199;" horiz-adv-x="480" 
d="M131 132l22 6l222 2l52 -51h-377v376l51 -52l-1 -223l-7 -21l299 299l38 -38z" />
    <glyph glyph-name="partialdiff" unicode="&#x2202;" 
d="M542 297q0 -122 -56 -201t-163 -100l-28 -11q-102 17 -159.5 78.5t-57.5 160.5q0 41 11.5 80.5t34.5 72.5t58 56.5t82 32.5l112 -37q8 -2 18.5 -5.5t17.5 -6.5q-4 40 -19.5 80t-43 76t-67 66t-91.5 50l10 29q102 -29 168 -78t104.5 -106.5t53.5 -119.5t15 -117zM413 300
v12v21.5t-0.5 21.5t-0.5 12l-11 6q-24 14 -53 23.5t-55 11.5q-22 -6 -38.5 -24t-27.5 -44t-16.5 -59t-5.5 -70q0 -96 27.5 -139t71.5 -46q27 6 47.5 30t34 61t20.5 84t7 99z" />
    <glyph glyph-name="uni2206" unicode="&#x2206;" horiz-adv-x="688" 
d="M20 0v35l307 662l45 16l296 -677v-36h-648zM522 38l-213 503l-3 27l-238 -530h454z" />
    <glyph glyph-name="product" unicode="&#x220f;" horiz-adv-x="764" 
d="M177 -159l-139 -1l-3 27l78 10v787l-78 9l3 27l133 -1h414l141 1l3 -27l-80 -9v-787l76 -10l-3 -27l-136 1l-136 -1l-3 27l74 10v786h-281v-786l73 -10l-3 -27z" />
    <glyph glyph-name="summation" unicode="&#x2211;" 
d="M65 -160l-16 26l295 375l-282 429l16 30h476v-175h-26l-63 139l-253 3l230 -346v-21l-289 -363l338 7l51 91h29l-18 -195h-488z" />
    <glyph glyph-name="minus" unicode="&#x2212;" 
d="M47 302h525v-48h-525v48z" />
    <glyph glyph-name="radical" unicode="&#x221a;" 
d="M-26 434l-57 9l3 24h175l129 -353l4 -36l272 803h203l-13 -42h-157l-288 -824l-95 -32z" />
    <glyph glyph-name="infinity" unicode="&#x221e;" horiz-adv-x="799" 
d="M200 129q-35 0 -62.5 12.5t-47 34t-30 50.5t-10.5 63q0 26 8 51t27 48.5t49.5 44t74.5 37.5q32 0 61.5 -11t55 -28.5t48 -38t41.5 -38.5l6 -5l41 44q29 32 66 54.5t75 22.5q35 0 62.5 -12.5t46 -34t28 -51t9.5 -62.5q0 -32 -8.5 -57.5t-27 -47t-49 -40t-74.5 -36.5
q-30 0 -58.5 10.5t-54 26.5t-48 35.5t-40.5 37.5l-7 9l-43 -48q-28 -29 -65.5 -50t-73.5 -21zM205 206q29 0 58.5 11t55.5 33l33 30h-1q-15 15 -33 31t-38.5 29t-42 21t-42.5 8q-42 0 -70.5 -19t-28.5 -60q0 -35 27.5 -59.5t81.5 -24.5zM453 316l2 -4q14 -13 33 -27.5
t39.5 -26.5t41.5 -20t39 -8q17 0 34.5 4.5t31.5 14.5t22.5 25.5t8.5 36.5q0 36 -26 57t-81 21q-28 0 -57.5 -11t-55.5 -34z" />
    <glyph glyph-name="integral" unicode="&#x222b;" 
d="M291 497q8 45 32.5 82t59.5 59l120 75h83l-15 -85h-125q-17 -17 -26 -41.5t-14 -50.5l-95 -542q-8 -44 -33.5 -79.5t-64.5 -62.5l-122 -83h-62l18 94h111q16 18 25.5 43t13.5 52z" />
    <glyph glyph-name="approxequal" unicode="&#x2248;" 
d="M569 393h27l-40 -87l-95 -25l-363 61l-46 -65h-27l39 85l98 28l361 -61zM568 210h27l-40 -87l-95 -26l-362 61l-47 -65h-27l40 85l98 28l360 -61z" />
    <glyph glyph-name="notequal" unicode="&#x2260;" 
d="M248 125l-103 -125h-57l105 125h-142v48h182l122 145h-304v48h345l96 114h54l-95 -114h117v-48h-158l-121 -145h279v-48h-320z" />
    <glyph glyph-name="lessequal" unicode="&#x2264;" 
d="M51 49h518v-49h-518v49zM570 615v-56l-453 -200l453 -199v-56l-520 235v39z" />
    <glyph glyph-name="greaterequal" unicode="&#x2265;" 
d="M569 0h-518v49h518v-49zM570 378v-39l-520 -235v56l453 199l-453 200v56z" />
    <glyph glyph-name="lozenge" unicode="&#x25ca;" 
d="M335 98l4 -17l147 223l-200 300l-3 18l-147 -224zM295 699l41 17l237 -348l-245 -368l-43 -18l-238 348z" />
    <glyph glyph-name="commaaccent" unicode="&#xf6c3;" horiz-adv-x="446" 
d="M205 -129l-27 35l7 42h111l-13 -77l-108 -115l-26 6z" />
    <glyph glyph-name="asuperior" unicode="&#xf6e9;" horiz-adv-x="322" 
d="M158 529q0 -23 6.5 -42t21.5 -34l50 34l26 132q-12 7 -27.5 10.5t-29.5 3.5q-23 -20 -35 -48t-12 -56zM307 429l52 33l10 -11l-88 -59l-60 21l9 42l7 15l-99 -78q-31 11 -49 35.5t-18 63.5q0 51 33 89.5t88 63.5l61 28q23 0 48.5 -6t48.5 -16z" />
    <glyph glyph-name="bsuperior" unicode="&#xf6ea;" horiz-adv-x="322" 
d="M83 745l-5 13l124 36l22 -17l-30 -156l-8 -15l98 66q33 -8 51.5 -33t18.5 -66q0 -48 -29.5 -89t-81.5 -63l-67 -29q-58 0 -105 29l66 335zM188 593l-27 -144q10 -8 26.5 -14t31.5 -6q26 19 36 50t10 59q0 27 -7 46.5t-24 30.5z" />
    <glyph glyph-name="dsuperior" unicode="&#xf6eb;" horiz-adv-x="336" 
d="M225 414l8 43l7 14l-96 -79q-34 13 -53.5 38.5t-19.5 65.5q0 50 30 86.5t82 59.5l63 30q6 0 13.5 -1.5t13.5 -2.5l17 89l-52 -12l-6 13l125 36l21 -17l-68 -348l52 33l10 -11l-87 -59zM238 487l27 136q-31 13 -62 13q-22 -19 -33 -47.5t-11 -57.5q0 -25 7.5 -42.5
t24.5 -33.5z" />
    <glyph glyph-name="esuperior" unicode="&#xf6ec;" horiz-adv-x="287" 
d="M167 392q-18 3 -35.5 11.5t-31 22t-21.5 31.5t-8 41q0 48 28.5 87.5t87.5 59.5l75 27q25 -5 41.5 -22t16.5 -43q0 -13 -2 -22t-8 -23l-151 -40v-1q5 -26 21 -46.5t42 -31.5q15 6 38.5 17.5t39.5 19.5l8 -13q-19 -11 -42.5 -24t-47.5 -24zM157 538q0 -1 3.5 -0.5t3.5 -0.5
q0 1 10 4.5t21.5 8t21 8.5t9.5 5q5 20 2 38q-3 13 -11 19.5t-17 5.5q-21 -14 -32 -36.5t-11 -51.5z" />
    <glyph glyph-name="isuperior" unicode="&#xf6ed;" horiz-adv-x="195" 
d="M156 782l25 5l46 -5v-38l-13 -31l-24 -5l-50 5l2 35zM72 617l-6 13l117 41l24 -20l-43 -220l52 31l9 -11l-88 -59l-59 22l41 217z" />
    <glyph glyph-name="lsuperior" unicode="&#xf6ee;" horiz-adv-x="196" 
d="M97 745l-5 13l124 36l21 -17l-67 -347l52 32l9 -11l-88 -59l-59 22l65 342z" />
    <glyph glyph-name="msuperior" unicode="&#xf6ef;" horiz-adv-x="498" 
d="M392 413l33 173q2 12 -1.5 19.5t-14.5 7.5q-8 0 -16.5 -4.5t-16.5 -9.5l-23 -13l-36 -186h-84l36 188q5 26 -16 26q-8 0 -16.5 -4t-17.5 -10l-23 -13l-36 -187h-84l45 230l-48 -13l-5 13l117 41l24 -19l-8 -36l-5 -11l97 67q36 0 52 -15t12 -48v-3l93 66q38 0 53.5 -17
t8.5 -55l-34 -172l53 33l9 -10l-88 -59z" />
    <glyph glyph-name="osuperior" unicode="&#xf6f0;" horiz-adv-x="321" 
d="M236 672q49 0 83.5 -27.5t34.5 -80.5q0 -50 -29 -89t-89 -64l-47 -19q-49 0 -83.5 27t-34.5 80q0 101 119 153zM209 640q-26 -15 -38.5 -49t-12.5 -70q0 -44 16.5 -68t41.5 -31q26 16 38 50.5t12 70.5q0 44 -15.5 67.5t-41.5 29.5z" />
    <glyph glyph-name="rsuperior" unicode="&#xf6f1;" horiz-adv-x="254" 
d="M190 576l-11 -35l86 126h52l-18 -82h-54q-4 -2 -11 -8.5t-14.5 -14l-14.5 -14.5l-11 -11l-12 -12l-23 -125h-84l44 230l-47 -13l-6 13l118 41l20 -17z" />
    <glyph glyph-name="ssuperior" unicode="&#xf6f2;" horiz-adv-x="235" 
d="M123 392q-9 2 -20 5t-21.5 6t-19.5 6.5t-14 5.5l31 59q21 -11 47 -23.5t55 -24.5q16 4 16 18q0 9 -5 16t-19 18l-60 41q-33 22 -33 56q0 20 14.5 38t51.5 33l56 26q17 -2 35.5 -7t43.5 -15l-34 -57q-21 13 -45.5 25t-47.5 20q-13 -5 -13 -16q0 -9 5 -16t19 -16l59 -40
q20 -14 27 -29t7 -30q0 -27 -17 -44t-44 -27l-74 -28v0z" />
    <glyph glyph-name="tsuperior" unicode="&#xf6f3;" horiz-adv-x="208" 
d="M240 461l7 -11l-110 -58l-59 21l42 219h-47l3 12l15 12h34l5 24l74 58h19l-15 -83h63l-5 -23h-63l-39 -202z" />
    <glyph glyph-name="apple" unicode="&#xf8ff;" horiz-adv-x="685" 
d="M635 460l-3 -41l-8 -35l-12 -31l-3 -156l-21 -7l-50 70l-27 -7l-19 -140l-32 4l-7 -4l-4 -94l30 -19l16 -14l-3 -15l-30 1l-24 18h-14l-8 8l7 76l-4 47l-61 1l-3 -52l-2 -56v-20l-15 -6l-8 6l-30 -10h-32l-1 11l11 11l50 21l-6 96l-98 -6l-147 140l-4 115l-13 10l-10 36
v26l15 8l-3 78l92 -62l9 47l10 36l22 35l28 35l39 29l40 15l38 14h22l-68 22l4 17h7l79 -20l-4 51l16 12h32l19 -5l29 -25l32 -8l32 -10l15 -13v-20l-20 -31l30 -28l28 -32l18 -34l15 -41zM525 399l-4 7h-205l-66 -3l-7 -9l-6 -44l-48 20l-11 -4l57 -27l1 -45l-5 -73v-91
l18 4l2 40l41 -3l3 9l-44 6v16l48 -6l1 9l-47 7l1 22l43 -3l3 6l-45 9l3 94h74l11 10h-79l2 9h74l8 7h-82l2 22l117 4l140 -4v11zM206 569l29 12l13 -15l-17 -20l-10 -3l17 -3h5l36 24h32l18 -12l8 3l4 14l7 5l10 -4v-18h8l10 22l11 8l-5 6l-3 8l1 21l-30 -10l-10 -8l-8 5
l4 21l14 10l11 11l38 -2l12 13l-4 8h-49l-45 -13l-53 -26l-29 -23zM616 465l-8 37l-19 50l-20 36l-23 28l-34 21h-11l17 -19l25 -10l11 -11l3 -33l-25 13l-15 -29l12 -8v-19l15 3l-12 26l15 -5l10 -20l-5 -12l-8 -7h-23l-3 11l-12 2l1 -22h-14l14 -18l-7 -10l-21 5l-3 -27
l41 6l8 17l22 -2l6 -28l-16 -13v-15l8 -6l18 12h23l6 11l-18 6l-5 9l9 42h7l14 -20zM102 434l57 -32l7 10l-68 38v18l59 -34l43 -28l28 -14l3 10l-103 64l-13 7l-41 33l2 -78l19 -17v-5h-21l19 -14l1 -11l-20 7l18 -18l-4 -7l3 -97l11 -12v180zM511 331l-54 1l-1 -24v-6
l-2 -31l19 -3l-8 -61l-48 3l-8 -6l51 -5l-2 -9h-49l-4 -5l53 -7l-6 -35l27 -1l12 79l4 36l-15 3l-1 8l20 1l5 3l-28 16l2 5l30 -6l-30 15l5 5l21 -5l4 10zM206 331l-66 39v-7l-2 -13l1 -27v-48l64 -44l-1 60zM380 214l-64 4v-51l64 -6v53zM532 306l8 -6l8 2l20 15l13 13
l11 18l-7 5h-14l-10 3l-14 7l-17 -3q-2 -13 -3 -24q-2 -9 -2.5 -17t-0.5 -7zM428 585l5 -6l19 11l8 -2l6 -24h13l6 6l-9 18l17 28l-15 9v5l-25 7v-20l-13 -5v-9l-9 -6zM433 336l4 30l-54 5l-3 -35h53zM366 455l-7 -11h-12l-5 7l11 8l-15 2v6l-23 4l3 -17l8 -14l20 -9l13 -1
l18 10l6 9l5 20l-30 2l7 -5zM589 312l-6 -3l-33 -27l39 -48v78zM244 454l1 4l14 2l-13 6l2 7l-20 -1l3 -19l14 -15l12 -6l11 5l16 12l6 12l2 13l-22 -4l6 -10l-12 -13l-14 -1zM394 281l-72 7l-6 -13l78 -4v10zM206 203l-74 50l20 -23l50 -41zM394 312h-73v-10h73v10z
M384 256l-68 4v-10h68v6zM515 359h-48v-13l44 4zM351 520l-4 -12l49 -17l3 4zM214 498l59 12l-4 12zM414 642l-8 -9v-19l12 -6l3 17zM491 530l-8 -4v-9l8 -3l2 7zM564 386l5 7v7l-10 -4v-10h5z" />
    <glyph glyph-name="AE.sc" horiz-adv-x="749" 
d="M251 263h120l39 223zM378 1l-107 -2l1 28l59 8l35 199h-134l-143 -199l63 -8l-6 -28l-85 2l-74 -2l2 28l53 8l349 478l73 -1l297 1l-11 -138h-25l-38 105l-165 1l-39 -216l84 1l55 86h20l-25 -102l-11 -105h-19l-25 86l-84 1l-35 -199l180 1l72 109h25l-32 -144z" />
    <glyph glyph-name="AEacute.002" horiz-adv-x="890" 
d="M547 747l78 103h114l-148 -103h-44zM296 355h147l48 311zM-24 27l71 9l425 665l79 -2l361 2l-15 -180h-26l-45 144l-214 1l-48 -311l109 2l67 120h21l-29 -137l-15 -139h-21l-29 118l-109 2l-42 -287l228 2l87 157h28l-39 -194l-374 2l-130 -2v28l78 10l43 284h-161
l-178 -284l81 -10l-7 -28l-103 2l-95 -2z" />
    <glyph glyph-name="AEacute.sc" horiz-adv-x="749" 
d="M485 562l49 102h102l-116 -102h-35zM251 263h120l39 223zM378 1l-107 -2l1 28l59 8l35 199h-134l-143 -199l63 -8l-6 -28l-84 2l-75 -2l2 28l53 8l349 478l73 -1l297 1l-11 -138h-25l-38 105l-165 1l-39 -216l84 1l55 86h20l-24 -102l-12 -105h-19l-25 86l-84 1l-35 -199
l180 1l72 109h25l-32 -144z" />
    <glyph glyph-name="Aacute.002" horiz-adv-x="680" 
d="M512 850h113l-148 -103h-44zM226 273h205l-23 298l1 35zM172 -1l-100 2l-97 -2l2 28l71 9l369 651l100 29l66 -680l69 -9l-6 -28l-145 2l-133 -2l1 28l82 10l-17 201h-226l-111 -201l81 -10z" />
    <glyph glyph-name="Aacute.sc" horiz-adv-x="578" 
d="M371 561l48 102h103l-116 -102h-35zM421 1l-117 -2l3 28l64 8l-12 134h-185l-88 -134l64 -8l-5 -28l-80 2l-78 -2l2 28l53 8l299 460l99 30l54 -490l52 -8l-5 -28zM192 201h164l-17 212l1 26z" />
    <glyph glyph-name="Abreve.002" horiz-adv-x="680" 
d="M468 799q24 0 45 6t38 14.5t30 18.5t21 18l18 -9q-11 -15 -23 -29t-29 -28t-40.5 -27t-57.5 -25q-31 0 -54 10t-39.5 25.5t-27 35t-17.5 38.5l22 10q6 -8 15.5 -18t23.5 -19t32.5 -15t42.5 -6zM226 273h205l-23 298l1 35zM172 -1l-100 2l-97 -2l2 28l71 9l369 651l100 29
l66 -680l69 -9l-6 -28l-145 2l-133 -2l1 28l82 10l-17 201h-226l-111 -201l81 -10z" />
    <glyph glyph-name="Abreve.sc" horiz-adv-x="578" 
d="M402 621q20 0 37 4.5t31 11t24.5 13.5t17.5 13l15 -15q-18 -29 -44.5 -50t-80.5 -40q-50 0 -78 27t-38 61l20 16q11 -11 33.5 -26t62.5 -15zM421 1l-117 -2l3 28l64 8l-12 134h-185l-88 -134l64 -8l-5 -28l-80 2l-78 -2l2 28l53 8l299 460l99 30l54 -490l52 -8l-5 -28z
M192 201h164l-17 212l1 26z" />
    <glyph glyph-name="Acircumflex.002" horiz-adv-x="680" 
d="M334 747l136 108h65l91 -108h-46l-85 55h-3l-113 -55h-45zM226 273h205l-23 298l1 35zM172 -1l-100 2l-97 -2l2 28l71 9l369 651l100 29l66 -680l69 -9l-6 -28l-145 2l-133 -2l1 28l82 10l-17 201h-226l-111 -201l81 -10z" />
    <glyph glyph-name="Acircumflex.sc" horiz-adv-x="578" 
d="M280 563l114 103h61l69 -103h-38l-71 51h-3l-94 -51h-38zM421 1l-117 -2l3 28l64 8l-12 134h-185l-88 -134l64 -8l-5 -28l-80 2l-78 -2l2 28l53 8l299 460l99 30l54 -490l52 -8l-5 -28zM192 201h164l-17 212l1 26z" />
    <glyph glyph-name="Adieresis.002" horiz-adv-x="680" 
d="M401 854l44 -6l-1 -46l-19 -42l-42 -5l-46 5l3 50l19 38zM605 854l44 -6l-1 -46l-19 -42l-43 -5l-45 5l2 50l20 38zM226 273h205l-23 298l1 35zM172 -1l-100 2l-97 -2l2 28l71 9l369 651l100 29l66 -680l69 -9l-6 -28l-145 2l-133 -2l1 28l82 10l-17 201h-226l-111 -201
l81 -10z" />
    <glyph glyph-name="Adieresis.sc" horiz-adv-x="581" 
d="M341 653l34 -5l-2 -44l-16 -38l-42 -6l-35 6l2 45l16 37zM515 653l33 -5l-2 -44l-16 -38l-42 -6l-35 6l2 45l17 37zM421 1l-117 -2l3 28l64 8l-12 134h-185l-88 -134l64 -8l-5 -28l-80 2l-78 -2l2 28l53 8l299 460l99 30l54 -490l52 -8l-5 -28zM192 201h164l-17 212l1 26
z" />
    <glyph glyph-name="Agrave.002" horiz-adv-x="680" 
d="M459 747l-92 103h103l27 -103h-38zM226 273h205l-23 298l1 35zM172 -1l-100 2l-97 -2l2 28l71 9l369 651l100 29l66 -680l69 -9l-6 -28l-145 2l-133 -2l1 28l82 10l-17 201h-226l-111 -201l81 -10z" />
    <glyph glyph-name="Agrave.sc" horiz-adv-x="578" 
d="M145 -1l-80 2l-78 -2l2 28l53 8l299 460l99 30l54 -490l52 -8l-5 -28l-120 2l-117 -2l3 28l64 8l-12 134h-185l-88 -134l64 -8zM356 201l-17 212l1 26l-148 -238h164zM386 562l-87 102h98l20 -102h-31z" />
    <glyph glyph-name="Amacron.002" horiz-adv-x="680" 
d="M348 819h287l-8 -48h-287zM226 273h205l-23 298l1 35zM172 -1l-100 2l-97 -2l2 28l71 9l369 651l100 29l66 -680l69 -9l-6 -28l-145 2l-133 -2l1 28l82 10l-17 201h-226l-111 -201l81 -10z" />
    <glyph glyph-name="Amacron.sc" horiz-adv-x="578" 
d="M297 632h237l-9 -52h-237zM421 1l-117 -2l3 28l64 8l-12 134h-185l-88 -134l64 -8l-5 -28l-80 2l-78 -2l2 28l53 8l299 460l99 30l54 -490l52 -8l-5 -28zM192 201h164l-17 212l1 26z" />
    <glyph glyph-name="Aogonek.001" horiz-adv-x="678" 
d="M490 -181q-98 0 -136.5 22.5t-28.5 69.5l5 22l122 86l-16 219h-226l-113 -201l81 -10l-6 -28l-99 2l-98 -2l2 28l71 9l373 651l98 29l62 -680l69 -9l-6 -28l-179 2l-59 -74l-4 -17q-8 -35 17.5 -51t74.5 -16zM433 273l-22 298l2 35l-185 -333h205z" />
    <glyph glyph-name="Aogonek.sc" horiz-adv-x="576" 
d="M402 -182q-86 0 -118 18.5t-25 55.5l9 50l104 78l-12 149h-185l-89 -134l64 -8l-5 -28l-80 2l-78 -2l2 28l53 8l302 460l97 30l52 -490l52 -8l-5 -28l-153 2l-53 -77l-6 -29q-2 -10 0.5 -20t11.5 -18t25 -13t41 -5zM357 201l-16 212l2 26l-150 -238h164z" />
    <glyph glyph-name="Aring.002" horiz-adv-x="680" 
d="M423 786q0 -20 12.5 -32t32.5 -12t33 12t13 32q0 19 -13 32t-33 13t-32.5 -13t-12.5 -32zM468 718q-14 0 -28.5 3.5t-26 11.5t-18.5 21t-7 31q0 17 6.5 28.5t18 19t26 12.5t29.5 10q15 0 29.5 -3.5t26 -11.5t18.5 -21t7 -32q0 -17 -7 -28.5t-18 -19t-25.5 -12.5t-30.5 -9
zM226 273h205l-23 298l1 35zM172 -1l-100 2l-97 -2l2 28l71 9l369 651l100 29l66 -680l69 -9l-6 -28l-145 2l-133 -2l1 28l82 10l-17 201h-226l-111 -201l81 -10z" />
    <glyph glyph-name="Aring.sc" horiz-adv-x="578" 
d="M495 622q0 -20 -7 -32.5t-19.5 -21t-29 -14l-34.5 -11.5q-17 0 -33.5 4t-30 13t-21.5 24t-8 38q0 19 7.5 32t20.5 22.5t29 15.5t34 11q19 0 35.5 -4t29 -13.5t20 -25t7.5 -38.5zM349 622q0 -21 15.5 -35t38.5 -14t39.5 14t16.5 35q0 22 -16.5 36t-39.5 14t-38.5 -14
t-15.5 -36zM421 1l-117 -2l3 28l64 8l-12 134h-185l-88 -134l64 -8l-5 -28l-80 2l-78 -2l2 28l53 8l299 460l99 30l54 -490l52 -8l-5 -28zM192 201h164l-17 212l1 26z" />
    <glyph glyph-name="Aringacute.002" horiz-adv-x="680" 
d="M468 717q-14 0 -28.5 3.5t-26 12t-19 21.5t-7.5 31t7.5 29.5t19 19t26.5 12.5t30 9q22 0 40 -9l9 12l77 1l-59 -36q12 -15 12 -36q0 -18 -7 -29.5t-18 -19t-25.5 -12.5t-30.5 -9zM422 786q0 -20 13 -32t33 -12t33 12t13 32q0 18 -13 31.5t-33 13.5t-33 -13.5t-13 -31.5z
M226 273h205l-23 298l1 35zM172 -1l-100 2l-97 -2l2 28l71 9l369 651l100 29l66 -680l69 -9l-6 -28l-145 2l-133 -2l1 28l82 10l-17 201h-226l-111 -201l81 -10z" />
    <glyph glyph-name="Aringacute.sc" horiz-adv-x="578" 
d="M494 622q0 -20 -7 -32.5t-19.5 -21t-28.5 -14t-34 -11.5q-17 0 -34 4t-30.5 13t-21.5 24t-8 38q0 19 8 32t20.5 22.5t29 15.5t34.5 11l20 32l88 2l-62 -42q20 -8 32.5 -25t12.5 -48zM349 622q0 -21 15.5 -35t38.5 -14t39.5 14t16.5 35q0 22 -16.5 36t-39.5 14t-38.5 -14
t-15.5 -36zM421 1l-117 -2l3 28l64 8l-12 134h-185l-88 -134l64 -8l-5 -28l-80 2l-78 -2l2 28l53 8l299 460l99 30l54 -490l52 -8l-5 -28zM192 201h164l-17 212l1 26z" />
    <glyph glyph-name="Atilde.002" horiz-adv-x="682" 
d="M377 836l62 18l159 -62l49 61h18l-53 -96l-62 -14l-160 62l-47 -62h-18zM226 273h205l-23 298l1 35zM172 -1l-100 2l-97 -2l2 28l71 9l369 651l100 29l66 -680l69 -9l-6 -28l-145 2l-133 -2l1 28l82 10l-17 201h-226l-111 -201l81 -10z" />
    <glyph glyph-name="Atilde.sc" horiz-adv-x="586" 
d="M311 652l50 13l139 -44l41 44h17l-44 -97l-49 -10l-139 46l-40 -45h-18zM421 1l-117 -2l3 28l64 8l-12 134h-185l-88 -134l64 -8l-5 -28l-80 2l-78 -2l2 28l53 8l299 460l99 30l54 -490l52 -8l-5 -28zM192 201h164l-17 212l1 26z" />
    <glyph glyph-name="B.sc" horiz-adv-x="514" 
d="M292 39q42 21 59.5 53t17.5 65q0 41 -25 70t-76 29h-46l-37 -217h107zM120 1l-111 -2v28l61 8l78 444l-56 8l4 26q25 -1 47 -1h61h78q29 0 63 1q38 0 67 -8t48.5 -22t29.5 -33t10 -41q0 -42 -34 -74.5t-100 -47.5l-46 -10q87 -6 131 -37.5t44 -76.5q0 -30 -13.5 -52
t-36 -38.5t-51.5 -28t-59 -20.5l-72 -25zM262 483l-35 -198h34q22 0 44 8.5t39.5 24t28 36.5t10.5 46q0 39 -21 61t-61 22h-39z" />
    <glyph glyph-name="C.sc" horiz-adv-x="539" 
d="M290 -13q-54 0 -98 16t-75 45t-48 70t-17 91q0 43 14 86t43 81.5t75 69.5t111 51l88 30q52 0 89.5 -12.5t60.5 -24.5l-8 -147h-31l-30 95q-21 14 -54 26t-80 16q-75 -27 -114 -89.5t-39 -146.5q0 -44 12 -80t33 -62t49.5 -43t61.5 -24q26 9 48.5 19.5t39.5 24.5l62 105
h34l-31 -145z" />
    <glyph glyph-name="Cacute.002" horiz-adv-x="626" 
d="M396 747l79 103h114l-148 -103h-45zM337 -18q-65 0 -118 21.5t-90.5 61.5t-58 95.5t-20.5 124.5q0 58 16 118.5t51 114.5t90.5 98t134.5 71l99 32q66 0 113 -19t76 -39l-8 -173h-36l-36 122q-26 21 -66.5 37t-102.5 24q-96 -41 -145.5 -132.5t-49.5 -214.5
q0 -65 14.5 -116t41 -87.5t62.5 -59t79 -30.5q68 26 111 60l75 137h38l-37 -176z" />
    <glyph glyph-name="Cacute.sc" horiz-adv-x="539" 
d="M347 562l48 102h102l-115 -102h-35zM290 -13q-54 0 -98 16t-75 45t-48 70t-17 91q0 43 14 86t43 81.5t75 69.5t111 51l88 30q52 0 89.5 -12.5t60.5 -24.5l-8 -147h-31l-30 95q-21 14 -54 26t-80 16q-75 -27 -114 -89.5t-39 -146.5q0 -44 12 -80t33 -62t49.5 -43t61.5 -24
q26 9 48.5 19.5t39.5 24.5l62 105h34l-31 -145z" />
    <glyph glyph-name="Ccaron.002" horiz-adv-x="626" 
d="M611 853l-136 -108h-66l-90 108h46l85 -56h2l113 56h46zM337 -18q-65 0 -118 21.5t-90.5 61.5t-58 95.5t-20.5 124.5q0 58 16 118.5t51 114.5t90.5 98t134.5 71l99 32q66 0 113 -19t76 -39l-8 -173h-36l-36 122q-26 21 -66.5 37t-102.5 24q-96 -41 -145.5 -132.5
t-49.5 -214.5q0 -65 14.5 -116t41 -87.5t62.5 -59t79 -30.5q68 26 111 60l75 137h38l-37 -176z" />
    <glyph glyph-name="Ccaron.sc" horiz-adv-x="539" 
d="M513 665l-115 -103h-59l-70 103h38l71 -50h2l94 50h39zM290 -13q-54 0 -98 16t-75 45t-48 70t-17 91q0 43 14 86t43 81.5t75 69.5t111 51l88 30q52 0 89.5 -12.5t60.5 -24.5l-8 -147h-31l-30 95q-21 14 -54 26t-80 16q-75 -27 -114 -89.5t-39 -146.5q0 -44 12 -80t33 -62
t49.5 -43t61.5 -24q26 9 48.5 19.5t39.5 24.5l62 105h34l-31 -145z" />
    <glyph glyph-name="Ccedilla.001" horiz-adv-x="626" 
d="M338 -17l-15 -18q31 -2 52.5 -14.5t21.5 -35.5q0 -15 -8.5 -26.5t-22 -20.5t-29.5 -15t-31 -11l-66 -19h-45l32 40h83q22 13 22 34q0 19 -21.5 26.5t-50.5 8.5l47 52q-59 5 -106.5 28t-81 62t-51.5 92.5t-18 118.5q0 58 16 118.5t51 114.5t90.5 98t134.5 71l99 32
q66 0 113 -19t76 -39l-8 -173h-36l-36 122q-26 21 -66.5 37t-102.5 24q-96 -41 -145.5 -132.5t-49.5 -214.5q0 -65 14.5 -116t41 -87.5t62.5 -59t79 -30.5q68 26 111 60l75 137h38l-37 -176z" />
    <glyph glyph-name="Ccedilla.sc" horiz-adv-x="539" 
d="M181 -144h65q24 16 24 39q0 24 -15.5 32.5t-35.5 9.5l41 51q-96 9 -151.5 68t-55.5 153q0 43 13.5 86t43 81.5t75 69.5t110.5 51l88 30q53 0 90 -12.5t60 -24.5l-8 -147h-31l-30 95q-21 14 -54 26t-80 16q-75 -27 -113.5 -89.5t-38.5 -146.5q0 -44 12 -80t33 -62t49 -43
t61 -24q27 9 49 19.5t39 24.5l62 105h34l-31 -145l-196 -52h-5l-15 -18q30 -3 47.5 -17.5t17.5 -35.5q0 -17 -8.5 -29.5t-22 -21.5t-29.5 -15.5t-30 -12.5l-53 -19h-36z" />
    <glyph glyph-name="Ccircumflex.002" horiz-adv-x="626" 
d="M305 747l136 108h65l91 -108h-46l-86 55h-2l-112 -55h-46zM337 -18q-65 0 -118 21.5t-90.5 61.5t-58 95.5t-20.5 124.5q0 58 16 118.5t51 114.5t90.5 98t134.5 71l99 32q66 0 113 -19t76 -39l-8 -173h-36l-36 122q-26 21 -66.5 37t-102.5 24q-96 -41 -145.5 -132.5
t-49.5 -214.5q0 -65 14.5 -116t41 -87.5t62.5 -59t79 -30.5q68 26 111 60l75 137h38l-37 -176z" />
    <glyph glyph-name="Ccircumflex.sc" horiz-adv-x="539" 
d="M263 563l114 103h60l70 -103h-39l-70 51h-3l-94 -51h-38zM290 -13q-54 0 -98 16t-75 45t-48 70t-17 91q0 43 14 86t43 81.5t75 69.5t111 51l88 30q52 0 89.5 -12.5t60.5 -24.5l-8 -147h-31l-30 95q-21 14 -54 26t-80 16q-75 -27 -114 -89.5t-39 -146.5q0 -44 12 -80
t33 -62t49.5 -43t61.5 -24q26 9 48.5 19.5t39.5 24.5l62 105h34l-31 -145z" />
    <glyph glyph-name="Cdotaccent.002" horiz-adv-x="626" 
d="M466 854l46 -6l-1 -48l-19 -42l-45 -6l-49 6l3 49l19 41zM337 -18q-65 0 -118 21.5t-90.5 61.5t-58 95.5t-20.5 124.5q0 58 16 118.5t51 114.5t90.5 98t134.5 71l99 32q66 0 113 -19t76 -39l-8 -173h-36l-36 122q-26 21 -66.5 37t-102.5 24q-96 -41 -145.5 -132.5
t-49.5 -214.5q0 -65 14.5 -116t41 -87.5t62.5 -59t79 -30.5q68 26 111 60l75 137h38l-37 -176z" />
    <glyph glyph-name="Cdotaccent.sc" horiz-adv-x="539" 
d="M361 657l41 4l43 -4l-1 -50l-17 -42l-39 -4l-48 4l5 51zM290 -13q-54 0 -98 16t-75 45t-48 70t-17 91q0 43 14 86t43 81.5t75 69.5t111 51l88 30q52 0 89.5 -12.5t60.5 -24.5l-8 -147h-31l-30 95q-21 14 -54 26t-80 16q-75 -27 -114 -89.5t-39 -146.5q0 -44 12 -80
t33 -62t49.5 -43t61.5 -24q26 9 48.5 19.5t39.5 24.5l62 105h34l-31 -145z" />
    <glyph glyph-name="D.sc" horiz-adv-x="573" 
d="M262 482l-78 -442h105q33 18 61 44.5t48 60.5t31.5 74t11.5 85q0 39 -10 72t-28 56.5t-42 36.5t-52 13h-47zM123 1l-114 -2v28l60 8l78 444l-57 8l5 26l114 -1l129 1q52 0 94 -15t72 -41.5t46.5 -63.5t16.5 -82q0 -98 -58 -173.5t-177 -113.5l-76 -25z" />
    <glyph glyph-name="Dcaron.002" horiz-adv-x="673" 
d="M547 853l-135 -108h-66l-89 108h45l84 -56h3l113 56h45zM134 1l-140 -2v28l77 10l97 629l-74 8l5 27l139 -2l153 2q63 0 114 -20.5t87 -58t56 -90t20 -115.5q0 -62 -17 -121t-52 -110t-88 -91.5t-126 -64.5l-91 -31zM337 45q42 24 77.5 60.5t61.5 83.5t41 102.5t15 117.5
q0 61 -13.5 108.5t-37.5 80.5t-55.5 50.5t-67.5 18.5h-65l-97 -622h141z" />
    <glyph glyph-name="Dcaron.sc" horiz-adv-x="573" 
d="M280 562l-69 103h37l71 -50h3l94 50h38l-114 -103h-60zM110 1l-113 -2v28l60 8l78 444l-57 8l5 26l115 -1l128 1q52 0 94.5 -15t72.5 -41.5t46 -63.5t16 -82q0 -98 -58 -173.5t-177 -113.5l-76 -25zM278 40q33 18 60.5 44.5t47.5 60.5t31.5 74t11.5 85q0 39 -10 72
t-28 56.5t-42.5 36.5t-51.5 13h-47l-78 -442h106z" />
    <glyph glyph-name="Dcroat.sc" horiz-adv-x="573" 
d="M107 1l-110 -2v28l60 8l38 219h-63l6 28h62l35 197l-57 8l5 26l114 -1l129 1q52 0 94.5 -15t72.5 -41.5t46 -63.5t16 -82q0 -98 -58 -173.5t-177 -113.5l-76 -25zM278 40q33 18 60.5 44.5t47.5 60.5t31.5 74t11.5 85q0 39 -10 72t-28 56.5t-42.5 36.5t-51.5 13h-47
l-35 -200h85l-5 -28h-85l-38 -214h106z" />
    <glyph glyph-name="E.sc" horiz-adv-x="504" 
d="M10 27l59 8l78 444l-57 7l5 27l110 -1l312 1l-12 -144h-26l-39 111l-178 1l-35 -196l92 2l54 86h23l-24 -104l-12 -103h-23l-24 86l-91 1l-39 -220l195 1l73 114h28l-34 -149l-329 2l-107 -2z" />
    <glyph glyph-name="Eacute.002" horiz-adv-x="587" 
d="M339 747l78 103h115l-149 -103h-44zM-6 27l77 10l98 627l-74 10l5 27l135 -2l374 2l-15 -182h-27l-46 146l-228 2l-44 -284l121 2l65 114h24l-28 -132l-15 -131h-24l-29 113l-119 2l-49 -317l248 2l86 155h30l-39 -192l-395 2l-132 -2z" />
    <glyph glyph-name="Eacute.sc" horiz-adv-x="504" 
d="M351 664h103l-117 -102h-35zM10 27l59 8l78 444l-57 7l5 27l110 -1l312 1l-12 -144h-26l-39 111l-178 1l-35 -196l92 2l54 86h23l-24 -104l-12 -103h-23l-24 86l-91 1l-39 -220l195 1l73 114h28l-34 -149l-330 2l-106 -2z" />
    <glyph glyph-name="Ebreve.002" horiz-adv-x="587" 
d="M388 808q24 0 44.5 6t37.5 15t30 19.5t22 18.5l17 -13q-11 -15 -23 -29t-29 -28t-40.5 -27.5t-57.5 -25.5q-31 0 -54 10t-39.5 26t-27.5 35.5t-17 38.5l22 14q6 -9 15.5 -19.5t23.5 -19.5t33 -15t43 -6zM-6 27l77 10l98 627l-74 10l5 27l135 -2l374 2l-15 -182h-27
l-46 146l-228 2l-44 -284l121 2l65 114h24l-28 -132l-15 -131h-24l-29 113l-119 2l-49 -317l248 2l86 155h30l-39 -192l-395 2l-132 -2z" />
    <glyph glyph-name="Ebreve.sc" horiz-adv-x="504" 
d="M333 621q40 0 67.5 15t41.5 27l15 -15q-18 -29 -44.5 -50t-80.5 -40q-50 0 -77.5 27t-37.5 61l20 16q10 -11 33 -26t63 -15zM10 27l59 8l78 444l-57 7l5 27l110 -1l312 1l-12 -144h-26l-39 111l-178 1l-35 -196l92 2l54 86h23l-24 -104l-12 -103h-23l-24 86l-91 1
l-39 -220l195 1l73 114h28l-34 -149l-329 2l-107 -2z" />
    <glyph glyph-name="Ecaron.002" horiz-adv-x="587" 
d="M551 853l-136 -108h-66l-89 108h45l85 -56h3l113 56h45zM-6 27l77 10l98 627l-74 10l5 27l135 -2l374 2l-15 -182h-27l-46 146l-228 2l-44 -284l121 2l65 114h24l-28 -132l-15 -131h-24l-29 113l-119 2l-49 -317l248 2l86 155h30l-39 -192l-395 2l-132 -2z" />
    <glyph glyph-name="Ecaron.sc" horiz-adv-x="504" 
d="M331 616h1l95 50h38l-114 -103h-60l-70 103h39zM10 27l59 8l78 444l-57 7l5 27l111 -1l311 1l-12 -144h-26l-39 111l-178 1l-35 -196l92 2l54 86h23l-24 -104l-12 -103h-23l-24 86l-91 1l-39 -220l195 1l73 114h28l-34 -149l-329 2l-107 -2z" />
    <glyph glyph-name="Ecircumflex.002" horiz-adv-x="587" 
d="M238 747l136 108h65l91 -108h-46l-85 55h-3l-112 -55h-46zM-6 27l77 10l98 627l-74 10l5 27l135 -2l374 2l-15 -182h-27l-46 146l-228 2l-44 -284l121 2l65 114h24l-28 -132l-15 -131h-24l-29 113l-119 2l-49 -317l248 2l86 155h30l-39 -192l-395 2l-132 -2z" />
    <glyph glyph-name="Ecircumflex.sc" horiz-adv-x="504" 
d="M318 666h60l69 -103h-37l-71 51h-3l-95 -51h-37zM517 513l-12 -144h-26l-39 111l-178 1l-35 -196l92 2l54 86h23l-24 -104l-12 -103h-23l-24 86l-91 1l-39 -220l195 1l73 114h28l-34 -149l-328 2l-108 -2l1 28l59 8l78 444l-57 7l5 27l110 -1z" />
    <glyph glyph-name="Edieresis.002" horiz-adv-x="587" 
d="M309 854l44 -6l-1 -46l-19 -42l-43 -5l-45 5l2 50l19 38zM512 854l45 -6l-2 -46l-18 -42l-43 -5l-46 5l3 50l19 38zM-6 27l77 10l98 627l-74 10l5 27l135 -2l374 2l-15 -182h-27l-46 146l-228 2l-44 -284l121 2l65 114h24l-28 -132l-15 -131h-24l-29 113l-119 2l-49 -317
l248 2l86 155h30l-39 -192l-395 2l-132 -2z" />
    <glyph glyph-name="Edieresis.sc" horiz-adv-x="504" 
d="M265 653l34 -5l-2 -44l-16 -38l-42 -6l-34 6l2 45l16 37zM439 653l34 -5l-3 -44l-15 -38l-43 -6l-34 6l2 45l16 37zM10 27l59 8l78 444l-57 7l5 27l109 -1l313 1l-12 -144h-26l-39 111l-178 1l-35 -196l92 2l54 86h23l-24 -104l-12 -103h-23l-24 86l-91 1l-39 -220l195 1
l73 114h28l-34 -149l-328 2l-108 -2z" />
    <glyph glyph-name="Edotaccent.002" horiz-adv-x="587" 
d="M411 854l45 -6l-2 -48l-18 -42l-44 -6l-51 6l4 49l19 41zM-6 27l77 10l98 627l-74 10l5 27l135 -2l374 2l-15 -182h-27l-46 146l-228 2l-44 -284l121 2l65 114h24l-28 -132l-15 -131h-24l-29 113l-119 2l-49 -317l248 2l86 155h30l-39 -192l-395 2l-132 -2z" />
    <glyph glyph-name="Edotaccent.sc" horiz-adv-x="504" 
d="M303 653l41 3l44 -4l-2 -50l-17 -41l-38 -5l-48 5l4 50zM10 27l59 8l78 444l-57 7l5 27l111 -1l311 1l-12 -144h-26l-39 111l-178 1l-35 -196l92 2l54 86h23l-24 -104l-12 -103h-23l-24 86l-91 1l-39 -220l195 1l73 114h28l-34 -149l-329 2l-107 -2z" />
    <glyph glyph-name="Egrave.002" horiz-adv-x="587" 
d="M391 747l-91 103h104l26 -103h-39zM-6 27l77 10l98 627l-74 10l5 27l135 -2l374 2l-15 -182h-27l-46 146l-228 2l-44 -284l121 2l65 114h24l-28 -132l-15 -131h-24l-29 113l-119 2l-49 -317l248 2l86 155h30l-39 -192l-395 2l-132 -2z" />
    <glyph glyph-name="Egrave.sc" horiz-adv-x="504" 
d="M329 562l-86 102h97l21 -102h-32zM10 27l59 8l78 444l-57 7l5 27l109 -1l313 1l-12 -144h-26l-39 111l-178 1l-35 -196l92 2l54 86h23l-24 -104l-12 -103h-23l-24 86l-91 1l-39 -220l195 1l73 114h28l-34 -149l-329 2l-107 -2z" />
    <glyph glyph-name="Emacron.002" horiz-adv-x="587" 
d="M262 819h287l-9 -48h-287zM-6 27l77 10l98 627l-74 10l5 27l135 -2l374 2l-15 -182h-27l-46 146l-228 2l-44 -284l121 2l65 114h24l-28 -132l-15 -131h-24l-29 113l-119 2l-49 -317l248 2l86 155h30l-39 -192l-395 2l-132 -2z" />
    <glyph glyph-name="Emacron.sc" horiz-adv-x="504" 
d="M221 632h238l-8 -52h-239zM10 27l59 8l78 444l-57 7l5 27l110 -1l312 1l-12 -144h-26l-39 111l-178 1l-35 -196l92 2l54 86h23l-24 -104l-12 -103h-23l-24 86l-91 1l-39 -220l195 1l73 114h28l-34 -149l-330 2l-106 -2z" />
    <glyph glyph-name="Eng.001" horiz-adv-x="681" 
d="M613 664l-76 10l5 27l95 -2l99 2v-27l-78 -10l-104 -664h1l-111 -171h-125l17 87h100l75 67l25 17h-59l-264 586l-5 45l-92 -594l79 -10l-6 -28l-98 2l-98 -2l1 28l77 10l99 625l-73 12l6 27l96 -2l94 2l235 -507l8 -45z" />
    <glyph glyph-name="Eng.sc" horiz-adv-x="576" 
d="M449 182l6 -47l60 343l-59 8l4 27l77 -1l78 1l-1 -27l-60 -8l-85 -478h-4l-105 -175h-106l17 85h76l80 79l22 11h-53l-210 401l-5 45l-73 -411l63 -8l-5 -28l-81 2l-76 -2l1 28l60 8l79 444l-56 7l5 27l80 -1l84 1z" />
    <glyph glyph-name="Eogonek.001" horiz-adv-x="587" 
d="M-6 27l77 10l98 627l-74 10l5 27l135 -2l374 2l-15 -182h-27l-46 146l-228 2l-44 -284l121 2l65 114h24l-28 -132l-15 -131h-24l-29 113l-119 2l-49 -317l248 2l86 155h30l-39 -192l-68 1l-53 -73l-4 -17q-8 -35 19 -51t75 -16l-4 -24q-98 0 -136.5 22.5t-27.5 69.5l4 17
l92 72l-292 1l-132 -2z" />
    <glyph glyph-name="Eogonek.sc" horiz-adv-x="504" 
d="M406 -182q-86 0 -118.5 18.5t-24.5 55.5l8 50l86 58l-241 1l-107 -2l1 28l59 8l78 444l-57 7l5 27l109 -1l313 1l-12 -144h-26l-39 111l-178 1l-35 -196l92 2l54 86h23l-24 -104l-12 -103h-23l-24 86l-91 1l-39 -220l195 1l73 114h28l-34 -149l-53 1l-54 -76l-5 -29
q-2 -10 0 -20t11 -18t24.5 -13t40.5 -5l-3 -21v0z" />
    <glyph glyph-name="Eth.sc" horiz-adv-x="573" 
d="M109 1l-117 -2l1 28l60 8l38 220h-59l6 27h58l35 197l-57 8l5 26l117 -1l126 1q52 0 94.5 -15t72.5 -41.5t46 -63.5t16 -82q0 -98 -57.5 -173.5t-176.5 -113.5l-77 -25zM274 40q33 18 60.5 44.5t47.5 60.5t32 74t12 85q0 39 -10.5 72t-28.5 56.5t-42 36.5t-51 13h-48
l-35 -200h90l-6 -27h-89l-38 -215h106z" />
    <glyph glyph-name="Euro.sc" horiz-adv-x="546" 
d="M366 480q-60 -22 -97.5 -64.5t-53.5 -97.5h240l-23 -35h-224q-1 -12 -2 -25t0 -27h186l-24 -34h-160q9 -66 48.5 -104.5t96.5 -50.5q17 1 35.5 6t36.5 11.5t34 13.5t28 13l12 -21q-25 -15 -69.5 -35t-110.5 -43q-50 0 -92 14.5t-73.5 41.5t-50 65t-20.5 85v4h-58l6 34h53
q3 29 10 52h-52l7 35h57q28 60 88.5 107.5t158.5 76.5l80 24q15 -1 33 -6.5t35.5 -13t33 -15.5t25.5 -14l-47 -67q-12 9 -30 20t-38 21t-41 18t-38 11z" />
    <glyph glyph-name="Euro.tlf" 
d="M334 -18q-58 0 -108.5 20t-88 56.5t-59.5 88.5t-25 117v9h-71l6 38h65q2 21 5 41.5t9 40.5h-63l6 38h69q35 85 110 152t196 106l92 29q19 -3 40 -10.5t41 -17t37 -19.5t29 -19l-54 -78q-14 12 -35.5 25.5t-45 26.5t-47.5 23t-44 15q-78 -32 -128.5 -94t-71.5 -139h306
l-27 -38h-287q-6 -43 -5 -82h240l-27 -38h-211q10 -95 59.5 -153t123.5 -73q21 3 44 11t45 18t41.5 19.5t34.5 17.5l14 -21q-29 -19 -80 -47t-135 -63z" />
    <glyph glyph-name="Euro.tlf.sc" 
d="M390 480q-60 -22 -97.5 -64.5t-52.5 -97.5h240l-24 -35h-223q-2 -12 -3 -25t0 -27h186l-24 -34h-160q10 -66 49 -104.5t97 -50.5q16 1 34.5 6t36.5 11.5t34 13.5t28 13l13 -21q-25 -15 -69.5 -35t-111.5 -43q-50 0 -92 14.5t-73 41.5t-49.5 65t-20.5 85v4h-59l6 34h53
q2 14 4 26.5t7 25.5h-53l6 35h58q28 60 88.5 107.5t158.5 76.5l80 24q15 -1 33 -6.5t35.5 -13t33 -15.5t25.5 -14l-46 -67q-12 9 -30 20t-38.5 21t-41.5 18t-38 11z" />
    <glyph glyph-name="F.sc" horiz-adv-x="476" 
d="M272 27l-5 -28l-146 2l-112 -2l1 28l59 8l78 444l-57 7l5 27l109 -1l313 1l-12 -147h-26l-39 114l-178 1l-36 -207l91 2l54 86h23l-23 -104l-13 -103h-22l-24 86l-92 2l-37 -208z" />
    <glyph glyph-name="G.sc" horiz-adv-x="557" 
d="M276 -13q-51 0 -92.5 16.5t-70.5 46t-45 69t-16 85.5q0 45 14 89t44.5 83t78.5 71t115 52l83 27q54 0 92.5 -12.5t61.5 -25.5l-7 -144h-33l-28 89q-24 20 -59.5 33t-81.5 15q-36 -15 -64.5 -39.5t-48.5 -55t-31 -67t-11 -75.5q0 -92 41.5 -143t106.5 -70q17 3 34 9t26 10
l26 155l-58 7l5 29l111 -1l97 1v-29l-42 -7l-29 -160z" />
    <glyph glyph-name="Gbreve.002" horiz-adv-x="665" 
d="M442 799q24 0 45 6t38 14.5t29.5 18.5t21.5 18l17 -9q-11 -15 -23 -29t-29 -28t-40.5 -27t-57.5 -25q-31 0 -54 10t-39.5 25.5t-27 35t-16.5 38.5l21 10q6 -8 15.5 -18t23.5 -19t33 -15t43 -6zM315 -18q-62 0 -112.5 22t-86 62t-55 94t-19.5 119q0 60 17 122t54 117
t95 100t139 71l97 29q66 0 113.5 -20t75.5 -42l-9 -166h-36l-34 113q-27 26 -70.5 46t-102.5 22q-96 -45 -149 -134t-53 -214q0 -67 14 -118t39 -87.5t60 -58.5t76 -31q25 8 49 20t37 21l33 218l-73 10l5 26h131l115 1v-27l-55 -10l-36 -232z" />
    <glyph glyph-name="Gbreve.sc" horiz-adv-x="557" 
d="M378 621q40 0 67 15t41 27l17 -15q-9 -15 -20 -27t-25.5 -23t-33.5 -20.5t-46 -19.5q-26 0 -45.5 7.5t-33.5 19.5t-23 28t-14 33l20 16q10 -11 33 -26t63 -15zM276 -13q-51 0 -92.5 16.5t-70.5 46t-45 69t-16 85.5q0 45 14 89t44.5 83t78.5 71t115 52l83 27
q54 0 92.5 -12.5t61.5 -25.5l-7 -144h-33l-28 89q-24 20 -59.5 33t-81.5 15q-36 -15 -64.5 -39.5t-48.5 -55t-31 -67t-11 -75.5q0 -92 41.5 -143t106.5 -70q17 3 34 9t26 10l26 155l-58 7l5 29l111 -1l97 1v-29l-42 -7l-29 -160z" />
    <glyph glyph-name="Gcircumflex.002" horiz-adv-x="665" 
d="M309 747l136 108h65l91 -108h-46l-86 55h-2l-112 -55h-46zM315 -18q-62 0 -112.5 22t-86 62t-55 94t-19.5 119q0 60 17 122t54 117t95 100t139 71l97 29q66 0 113.5 -20t75.5 -42l-9 -166h-36l-34 113q-27 26 -70.5 46t-102.5 22q-96 -45 -149 -134t-53 -214
q0 -67 14 -118t39 -87.5t60 -58.5t76 -31q25 8 49 20t37 21l33 218l-73 10l5 26h131l115 1v-27l-55 -10l-36 -232z" />
    <glyph glyph-name="Gcircumflex.sc" horiz-adv-x="557" 
d="M299 563h-38l114 103h60l70 -103h-38l-71 51h-2zM276 -13q-51 0 -92.5 16.5t-70.5 46t-45 69t-16 85.5q0 45 14 89t44.5 83t78.5 71t115 52l83 27q54 0 92.5 -12.5t61.5 -25.5l-7 -144h-33l-28 89q-24 20 -59.5 33t-81.5 15q-36 -15 -64.5 -39.5t-48.5 -55t-31 -67
t-11 -75.5q0 -92 41.5 -143t106.5 -70q17 3 34 9t26 10l26 155l-58 7l5 29l112 -1l96 1v-29l-42 -7l-29 -160z" />
    <glyph glyph-name="Gcommaaccent.001" horiz-adv-x="662" 
d="M297 -105l-42 28l6 34h112l-12 -63l-93 -71l-22 9zM315 -18q-62 0 -112.5 22t-86 62t-55 94t-19.5 119q0 60 17 122t54 117t95 100t139 71l97 29q66 0 113.5 -20t75.5 -42l-9 -166h-36l-34 113q-27 26 -70.5 46t-102.5 22q-96 -45 -149 -134t-53 -214q0 -67 14 -118
t39 -87.5t60 -58.5t76 -31q25 8 49 20t37 21l33 218l-73 10l5 26h131l115 1v-27l-55 -10l-36 -232z" />
    <glyph glyph-name="Gcommaaccent.sc" horiz-adv-x="557" 
d="M241 -99l-24 30l6 31h99l-12 -58l-93 -91l-24 5zM276 -13q-51 0 -92.5 16.5t-70.5 46t-45 69t-16 85.5q0 45 14 89t44.5 83t78.5 71t115 52l83 27q54 0 92.5 -12.5t61.5 -25.5l-7 -144h-33l-28 89q-24 20 -59.5 33t-81.5 15q-36 -15 -64.5 -39.5t-48.5 -55t-31 -67
t-11 -75.5q0 -92 41.5 -143t106.5 -70q17 3 34 9t26 10l26 155l-58 7l5 29l110 -1l98 1v-29l-42 -7l-29 -160z" />
    <glyph glyph-name="Gdotaccent.002" horiz-adv-x="665" 
d="M468 854l45 -6l-1 -48l-18 -42l-45 -6l-51 6l4 49l19 41zM315 -18q-62 0 -112.5 22t-86 62t-55 94t-19.5 119q0 60 17 122t54 117t95 100t139 71l97 29q66 0 113.5 -20t75.5 -42l-9 -166h-36l-34 113q-27 26 -70.5 46t-102.5 22q-96 -45 -149 -134t-53 -214
q0 -67 14 -118t39 -87.5t60 -58.5t76 -31q25 8 49 20t37 21l33 218l-73 10l5 26h131l115 1v-27l-55 -10l-36 -232z" />
    <glyph glyph-name="Gdotaccent.sc" horiz-adv-x="557" 
d="M357 657l41 4l43 -4l-1 -50l-18 -42l-38 -4l-48 4l4 51zM276 -13q-51 0 -92.5 16.5t-70.5 46t-45 69t-16 85.5q0 45 14 89t44.5 83t78.5 71t115 52l83 27q54 0 92.5 -12.5t61.5 -25.5l-7 -144h-33l-28 89q-24 20 -59.5 33t-81.5 15q-36 -15 -64.5 -39.5t-48.5 -55
t-31 -67t-11 -75.5q0 -92 41.5 -143t106.5 -70q17 3 34 9t26 10l26 155l-58 7l5 29l111 -1l97 1v-29l-42 -7l-29 -160z" />
    <glyph glyph-name="H.sc" horiz-adv-x="599" 
d="M123 1l-114 -2l1 28l60 8l78 443l-57 8l5 27l113 -1l111 1v-27l-57 -8l-36 -197h199l34 197l-55 8l6 27l112 -1l112 1l-1 -27l-58 -8l-79 -443l57 -8l-4 -28l-114 2l-113 -2l2 28l57 8l38 215h-197l-38 -215l55 -8l-5 -28z" />
    <glyph glyph-name="Hbar.sc" horiz-adv-x="599" 
d="M91 486l5 27l113 -1l111 1v-27l-57 -8l-18 -96h198l17 96l-55 8l6 27l112 -1l112 1l-1 -27l-58 -8l-79 -443l57 -8l-4 -28l-114 2l-113 -2l2 28l57 8l38 215h-197l-38 -215l55 -8l-5 -28l-112 2l-114 -2l1 28l60 8l78 443zM426 281l13 76h-198l-14 -76h199z" />
    <glyph glyph-name="Hcircumflex.002" horiz-adv-x="701" 
d="M290 747l136 108h65l91 -108h-46l-85 55h-3l-112 -55h-46zM129 1l-136 -2l1 28l78 10l96 627l-74 10l6 27l135 -2l132 2l-1 -27l-73 -10l-44 -283h257l43 283l-71 10l5 27l134 -2l132 2l-1 -27l-74 -10l-97 -627l73 -10l-5 -28l-134 2l-135 -2v28l76 10l48 308h-256
l-48 -308l72 -10l-5 -28z" />
    <glyph glyph-name="Hcircumflex.sc" horiz-adv-x="599" 
d="M258 563l113 103h60l70 -103h-38l-71 51h-3l-94 -51h-37zM91 486l5 27l113 -1l111 1v-27l-57 -8l-36 -197h199l34 197l-55 8l6 27l112 -1l112 1l-1 -27l-58 -8l-79 -443l57 -8l-4 -28l-114 2l-113 -2l2 28l57 8l38 215h-197l-38 -215l55 -8l-5 -28l-112 2l-114 -2l1 28
l60 8l78 443z" />
    <glyph glyph-name="I.sc" horiz-adv-x="285" 
d="M10 27l60 8l78 443l-57 8l5 27l114 -1l111 1l-1 -27l-57 -8l-79 -443l57 -8l-5 -28l-114 2l-113 -2z" />
    <glyph glyph-name="IJ.sc" horiz-adv-x="509" 
d="M204 -127l18 91h77q12 18 19 38.5t12 44.5l78 432l-53 7l6 28l107 -1l114 1l-2 -28l-58 -7l-69 -382q-9 -54 -35.5 -87.5t-62.5 -63.5l-99 -73h-52zM183 35l56 -8l-5 -28l-112 2l-114 -2l1 28l61 8l77 444l-57 7l6 28l115 -1l103 1l-1 -28l-51 -7z" />
    <glyph glyph-name="Iacute.002" horiz-adv-x="321" 
d="M284 850h114l-149 -103h-44zM368 674l-74 -10l-97 -627l73 -10l-6 -28l-135 2l-135 -2v28l78 10l98 627l-74 10l5 27l136 -2l132 2z" />
    <glyph glyph-name="Iacute.sc" horiz-adv-x="285" 
d="M243 664h103l-117 -102h-35zM10 27l60 8l78 443l-57 8l5 27l114 -1l111 1l-1 -27l-57 -8l-79 -443l57 -8l-5 -28l-114 2l-113 -2z" />
    <glyph glyph-name="Ibreve.002" horiz-adv-x="321" 
d="M255 799q24 0 45 6t38 14.5t30 18.5t22 18l16 -9q-11 -15 -23 -29t-29 -28t-40.5 -27t-56.5 -25q-31 0 -54 10t-39.5 25.5t-27.5 35t-17 38.5l21 10q6 -8 16 -18t24 -19t32.5 -15t42.5 -6zM368 674l-74 -10l-97 -627l73 -10l-6 -28l-135 2l-135 -2v28l78 10l98 627
l-74 10l5 27l136 -2l132 2z" />
    <glyph glyph-name="Ibreve.sc" horiz-adv-x="285" 
d="M232 621q20 0 37 4.5t30.5 11t24 13.5t17.5 13l16 -15q-18 -29 -44.5 -50t-80.5 -40q-26 0 -45.5 7.5t-33.5 19.5t-23 28t-14 33l21 16q10 -11 32.5 -26t62.5 -15zM184 35l57 -8l-5 -28l-114 2l-113 -2l1 28l60 8l78 443l-57 8l5 27l114 -1l111 1l-1 -27l-57 -8z" />
    <glyph glyph-name="Icircumflex.002" horiz-adv-x="321" 
d="M95 747l136 108h65l91 -108h-46l-86 55h-2l-112 -55h-46zM368 674l-74 -10l-97 -627l73 -10l-6 -28l-135 2l-135 -2v28l78 10l98 627l-74 10l5 27l136 -2l132 2z" />
    <glyph glyph-name="Icircumflex.sc" horiz-adv-x="285" 
d="M96 563l114 103h60l70 -103h-37l-72 51h-3l-94 -51h-38zM184 35l57 -8l-5 -28l-114 2l-113 -2l1 28l60 8l78 443l-57 8l5 27l114 -1l111 1l-1 -27l-57 -8z" />
    <glyph glyph-name="Idieresis.002" horiz-adv-x="321" 
d="M171 854l42 -6l-1 -46l-19 -40l-41 -6l-46 6l4 48l18 38zM360 854l43 -6l-1 -46l-19 -40l-41 -6l-46 6l3 48l19 38zM368 674l-74 -10l-97 -627l73 -10l-6 -28l-135 2l-135 -2v28l78 10l98 627l-74 10l5 27l136 -2l132 2z" />
    <glyph glyph-name="Idieresis.sc" horiz-adv-x="285" 
d="M163 653l33 -5l-1 -44l-17 -38l-41 -5l-35 5l2 45l17 37zM337 652l19 -16l-5 -43l-17 -29l-51 -2l-18 16l4 43l18 28zM263 478l-79 -443l57 -8l-5 -28l-114 2l-113 -2l1 28l60 8l78 443l-57 8l5 27l114 -1l111 1l-1 -27z" />
    <glyph glyph-name="Idotaccent.002" horiz-adv-x="321" 
d="M270 854l46 -6l-2 -48l-18 -42l-45 -6l-50 6l3 49l19 41zM368 674l-74 -10l-97 -627l73 -10l-6 -28l-135 2l-135 -2v28l78 10l98 627l-74 10l5 27l136 -2l132 2z" />
    <glyph glyph-name="Idotaccent.sc" horiz-adv-x="285" 
d="M197 653l41 3l43 -4l-2 -50l-16 -41l-39 -5l-47 5l3 50zM263 478l-79 -443l57 -8l-5 -28l-114 2l-113 -2l1 28l60 8l78 443l-57 8l5 27l114 -1l111 1l-1 -27z" />
    <glyph glyph-name="Igrave.002" horiz-adv-x="321" 
d="M241 747l-92 103h104l26 -103h-38zM368 674l-74 -10l-97 -627l73 -10l-6 -28l-135 2l-135 -2v28l78 10l98 627l-74 10l5 27l136 -2l132 2z" />
    <glyph glyph-name="Igrave.sc" horiz-adv-x="285" 
d="M212 562l-86 102h98l20 -102h-32zM10 27l60 8l78 443l-57 8l5 27l114 -1l111 1l-1 -27l-57 -8l-79 -443l57 -8l-5 -28l-114 2l-113 -2z" />
    <glyph glyph-name="Imacron.002" horiz-adv-x="321" 
d="M113 819h287l-9 -48h-287zM368 674l-74 -10l-97 -627l73 -10l-6 -28l-135 2l-135 -2v28l78 10l98 627l-74 10l5 27l136 -2l132 2z" />
    <glyph glyph-name="Imacron.sc" horiz-adv-x="285" 
d="M117 632h237l-8 -52h-238zM263 478l-79 -443l57 -8l-5 -28l-114 2l-113 -2l1 28l60 8l78 443l-57 8l5 27l114 -1l111 1l-1 -27z" />
    <glyph glyph-name="Iogonek.001" horiz-adv-x="321" 
d="M368 674l-74 -10l-97 -627l73 -10l-6 -28l-110 1l-55 -73l-4 -17q-8 -35 19 -51t76 -16l-5 -24q-98 0 -136.5 22.5t-27.5 69.5l5 17l93 73l-125 -2v28l78 10l98 627l-74 10l5 27l136 -2l132 2z" />
    <glyph glyph-name="Iogonek.sc" horiz-adv-x="285" 
d="M263 478l-79 -443l57 -8l-5 -28l-92 1l-50 -77l-6 -29q-2 -10 0.5 -19.5t11 -17.5t24.5 -13t41 -5l-3 -21q-86 0 -118.5 18.5t-24.5 55.5l8 50l80 58l-98 -1l1 28l60 8l78 443l-57 8l5 27l114 -1l111 1l-1 -27z" />
    <glyph glyph-name="Itilde.002" horiz-adv-x="321" 
d="M138 836l61 18l160 -62l49 61h18l-53 -96l-61 -14l-160 62l-48 -62h-17zM368 674l-74 -10l-97 -627l73 -10l-6 -28l-135 2l-135 -2v28l78 10l98 627l-74 10l5 27l136 -2l132 2z" />
    <glyph glyph-name="Itilde.sc" horiz-adv-x="285" 
d="M133 652l49 13l139 -44l41 44h18l-44 -97l-50 -10l-138 46l-40 -45h-18zM263 478l-79 -443l57 -8l-5 -28l-114 2l-113 -2l1 28l60 8l78 443l-57 8l5 27l114 -1l111 1l-1 -27z" />
    <glyph glyph-name="J.sc" horiz-adv-x="283" 
d="M-39 -36h91q12 18 19 38.5t12 44.5l77 431l-60 8l5 27l117 -1l112 1l-1 -27l-58 -8l-69 -381q-10 -53 -36 -86.5t-62 -61.5l-110 -76h-56z" />
    <glyph glyph-name="Jcircumflex.002" horiz-adv-x="324" 
d="M101 747l136 108h65l91 -108h-45l-86 55h-3l-112 -55h-46zM177 664l-77 10l6 27l137 -2l133 2v-27l-75 -10l-86 -558q-11 -66 -38.5 -109.5t-69.5 -75.5l-128 -95h-66l20 98h111q17 38 26.5 75t17.5 87z" />
    <glyph glyph-name="Jcircumflex.sc" horiz-adv-x="283" 
d="M99 563l114 103h60l70 -103h-38l-71 51h-2l-95 -51h-38zM-58 -127l19 91h91q12 18 19 38.5t12 44.5l77 431l-60 8l5 27l117 -1l112 1l-1 -27l-58 -8l-69 -381q-10 -53 -36 -86.5t-62 -61.5l-110 -76h-56z" />
    <glyph glyph-name="K.sc" horiz-adv-x="592" 
d="M228 280l11 5l247 193l-64 10l3 25l94 -1l89 1v-23l-72 -12l-256 -195l63 -13l180 -236l39 -7l-4 -28l-79 2l-77 -2l-171 249l-6 15l-41 -228l53 -8l-5 -28l-110 2l-113 -2l1 28l60 8l78 443l-56 8l5 27l114 -1l106 1l-1 -27l-54 -8z" />
    <glyph glyph-name="Kcommaaccent.001" horiz-adv-x="696" 
d="M304 -105l-41 28l6 37h112l-12 -66l-95 -71l-21 9zM293 664l-43 -281l13 8l305 273l-76 10l4 27l113 -2l103 2l-1 -27l-86 -10l-316 -278l68 -14l229 -335l50 -10l-5 -28l-89 2l-87 -2l-221 351l-7 17l-51 -330l69 -10l-6 -28l-130 2l-136 -2l1 28l79 10l96 627l-74 10
l6 27l134 -2l128 2v-27z" />
    <glyph glyph-name="Kcommaaccent.sc" horiz-adv-x="592" 
d="M257 -99l-23 30l6 31h98l-11 -58l-93 -91l-24 5zM228 280l11 5l247 193l-64 10l3 25l94 -1l89 1v-23l-72 -12l-256 -195l63 -13l180 -236l39 -7l-4 -28l-79 2l-77 -2l-171 249l-6 15l-41 -228l53 -8l-5 -28l-110 2l-113 -2l1 28l60 8l78 443l-56 8l5 27l114 -1l106 1
l-1 -27l-54 -8z" />
    <glyph glyph-name="L.sc" horiz-adv-x="468" 
d="M183 33l166 1l86 120h27l-40 -155l-304 2l-109 -2l1 28l59 8l79 443l-57 8l5 27l108 -1l119 1l-1 -27l-59 -8z" />
    <glyph glyph-name="Lacute.002" horiz-adv-x="549" 
d="M204 747l79 103h114l-149 -103h-44zM195 34l211 2l104 158h29l-49 -195l-365 2l-132 -2l1 28l77 10l98 627l-75 10l7 27l131 -2l138 2l-1 -27l-76 -10z" />
    <glyph glyph-name="Lacute.sc" horiz-adv-x="468" 
d="M242 664h103l-116 -102h-35zM183 33l166 1l86 120h27l-40 -155l-305 2l-108 -2l1 28l59 8l79 443l-57 8l5 27l108 -1l119 1l-1 -27l-59 -8z" />
    <glyph glyph-name="Lcaron.sc" horiz-adv-x="468" 
d="M378 310q3 4 13.5 19.5t21.5 33t20.5 32.5t9.5 18l-50 3l4 55l16 43l67 6l29 -6l-5 -51l-15 -47l-90 -116zM183 33l166 1l86 120h27l-40 -155l-305 2l-108 -2l1 28l59 8l79 443l-57 8l5 27l108 -1l119 1l-1 -27l-59 -8z" />
    <glyph glyph-name="Lcommaaccent.001" horiz-adv-x="549" 
d="M231 -105l-41 28l5 37h112l-11 -66l-95 -71l-21 9zM195 34l211 2l104 158h29l-49 -195l-365 2l-132 -2l1 28l77 10l98 627l-75 10l7 27l131 -2l138 2l-1 -27l-76 -10z" />
    <glyph glyph-name="Lcommaaccent.sc" horiz-adv-x="468" 
d="M193 -99l-23 30l5 31h99l-11 -58l-93 -91l-24 5zM183 33l166 1l86 120h27l-40 -155l-304 2l-109 -2l1 28l59 8l79 443l-57 8l5 27l108 -1l119 1l-1 -27l-59 -8z" />
    <glyph glyph-name="Ldot.sc" horiz-adv-x="468" 
d="M390 349l31 -7l-2 -51l-15 -44l-63 -5l-32 5l4 53l14 42zM183 33l166 1l86 120h27l-40 -155l-304 2l-109 -2l1 28l59 8l79 443l-57 8l5 27l108 -1l119 1l-1 -27l-59 -8z" />
    <glyph glyph-name="Lslash.sc" horiz-adv-x="474" 
d="M240 318l86 37l-6 -36l-87 -37l-44 -249l166 1l86 120h27l-40 -155l-305 2l-109 -2l1 28l60 8l35 195l-61 -25l6 35l61 26l38 212l-57 8l5 27l108 -1l119 1l-1 -27l-60 -8z" />
    <glyph glyph-name="M.sc" horiz-adv-x="739" 
d="M588 513l94 -1l93 1l-1 -27l-58 -9l-79 -442l56 -8l-5 -28l-110 2l-114 -2v28l61 8l70 401l12 41l-257 -478h-67l-94 417l-5 57l-76 -438l58 -8l-4 -28l-76 2l-77 -2l1 28l57 8l80 443l-58 8l5 27l87 -1l105 1l83 -368l-3 -35z" />
    <glyph glyph-name="N.sc" horiz-adv-x="576" 
d="M515 478l-59 8l4 27l76 -1l79 1l-1 -27l-60 -8l-85 -478h-73l-210 401l-5 45l-73 -411l63 -8l-5 -28l-79 2l-78 -2l1 28l60 8l79 444l-56 7l5 27l80 -1l84 1l187 -331l6 -47z" />
    <glyph glyph-name="Nacute.002" horiz-adv-x="681" 
d="M377 747l78 103h114l-148 -103h-44zM613 664l-76 10l5 27l95 -2l99 2v-27l-78 -10l-104 -664h-77l-264 586l-5 45l-92 -594l79 -10l-6 -28l-98 2l-98 -2l1 28l77 10l99 625l-73 12l6 27l96 -2l94 2l235 -507l8 -45z" />
    <glyph glyph-name="Nacute.sc" horiz-adv-x="576" 
d="M380 664h103l-117 -102h-35zM515 478l-59 8l4 27l76 -1l79 1l-1 -27l-60 -8l-85 -478h-73l-210 401l-5 45l-73 -411l63 -8l-5 -28l-81 2l-76 -2l1 28l60 8l79 444l-56 7l5 27l80 -1l84 1l187 -331l6 -47z" />
    <glyph glyph-name="Ncaron.002" horiz-adv-x="681" 
d="M590 853l-135 -108h-66l-89 108h45l85 -56h2l113 56h45zM613 664l-76 10l5 27l95 -2l99 2v-27l-78 -10l-104 -664h-77l-264 586l-5 45l-92 -594l79 -10l-6 -28l-98 2l-98 -2l1 28l77 10l99 625l-73 12l6 27l96 -2l94 2l235 -507l8 -45z" />
    <glyph glyph-name="Ncaron.sc" horiz-adv-x="576" 
d="M497 666l-114 -103h-60l-70 103h38l71 -50h3l94 50h38zM108 35l63 -8l-5 -28l-80 2l-77 -2l1 28l60 8l79 444l-56 7l5 27l80 -1l84 1l187 -331l6 -47l60 343l-59 8l4 27l76 -1l79 1l-1 -27l-60 -8l-85 -478h-73l-210 401l-5 45z" />
    <glyph glyph-name="Ncommaaccent.001" horiz-adv-x="681" 
d="M290 -105l-41 28l7 37h111l-12 -66l-95 -71l-20 9zM613 664l-76 10l5 27l95 -2l99 2v-27l-78 -10l-104 -664h-77l-264 586l-5 45l-92 -594l79 -10l-6 -28l-98 2l-98 -2l1 28l77 10l99 625l-73 12l6 27l96 -2l94 2l235 -507l8 -45z" />
    <glyph glyph-name="Ncommaaccent.sc" horiz-adv-x="576" 
d="M228 -99l-23 30l6 31h99l-11 -58l-93 -91l-25 5zM515 478l-59 8l4 27l75 -1l80 1l-1 -27l-60 -8l-85 -478h-73l-210 401l-5 45l-73 -411l63 -8l-5 -28l-80 2l-77 -2l1 28l60 8l79 444l-56 7l5 27l80 -1l84 1l187 -331l6 -47z" />
    <glyph glyph-name="Ntilde.002" horiz-adv-x="681" 
d="M326 836l61 18l160 -62l49 61h18l-54 -96l-60 -14l-161 62l-48 -62h-17zM613 664l-76 10l5 27l95 -2l99 2v-27l-78 -10l-104 -664h-77l-264 586l-5 45l-92 -594l79 -10l-6 -28l-98 2l-98 -2l1 28l77 10l99 625l-73 12l6 27l96 -2l94 2l235 -507l8 -45z" />
    <glyph glyph-name="Ntilde.sc" horiz-adv-x="576" 
d="M275 652l50 13l138 -44l42 44h17l-44 -97l-49 -10l-139 46l-41 -45h-17zM515 478l-59 8l4 27l75 -1l80 1l-1 -27l-60 -8l-85 -478h-73l-210 401l-5 45l-73 -411l63 -8l-5 -28l-79 2l-78 -2l1 28l60 8l79 444l-56 7l5 27l80 -1l84 1l187 -331l6 -47z" />
    <glyph glyph-name="O.sc" horiz-adv-x="590" 
d="M282 -13q-53 0 -95.5 16.5t-72.5 46.5t-46 72.5t-16 94.5q0 44 12.5 88t40.5 82.5t73 69.5t109 49l67 20q52 0 94.5 -16.5t72.5 -47t46.5 -73.5t16.5 -95q0 -44 -13 -87t-41 -81t-73 -69t-109 -50zM324 489q-35 -13 -62.5 -38t-46.5 -59.5t-29 -75.5t-10 -86
q0 -43 10 -78.5t28 -62.5t43 -44t54 -21q72 29 110.5 99t38.5 160q0 43 -10 79t-28 63t-43 43.5t-55 20.5z" />
    <glyph glyph-name="OE.sc" horiz-adv-x="796" 
d="M372 35l78 442q-4 1 -20.5 3t-36 4t-36.5 3.5t-21 1.5q-38 -14 -68 -39t-50 -59t-30.5 -74.5t-10.5 -85.5q0 -42 10 -77.5t27 -62.5t41 -44.5t53 -21.5zM280 -13q-52 0 -94 17t-72 47.5t-46 73.5t-16 96q0 43 13 86t42.5 80.5t76 68t113.5 50.5l67 20q3 0 21 -2t39 -4.5
t39 -4.5t22 -3l324 1l-13 -144h-26l-39 111l-165 1l-37 -203l84 1l55 86h21l-23 -104l-12 -102h-22l-24 86l-83 1l-39 -213l184 1l72 114h27l-33 -149l-348 2z" />
    <glyph glyph-name="Oacute.002" horiz-adv-x="696" 
d="M383 747l79 103h114l-149 -103h-44zM186 305q0 -63 13.5 -113.5t36.5 -86t55 -56.5t70 -25q46 18 82 54.5t60.5 85.5t37 108.5t12.5 123.5t-13 114t-36.5 86t-55.5 56.5t-69 25.5q-45 -17 -81 -53.5t-61 -86t-38 -109.5t-13 -124zM414 718q63 0 114 -22t87 -62
t55.5 -96.5t19.5 -125.5q0 -59 -15.5 -120t-49 -115.5t-87.5 -98.5t-132 -69l-80 -27q-62 0 -113 22t-87 62t-56 97t-20 126q0 59 15 120.5t49 116t88 98.5t131 68z" />
    <glyph glyph-name="Oacute.sc" horiz-adv-x="590" 
d="M332 562l49 102h103l-117 -102h-35zM292 -13q-53 0 -95.5 16.5t-72.5 46.5t-46 72.5t-16 94.5q0 44 12.5 88t40.5 82.5t73 69.5t110 49l65 20q52 0 95 -16.5t73 -47t46.5 -73.5t16.5 -95q0 -44 -13 -87t-41 -81t-73 -69t-109 -50zM335 489q-36 -13 -63.5 -38t-46.5 -59.5
t-28.5 -75.5t-9.5 -86q0 -86 37.5 -141.5t96.5 -64.5q73 29 111 99t38 160q0 43 -10 79t-28 63t-43 43.5t-54 20.5z" />
    <glyph glyph-name="Obreve.002" horiz-adv-x="696" 
d="M433 799q24 0 45 6t38 14.5t29.5 18.5t21.5 18l17 -9q-11 -15 -23 -29t-29 -28t-40.5 -27t-56.5 -25q-32 0 -54.5 10t-39 25.5t-27 35t-17.5 38.5l21 10q6 -8 15.5 -18t23.5 -19t33 -15t43 -6zM186 305q0 -63 13.5 -113.5t36.5 -86t55 -56.5t70 -25q46 18 82 54.5
t60.5 85.5t37 108.5t12.5 123.5t-13 114t-36.5 86t-55.5 56.5t-69 25.5q-45 -17 -81 -53.5t-61 -86t-38 -109.5t-13 -124zM414 718q63 0 114 -22t87 -62t55.5 -96.5t19.5 -125.5q0 -59 -15.5 -120t-49 -115.5t-87.5 -98.5t-132 -69l-80 -27q-62 0 -113 22t-87 62t-56 97
t-20 126q0 59 15 120.5t49 116t88 98.5t131 68z" />
    <glyph glyph-name="Obreve.sc" horiz-adv-x="590" 
d="M377 621q20 0 37 4.5t31 11t24.5 13.5t17.5 13l15 -15q-9 -15 -19 -27t-24.5 -23t-34.5 -20.5t-47 -19.5q-51 0 -78 27t-37 61l20 16q10 -11 32.5 -26t62.5 -15zM292 -13q-53 0 -95.5 16.5t-72.5 46.5t-46 72.5t-16 94.5q0 44 12.5 88t40.5 82.5t73 69.5t110 49l65 20
q52 0 95 -16.5t73 -47t46.5 -73.5t16.5 -95q0 -44 -13 -87t-41 -81t-73 -69t-109 -50zM335 489q-36 -13 -63.5 -38t-46.5 -59.5t-28.5 -75.5t-9.5 -86q0 -86 37.5 -141.5t96.5 -64.5q73 29 111 99t38 160q0 43 -10 79t-28 63t-43 43.5t-54 20.5z" />
    <glyph glyph-name="Ocircumflex.002" horiz-adv-x="696" 
d="M284 747l135 108h65l91 -108h-45l-86 55h-2l-113 -55h-45zM186 305q0 -63 13.5 -113.5t36.5 -86t55 -56.5t70 -25q46 18 82 54.5t60.5 85.5t37 108.5t12.5 123.5t-13 114t-36.5 86t-55.5 56.5t-69 25.5q-45 -17 -81 -53.5t-61 -86t-38 -109.5t-13 -124zM414 718
q63 0 114 -22t87 -62t55.5 -96.5t19.5 -125.5q0 -59 -15.5 -120t-49 -115.5t-87.5 -98.5t-132 -69l-80 -27q-62 0 -113 22t-87 62t-56 97t-20 126q0 59 15 120.5t49 116t88 98.5t131 68z" />
    <glyph glyph-name="Ocircumflex.sc" horiz-adv-x="590" 
d="M250 563l115 103h59l70 -103h-38l-71 51h-2l-95 -51h-38zM292 -13q-53 0 -95.5 16.5t-72.5 46.5t-46 72.5t-16 94.5q0 44 12.5 88t40.5 82.5t73 69.5t110 49l65 20q52 0 95 -16.5t73 -47t46.5 -73.5t16.5 -95q0 -44 -13 -87t-41 -81t-73 -69t-109 -50zM335 489
q-36 -13 -63.5 -38t-46.5 -59.5t-28.5 -75.5t-9.5 -86q0 -86 37.5 -141.5t96.5 -64.5q73 29 111 99t38 160q0 43 -10 79t-28 63t-43 43.5t-54 20.5z" />
    <glyph glyph-name="Odieresis.002" horiz-adv-x="696" 
d="M351 854l43 -6v-46l-19 -42l-42 -5l-46 5l2 50l19 38zM554 854l44 -6l-1 -46l-18 -42l-44 -5l-45 5l3 50l19 38zM186 305q0 -63 13.5 -113.5t36.5 -86t55 -56.5t70 -25q46 18 82 54.5t60.5 85.5t37 108.5t12.5 123.5t-13 114t-36.5 86t-55.5 56.5t-69 25.5
q-45 -17 -81 -53.5t-61 -86t-38 -109.5t-13 -124zM414 718q63 0 114 -22t87 -62t55.5 -96.5t19.5 -125.5q0 -59 -15.5 -120t-49 -115.5t-87.5 -98.5t-132 -69l-80 -27q-62 0 -113 22t-87 62t-56 97t-20 126q0 59 15 120.5t49 116t88 98.5t131 68z" />
    <glyph glyph-name="Odieresis.sc" horiz-adv-x="590" 
d="M311 653l33 -5l-2 -44l-15 -38l-43 -6l-34 6l2 45l16 37zM484 653l33 -5l-1 -44l-16 -38l-42 -6l-35 6l2 45l16 37zM292 -13q-53 0 -95.5 16.5t-72.5 46.5t-46 72.5t-16 94.5q0 44 12.5 88t40.5 82.5t73 69.5t110 49l65 20q52 0 95 -16.5t73 -47t46.5 -73.5t16.5 -95
q0 -44 -13 -87t-41 -81t-73 -69t-109 -50zM335 489q-36 -13 -63.5 -38t-46.5 -59.5t-28.5 -75.5t-9.5 -86q0 -86 37.5 -141.5t96.5 -64.5q73 29 111 99t38 160q0 43 -10 79t-28 63t-43 43.5t-54 20.5z" />
    <glyph glyph-name="Ograve.002" horiz-adv-x="696" 
d="M415 747l-92 103h104l26 -103h-38zM186 305q0 -63 13.5 -113.5t36.5 -86t55 -56.5t70 -25q46 18 82 54.5t60.5 85.5t37 108.5t12.5 123.5t-13 114t-36.5 86t-55.5 56.5t-69 25.5q-45 -17 -81 -53.5t-61 -86t-38 -109.5t-13 -124zM414 718q63 0 114 -22t87 -62t55.5 -96.5
t19.5 -125.5q0 -59 -15.5 -120t-49 -115.5t-87.5 -98.5t-132 -69l-80 -27q-62 0 -113 22t-87 62t-56 97t-20 126q0 59 15 120.5t49 116t88 98.5t131 68z" />
    <glyph glyph-name="Ograve.sc" horiz-adv-x="590" 
d="M361 562l-86 102h98l21 -102h-33zM292 -13q-53 0 -95.5 16.5t-72.5 46.5t-46 72.5t-16 94.5q0 44 12.5 88t40.5 82.5t73 69.5t110 49l65 20q52 0 95 -16.5t73 -47t46.5 -73.5t16.5 -95q0 -44 -13 -87t-41 -81t-73 -69t-109 -50zM335 489q-36 -13 -63.5 -38t-46.5 -59.5
t-28.5 -75.5t-9.5 -86q0 -86 37.5 -141.5t96.5 -64.5q73 29 111 99t38 160q0 43 -10 79t-28 63t-43 43.5t-54 20.5z" />
    <glyph glyph-name="Ohungarumlaut.002" horiz-adv-x="696" 
d="M302 750l73 100h116l-144 -100h-45zM475 750l73 100h116l-144 -100h-45zM186 305q0 -63 13.5 -113.5t36.5 -86t55 -56.5t70 -25q46 18 82 54.5t60.5 85.5t37 108.5t12.5 123.5t-13 114t-36.5 86t-55.5 56.5t-69 25.5q-45 -17 -81 -53.5t-61 -86t-38 -109.5t-13 -124z
M414 718q63 0 114 -22t87 -62t55.5 -96.5t19.5 -125.5q0 -59 -15.5 -120t-49 -115.5t-87.5 -98.5t-132 -69l-80 -27q-62 0 -113 22t-87 62t-56 97t-20 126q0 59 15 120.5t49 116t88 98.5t131 68z" />
    <glyph glyph-name="Ohungarumlaut.sc" horiz-adv-x="590" 
d="M266 562l50 102h106l-121 -102h-35zM413 562l50 102h107l-121 -102h-36zM292 -13q-53 0 -95.5 16.5t-72.5 46.5t-46 72.5t-16 94.5q0 44 12.5 88t40.5 82.5t73 69.5t110 49l65 20q52 0 95 -16.5t73 -47t46.5 -73.5t16.5 -95q0 -44 -13 -87t-41 -81t-73 -69t-109 -50z
M335 489q-36 -13 -63.5 -38t-46.5 -59.5t-28.5 -75.5t-9.5 -86q0 -86 37.5 -141.5t96.5 -64.5q73 29 111 99t38 160q0 43 -10 79t-28 63t-43 43.5t-54 20.5z" />
    </font>
</defs>
</svg>
