<?xml version="1.0" encoding="utf-8"?>
<!-- Generator: Adobe Illustrator 26.0.0, SVG Export Plug-In . SVG Version: 6.00 Build 0)  -->
<svg version="1.1" id="Layer_1" xmlns="http://www.w3.org/2000/svg" xmlns:xlink="http://www.w3.org/1999/xlink" x="0px" y="0px"
	 viewBox="0 0 931 266.8" style="enable-background:new 0 0 931 266.8;" xml:space="preserve">
<style type="text/css">
	.st0{fill:#FFED29;}
</style>
<path class="st0" d="M699,246.5v-34.1c-0.1-33.9-20.1-64.5-51.2-78.1c30.7-8.3,51.2-28.2,51.2-64.8c0-43.2-28.5-62.6-66.6-68
	l-2.1-0.3c-4.9-0.7-9.9-1.1-14.9-1.1h-99.7v8.6c9.6,0,14.9,5.3,14.9,12v225.7c0,4.3-2.5,8.1-6.9,10.1c-4.5-2-6.9-5.8-6.9-10.1v-34.1
	c-0.1-33.9-20.1-64.5-51.2-78.1c30.7-8.3,51.2-28.2,51.2-64.8c0-43.2-28.5-62.6-66.6-68l-2.1-0.3c-4.9-0.7-9.9-1.1-14.9-1.1h-99.7
	v8.6c9.6,0,14.9,5.3,14.9,12v162L292.2,0l-73.3,240.1l-8.1,26.6h64.3l-23.5-79.4c-1.3-4.6-1.9-9.4-1.9-14.1
	c-0.1-5.2,0.7-10.4,2.2-15.4l7.5-25.3l40,134.3h136.1v-8.5c-9.6,0-14.9-5.3-14.9-11.7v-96.8c-0.1-6.5,5.2-11.9,11.7-12h11.7v129
	h173.8v-8.5c-9.6,0-14.9-5.3-14.9-11.7v-96.8c-0.1-6.5,5.2-11.9,11.7-12h11.7v129h87.4v-8.5C704.3,258.2,699,252.9,699,246.5z
	 M444.1,129.3h-23.5V8.8h12.3c6.7,0,11.2,9.3,11.2,17.3C444.1,60.5,444.7,94.9,444.1,129.3z M626.5,129.3H603V8.8h12.3
	c6.7,0,11.2,9.3,11.2,17.3C626.5,60.5,627,94.9,626.5,129.3z M277.2,0.1L200.6,258l-2.5,8.7v-0.4l-0.1,0.3l-53-158l-46.6,158
	L20.8,26.8C17.9,16.7,12.8,8.7,0,8.7V0.1h88.2l40.2,134.3l7.7-25.3c1.3-5.1,1.9-10.2,1.9-15.5c0-4.8-0.3-9.9-1.6-14.1
	c0,0-1.6-5.3-16-52.8c-2.9-10.1-8-18.1-20.8-18.1V0.1h88.2l40.2,134.3l7.7-25.3c1.3-5.1,1.9-10.2,1.9-15.5c0-4.8-0.3-9.9-1.6-14.1
	l-24-79.4L277.2,0.1z M931,206.7v8.7H729.3c-6.7,0-12.2-5.5-12.1-12.2c0-2.2,0.6-4.4,1.8-6.3l79.9-131.2h-14.3
	c-4.6,0-8.9,2.5-11.3,6.4l-20.4,34.7h-22.6l-4.6-50.6c21.4-5.4,40.8-8.2,58.2-8.2c28.5,0,46.4,5.4,53.6,16.1
	c3.1,4.7,4.6,11.1,4.6,19.2s-2.2,16.8-6.5,26.1c-4.3,9.3-11.4,21.5-21.2,36.6l-33.5,51.4h12.1c4.4,0,8.4-2.2,10.8-5.9l21.5-32.8
	h20.3v35.1c0.2,4.2,2.7,8,6.4,9.9c4-1.9,6.5-6,6.5-10.4v-74.7l23.8-5.7c6.5-1.6,7.5-3.8,7.5-6.9v-3.2l-36-0.9l-6.3-36.2L897.7,51
	c4.8-1.2,9.7-1.7,14.7-1.7h4.5v144c0,7.4,6,13.4,13.4,13.4L931,206.7z"/>
</svg>
